**ABCDEFGHIJKLMNOPQRSTUVWXYZabcdefghijklmnopqrstuvwxyz**************************
**PARASOLID !"#$%&'()*+,-./:;<=>?@[\]^_`{|}~0123456789**************************
**PART1;
MC=AMD64;
MC_MODEL=AMD64 Family 23 Model 24 Stepping 1, AuthenticAMD;
MC_ID=unknown;
OS=Windows_NT;
OS_RELEASE=unknown;
FRU=CAD Exchanger 3.23.0 (cadexchanger.com);
APPL=unknown;
SITE=unknown;
USER=unknown;
FORMAT=text;
GUISE=transmit;
KEY=R0805_RC0805FR-0747KL;
FILE=R0805_RC0805FR-0747KL.x_t;
DATE=Thu Jun 19 14:38:36 2025;
**PART2;
SCH=SCH_1200000_12103;
USFLD_SIZE=0;
**PART3;
**END_OF_HEADER*****************************************************************
T51 : TRANSMIT FILE created by modeller version 120000017 SCH_1200000_121030 74
 4 1 4 0 2 105 206 475 12 2 68 0 3 0 0 0 0 1000.0 1.0e-08 0 0 0 1 0 1 1 12 14 20
 18 9 19 17 70 3 0 2 0 0 4 1 20 0 4 4 1 T74 20 4 1 0 5 0 0 0 0 0 0 0 0 0 0 0 0 0
 0 0 0 0 0 0 81 1 5 7 6 13 0 0 42 0 8 80 1 6 0 7 8001 0 0 0 0 3 5 0 0 0 FFFFTFTF
FFFFFF2 79 15 7 SDL/TYSA_COLOUR83 3 8 0.843137264251709 0.815686285495758 0.7529
41191196442 19 9 1 0 2 11 0 10 V13 10 2 0 2 0 0 0 0 9 13 19 11 3 0 2 0 9 12 S13
 12 4 0 2 0 13 0 0 11 0 14 13 5 5 1.0e-08 40 0 15 12 14 -0 0 40 0 10 50 14 6 0 1
3 41 0 0 +-9.499187200000003e-04 6.250406399999999e-04 5.5e-04 1.0 -7.1457012231
78996e-17 -1.062211776130384e-32 7.145701223178996e-17 1.0 -6.123233995736766e-1
7 15 15 8 0 16 13 0 17 16 0 15 24 36 17 21 19 0 29 +18 17 9 0 16 0 22 18 ?2 29 1
8 10 0 17 23 0 -9.499187200000002e-04 6.250406399999999e-04 4.999999999999998e-0
5 16 19 11 0 ?16 0 27 20 0 0 2 30 20 12 0 19 28 0 0 +-9.499187200000002e-04 6.25
0406399999999e-04 5.5e-04 -1.499759782661858e-32 -6.123233995736766e-17 -1.0 17
 21 0 86 91 87 22 16 19 0 94 -18 22 13 0 21 17 25 23 ?2 29 23 14 0 22 26 18 -9.4
99187200000002e-04 6.250406399999999e-04 5.5e-04 17 24 0 15 30 16 25 29 27 0 50
 +18 25 15 0 24 22 31 26 ?2 29 26 16 0 25 32 23 -9.499187200000002e-04 -6.249593
6e-04 5.000000000000004e-05 16 27 17 0 ?24 19 33 28 0 0 2 30 28 18 0 27 34 20 0
 +-9.4991872e-04 6.250406400000003e-04 4.999999999999996e-05 -2.449293598294707e
-16 -1.0 6.123233995736766e-17 17 29 0 104 90 50 17 24 27 0 87 -17 30 0 15 36 24
 31 35 33 0 0 -18 31 19 0 57 25 46 32 ?2 29 32 20 0 31 47 26 -9.499187200000002e
-04 -6.249593600000001e-04 5.5e-04 16 33 21 0 ?35 27 37 34 0 0 2 30 34 22 0 33 3
8 28 0 +-9.499187200000002e-04 -6.249593600000001e-04 5.5e-04 -1.499759782661858
e-32 -6.123233995736766e-17 -1.0 17 35 0 44 45 57 25 30 33 0 0 +17 36 0 15 16 30
 22 39 37 0 0 -16 37 23 0 ?39 33 48 38 0 0 2 30 38 24 0 37 49 34 0 +-9.499187200
000002e-04 6.250406399999999e-04 5.5e-04 -7.145701223178993e-17 -1.0 6.123233995
736766e-17 17 39 0 99 60 94 31 36 37 0 30 +14 40 25 42 1.0e-08 61 13 44 12 41 -0
 0 61 13 10 50 41 26 0 40 62 14 0 +9.500812799999995e-04 -6.249593600000003e-04
 5.5e-04 1.308028153573123e-16 1.0 -6.123233995736766e-17 -1.0 1.308028153573123
e-16 6.98823536927884e-33 81 1 42 27 6 40 0 0 63 5 43 83 3 43 0.843137264251709
 0.815686285495758 0.752941191196442 15 44 28 0 35 40 0 17 45 0 44 51 35 46 50 4
8 0 56 -18 46 29 0 71 31 52 47 ?2 29 47 30 0 46 53 32 9.500812799999995e-04 -6.2
49593600000004e-04 5.000000000000004e-05 16 48 31 0 ?50 37 54 49 0 0 2 30 49 32
 0 48 55 38 0 +-9.499187200000002e-04 -6.2495936e-04 5.000000000000004e-05 -1.0
 2.449293598294707e-16 0.0 17 50 0 104 29 71 25 45 48 0 35 +17 51 0 44 57 45 52
 56 54 0 0 -18 52 33 0 60 46 67 53 ?2 29 53 34 0 52 68 47 9.500812799999995e-04
 -6.249593600000003e-04 5.5e-04 16 54 35 0 ?56 48 58 55 0 0 2 30 55 36 0 54 59 4
9 0 +9.500812799999995e-04 -6.249593600000003e-04 5.5e-04 -1.499759782661858e-32
 -6.123233995736766e-17 -1.0 17 56 0 65 66 78 46 51 54 0 0 +17 57 0 44 35 51 31
 60 58 0 39 -16 58 37 0 ?60 54 69 59 0 0 2 30 59 38 0 58 70 55 0 +9.500812799999
995e-04 -6.249593600000003e-04 5.5e-04 1.0 -1.308028153573123e-16 -6.98823536927
884e-33 17 60 0 99 81 39 52 57 58 0 78 +14 61 39 63 1.0e-08 82 40 65 12 62 -0 0
 82 40 10 50 62 40 0 61 83 41 0 +9.500812799999997e-04 6.250406399999997e-04 5.5
e-04 -1.0 2.449293598294707e-16 0.0 -2.449293598294707e-16 -1.0 6.12323399573676
6e-17 81 1 63 41 6 61 0 0 84 42 64 83 3 64 0.843137264251709 0.815686285495758 0
.752941191196442 15 65 42 0 56 61 0 17 66 0 65 72 56 67 71 69 0 90 -18 67 43 0 6
6 52 73 68 ?2 29 68 44 0 67 74 53 9.500812799999997e-04 6.250406399999998e-04 4.
999999999999996e-05 16 69 45 0 ?71 58 75 70 0 0 2 30 70 46 0 69 76 59 0 +9.50081
2799999997e-04 6.250406399999998e-04 4.999999999999996e-05 -2.449293598294707e-1
6 -1.0 6.123233995736766e-17 17 71 0 104 50 90 46 66 69 0 45 +17 72 0 65 78 66 7
3 77 75 0 0 -18 73 47 0 81 67 0 74 ?2 29 74 48 0 73 0 68 9.500812799999997e-04 6
.250406399999997e-04 5.5e-04 16 75 49 0 ?77 69 79 76 0 0 2 30 76 50 0 75 80 70 0
 +9.500812799999997e-04 6.250406399999997e-04 5.5e-04 -1.499759782661858e-32 -6.
123233995736766e-17 -1.0 17 77 0 86 87 91 67 72 75 0 0 +17 78 0 65 56 72 52 81 7
9 0 51 -16 79 51 0 ?81 75 88 80 0 0 2 30 80 52 0 79 89 76 0 +9.500812799999997e-
04 6.250406399999997e-04 5.5e-04 2.449293598294707e-16 1.0 -6.123233995736766e-1
7 17 81 0 99 94 60 73 78 79 0 91 +14 82 53 84 1.0e-08 95 61 86 12 83 -0 0 95 61
 10 50 83 54 0 82 96 62 0 +9.500812799999997e-04 6.250406399999997e-04 5.5e-04 -
1.308028153573123e-16 -1.0 6.123233995736766e-17 1.0 -1.308028153573123e-16 -6.9
8823536927884e-33 81 1 84 55 6 82 0 0 97 63 85 83 3 85 0.843137264251709 0.81568
6285495758 0.752941191196442 15 86 56 0 77 82 0 17 87 0 86 21 77 17 90 88 0 0 +1
6 88 57 0 ?87 79 92 89 0 0 2 30 89 58 0 88 93 80 0 +-9.4991872e-04 6.25040640000
0003e-04 4.999999999999996e-05 -1.0 2.449293598294707e-16 0.0 17 90 0 104 71 29
 67 87 88 0 77 -17 91 0 86 77 21 73 94 92 0 72 -16 92 59 0 ?94 88 0 93 0 0 2 30
 93 60 0 92 0 89 0 +9.500812799999997e-04 6.250406399999997e-04 5.5e-04 -1.0 1.3
08028153573123e-16 6.98823536927884e-33 17 94 0 99 39 81 22 91 92 0 36 +14 95 61
 97 1.0e-08 100 82 99 12 96 -0 0 100 82 10 50 96 62 0 95 101 83 0 +-9.4991872000
00003e-04 -6.249593600000001e-04 5.5e-04 -1.499759782661858e-32 -6.1232339957367
66e-17 -1.0 2.449293598294707e-16 1.0 -6.123233995736766e-17 81 1 97 63 6 95 0 0
 102 84 98 83 3 98 0.843137264251709 0.815686285495758 0.752941191196442 15 99 6
4 0 94 95 0 14 100 65 102 1.0e-08 0 95 104 12 101 -0 0 0 95 10 50 101 66 0 100 0
 96 0 +-9.4991872e-04 6.250406400000003e-04 4.999999999999996e-05 1.499759782661
858e-32 6.123233995736766e-17 1.0 -2.449293598294707e-16 -1.0 6.123233995736766e
-17 81 1 102 67 6 100 0 0 0 97 103 83 3 103 0.843137264251709 0.815686285495758
 0.752941191196442 15 104 68 0 50 100 0 12 105 68 0 106 0 0 0 0 1000.0 1.0e-08 0
 0 0 1 0 1 1 113 115 121 119 110 120 118 70 106 0 105 0 0 4 1 20 0 107 107 1 T74
 20 107 1 0 108 0 0 0 0 0 0 0 0 0 0 0 0 0 0 0 0 0 0 0 81 1 108 7 6 114 0 0 143 0
 109 83 3 109 0.098039217293262 0.098039217293262 0.098039217293262 19 110 1 0 1
05 112 0 111 V13 111 2 0 105 0 0 0 0 110 114 19 112 3 0 105 0 110 113 S13 113 4
 0 105 0 114 0 0 112 0 14 114 5 108 1.0e-08 141 0 116 113 115 -0 0 141 0 111 50
 115 6 0 114 142 0 0 +0.00185108088032 -6.249593600000011e-04 5.999999999999999e
-04 4.184017074271514e-16 1.0 -6.123233995736766e-17 -1.0 4.184017074271514e-16
 -1.062211776130384e-32 15 116 8 0 117 114 0 17 117 0 116 125 137 118 122 120 0
 130 -18 118 9 0 117 0 123 119 ?105 29 119 10 0 118 124 0 6.000812800000002e-04
 -6.249593600000008e-04 5.999999999999999e-04 16 120 11 0 ?122 0 128 121 0 0 105
 30 121 12 0 120 129 0 0 +6.000812800000002e-04 -6.249593600000005e-04 5.9999999
99999999e-04 3.611605944365141e-31 -6.123233995736766e-17 -1.0 17 122 0 205 149
 191 123 117 120 0 137 +18 123 13 0 122 118 126 124 ?105 29 124 14 0 123 127 119
 6.000812799999999e-04 -6.249593600000005e-04 5.5e-04 17 125 0 116 131 117 126 1
30 128 0 136 +18 126 15 0 125 123 132 127 ?105 29 127 16 0 126 133 124 -5.999187
200000003e-04 -6.2495936e-04 5.999999999999999e-04 16 128 17 0 ?125 120 134 129
 0 0 105 30 129 18 0 128 135 121 0 +0.00185108088032 -6.249593600000011e-04 5.99
9999999999999e-04 -1.0 4.184017074271513e-16 3.655360745018288e-31 17 130 0 187
 188 192 118 125 128 0 191 -17 131 0 116 137 125 132 136 134 0 140 +18 132 19 0
 131 126 150 133 ?105 29 133 20 0 132 151 127 -5.999187200000003e-04 -6.2495936e
-04 5.5e-04 16 134 21 0 ?131 128 138 135 0 0 105 30 135 22 0 134 139 129 0 +-5.9
99187200000003e-04 -6.2495936e-04 5.999999999999999e-04 -1.499759782661858e-32 -
6.123233995736766e-17 -1.0 17 136 0 200 195 157 126 131 134 0 192 -17 137 0 116
 117 131 123 140 138 0 146 -16 138 23 0 ?140 134 147 139 0 0 105 30 139 24 0 138
 148 135 0 +0.00185108088032 -6.249593600000011e-04 5.5e-04 -1.0 4.1840170742715
13e-16 3.655360745018288e-31 17 140 0 145 152 146 132 137 138 0 157 +14 141 25 1
43 1.0e-08 162 114 145 113 142 -0 0 162 114 111 50 142 26 0 141 163 115 0 +0.001
85108088032 -6.249593600000011e-04 5.5e-04 3.911557900897512e-31 6.1232339957367
66e-17 1.0 -1.0 2.449293598294707e-16 3.761581922631327e-31 81 1 143 27 6 141 0
 0 164 108 144 83 3 144 0.098039217293262 0.098039217293262 0.098039217293262 15
 145 28 0 146 141 0 17 146 0 145 140 158 123 149 147 0 0 -16 147 29 0 ?149 138 1
55 148 0 0 105 30 148 30 0 147 156 139 0 +6.000812800000002e-04 -6.2495936000000
13e-04 5.5e-04 -1.567960767125268e-16 1.0 -6.123233995736766e-17 17 149 0 205 17
0 122 150 146 147 0 158 +18 150 31 0 149 132 153 151 ?105 29 151 32 0 150 154 13
3 6.000812799999999e-04 6.250406399999996e-04 5.5e-04 17 152 0 145 158 140 153 1
57 155 0 161 +18 153 33 0 152 150 171 154 ?105 29 154 34 0 153 172 151 -5.999187
199999999e-04 6.250406400000001e-04 5.5e-04 16 155 35 0 ?152 147 159 156 0 0 105
 30 156 36 0 155 160 148 0 +-5.999187200000003e-04 -6.2495936e-04 5.5e-04 4.1840
17074271513e-16 1.0 -6.123233995736766e-17 17 157 0 200 136 178 132 152 155 0 0
 -17 158 0 145 146 152 150 161 159 0 167 -16 159 37 0 ?161 155 168 160 0 0 105 3
0 160 38 0 159 169 156 0 +0.00185108088032 6.25040639999999e-04 5.5e-04 -1.0 4.1
84017074271513e-16 3.655360745018288e-31 17 161 0 166 173 167 153 158 159 0 178
 +14 162 39 164 1.0e-08 183 141 166 113 163 -0 0 183 141 111 50 163 40 0 162 184
 142 0 +0.00185108088032 6.25040639999999e-04 5.999999999999999e-04 -4.184017074
271514e-16 -1.0 6.123233995736766e-17 1.0 -4.184017074271514e-16 1.0622117761303
84e-32 81 1 164 41 6 162 0 0 185 143 165 83 3 165 0.098039217293262 0.0980392172
93262 0.098039217293262 15 166 42 0 167 162 0 17 167 0 166 161 179 150 170 168 0
 0 -16 168 43 0 ?170 159 176 169 0 0 105 30 169 44 0 168 177 160 0 +6.0008127999
99999e-04 6.250406399999996e-04 5.999999999999999e-04 -3.611605944365141e-31 6.1
23233995736766e-17 1.0 17 170 0 205 191 149 171 167 168 0 179 +18 171 45 0 170 1
53 174 172 ?105 29 172 46 0 171 175 154 6.000812800000002e-04 6.250406399999996e
-04 5.999999999999999e-04 17 173 0 166 179 161 174 178 176 0 182 +18 174 47 0 17
3 171 0 175 ?105 29 175 48 0 174 0 172 -5.999187199999999e-04 6.250406400000001e
-04 5.999999999999999e-04 16 176 49 0 ?173 168 180 177 0 0 105 30 177 50 0 176 1
81 169 0 +-5.999187199999999e-04 6.250406400000001e-04 5.999999999999999e-04 1.4
99759782661858e-32 6.123233995736766e-17 1.0 17 178 0 200 157 195 153 173 176 0
 0 -17 179 0 166 167 173 171 182 180 0 188 -16 180 51 0 ?182 176 189 181 0 0 105
 30 181 52 0 180 190 177 0 +0.00185108088032 6.25040639999999e-04 5.999999999999
999e-04 -1.0 4.184017074271513e-16 3.655360745018288e-31 17 182 0 187 192 188 17
4 179 180 0 195 +14 183 53 185 1.0e-08 196 162 187 113 184 -0 0 196 162 111 50 1
84 54 0 183 197 163 0 +0.00185108088032 -6.249593600000011e-04 5.999999999999999
e-04 -3.911557900897512e-31 -6.123233995736766e-17 -1.0 1.0 -2.449293598294707e-
16 -3.761581922631327e-31 81 1 185 55 6 183 0 0 198 164 186 83 3 186 0.098039217
293262 0.098039217293262 0.098039217293262 15 187 56 0 188 183 0 17 188 0 187 18
2 130 171 191 189 0 0 -16 189 57 0 ?191 180 193 190 0 0 105 30 190 58 0 189 194
 181 0 +6.000812800000002e-04 -6.249593600000013e-04 5.999999999999999e-04 1.567
960767125268e-16 -1.0 6.123233995736766e-17 17 191 0 205 122 170 118 188 189 0 0
 +17 192 0 187 130 182 126 195 193 0 0 +16 193 59 0 ?192 189 0 194 0 0 105 30 19
4 60 0 193 0 190 0 +-5.999187200000003e-04 -6.2495936e-04 5.999999999999999e-04
 -4.184017074271513e-16 -1.0 6.123233995736766e-17 17 195 0 200 178 136 174 192
 193 0 0 -14 196 61 198 1.0e-08 201 183 200 113 197 -0 0 201 183 111 50 197 62 0
 196 202 184 0 +-5.999187200000003e-04 -6.2495936e-04 5.5e-04 1.0 -4.18401707427
1513e-16 1.062211776130384e-32 4.184017074271513e-16 1.0 -6.123233995736766e-17
 81 1 198 63 6 196 0 0 203 185 199 83 3 199 0.098039217293262 0.098039217293262
 0.098039217293262 15 200 64 0 178 196 0 14 201 65 203 1.0e-08 0 196 205 113 202
 +0 0 0 196 111 50 202 66 0 201 0 197 0 +6.000812800000002e-04 -6.24959360000000
2e-04 5.999999999999999e-04 1.0 1.567960767125268e-16 3.515596037632712e-31 1.56
7960767125268e-16 -1.0 6.123233995736766e-17 81 1 203 67 6 201 0 0 0 198 204 83
 3 204 0.098039217293262 0.098039217293262 0.098039217293262 15 205 68 0 149 201
 0 12 206 180 0 207 0 0 0 0 1000.0 1.0e-08 0 0 0 1 0 1 1 214 216 222 220 211 221
 219 70 207 0 206 0 0 4 1 20 0 208 208 1 T74 20 208 1 0 209 0 0 0 0 0 0 0 0 0 0
 0 0 0 0 0 0 0 0 0 81 1 209 7 6 215 0 0 244 0 210 83 3 210 0.898039221763611 0.9
17647063732147 0.929411768913269 19 211 1 0 206 213 0 212 V13 212 2 0 206 0 0 0
 0 211 215 19 213 3 0 206 0 211 214 S13 214 4 0 206 0 215 0 0 213 0 14 215 5 209
 1.0e-08 242 0 217 214 216 -0 0 242 0 212 50 216 6 0 215 243 0 0 +-9.49918720000
0003e-04 6.250406400000001e-04 4.999999999999988e-05 -1.499759782661859e-32 -6.1
23233995736771e-17 -1.0 2.449293598294707e-16 1.0 -6.123233995736771e-17 15 217
 8 0 218 215 0 17 218 0 217 226 238 219 223 221 0 231 -18 219 9 0 218 0 224 220
 ?206 29 220 10 0 219 225 0 -5.999187200000002e-04 6.2504064e-04 4.9999999999999
93e-05 16 221 11 0 ?223 0 229 222 0 0 206 30 222 12 0 221 230 0 0 +-5.9991872000
00002e-04 6.2504064e-04 4.999999999999988e-05 -2.449293598294707e-16 -1.0 6.1232
33995736771e-17 17 223 0 446 428 376 224 218 221 0 425 +18 224 13 0 223 219 227
 225 ?206 29 225 14 0 224 228 220 -5.999187200000003e-04 -6.2495936e-04 4.999999
999999996e-05 17 226 0 217 232 218 227 231 229 0 237 -18 227 15 0 287 224 233 22
8 ?206 29 228 16 0 227 234 225 -9.499187200000002e-04 6.250406400000001e-04 4.99
9999999999993e-05 16 229 17 0 ?231 221 235 230 0 0 206 30 230 18 0 229 236 222 0
 +-9.499187200000002e-04 6.250406400000001e-04 4.999999999999993e-05 1.0 -2.4492
93598294707e-16 0.0 17 231 0 362 373 287 219 226 229 0 376 +17 232 0 217 238 226
 233 237 235 0 241 -18 233 19 0 232 227 248 234 ?206 29 234 20 0 233 249 228 -9.
499187200000002e-04 -6.249593599999999e-04 5.000000000000025e-05 16 235 21 0 ?23
7 229 239 236 0 0 206 30 236 22 0 235 240 230 0 +-9.499187200000002e-04 6.250406
400000001e-04 4.999999999999988e-05 2.449293598294706e-16 1.0 -6.123233995736771
e-17 17 237 0 275 282 276 227 232 235 0 0 +17 238 0 217 218 232 224 241 239 0 0
 +16 239 23 0 ?238 235 250 240 0 0 206 30 240 24 0 239 251 236 0 +-9.49918720000
0002e-04 -6.249593599999999e-04 5.000000000000025e-05 1.0 -2.449293598294707e-16
 0.0 17 241 0 420 279 425 233 238 239 0 276 -14 242 25 244 1.0e-08 271 215 246 2
14 243 -0 0 271 215 212 50 243 26 0 242 272 216 0 +-9.999187200000003e-04 -6.249
5936e-04 3.82702124733548e-20 1.499759782661859e-32 6.123233995736771e-17 1.0 -2
.449293598294707e-16 -1.0 6.123233995736771e-17 81 1 244 27 6 242 0 0 273 209 24
5 83 3 245 0.898039221763611 0.917647063732147 0.929411768913269 15 246 28 0 247
 242 0 17 247 0 246 255 267 248 252 250 0 260 -18 248 29 0 428 233 253 249 ?206
 29 249 30 0 248 254 234 -5.999187200000003e-04 -6.249593600000001e-04 -1.243601
133994709e-19 16 250 31 0 ?252 239 258 251 0 0 206 30 251 32 0 250 259 240 0 +-5
.999187200000003e-04 -6.249593600000001e-04 3.82702124733548e-20 2.4492935982947
07e-16 1.0 -6.123233995736771e-17 17 252 0 446 376 428 253 247 250 0 373 +18 253
 33 0 252 248 256 254 ?206 29 254 34 0 253 257 249 -5.999187200000002e-04 6.2504
06400000004e-04 -3.827021247335487e-20 17 255 0 246 261 247 256 260 258 0 266 -1
8 256 35 0 255 253 262 257 ?206 29 257 36 0 256 263 254 -9.999187200000007e-04 -
6.2495936e-04 -1.243601133994709e-19 16 258 37 0 ?260 250 264 259 0 0 206 30 259
 38 0 258 265 251 0 +-9.999187200000007e-04 -6.2495936e-04 -1.243601133994709e-1
9 1.0 -2.449293598294707e-16 0.0 17 260 0 420 425 308 248 255 258 0 0 +17 261 0
 246 267 255 262 266 264 0 270 -18 262 39 0 261 256 280 263 ?206 29 263 40 0 262
 281 257 -9.9991872e-04 6.250406400000005e-04 -3.827021247335487e-20 16 264 41 0
 ?266 258 268 265 0 0 206 30 265 42 0 264 269 259 0 +-9.999187200000003e-04 -6.2
495936e-04 3.82702124733548e-20 -2.449293598294706e-16 -1.0 6.123233995736771e-1
7 17 266 0 296 303 297 256 261 264 0 308 +17 267 0 246 247 261 253 270 268 0 0 +
16 268 43 0 ?267 264 277 269 0 0 206 30 269 44 0 268 278 265 0 +-9.9991872e-04 6
.250406400000005e-04 -3.827021247335487e-20 1.0 -2.449293598294707e-16 0.0 17 27
0 0 362 300 373 262 267 268 0 297 -14 271 45 273 1.0e-08 292 242 275 214 272 +0
 0 292 242 212 50 272 46 0 271 293 243 0 +-9.499187200000003e-04 6.2504064000000
01e-04 5.500000000000002e-04 1.0 -2.449293598294706e-16 -2.879130788300621e-48 2
.449293598294706e-16 1.0 -6.123233995736766e-17 81 1 273 47 6 271 0 0 294 244 27
4 83 3 274 0.898039221763611 0.917647063732147 0.929411768913269 15 275 48 0 276
 271 0 17 276 0 275 237 288 233 279 277 0 0 +16 277 49 0 ?276 268 285 278 0 0 20
6 30 278 50 0 277 286 269 0 +-9.499187200000002e-04 -6.249593599999999e-04 5.500
000000000002e-04 -1.499759782661858e-32 -6.123233995736766e-17 -1.0 17 279 0 420
 341 241 280 276 277 0 288 -18 280 51 0 279 262 283 281 ?206 29 281 52 0 280 284
 263 -9.499187200000002e-04 -6.249593599999999e-04 5.500000000000002e-04 17 282
 0 275 288 237 283 287 285 0 347 -18 283 53 0 282 280 301 284 ?206 29 284 54 0 2
83 302 281 -9.499187200000002e-04 6.250406400000001e-04 5.5e-04 16 285 55 0 ?287
 277 289 286 0 0 206 30 286 56 0 285 290 278 0 +-9.499187200000002e-04 6.2504064
00000001e-04 5.5e-04 -1.499759782661858e-32 -6.123233995736766e-17 -1.0 17 287 0
 362 231 347 227 282 285 0 226 +17 288 0 275 276 282 280 291 289 0 338 +16 289 5
7 0 ?288 285 298 290 0 0 206 30 290 58 0 289 299 286 0 +-9.499187200000002e-04 6
.250406400000001e-04 5.500000000000002e-04 -2.449293598294706e-16 -1.0 6.1232339
95736761e-17 17 291 0 317 342 338 283 288 289 0 0 -14 292 59 294 1.0e-08 313 271
 296 214 293 +0 0 313 271 212 50 293 60 0 292 314 272 0 +-9.999187200000003e-04
 -6.249593599999999e-04 6.000000000000001e-04 -1.0 2.449293598294706e-16 2.87913
078830062e-48 -2.449293598294706e-16 -1.0 6.123233995736766e-17 81 1 294 61 6 29
2 0 0 315 273 295 83 3 295 0.898039221763611 0.917647063732147 0.929411768913269
 15 296 62 0 297 292 0 17 297 0 296 266 309 262 300 298 0 0 +16 298 63 0 ?297 28
9 306 299 0 0 206 30 299 64 0 298 307 290 0 +-9.9991872e-04 6.250406400000004e-0
4 6.000000000000001e-04 -1.499759782661858e-32 -6.123233995736766e-17 -1.0 17 30
0 0 362 363 270 301 297 298 0 0 -18 301 65 0 368 283 304 302 ?206 29 302 66 0 30
1 305 284 -9.9991872e-04 6.250406400000004e-04 6.000000000000001e-04 17 303 0 29
6 309 266 304 308 306 0 0 -18 304 67 0 415 301 319 305 ?206 29 305 68 0 304 320
 302 -9.999187200000007e-04 -6.249593599999999e-04 6.000000000000004e-04 16 306
 69 0 ?308 298 310 307 0 0 206 30 307 70 0 306 311 299 0 +-9.999187200000007e-04
 -6.249593599999999e-04 6.000000000000004e-04 -1.499759782661858e-32 -6.12323399
5736766e-17 -1.0 17 308 0 420 260 415 256 303 306 0 0 +17 309 0 296 297 303 301
 312 310 0 300 +16 310 71 0 ?309 306 321 311 0 0 206 30 311 72 0 310 322 307 0 +
-9.999187200000003e-04 -6.249593599999999e-04 6.000000000000001e-04 2.4492935982
94706e-16 1.0 -6.123233995736761e-17 17 312 0 381 412 368 304 309 310 0 303 -14
 313 73 315 1.0e-08 358 292 317 214 314 -0 0 358 292 212 50 314 74 0 313 359 293
 0 +-0.00222591832032 6.250406400000005e-04 5.500000000000004e-04 2.710505431213
761e-16 6.123233995736755e-17 1.0 -1.0 2.449293598294707e-16 2.710505431213761e-
16 81 1 315 75 6 313 0 0 360 294 316 83 3 316 0.898039221763611 0.91764706373214
7 0.929411768913269 15 317 76 0 318 313 0 17 318 0 317 326 354 319 323 321 0 0 +
18 319 77 0 434 304 324 320 ?206 29 320 78 0 319 325 305 -5.999187200000003e-04
 -4.749593600000003e-04 5.5e-04 16 321 79 0 ?318 310 329 322 0 0 206 30 322 80 0
 321 330 311 0 +-5.999187199999999e-04 6.250406400000001e-04 5.5e-04 -4.18401707
4271513e-16 -1.0 6.123233995736766e-17 17 323 0 433 438 434 324 318 321 0 0 -18
 324 81 0 354 319 327 325 ?206 29 325 82 0 324 328 320 -5.9991872e-04 4.75040639
9999999e-04 5.5e-04 17 326 0 317 332 318 327 331 329 0 337 -18 327 83 0 466 324
 333 328 ?206 29 328 84 0 327 334 325 -8.499187200000005e-04 -4.749593600000001e
-04 5.500000000000002e-04 16 329 85 0 ?331 321 335 330 0 0 206 30 330 86 0 329 3
36 322 0 +-5.999187200000004e-04 -4.749593600000001e-04 5.5e-04 1.0 -2.808892533
236976e-17 -2.710505431213761e-16 17 331 0 465 437 466 319 326 329 0 318 +17 332
 0 317 338 326 333 337 335 0 341 -18 333 87 0 424 327 343 334 ?206 29 334 88 0 3
33 344 328 -8.499187200000005e-04 -6.249593600000001e-04 5.500000000000002e-04 1
6 335 89 0 ?337 329 339 336 0 0 206 30 336 90 0 335 340 330 0 +-8.49918720000000
5e-04 -6.249593600000001e-04 5.500000000000002e-04 2.449293598294707e-16 1.0 -6.
123233995736761e-17 17 337 0 474 469 424 327 332 335 0 0 +17 338 0 317 291 332 2
80 341 339 0 0 -16 339 91 0 ?341 335 345 340 0 0 206 30 340 92 0 339 346 336 0 +
-0.00222591832032 -6.249593599999995e-04 5.500000000000004e-04 1.0 -2.4492935982
94707e-16 -2.710505431213761e-16 17 341 0 420 421 279 333 338 339 0 0 +17 342 0
 317 348 291 343 347 345 0 353 +18 343 93 0 342 333 349 344 ?206 29 344 94 0 343
 350 334 -8.4991872e-04 6.250406400000001e-04 5.500000000000002e-04 16 345 95 0
 ?342 339 351 346 0 0 206 30 346 96 0 345 352 340 0 +-0.00222591832032 6.2504064
00000005e-04 5.500000000000004e-04 1.0 -2.449293598294707e-16 -2.710505431213761
e-16 17 347 0 362 287 369 283 342 345 0 291 -17 348 0 317 354 342 349 353 351 0
 357 -18 349 97 0 348 343 364 350 ?206 29 350 98 0 349 365 344 -8.4991872e-04 4.
750406400000002e-04 5.500000000000002e-04 16 351 99 0 ?353 345 355 352 0 0 206 3
0 352 100 0 351 356 346 0 +-8.4991872e-04 6.250406400000001e-04 5.50000000000000
2e-04 2.449293598294707e-16 1.0 -6.123233995736761e-17 17 353 0 451 372 452 343
 348 351 0 369 +17 354 0 317 318 348 324 357 355 0 441 -16 355 101 0 ?357 351 36
6 356 0 0 206 30 356 102 0 355 367 352 0 +-5.9991872e-04 4.750406399999999e-04 5
.5e-04 -1.0 8.954506633207732e-16 2.71050543121376e-16 17 357 0 460 455 441 349
 354 355 0 452 +14 358 103 360 1.0e-08 377 313 362 214 359 -0 0 377 313 212 50 3
59 104 0 358 378 314 0 +-0.00222591832032 6.250406400000005e-04 6.00000000000000
4e-04 -2.449293598294707e-16 -1.0 6.123233995736766e-17 1.0 -2.449293598294707e-
16 0.0 81 1 360 105 6 358 0 0 379 315 361 83 3 361 0.898039221763611 0.917647063
732147 0.929411768913269 15 362 106 0 363 358 0 17 363 0 362 369 300 364 368 366
 0 372 +18 364 107 0 408 349 383 365 ?206 29 365 108 0 364 384 350 -8.4991872e-0
4 6.250406400000001e-04 5.999999999999999e-04 16 366 109 0 ?363 355 370 367 0 0
 206 30 367 110 0 366 371 356 0 +-0.00222591832032 6.250406400000005e-04 6.00000
0000000004e-04 1.0 -2.449293598294707e-16 -2.710505431213761e-16 17 368 0 381 31
2 408 301 363 366 0 309 -17 369 0 362 347 363 343 372 370 0 0 -16 370 111 0 ?372
 366 374 371 0 0 206 30 371 112 0 370 375 367 0 +-8.499187200000002e-04 6.250406
400000001e-04 -1.000000000000171e-06 2.710505431213761e-16 6.123233995736755e-17
 1.0 17 372 0 451 411 353 364 369 370 0 0 +17 373 0 362 270 231 253 376 374 0 26
7 -16 374 113 0 ?376 370 385 375 0 0 206 30 375 114 0 374 386 371 0 +-5.99918720
0000002e-04 6.2504064e-04 3.0e-04 1.499759782661858e-32 6.123233995736766e-17 1.
0 17 376 0 446 223 252 219 373 374 0 0 +14 377 115 379 1.0e-08 416 358 381 214 3
78 -0 0 416 358 212 50 378 116 0 377 417 359 0 +-0.00222591832032 -6.24959359999
9996e-04 6.000000000000004e-04 -2.710505431213761e-16 -6.123233995736755e-17 -1.
0 1.0 -2.449293598294707e-16 -2.710505431213761e-16 81 1 379 117 6 377 0 0 418 3
60 380 83 3 380 0.898039221763611 0.917647063732147 0.929411768913269 15 381 118
 0 382 377 0 17 382 0 381 390 412 383 387 385 0 395 -18 383 119 0 382 364 388 38
4 ?206 29 384 120 0 383 389 365 -8.499187200000003e-04 -4.749593600000001e-04 5.
999999999999999e-04 16 385 121 0 ?387 374 393 386 0 0 206 30 386 122 0 385 394 3
75 0 +-8.499187200000003e-04 -6.249593600000001e-04 5.999999999999999e-04 -2.449
293598294707e-16 -1.0 6.123233995736766e-17 17 387 0 474 424 469 388 382 385 0 0
 +18 388 123 0 412 383 391 389 ?206 29 389 124 0 388 392 384 -8.499187200000003e
-04 -6.249593600000001e-04 5.999999999999999e-04 17 390 0 381 396 382 391 395 39
3 0 401 -18 391 125 0 437 388 397 392 ?206 29 392 126 0 391 398 389 -5.999187200
000003e-04 -4.749593600000001e-04 5.999999999999999e-04 16 393 127 0 ?395 385 39
9 394 0 0 206 30 394 128 0 393 400 386 0 +-5.999187200000003e-04 -4.749593600000
001e-04 5.999999999999999e-04 -1.0 2.808892533236976e-17 1.32776472016298e-32 17
 395 0 465 466 437 383 390 393 0 469 +17 396 0 381 402 390 397 401 399 0 0 +18 3
97 129 0 407 391 403 398 ?206 29 398 130 0 397 404 392 -5.999187199999999e-04 4.
750406399999999e-04 5.999999999999999e-04 16 399 131 0 ?396 393 405 400 0 0 206
 30 400 132 0 399 406 394 0 +-5.999187200000003e-04 -6.2495936e-04 5.99999999999
9999e-04 4.184017074271513e-16 1.0 -6.123233995736766e-17 17 401 0 433 434 438 3
91 396 399 0 0 -17 402 0 381 408 396 403 407 405 0 411 -18 403 133 0 402 397 0 4
04 ?206 29 404 134 0 403 0 398 -8.4991872e-04 4.750406400000002e-04 5.9999999999
99999e-04 16 405 135 0 ?407 399 409 406 0 0 206 30 406 136 0 405 410 400 0 +-5.9
99187199999999e-04 4.750406399999999e-04 5.999999999999998e-04 1.0 -8.9545066332
07734e-16 -4.336808689942017e-16 17 407 0 460 441 455 397 402 405 0 438 +17 408
 0 381 368 402 364 411 409 0 363 -16 409 137 0 ?411 405 413 410 0 0 206 30 410 1
38 0 409 414 406 0 +-8.4991872e-04 6.250406400000001e-04 5.999999999999999e-04 -
2.449293598294707e-16 -1.0 6.123233995736766e-17 17 411 0 451 452 372 403 408 40
9 0 455 +17 412 0 381 382 312 388 415 413 0 421 +16 413 139 0 ?412 409 422 414 0
 0 206 30 414 140 0 413 423 410 0 +-0.00222591832032 -6.249593599999996e-04 6.00
0000000000004e-04 1.0 -2.449293598294707e-16 -2.710505431213761e-16 17 415 0 420
 308 421 304 412 413 0 312 -14 416 141 418 1.0e-08 429 377 420 214 417 -0 0 429
 377 212 50 417 142 0 416 430 378 0 +-0.00222591832032 -6.249593599999995e-04 5.
500000000000004e-04 2.449293598294712e-16 1.0 2.107172005013645e-15 -5.161082902
385743e-31 -2.107172005013645e-15 1.0 81 1 418 143 6 416 0 0 431 379 419 83 3 41
9 0.898039221763611 0.917647063732147 0.929411768913269 15 420 144 0 341 416 0 1
7 421 0 420 415 341 388 424 422 0 387 +16 422 145 0 ?421 413 426 423 0 0 206 30
 423 146 0 422 427 414 0 +-8.499187200000005e-04 -6.249593600000001e-04 -1.00000
0000000095e-06 2.710505431213761e-16 6.123233995736755e-17 1.0 17 424 0 474 337
 387 333 421 422 0 332 -17 425 0 420 241 260 224 428 426 0 238 -16 426 147 0 ?42
8 422 435 427 0 0 206 30 427 148 0 426 436 423 0 +-5.999187200000003e-04 -6.2495
93599999995e-04 3.000000000000002e-04 -5.461034858918114e-31 -2.229636684928381e
-15 -1.0 17 428 0 446 252 223 248 425 426 0 247 +14 429 149 431 1.0e-08 442 416
 433 214 430 -0 0 442 416 212 50 430 150 0 429 443 417 0 +-5.999187200000003e-04
 -6.2495936e-04 5.999999999999999e-04 -1.0 4.184017074271513e-16 3.6553607450182
88e-31 -4.184017074271513e-16 -1.0 6.123233995736766e-17 81 1 431 151 6 429 0 0
 444 418 432 83 3 432 0.898039221763611 0.917647063732147 0.929411768913269 15 4
33 152 0 401 429 0 17 434 0 433 323 401 319 437 435 0 331 -16 435 153 0 ?437 426
 439 436 0 0 206 30 436 154 0 435 440 427 0 +-5.999187200000006e-04 -4.749593600
000001e-04 -1.000000000000104e-06 2.710505431213761e-16 6.123233995736755e-17 1.
0 17 437 0 465 395 331 391 434 435 0 390 +17 438 0 433 401 323 397 441 439 0 396
 +16 439 155 0 ?438 435 453 440 0 0 206 30 440 156 0 439 454 436 0 +-5.999187200
000002e-04 4.750406399999999e-04 -1.00000000000027e-06 2.710505431213761e-16 6.1
23233995736755e-17 1.0 17 441 0 460 357 407 324 438 439 0 323 -14 442 157 444 1.
0e-08 447 429 446 214 443 +0 0 447 429 212 50 443 158 0 442 448 430 0 +-5.999187
200000002e-04 4.064000000014849e-08 2.500000000000003e-05 1.0 -2.449293598294707
e-16 0.0 2.449293598294707e-16 1.0 -6.123233995736766e-17 81 1 444 159 6 442 0 0
 449 431 445 83 3 445 0.898039221763611 0.917647063732147 0.929411768913269 15 4
46 160 0 428 442 0 14 447 161 449 1.0e-08 456 442 451 214 448 -0 0 456 442 212 5
0 448 162 0 447 457 443 0 +-8.499187200000002e-04 6.250406400000001e-04 -1.00000
0000000171e-06 -1.0 2.449293598294707e-16 2.710505431213761e-16 -2.7105054312137
61e-16 -6.12323399573676e-17 -1.0 81 1 449 163 6 447 0 0 458 444 450 83 3 450 0.
898039221763611 0.917647063732147 0.929411768913269 15 451 164 0 353 447 0 17 45
2 0 451 353 411 349 455 453 0 0 -16 453 165 0 ?455 439 467 454 0 0 206 30 454 16
6 0 453 468 440 0 +-8.499187200000002e-04 4.750406400000002e-04 -1.0000000000001
62e-06 2.710505431213761e-16 6.123233995736755e-17 1.0 17 455 0 460 407 357 403
 452 453 0 0 +14 456 167 458 1.0e-08 461 447 460 214 457 -0 0 461 447 212 50 457
 168 0 456 462 448 0 +-5.999187200000002e-04 4.750406399999999e-04 -1.0000000000
0027e-06 -8.954506633207732e-16 -1.0 6.123233995736778e-17 1.0 -8.95450663320773
2e-16 3.983294160488938e-32 81 1 458 169 6 456 0 0 463 449 459 83 3 459 0.898039
221763611 0.917647063732147 0.929411768913269 15 460 170 0 357 456 0 14 461 171
 463 1.0e-08 470 456 465 214 462 -0 0 470 456 212 50 462 172 0 461 471 457 0 +-5
.999187200000006e-04 -4.749593600000002e-04 -1.000000000000104e-06 2.80889253323
6976e-17 1.0 -6.123233995736755e-17 -1.0 2.808892533236976e-17 1.32776472016298e
-32 81 1 463 173 6 461 0 0 472 458 464 83 3 464 0.898039221763611 0.917647063732
147 0.929411768913269 15 465 174 0 331 461 0 17 466 0 465 331 395 327 469 467 0
 326 -16 467 175 0 ?469 453 0 468 0 0 206 30 468 176 0 467 0 454 0 +-8.499187200
000005e-04 -4.749593600000001e-04 -1.000000000000104e-06 2.710505431213761e-16 6
.123233995736755e-17 1.0 17 469 0 474 387 337 383 466 467 0 0 +14 470 177 472 1.
0e-08 0 461 474 214 471 -0 0 0 461 212 50 471 178 0 470 0 462 0 +-8.499187200000
005e-04 -6.249593600000001e-04 -1.000000000000095e-06 -1.0 2.449293598294707e-16
 2.710505431213761e-16 -2.710505431213761e-16 -6.12323399573676e-17 -1.0 81 1 47
2 179 6 470 0 0 0 463 473 83 3 473 0.898039221763611 0.917647063732147 0.9294117
68913269 15 474 180 0 337 470 0 12 475 180 0 476 0 0 0 0 1000.0 1.0e-08 0 0 0 1
 0 1 1 483 485 491 489 480 490 488 70 476 0 475 0 0 4 1 20 0 477 477 1 T74 20 47
7 1 0 478 0 0 0 0 0 0 0 0 0 0 0 0 0 0 0 0 0 0 0 81 1 478 7 6 484 0 0 513 0 479 8
3 3 479 0.898039221763611 0.917647063732147 0.929411768913269 19 480 1 0 475 482
 0 481 V13 481 2 0 475 0 0 0 0 480 484 19 482 3 0 475 0 480 483 S13 483 4 0 475
 0 484 0 0 482 0 14 484 5 478 1.0e-08 511 0 486 483 485 -0 0 511 0 481 50 485 6
 0 484 512 0 0 +9.500812800000002e-04 6.250406399999999e-04 4.999999999999988e-0
5 -1.499759782661858e-32 -6.123233995736771e-17 -1.0 1.667627088515389e-17 1.0 -
6.123233995736771e-17 15 486 8 0 487 484 0 17 487 0 486 495 507 488 492 490 0 50
0 +18 488 9 0 487 0 493 489 ?475 29 489 10 0 488 494 0 6.000812800000002e-04 -6.
249593600000001e-04 4.999999999999996e-05 16 490 11 0 ?487 0 498 491 0 0 475 30
 491 12 0 490 499 0 0 +6.000812800000002e-04 6.250406399999999e-04 4.99999999999
9988e-05 -1.667627088515389e-17 -1.0 6.123233995736771e-17 17 492 0 715 645 697
 493 487 490 0 507 -18 493 13 0 492 488 496 494 ?475 29 494 14 0 493 497 489 6.0
00812800000002e-04 6.250406399999999e-04 4.999999999999993e-05 17 495 0 486 501
 487 496 500 498 0 506 -18 496 15 0 495 493 502 497 ?475 29 497 16 0 496 503 494
 9.5008128e-04 -6.249593600000001e-04 5.000000000000025e-05 16 498 17 0 ?500 490
 504 499 0 0 475 30 499 18 0 498 505 491 0 +9.5008128e-04 -6.249593600000001e-04
 5.000000000000025e-05 -1.0 1.667627088515389e-17 1.397647073855768e-32 17 500 0
 689 694 550 488 495 498 0 697 +17 501 0 486 507 495 502 506 504 0 510 +18 502 1
9 0 501 496 517 503 ?475 29 503 20 0 502 518 497 9.500812800000002e-04 6.2504063
99999999e-04 4.999999999999993e-05 16 504 21 0 ?501 498 508 505 0 0 475 30 505 2
2 0 504 509 499 0 +9.500812800000002e-04 6.250406399999999e-04 4.999999999999988
e-05 1.667627088515394e-17 1.0 -6.123233995736771e-17 17 506 0 544 545 557 496 5
01 504 0 550 -17 507 0 486 487 501 493 510 508 0 642 +16 508 23 0 ?507 504 519 5
09 0 0 475 30 509 24 0 508 520 505 0 +9.500812800000002e-04 6.250406399999999e-0
4 4.999999999999993e-05 -1.0 1.667627088515389e-17 1.397647073855768e-32 17 510
 0 631 560 642 502 507 508 0 557 -14 511 25 513 1.0e-08 540 484 515 483 512 -0 0
 540 484 481 50 512 26 0 511 541 485 0 +0.00100008128 -6.249593600000002e-04 3.8
27021247335479e-20 1.499759782661858e-32 6.123233995736771e-17 1.0 -1.6676270885
15389e-17 -1.0 6.123233995736771e-17 81 1 513 27 6 511 0 0 542 478 514 83 3 514
 0.898039221763611 0.917647063732147 0.929411768913269 15 515 28 0 516 511 0 17
 516 0 515 524 536 517 521 519 0 529 +18 517 29 0 516 502 522 518 ?475 29 518 30
 0 517 523 503 6.000812800000002e-04 6.250406400000003e-04 -3.827021247335487e-2
0 16 519 31 0 ?516 508 527 520 0 0 475 30 520 32 0 519 528 509 0 +6.000812800000
002e-04 -6.249593600000002e-04 3.827021247335479e-20 1.667627088515389e-17 1.0 -
6.123233995736771e-17 17 521 0 715 697 645 522 516 519 0 536 -18 522 33 0 521 51
7 525 523 ?475 29 523 34 0 522 526 518 6.000812800000002e-04 -6.249593600000002e
-04 -1.243601133994709e-19 17 524 0 515 530 516 525 529 527 0 535 -18 525 35 0 5
71 522 531 526 ?475 29 526 36 0 525 532 523 0.00100008128 6.250406400000003e-04
 -3.827021247335488e-20 16 527 37 0 ?529 519 533 528 0 0 475 30 528 38 0 527 534
 520 0 +0.00100008128 6.250406400000003e-04 -3.827021247335488e-20 -1.0 1.667627
088515389e-17 1.397647073855768e-32 17 529 0 631 642 571 517 524 527 0 645 +17 5
30 0 515 536 524 531 535 533 0 578 +18 531 39 0 530 525 546 532 ?475 29 532 40 0
 531 547 526 0.00100008128 -6.249593600000002e-04 -1.243601133994709e-19 16 533
 41 0 ?530 527 537 534 0 0 475 30 534 42 0 533 538 528 0 +0.00100008128 -6.24959
3600000002e-04 3.827021247335479e-20 -1.667627088515394e-17 -1.0 6.1232339957367
71e-17 17 535 0 565 566 578 525 530 533 0 0 -17 536 0 515 516 530 522 539 537 0
 694 +16 537 43 0 ?536 533 548 538 0 0 475 30 538 44 0 537 549 534 0 +0.00100008
128 -6.249593600000002e-04 -1.243601133994709e-19 -1.0 1.667627088515389e-17 1.3
97647073855768e-32 17 539 0 689 581 694 531 536 537 0 0 -14 540 45 542 1.0e-08 5
61 511 544 483 541 +0 0 561 511 481 50 541 46 0 540 562 512 0 +9.500812800000002
e-04 6.250406399999999e-04 5.500000000000002e-04 -1.0 1.667627088515394e-17 1.39
7647073855768e-32 1.667627088515394e-17 1.0 -6.123233995736766e-17 81 1 542 47 6
 540 0 0 563 513 543 83 3 543 0.898039221763611 0.917647063732147 0.929411768913
269 15 544 48 0 545 540 0 17 545 0 544 551 506 546 550 548 0 0 -18 546 49 0 616
 531 552 547 ?475 29 547 50 0 546 553 532 9.5008128e-04 -6.249593600000001e-04 5
.500000000000002e-04 16 548 51 0 ?550 537 554 549 0 0 475 30 549 52 0 548 555 53
8 0 +9.5008128e-04 -6.249593600000001e-04 5.500000000000002e-04 -1.4997597826618
58e-32 -6.123233995736766e-17 -1.0 17 550 0 689 500 616 496 545 548 0 0 +17 551
 0 544 557 545 552 556 554 0 560 -18 552 53 0 551 546 567 553 ?475 29 553 54 0 5
52 568 547 9.500812800000002e-04 6.250406399999999e-04 5.5e-04 16 554 55 0 ?556
 548 558 555 0 0 475 30 555 56 0 554 559 549 0 +9.500812800000002e-04 6.25040639
9999999e-04 5.500000000000002e-04 -1.667627088515394e-17 -1.0 6.123233995736761e
-17 17 556 0 586 611 607 546 551 554 0 545 +17 557 0 544 506 551 502 560 558 0 0
 +16 558 57 0 ?557 554 569 559 0 0 475 30 559 58 0 558 570 555 0 +9.500812800000
002e-04 6.250406399999999e-04 5.5e-04 -1.499759782661858e-32 -6.123233995736766e
-17 -1.0 17 560 0 631 610 510 552 557 558 0 607 -14 561 59 563 1.0e-08 582 540 5
65 483 562 +0 0 582 540 481 50 562 60 0 561 583 541 0 +0.00100008128 -6.24959360
0000002e-04 6.000000000000001e-04 1.0 -1.667627088515394e-17 -1.397647073855768e
-32 -1.667627088515394e-17 -1.0 6.123233995736766e-17 81 1 563 61 6 561 0 0 584
 542 564 83 3 564 0.898039221763611 0.917647063732147 0.929411768913269 15 565 6
2 0 566 561 0 17 566 0 565 572 535 567 571 569 0 577 -18 567 63 0 566 552 573 56
8 ?475 29 568 64 0 567 574 553 0.00100008128 6.2504064e-04 6.000000000000001e-04
 16 569 65 0 ?571 558 575 570 0 0 475 30 570 66 0 569 576 559 0 +0.00100008128 6
.2504064e-04 6.000000000000001e-04 -1.499759782661858e-32 -6.123233995736766e-17
 -1.0 17 571 0 631 529 638 525 566 569 0 524 +17 572 0 565 578 566 573 577 575 0
 581 -18 573 67 0 572 567 588 574 ?475 29 574 68 0 573 589 568 0.00100008128 -6.
249593600000002e-04 6.000000000000004e-04 16 575 69 0 ?577 569 579 576 0 0 475 3
0 576 70 0 575 580 570 0 +0.00100008128 -6.249593600000002e-04 6.000000000000001
e-04 1.667627088515394e-17 1.0 -6.123233995736761e-17 17 577 0 650 641 681 567 5
72 575 0 638 +17 578 0 565 535 572 531 581 579 0 539 +16 579 71 0 ?578 575 590 5
80 0 0 475 30 580 72 0 579 591 576 0 +0.00100008128 -6.249593600000002e-04 6.000
000000000004e-04 -1.499759782661858e-32 -6.123233995736766e-17 -1.0 17 581 0 689
 684 539 573 578 579 0 681 -14 582 73 584 1.0e-08 627 561 586 483 583 -0 0 627 5
61 481 50 583 74 0 582 628 562 0 +0.00222608088032 6.250406399999999e-04 5.50000
0000000004e-04 -2.710505431213761e-16 6.123233995736761e-17 1.0 1.0 -1.667627088
515389e-17 2.710505431213761e-16 81 1 584 75 6 582 0 0 629 563 585 83 3 585 0.89
8039221763611 0.917647063732147 0.929411768913269 15 586 76 0 587 582 0 17 587 0
 586 595 623 588 592 590 0 600 -18 588 77 0 587 573 593 589 ?475 29 589 78 0 588
 594 574 6.000812800000001e-04 4.750406399999997e-04 5.5e-04 16 590 79 0 ?592 57
9 598 591 0 0 475 30 591 80 0 590 599 580 0 +6.000812799999999e-04 6.25040639999
9999e-04 5.5e-04 1.567960767125268e-16 -1.0 6.123233995736766e-17 17 592 0 702 7
07 703 593 587 590 0 710 +18 593 81 0 623 588 596 594 ?475 29 594 82 0 593 597 5
89 6.000812799999999e-04 -4.749593600000004e-04 5.5e-04 17 595 0 586 601 587 596
 600 598 0 606 -18 596 83 0 595 593 602 597 ?475 29 597 84 0 596 603 594 8.50081
2799999999e-04 4.750406399999998e-04 5.500000000000002e-04 16 598 85 0 ?600 590
 604 599 0 0 475 30 599 86 0 598 605 591 0 +6.000812799999997e-04 4.750406399999
997e-04 5.5e-04 -1.0 -4.05591943661832e-16 -2.71050543121376e-16 17 600 0 734 70
6 735 588 595 598 0 703 +17 601 0 586 607 595 602 606 604 0 610 -18 602 87 0 637
 596 612 603 ?475 29 603 88 0 602 613 597 8.500812799999999e-04 6.25040639999999
7e-04 5.5e-04 16 604 89 0 ?606 598 608 605 0 0 475 30 605 90 0 604 609 599 0 +8.
500812799999999e-04 6.250406399999997e-04 5.500000000000002e-04 -2.4492935982947
07e-16 -1.0 6.123233995736755e-17 17 606 0 743 738 637 596 601 604 0 735 +17 607
 0 586 556 601 552 610 608 0 0 -16 608 91 0 ?610 604 614 609 0 0 475 30 609 92 0
 608 615 605 0 +0.00222608088032 6.250406399999999e-04 5.500000000000004e-04 -1.
0 1.667627088515389e-17 -2.710505431213761e-16 17 610 0 631 632 560 602 607 608
 0 0 +17 611 0 586 617 556 612 616 614 0 622 +18 612 93 0 611 602 618 613 ?475 2
9 613 94 0 612 619 603 8.500812799999999e-04 -6.249593600000001e-04 5.5000000000
00002e-04 16 614 95 0 ?611 608 620 615 0 0 475 30 615 96 0 614 621 609 0 +0.0022
2608088032 -6.249593600000001e-04 5.500000000000004e-04 -1.0 1.667627088515389e-
17 -2.710505431213761e-16 17 616 0 689 550 690 546 611 614 0 556 -17 617 0 586 6
23 611 618 622 620 0 626 -18 618 97 0 617 612 633 619 ?475 29 619 98 0 618 634 6
13 8.500812799999999e-04 -4.749593600000005e-04 5.500000000000002e-04 16 620 99
 0 ?622 614 624 621 0 0 475 30 621 100 0 620 625 615 0 +8.500812799999999e-04 -6
.249593600000005e-04 5.500000000000002e-04 -2.449293598294707e-16 -1.0 6.1232339
95736755e-17 17 622 0 720 693 721 612 617 620 0 690 +17 623 0 586 587 617 593 62
6 624 0 592 -16 624 101 0 ?626 620 635 625 0 0 475 30 625 102 0 624 636 621 0 +6
.000812799999997e-04 -4.749593600000004e-04 5.5e-04 1.0 -4.617697943265716e-16 2
.710505431213761e-16 17 626 0 729 724 710 618 623 624 0 721 +14 627 103 629 1.0e
-08 646 582 631 483 628 -0 0 646 582 481 50 628 104 0 627 647 583 0 +0.002226080
88032 6.250406399999999e-04 6.000000000000004e-04 -1.667627088515389e-17 -1.0 6.
123233995736766e-17 -1.0 1.667627088515389e-17 1.397647073855768e-32 81 1 629 10
5 6 627 0 0 648 584 630 83 3 630 0.898039221763611 0.917647063732147 0.929411768
913269 15 631 106 0 610 627 0 17 632 0 631 638 610 633 637 635 0 641 +18 633 107
 0 632 618 652 634 ?475 29 634 108 0 633 653 619 8.5008128e-04 6.250406399999997
e-04 5.999999999999996e-04 16 635 109 0 ?632 624 639 636 0 0 475 30 636 110 0 63
5 640 625 0 +8.500812799999999e-04 6.250406399999997e-04 -1.000000000000605e-06
 2.710505431213761e-16 6.123233995736755e-17 1.0 17 637 0 743 606 656 602 632 63
5 0 601 -17 638 0 631 571 632 567 641 639 0 0 -16 639 111 0 ?641 635 643 640 0 0
 475 30 640 112 0 639 644 636 0 +0.00222608088032 6.250406399999999e-04 6.000000
000000004e-04 -1.0 1.667627088515389e-17 -2.710505431213761e-16 17 641 0 650 651
 577 633 638 639 0 656 +17 642 0 631 510 529 493 645 643 0 0 +16 643 113 0 ?642
 639 654 644 0 0 475 30 644 114 0 643 655 640 0 +6.000812800000002e-04 6.2504063
99999999e-04 3.0e-04 1.499759782661858e-32 6.123233995736766e-17 1.0 17 645 0 71
5 521 492 517 642 643 0 0 -14 646 115 648 1.0e-08 685 627 650 483 647 -0 0 685 6
27 481 50 647 116 0 646 686 628 0 +0.00222608088032 -6.249593600000002e-04 6.000
000000000004e-04 2.710505431213761e-16 -6.123233995736761e-17 -1.0 -1.0 1.667627
088515389e-17 -2.710505431213761e-16 81 1 648 117 6 646 0 0 687 629 649 83 3 649
 0.898039221763611 0.917647063732147 0.929411768913269 15 650 118 0 651 646 0 17
 651 0 650 657 641 652 656 654 0 662 -18 652 119 0 651 633 658 653 ?475 29 653 1
20 0 652 659 634 8.5008128e-04 4.750406399999998e-04 5.999999999999996e-04 16 65
4 121 0 ?656 643 660 655 0 0 475 30 655 122 0 654 661 644 0 +8.5008128e-04 6.250
406399999997e-04 5.999999999999996e-04 2.449293598294707e-16 1.0 -6.123233995736
766e-17 17 656 0 743 637 738 633 651 654 0 0 +17 657 0 650 663 651 658 662 660 0
 668 -18 658 123 0 706 652 664 659 ?475 29 659 124 0 658 665 653 6.0008128000000
01e-04 4.750406399999997e-04 5.999999999999997e-04 16 660 125 0 ?662 654 666 661
 0 0 475 30 661 126 0 660 667 655 0 +6.000812800000001e-04 4.750406399999997e-04
 5.999999999999997e-04 1.0 4.05591943661832e-16 -4.336808689942019e-16 17 662 0
 734 735 706 652 657 660 0 738 +17 663 0 650 669 657 664 668 666 0 0 -18 664 127
 0 674 658 670 665 ?475 29 665 128 0 664 671 659 6.000812800000001e-04 -4.749593
600000004e-04 5.999999999999999e-04 16 666 129 0 ?668 660 672 667 0 0 475 30 667
 130 0 666 673 661 0 +6.000812800000002e-04 -6.249593600000002e-04 5.99999999999
9999e-04 -1.567960767125268e-16 1.0 -6.123233995736766e-17 17 668 0 702 703 707
 658 663 666 0 0 +17 669 0 650 675 663 670 674 672 0 680 -18 670 131 0 669 664 6
76 671 ?475 29 671 132 0 670 677 665 8.5008128e-04 -4.749593600000005e-04 5.9999
99999999996e-04 16 672 133 0 ?674 666 678 673 0 0 475 30 673 134 0 672 679 667 0
 +6.000812800000001e-04 -4.749593600000004e-04 5.999999999999997e-04 -1.0 4.6176
97943265716e-16 4.336808689942018e-16 17 674 0 729 710 724 664 669 672 0 707 +17
 675 0 650 681 669 676 680 678 0 684 -18 676 135 0 675 670 0 677 ?475 29 677 136
 0 676 0 671 8.5008128e-04 -6.249593600000005e-04 5.999999999999996e-04 16 678 1
37 0 ?680 672 682 679 0 0 475 30 679 138 0 678 683 673 0 +8.5008128e-04 -6.24959
3600000005e-04 5.999999999999996e-04 2.449293598294707e-16 1.0 -6.12323399573676
6e-17 17 680 0 720 721 693 670 675 678 0 724 +17 681 0 650 577 675 573 684 682 0
 0 -16 682 139 0 ?684 678 691 683 0 0 475 30 683 140 0 682 692 679 0 +0.00222608
088032 -6.249593600000002e-04 6.000000000000004e-04 -1.0 1.667627088515389e-17 -
2.710505431213761e-16 17 684 0 689 690 581 676 681 682 0 693 +14 685 141 687 1.0
e-08 698 646 689 483 686 -0 0 698 646 481 50 686 142 0 685 699 647 0 +0.00222608
088032 -6.249593600000001e-04 5.500000000000004e-04 1.66762708851533e-17 1.0 2.1
07172005013645e-15 -2.116330041866276e-32 -2.107172005013645e-15 1.0 81 1 687 14
3 6 685 0 0 700 648 688 83 3 688 0.898039221763611 0.917647063732147 0.929411768
913269 15 689 144 0 684 685 0 17 690 0 689 616 684 612 693 691 0 0 -16 691 145 0
 ?693 682 695 692 0 0 475 30 692 146 0 691 696 683 0 +8.500812799999999e-04 -6.2
49593600000005e-04 -1.000000000000528e-06 2.710505431213761e-16 6.12323399573675
5e-17 1.0 17 693 0 720 680 622 676 690 691 0 0 +17 694 0 689 539 500 522 697 695
 0 0 +16 695 147 0 ?694 691 704 696 0 0 475 30 696 148 0 695 705 692 0 +6.000812
800000002e-04 -6.249593599999995e-04 3.000000000000002e-04 -5.115849607189987e-3
2 -2.229636684928381e-15 -1.0 17 697 0 715 492 521 488 694 695 0 0 -14 698 149 7
00 1.0e-08 711 685 702 483 699 -0 0 711 685 481 50 699 150 0 698 712 686 0 +6.00
0812800000002e-04 -6.249593600000002e-04 5.999999999999999e-04 1.0 1.56796076712
5268e-16 3.515596037632712e-31 1.567960767125268e-16 -1.0 6.123233995736766e-17
 81 1 700 151 6 698 0 0 713 687 701 83 3 701 0.898039221763611 0.917647063732147
 0.929411768913269 15 702 152 0 668 698 0 17 703 0 702 592 668 588 706 704 0 0 -
16 704 153 0 ?706 695 708 705 0 0 475 30 705 154 0 704 709 696 0 +6.000812799999
998e-04 4.750406399999997e-04 -1.000000000000487e-06 2.710505431213761e-16 6.123
233995736755e-17 1.0 17 706 0 734 662 600 658 703 704 0 657 +17 707 0 702 668 59
2 664 710 708 0 663 +16 708 155 0 ?707 704 722 709 0 0 475 30 709 156 0 708 723
 705 0 +6.000812799999998e-04 -4.749593600000004e-04 -1.000000000000429e-06 2.71
0505431213761e-16 6.123233995736755e-17 1.0 17 710 0 729 626 674 593 707 708 0 0
 -14 711 157 713 1.0e-08 716 698 715 483 712 +0 0 716 698 481 50 712 158 0 711 7
17 699 0 +6.000812800000002e-04 4.063999999999152e-08 2.500000000000003e-05 -1.0
 1.667627088515389e-17 1.397647073855768e-32 1.667627088515389e-17 1.0 -6.123233
995736766e-17 81 1 713 159 6 711 0 0 718 700 714 83 3 714 0.898039221763611 0.91
7647063732147 0.929411768913269 15 715 160 0 697 711 0 14 716 161 718 1.0e-08 72
5 711 720 483 717 -0 0 725 711 481 50 717 162 0 716 726 712 0 +8.500812799999999
e-04 -6.249593600000005e-04 -1.000000000000528e-06 1.0 -2.449293598294707e-16 -2
.710505431213761e-16 2.710505431213761e-16 6.12323399573676e-17 1.0 81 1 718 163
 6 716 0 0 727 713 719 83 3 719 0.898039221763611 0.917647063732147 0.9294117689
13269 15 720 164 0 622 716 0 17 721 0 720 622 680 618 724 722 0 0 -16 722 165 0
 ?724 708 736 723 0 0 475 30 723 166 0 722 737 709 0 +8.500812799999999e-04 -4.7
49593600000006e-04 -1.000000000000537e-06 2.710505431213761e-16 6.12323399573675
5e-17 1.0 17 724 0 729 674 626 670 721 722 0 0 +14 725 167 727 1.0e-08 730 716 7
29 483 726 -0 0 730 716 481 50 726 168 0 725 731 717 0 +6.000812799999999e-04 -4
.749593600000004e-04 -1.000000000000429e-06 4.617697943265716e-16 1.0 -6.1232339
95736768e-17 -1.0 4.617697943265716e-16 -1.32776472016298e-32 81 1 727 169 6 725
 0 0 732 718 728 83 3 728 0.898039221763611 0.917647063732147 0.929411768913269
 15 729 170 0 626 725 0 14 730 171 732 1.0e-08 739 725 734 483 731 -0 0 739 725
 481 50 731 172 0 730 740 726 0 +6.000812799999999e-04 4.750406399999997e-04 -1.
000000000000487e-06 4.05591943661832e-16 -1.0 6.123233995736744e-17 1.0 4.055919
43661832e-16 -3.983294160488938e-32 81 1 732 173 6 730 0 0 741 727 733 83 3 733
 0.898039221763611 0.917647063732147 0.929411768913269 15 734 174 0 600 730 0 17
 735 0 734 600 662 596 738 736 0 0 -16 736 175 0 ?738 722 0 737 0 0 475 30 737 1
76 0 736 0 723 0 +8.500812799999999e-04 4.750406399999998e-04 -1.000000000000596
e-06 2.710505431213761e-16 6.123233995736755e-17 1.0 17 738 0 743 656 606 652 73
5 736 0 0 +14 739 177 741 1.0e-08 0 730 743 483 740 -0 0 0 730 481 50 740 178 0
 739 0 731 0 +8.500812799999999e-04 6.250406399999997e-04 -1.000000000000605e-06
 1.0 -2.449293598294707e-16 -2.710505431213761e-16 2.710505431213761e-16 6.12323
399573676e-17 1.0 81 1 741 179 6 739 0 0 0 732 742 83 3 742 0.898039221763611 0.
917647063732147 0.929411768913269 15 743 180 0 606 739 0 1 0 
