%FSTAX23Y23*%
%MOIN*%
%SFA1B1*%

%IPPOS*%
%ADD13C,0.005905*%
%LNpcb1_top_assembly-1*%
%LPD*%
G36*
X0137Y02411D02*
X01363D01*
X01362Y02406*
X01362Y02406*
X01362Y02406*
X01362Y02406*
X01362Y02406*
X01362Y02406*
X01362Y02406*
X01363Y02407*
X01363Y02407*
X01364Y02407*
X01365Y02407*
X01365Y02407*
X01365*
X01366Y02407*
X01366Y02407*
X01366Y02407*
X01366Y02407*
X01367Y02407*
X01367Y02407*
X01368Y02407*
X01368Y02406*
X01368Y02406*
X01369Y02406*
X01369Y02406*
X01369Y02405*
X01369Y02405*
X01369Y02405*
X01369Y02405*
X01369Y02405*
X0137Y02405*
X0137Y02405*
X0137Y02405*
X0137Y02404*
X0137Y02404*
X0137Y02404*
X0137Y02403*
X0137Y02403*
X01371Y02403*
X01371Y02402*
X01371Y02402*
X01371Y02401*
Y02401*
Y02401*
Y02401*
X01371Y02401*
X01371Y02401*
X01371Y024*
X01371Y024*
X01371Y024*
X0137Y02399*
X0137Y02399*
X0137Y02398*
X0137Y02398*
X0137Y02398*
X01369Y02397*
X01369Y02397*
X01369Y02397*
X01369Y02397*
X01369Y02397*
X01369Y02397*
X01369Y02397*
X01368Y02396*
X01368Y02396*
X01368Y02396*
X01367Y02396*
X01367Y02396*
X01367Y02395*
X01366Y02395*
X01366Y02395*
X01365Y02395*
X01365Y02395*
X01364*
X01364Y02395*
X01364Y02395*
X01364Y02395*
X01364Y02395*
X01363Y02395*
X01363Y02395*
X01362Y02396*
X01362Y02396*
X01361Y02396*
X01361Y02396*
X01361Y02396*
X01361Y02396*
X01361Y02396*
X01361Y02397*
X01361Y02397*
X0136Y02397*
X0136Y02397*
X0136Y02397*
X0136Y02397*
X0136Y02398*
X0136Y02398*
X01359Y02398*
X01359Y02399*
X01359Y024*
X01359Y024*
X01361Y024*
Y024*
Y024*
X01361Y024*
X01361Y024*
X01361Y024*
X01362Y02399*
X01362Y02399*
X01362Y02398*
X01362Y02398*
X01362Y02398*
X01362Y02398*
X01363Y02398*
X01363Y02397*
X01363Y02397*
X01363Y02397*
X01364Y02397*
X01364Y02397*
X01365Y02397*
X01365*
X01365Y02397*
X01365Y02397*
X01366Y02397*
X01366Y02397*
X01366Y02397*
X01367Y02398*
X01367Y02398*
X01367Y02398*
X01367Y02398*
X01367Y02398*
X01367Y02398*
X01368Y02398*
X01368Y02398*
X01368Y02399*
X01368Y02399*
X01368Y024*
X01368Y024*
X01368Y02401*
Y02401*
Y02401*
Y02401*
Y02401*
X01368Y02401*
Y02402*
X01368Y02402*
X01368Y02402*
X01368Y02403*
X01368Y02403*
X01368Y02404*
X01367Y02404*
Y02404*
X01367Y02404*
X01367Y02404*
X01367Y02404*
X01367Y02405*
X01366Y02405*
X01366Y02405*
X01365Y02405*
X01365Y02405*
X01364*
X01364Y02405*
X01364Y02405*
X01364Y02405*
X01363Y02405*
X01363Y02405*
X01363Y02405*
X01363Y02405*
X01363Y02405*
X01362Y02404*
X01362Y02404*
X01362Y02404*
X01362Y02404*
X01362Y02404*
X01361Y02403*
X01359Y02404*
X01361Y02413*
X0137*
Y02411*
G37*
G36*
X01353Y02395D02*
X01351D01*
Y02409*
X01351Y02409*
X01351Y02409*
X01351Y02409*
X01351Y02409*
X0135Y02408*
X0135Y02408*
X0135Y02408*
X01349Y02408*
X01349*
X01349Y02408*
X01349Y02408*
X01349Y02407*
X01348Y02407*
X01348Y02407*
X01348Y02407*
X01347Y02407*
X01347Y02407*
Y02409*
X01347*
X01347Y02409*
X01347Y02409*
X01347Y02409*
X01347Y02409*
X01348Y02409*
X01348Y02409*
X01349Y0241*
X01349Y0241*
X0135Y0241*
X0135Y02411*
X0135Y02411*
X0135Y02411*
X0135Y02411*
X0135Y02411*
X01351Y02411*
X01351Y02411*
X01351Y02412*
X01352Y02412*
X01352Y02413*
X01352Y02413*
X01353*
Y02395*
G37*
G36*
X01337Y02413D02*
X01337D01*
X01338Y02413*
X01338Y02413*
X01339Y02413*
X01339Y02413*
X0134Y02413*
X0134Y02413*
X0134*
X0134Y02412*
X0134Y02412*
X0134Y02412*
X01341Y02412*
X01341Y02412*
X01341Y02412*
X01341Y02411*
X01342Y02411*
Y02411*
X01342Y02411*
X01342Y02411*
X01342Y0241*
X01342Y0241*
X01342Y0241*
X01342Y02409*
X01343Y02409*
X01343Y02408*
Y02408*
Y02408*
Y02408*
X01343Y02408*
Y02408*
X01342Y02408*
X01342Y02407*
X01342Y02407*
X01342Y02406*
X01342Y02406*
X01342Y02405*
X01341Y02405*
X01341Y02405*
X01341Y02405*
X01341Y02405*
X01341Y02405*
X01341Y02405*
X01341Y02405*
X01341Y02404*
X0134Y02404*
X0134Y02404*
X0134Y02404*
X0134Y02404*
X01339Y02404*
X01339Y02404*
X01338Y02404*
X01338Y02403*
X01338Y02403*
X01338Y02403*
X01338Y02403*
X01338Y02403*
X01338Y02403*
X01339Y02403*
X01339Y02403*
X01339Y02402*
X01339Y02402*
X01339Y02402*
X01339Y02402*
X0134Y02402*
X0134Y02402*
X0134Y02401*
X01341Y02401*
X01341Y024*
X01344Y02395*
X01341*
X01339Y02399*
Y02399*
X01339Y02399*
X01339Y02399*
X01339Y02399*
X01338Y024*
X01338Y024*
X01338Y024*
X01338Y02401*
X01337Y02401*
X01337Y02401*
X01337Y02401*
X01337Y02402*
X01337Y02402*
X01337Y02402*
X01336Y02402*
X01336Y02402*
X01336Y02403*
X01336Y02403*
X01336Y02403*
X01336Y02403*
X01335Y02403*
X01335Y02403*
X01335Y02403*
X01335Y02403*
X01335*
X01335Y02403*
X01335*
X01334Y02403*
X01334Y02403*
X01334*
X01334Y02403*
X01331*
Y02395*
X01328*
Y02413*
X01337*
X01337Y02413*
G37*
G36*
X01561Y02416D02*
X01561Y02416D01*
X01561Y02416*
X01561Y02416*
X01562Y02416*
X01562Y02416*
X01563Y02415*
X01563Y02415*
X01564Y02415*
X01564Y02415*
X01564Y02415*
X01564Y02415*
X01564Y02414*
X01564Y02414*
X01564Y02414*
X01565Y02414*
X01565Y02414*
X01565Y02414*
X01565Y02414*
X01565Y02413*
X01565Y02413*
X01566Y02412*
X01566Y02412*
X01566Y02411*
X01566Y02411*
X01564Y02411*
Y02411*
X01564Y02411*
X01564Y02411*
X01564Y02411*
X01564Y02411*
X01564Y02411*
X01563Y02412*
X01563Y02412*
X01563Y02413*
X01563Y02413*
X01562Y02413*
X01562Y02413*
X01562Y02413*
X01562Y02414*
X01562Y02414*
X01562Y02414*
X01561Y02414*
X01561Y02414*
X0156Y02414*
X0156*
X0156Y02414*
X0156Y02414*
X01559Y02414*
X01559Y02414*
X01559Y02414*
X01558Y02413*
X01558Y02413*
X01558Y02413*
X01558Y02413*
X01557Y02413*
X01557Y02412*
X01557Y02412*
X01557Y02412*
X01557Y02411*
X01557Y0241*
Y0241*
Y0241*
Y0241*
X01557Y0241*
X01557Y0241*
X01557Y0241*
X01557Y02409*
X01557Y02409*
X01557Y02408*
X01558Y02408*
X01558Y02408*
X01558Y02408*
X01558Y02408*
X01558Y02407*
X01559Y02407*
X01559Y02407*
X0156Y02407*
X0156Y02407*
X0156*
X01561Y02407*
X01561Y02407*
X01561Y02407*
X01561Y02407*
X01562Y02407*
X01561Y02405*
X01561*
X01561Y02405*
X01561*
X01561Y02405*
X0156Y02405*
X0156Y02405*
X01559Y02405*
X01559Y02405*
X01559Y02405*
X01559*
X01559Y02405*
X01558Y02405*
X01558Y02404*
X01558Y02404*
X01558Y02404*
X01558Y02403*
X01557Y02403*
X01557Y02403*
Y02402*
Y02402*
Y02402*
Y02402*
X01557Y02402*
X01558Y02402*
X01558Y02401*
X01558Y02401*
X01558Y02401*
X01558Y024*
X01558Y024*
X01558Y024*
X01559Y024*
X01559Y024*
X01559Y024*
X01559Y024*
X0156Y024*
X0156Y024*
X01561*
X01561Y024*
X01561Y024*
X01561Y024*
X01562Y024*
X01562Y024*
X01562Y024*
X01562Y024*
X01563Y02401*
X01563Y02401*
X01563Y02401*
X01563Y02401*
X01563Y02402*
X01563Y02402*
X01564Y02403*
X01566Y02402*
Y02402*
X01566Y02402*
X01566Y02402*
X01566Y02402*
X01566Y02402*
X01565Y02402*
X01565Y02401*
X01565Y02401*
X01565Y024*
X01564Y024*
X01564Y02399*
X01564Y02399*
X01564Y02399*
X01564Y02399*
X01564Y02399*
X01564Y02399*
X01563Y02399*
X01563Y02399*
X01563Y02398*
X01562Y02398*
X01562Y02398*
X01561Y02398*
X01561Y02398*
X0156*
X0156Y02398*
X0156Y02398*
X01559Y02398*
X01559Y02398*
X01558Y02398*
X01558Y02399*
X01558*
X01558Y02399*
X01558Y02399*
X01557Y02399*
X01557Y02399*
X01557Y02399*
X01556Y02399*
X01556Y024*
X01556Y024*
X01556Y024*
X01556Y024*
X01556Y02401*
X01556Y02401*
X01555Y02401*
X01555Y02402*
X01555Y02402*
X01555Y02402*
Y02403*
Y02403*
X01555Y02403*
X01555Y02403*
X01555Y02403*
X01555Y02404*
X01556Y02404*
X01556Y02405*
X01556Y02405*
X01556Y02405*
X01556Y02405*
X01556Y02405*
X01557Y02405*
X01557Y02406*
X01557Y02406*
X01558Y02406*
X01558*
X01558Y02406*
X01558Y02406*
X01557Y02406*
X01557Y02406*
X01557Y02406*
X01556Y02407*
X01556Y02407*
X01556Y02407*
X01555Y02408*
X01555Y02408*
X01555Y02408*
X01555Y02408*
X01555Y02408*
X01555Y02409*
X01554Y02409*
X01554Y0241*
X01554Y0241*
Y0241*
Y02411*
Y02411*
X01554Y02411*
X01554Y02411*
X01554Y02411*
X01555Y02411*
X01555Y02412*
X01555Y02412*
X01555Y02413*
X01555Y02413*
X01555Y02413*
X01555Y02414*
X01556Y02414*
X01556Y02414*
X01556Y02414*
X01556Y02414*
X01556Y02414*
X01556Y02415*
X01557Y02415*
X01557Y02415*
X01557Y02415*
X01557Y02415*
X01558Y02415*
X01558Y02415*
X01558Y02416*
X01559Y02416*
X01559Y02416*
X01559Y02416*
X0156Y02416*
X0156Y02416*
X01561*
X01561Y02416*
G37*
G36*
X01576D02*
X01576D01*
X01576Y02416*
X01577Y02416*
X01577Y02416*
X01578Y02416*
X01578Y02415*
X01579Y02415*
X0158Y02415*
X0158Y02415*
X0158Y02415*
X0158Y02415*
X0158Y02415*
X0158Y02415*
X0158Y02414*
X0158Y02414*
X01581Y02414*
X01581Y02414*
X01581Y02414*
X01581Y02413*
X01582Y02413*
X01582Y02412*
X01583Y02411*
Y02411*
X01583Y02411*
X01583Y02411*
X01583Y02411*
X01583Y02411*
X01583Y02411*
X01583Y0241*
X01583Y0241*
X01583Y0241*
X01583Y02409*
X01583Y02408*
X01583Y02408*
X01584Y02407*
Y02407*
Y02407*
Y02406*
X01583Y02406*
Y02406*
X01583Y02406*
X01583Y02405*
X01583Y02405*
X01583Y02404*
X01583Y02403*
X01583Y02403*
X01582Y02402*
X01582Y02402*
X01582Y02402*
X01582Y02402*
X01582Y02402*
X01582Y02401*
X01582Y02401*
X01582Y02401*
X01581Y024*
X01581Y024*
X0158Y02399*
X01579Y02399*
X01579Y02399*
X01579Y02399*
X01579Y02399*
X01579Y02399*
X01579Y02398*
X01579Y02398*
X01578Y02398*
X01578Y02398*
X01578Y02398*
X01578Y02398*
X01577Y02398*
X01576Y02398*
X01575Y02398*
X01575*
X01575Y02398*
X01575Y02398*
X01574Y02398*
X01574Y02398*
X01574Y02398*
X01573Y02398*
X01572Y02398*
X01572Y02398*
X01571Y02399*
X01571Y02399*
X01571Y02399*
X01571Y02399*
X01571Y02399*
X01571Y02399*
X0157Y02399*
X0157Y02399*
X0157Y024*
X0157Y024*
X0157Y024*
X0157Y024*
X01569Y02401*
X01569Y02401*
X01569Y02401*
X01569Y02402*
X01569Y02402*
X01568Y02402*
X01568Y02403*
X01571Y02403*
Y02403*
X01571Y02403*
X01571Y02403*
X01571Y02403*
X01571Y02403*
X01571Y02403*
X01571Y02402*
X01571Y02402*
X01572Y02401*
X01572Y02401*
X01572Y02401*
X01572Y024*
X01573Y024*
X01573Y024*
X01573Y024*
X01574Y024*
X01574Y024*
X01575Y024*
X01575Y024*
X01575*
X01576Y024*
X01576*
X01576Y024*
X01576Y024*
X01577Y024*
X01578Y024*
X01578Y024*
X01579Y02401*
X01579*
X01579Y02401*
X01579Y02401*
X01579Y02401*
X01579Y02401*
X0158Y02402*
X0158Y02402*
X0158Y02403*
X01581Y02403*
Y02403*
X01581Y02403*
X01581Y02403*
X01581Y02404*
X01581Y02404*
X01581Y02404*
X01581Y02404*
X01581Y02405*
X01581Y02405*
X01581Y02406*
X01581Y02407*
Y02407*
Y02407*
Y02407*
Y02407*
X01581Y02407*
Y02407*
X01581Y02408*
X01581Y02408*
X01581Y02409*
X01581Y02409*
X01581Y0241*
X0158Y02411*
Y02411*
X0158Y02411*
X0158Y02411*
X0158Y02411*
X0158Y02411*
X0158Y02412*
X0158Y02412*
X01579Y02412*
X01579Y02413*
X01578Y02413*
X01578*
X01578Y02413*
X01578Y02413*
X01578Y02413*
X01578Y02413*
X01578Y02413*
X01578Y02414*
X01577Y02414*
X01577Y02414*
X01576Y02414*
X01575Y02414*
X01575*
X01575Y02414*
X01575*
X01575Y02414*
X01574Y02414*
X01574Y02414*
X01573Y02413*
X01573Y02413*
X01572Y02413*
X01572Y02413*
X01572Y02413*
X01572Y02413*
X01572Y02413*
X01572Y02413*
X01572Y02412*
X01572Y02412*
X01572Y02412*
X01571Y02412*
X01571Y02412*
X01571Y02411*
X01571Y02411*
X01571Y02411*
X01571Y02411*
X0157Y0241*
X0157Y0241*
X0157Y02409*
X01568Y0241*
Y0241*
X01568Y0241*
X01568Y0241*
X01568Y02411*
X01568Y02411*
X01568Y02411*
X01568Y02411*
X01569Y02412*
X01569Y02412*
X01569Y02413*
X0157Y02413*
X0157Y02414*
X0157Y02414*
X01571Y02414*
X01571Y02414*
X01571Y02414*
X01571Y02415*
X01571Y02415*
X01571Y02415*
X01571Y02415*
X01572Y02415*
X01572Y02415*
X01572Y02415*
X01573Y02415*
X01573Y02416*
X01573Y02416*
X01574Y02416*
X01574Y02416*
X01575Y02416*
X01575Y02416*
X01576*
X01576Y02416*
G37*
G36*
X01547D02*
X01547Y02416D01*
X01547Y02416*
X01548Y02416*
X01548Y02416*
X01548Y02416*
X01549Y02415*
X01549Y02415*
X01549Y02415*
X0155Y02415*
X0155Y02415*
X0155Y02414*
X0155Y02414*
X0155Y02414*
X01551Y02414*
X01551Y02414*
X01551Y02414*
X01551Y02413*
X01551Y02413*
X01551Y02413*
X01551Y02412*
X01551Y02412*
X01552Y02411*
X01552Y02411*
X01552Y0241*
X01552Y02409*
X01552Y02409*
X01552Y02408*
X01552Y02407*
Y02407*
Y02407*
Y02407*
Y02406*
X01552Y02406*
Y02406*
X01552Y02405*
X01552Y02405*
X01552Y02404*
X01552Y02403*
X01552Y02403*
X01552Y02402*
X01552Y02402*
Y02402*
X01552Y02402*
X01551Y02402*
X01551Y02402*
X01551Y02401*
X01551Y02401*
X01551Y02401*
X01551Y024*
X0155Y024*
X0155Y02399*
X0155Y02399*
X0155*
X0155Y02399*
X0155Y02399*
X01549Y02399*
X01549Y02399*
X01549Y02399*
X01549Y02398*
X01548Y02398*
X01548Y02398*
X01547Y02398*
X01546Y02398*
X01546*
X01546Y02398*
X01546Y02398*
X01545Y02398*
X01545Y02398*
X01544Y02398*
X01544Y02398*
X01544*
X01544Y02398*
X01544Y02399*
X01544Y02399*
X01543Y02399*
X01543Y02399*
X01543Y02399*
X01542Y024*
X01542Y024*
X01542Y024*
X01542Y024*
X01542Y02401*
X01542Y02401*
X01542Y02401*
X01541Y02402*
X01541Y02402*
X01541Y02403*
Y02403*
X01541Y02403*
X01541Y02403*
X01541Y02403*
X01541Y02403*
X01541Y02403*
X01541Y02404*
X01541Y02404*
X01541Y02404*
X01541Y02404*
X01541Y02405*
X01541Y02405*
X01541Y02406*
Y02406*
X01541Y02406*
Y02407*
Y02407*
Y02407*
Y02407*
Y02407*
X01541Y02408*
Y02408*
X01541Y02408*
X01541Y02409*
X01541Y0241*
X01541Y0241*
X01541Y02411*
X01541Y02412*
X01541Y02412*
Y02412*
X01541Y02412*
X01541Y02412*
X01541Y02412*
X01542Y02412*
X01542Y02413*
X01542Y02413*
X01542Y02413*
X01542Y02414*
X01543Y02414*
X01543Y02415*
X01543*
X01543Y02415*
X01543Y02415*
X01543Y02415*
X01544Y02415*
X01544Y02415*
X01544Y02415*
X01545Y02416*
X01545Y02416*
X01546Y02416*
X01546Y02416*
X01547*
X01547Y02416*
G37*
G36*
X01775Y02414D02*
X01775Y02414D01*
X01774Y02413*
X01774Y02413*
X01774Y02413*
X01774Y02413*
X01774Y02413*
X01774Y02413*
X01773Y02412*
X01773Y02412*
X01773Y02412*
X01773Y02411*
X01772Y02411*
X01772Y0241*
X01772Y0241*
X01771Y02409*
X01771Y02409*
X01771Y02409*
X01771Y02409*
X01771Y02409*
X01771Y02408*
X01771Y02408*
X01771Y02408*
X0177Y02407*
X0177Y02407*
X0177Y02406*
X0177Y02406*
X0177Y02405*
X01769Y02405*
X01769Y02404*
X01769Y02403*
Y02403*
X01769Y02403*
X01769Y02402*
X01769Y02402*
X01768Y02402*
X01768Y02402*
X01768Y02402*
X01768Y02401*
X01768Y02401*
X01768Y02401*
X01768Y024*
X01768Y02399*
X01768Y02398*
X01766*
Y02398*
Y02398*
Y02398*
X01766Y02398*
Y02398*
X01766Y02399*
X01766Y02399*
X01766Y02399*
X01766Y024*
X01766Y024*
X01766Y024*
X01766Y02401*
X01766Y02401*
X01766Y02402*
X01766Y02403*
Y02403*
X01766Y02403*
X01766Y02403*
X01767Y02403*
X01767Y02404*
X01767Y02404*
X01767Y02404*
X01767Y02405*
X01767Y02405*
X01767Y02406*
X01768Y02406*
X01768Y02408*
X01769Y02409*
X01769Y02409*
X01769Y02409*
X01769Y02409*
X01769Y02409*
X01769Y02409*
X01769Y02409*
X01769Y0241*
X0177Y0241*
X0177Y02411*
X01771Y02412*
X01771Y02412*
X01772Y02413*
X01763*
Y02415*
X01775*
Y02414*
G37*
G36*
X01754Y02415D02*
X01755D01*
X01755Y02415*
X01756Y02415*
X01756Y02415*
X01757Y02415*
X01757Y02415*
X01757Y02415*
X01758*
X01758Y02415*
X01758Y02415*
X01758Y02415*
X01758Y02415*
X01759Y02414*
X01759Y02414*
X01759Y02414*
X01759Y02413*
Y02413*
X01759Y02413*
X0176Y02413*
X0176Y02413*
X0176Y02413*
X0176Y02412*
X0176Y02412*
X0176Y02411*
X0176Y02411*
Y02411*
Y02411*
Y0241*
X0176Y0241*
Y0241*
X0176Y0241*
X0176Y0241*
X0176Y02409*
X0176Y02409*
X01759Y02408*
X01759Y02408*
X01759Y02407*
X01759Y02407*
X01759Y02407*
X01759Y02407*
X01759Y02407*
X01759Y02407*
X01758Y02407*
X01758Y02407*
X01758Y02407*
X01758Y02407*
X01758Y02407*
X01757Y02406*
X01757Y02406*
X01757Y02406*
X01756Y02406*
X01756Y02406*
X01755Y02406*
X01755Y02406*
X01755Y02406*
X01756Y02406*
X01756Y02406*
X01756Y02405*
X01756Y02405*
X01757Y02405*
X01757Y02405*
X01757Y02405*
X01757Y02405*
X01757Y02404*
X01758Y02404*
X01758Y02404*
X01758Y02403*
X01759Y02403*
X01762Y02398*
X01759*
X01756Y02402*
Y02402*
X01756Y02402*
X01756Y02402*
X01756Y02402*
X01756Y02402*
X01756Y02402*
X01756Y02403*
X01755Y02403*
X01755Y02404*
X01755Y02404*
X01755Y02404*
X01755Y02404*
X01754Y02404*
X01754Y02404*
X01754Y02405*
X01754Y02405*
X01753Y02405*
X01753Y02405*
X01753Y02405*
X01753Y02405*
X01753Y02405*
X01753Y02405*
X01753Y02405*
X01752Y02406*
X01752*
X01752Y02406*
X01752*
X01752Y02406*
X01752Y02406*
X01752*
X01751Y02406*
X01748*
Y02398*
X01746*
Y02415*
X01754*
X01754Y02415*
G37*
G36*
X01816Y01462D02*
X01808D01*
X01808Y01462*
X01808*
X01807Y01462*
X01806Y01462*
X01806Y01462*
X01805Y01462*
X01805Y01462*
X01805Y01462*
X01805*
X01805Y01462*
X01805Y01462*
X01804Y01462*
X01804Y01463*
X01804Y01463*
X01803Y01463*
X01803Y01463*
X01803Y01464*
Y01464*
X01803Y01464*
X01803Y01464*
X01803Y01464*
X01802Y01465*
X01802Y01465*
X01802Y01466*
X01802Y01466*
X01802Y01467*
Y01467*
Y01467*
Y01467*
X01802Y01467*
Y01467*
X01802Y01467*
X01802Y01468*
X01802Y01468*
X01803Y01469*
X01803Y01469*
X01803Y01469*
X01803Y0147*
X01803Y0147*
X01803Y0147*
X01803Y0147*
X01804Y0147*
X01804Y0147*
X01804Y0147*
X01804Y0147*
X01804Y0147*
X01804Y01471*
X01805Y01471*
X01805Y01471*
X01805Y01471*
X01806Y01471*
X01806Y01471*
X01807Y01471*
X01807Y01471*
X01807Y01471*
X01807Y01471*
X01807Y01471*
X01807Y01472*
X01806Y01472*
X01806Y01472*
X01806Y01472*
X01806Y01472*
X01805Y01472*
X01805Y01473*
X01805Y01473*
X01805Y01473*
X01804Y01474*
X01804Y01474*
X01804Y01475*
X01801Y01479*
X01804*
X01806Y01476*
Y01476*
X01806Y01476*
X01806Y01476*
X01806Y01475*
X01806Y01475*
X01806Y01475*
X01807Y01474*
X01807Y01474*
X01807Y01474*
X01808Y01473*
X01808Y01473*
X01808Y01473*
X01808Y01473*
X01808Y01473*
X01808Y01472*
X01809Y01472*
X01809Y01472*
X01809Y01472*
X01809Y01472*
X01809Y01472*
X01809Y01472*
X01809Y01472*
X01809Y01472*
X0181Y01472*
X0181*
X0181Y01472*
X0181*
X0181Y01472*
X0181Y01472*
X01811*
X01811Y01472*
X01814*
Y01479*
X01816*
Y01462*
G37*
G36*
X01779Y01475D02*
X01786D01*
Y01473*
X01778Y01462*
X01776*
Y01473*
X01774*
Y01475*
X01776*
Y01479*
X01779*
Y01475*
G37*
G36*
X01793Y01466D02*
X01793Y01466D01*
X01793Y01466*
X01794Y01466*
X01794Y01466*
X01794Y01466*
X01795Y01466*
X01795Y01467*
X01795Y01467*
X01795*
X01795Y01467*
X01796Y01467*
X01796Y01467*
X01796Y01467*
X01796Y01468*
X01797Y01468*
X01797Y01468*
X01798Y01468*
Y01466*
X01798*
X01798Y01466*
X01797Y01466*
X01797Y01466*
X01797Y01466*
X01797Y01466*
X01797Y01465*
X01796Y01465*
X01796Y01465*
X01795Y01464*
X01794Y01464*
X01794Y01464*
X01794Y01464*
X01794Y01464*
X01794Y01464*
X01794Y01464*
X01794Y01463*
X01793Y01463*
X01793Y01462*
X01793Y01462*
X01793Y01462*
X01791*
Y01479*
X01793*
Y01466*
G37*
G36*
X01306Y01063D02*
X01306Y01062D01*
X01306Y01062*
X01307Y01062*
X01307Y01062*
X01308Y01062*
X01308*
X01308Y01062*
X01308Y01062*
X01308Y01062*
X01309Y01061*
X01309Y01061*
X01309Y01061*
X01309Y01061*
X0131Y0106*
X0131Y0106*
X0131Y0106*
X0131Y0106*
X0131Y0106*
X0131Y01059*
X0131Y01059*
X0131Y01058*
X0131Y01058*
Y01058*
Y01058*
X0131Y01058*
X0131Y01057*
X0131Y01057*
X0131Y01057*
X0131Y01056*
X0131Y01056*
X0131Y01056*
X0131Y01056*
X01309Y01056*
X01309Y01055*
X01309Y01055*
X01309Y01055*
X01308Y01055*
X01308Y01054*
X01308*
X01308Y01054*
X01308Y01054*
X01308Y01054*
X01308Y01054*
X01309Y01054*
X01309Y01054*
X0131Y01054*
X0131Y01053*
X0131Y01053*
X0131Y01053*
X0131Y01053*
X01311Y01052*
X01311Y01052*
X01311Y01052*
X01311Y01051*
X01311Y01051*
X01311Y0105*
Y0105*
Y0105*
Y0105*
X01311Y0105*
X01311Y01049*
X01311Y01049*
X01311Y01049*
X01311Y01049*
X01311Y01048*
X01311Y01048*
X01311Y01047*
X0131Y01047*
X0131Y01047*
X0131Y01046*
X0131Y01046*
X01309Y01046*
X01309Y01046*
X01309Y01046*
X01309Y01046*
X01309Y01046*
X01309Y01046*
X01309Y01045*
X01308Y01045*
X01308Y01045*
X01308Y01045*
X01307Y01045*
X01307Y01045*
X01307Y01045*
X01306Y01045*
X01306Y01045*
X01305Y01045*
X01305*
X01305Y01045*
X01305Y01045*
X01304Y01045*
X01304Y01045*
X01304Y01045*
X01303Y01045*
X01303Y01045*
X01302Y01045*
X01302Y01045*
X01302Y01046*
X01301Y01046*
X01301Y01046*
X01301Y01046*
X01301Y01046*
X01301Y01046*
X01301Y01046*
X01301Y01046*
X01301Y01047*
X01301Y01047*
X013Y01047*
X013Y01047*
X013Y01048*
X013Y01049*
X013Y01049*
X013Y01049*
X01302Y0105*
Y0105*
X01302Y0105*
X01302Y0105*
X01302Y01049*
X01302Y01049*
X01302Y01049*
X01302Y01049*
X01302Y01048*
X01303Y01048*
X01303Y01047*
X01303Y01047*
X01303Y01047*
X01303Y01047*
X01303Y01047*
X01304Y01047*
X01304Y01047*
X01304Y01046*
X01305Y01046*
X01305Y01046*
X01305*
X01306Y01046*
X01306Y01046*
X01306Y01046*
X01307Y01047*
X01307Y01047*
X01307Y01047*
X01308Y01047*
X01308Y01047*
X01308Y01048*
X01308Y01048*
X01308Y01048*
X01309Y01048*
X01309Y01049*
X01309Y01049*
X01309Y0105*
Y0105*
Y0105*
Y0105*
X01309Y0105*
X01309Y0105*
X01309Y01051*
X01309Y01051*
X01309Y01052*
X01308Y01052*
X01308Y01052*
X01308Y01052*
X01308Y01053*
X01308Y01053*
X01307Y01053*
X01307Y01053*
X01306Y01053*
X01306Y01053*
X01305Y01053*
X01305*
X01305Y01053*
X01305Y01053*
X01305Y01053*
X01304Y01053*
X01304Y01053*
X01304Y01055*
X01304*
X01304Y01055*
X01305*
X01305Y01055*
X01305Y01055*
X01306Y01055*
X01306Y01055*
X01307Y01056*
X01307Y01056*
X01307*
X01307Y01056*
X01307Y01056*
X01307Y01056*
X01308Y01056*
X01308Y01057*
X01308Y01057*
X01308Y01057*
X01308Y01058*
Y01058*
Y01058*
Y01058*
Y01058*
X01308Y01058*
X01308Y01059*
X01308Y01059*
X01308Y01059*
X01308Y0106*
X01307Y0106*
X01307Y0106*
X01307Y0106*
X01307Y0106*
X01307Y0106*
X01306Y0106*
X01306Y01061*
X01306Y01061*
X01305Y01061*
X01305*
X01305Y01061*
X01304Y01061*
X01304Y01061*
X01304Y0106*
X01303Y0106*
X01303Y0106*
X01303Y0106*
X01303Y0106*
X01303Y0106*
X01303Y01059*
X01302Y01059*
X01302Y01059*
X01302Y01058*
X01302Y01058*
X013Y01058*
Y01058*
X013Y01058*
X013Y01058*
X013Y01058*
X013Y01059*
X013Y01059*
X013Y01059*
X01301Y0106*
X01301Y0106*
X01301Y01061*
X01302Y01061*
X01302Y01061*
X01302Y01061*
X01302Y01061*
X01302Y01062*
X01302Y01062*
X01302Y01062*
X01302Y01062*
X01303Y01062*
X01303Y01062*
X01304Y01062*
X01304Y01062*
X01305Y01063*
X01305*
X01306Y01063*
G37*
G36*
X01294Y01045D02*
X01292D01*
Y01059*
X01292Y01059*
X01292Y01058*
X01292Y01058*
X01291Y01058*
X01291Y01058*
X01291Y01058*
X0129Y01057*
X0129Y01057*
X0129*
X0129Y01057*
X0129Y01057*
X01289Y01057*
X01289Y01057*
X01289Y01057*
X01288Y01056*
X01288Y01056*
X01288Y01056*
Y01058*
X01288*
X01288Y01058*
X01288Y01058*
X01288Y01058*
X01288Y01058*
X01288Y01058*
X01289Y01059*
X01289Y01059*
X0129Y01059*
X0129Y0106*
X01291Y0106*
X01291Y0106*
X01291Y0106*
X01291Y0106*
X01291Y0106*
X01291Y01061*
X01292Y01061*
X01292Y01061*
X01292Y01062*
X01292Y01062*
X01293Y01063*
X01294*
Y01045*
G37*
G36*
X01277Y01062D02*
X01278D01*
X01278Y01062*
X01279Y01062*
X01279Y01062*
X0128Y01062*
X0128Y01062*
X0128Y01062*
X0128*
X0128Y01062*
X01281Y01062*
X01281Y01062*
X01281Y01062*
X01281Y01061*
X01282Y01061*
X01282Y01061*
X01282Y0106*
Y0106*
X01282Y0106*
X01283Y0106*
X01283Y0106*
X01283Y01059*
X01283Y01059*
X01283Y01059*
X01283Y01058*
X01283Y01058*
Y01058*
Y01058*
Y01057*
X01283Y01057*
Y01057*
X01283Y01057*
X01283Y01057*
X01283Y01056*
X01283Y01055*
X01282Y01055*
X01282Y01055*
X01282Y01054*
X01282Y01054*
X01282Y01054*
X01282Y01054*
X01282Y01054*
X01282Y01054*
X01281Y01054*
X01281Y01054*
X01281Y01054*
X01281Y01054*
X0128Y01054*
X0128Y01053*
X0128Y01053*
X01279Y01053*
X01279Y01053*
X01279Y01053*
X01278Y01053*
X01278Y01053*
X01278Y01053*
X01278Y01053*
X01279Y01053*
X01279Y01052*
X01279Y01052*
X0128Y01052*
X0128Y01052*
X0128Y01052*
X0128Y01052*
X0128Y01051*
X0128Y01051*
X01281Y01051*
X01281Y0105*
X01282Y0105*
X01285Y01045*
X01282*
X01279Y01048*
Y01049*
X01279Y01049*
X01279Y01049*
X01279Y01049*
X01279Y01049*
X01279Y01049*
X01278Y0105*
X01278Y0105*
X01278Y01051*
X01278Y01051*
X01278Y01051*
X01278Y01051*
X01277Y01051*
X01277Y01051*
X01277Y01052*
X01277Y01052*
X01276Y01052*
X01276Y01052*
X01276Y01052*
X01276Y01052*
X01276Y01052*
X01276Y01052*
X01276Y01052*
X01275Y01053*
X01275*
X01275Y01053*
X01275*
X01275Y01053*
X01275Y01053*
X01275*
X01274Y01053*
X01271*
Y01045*
X01269*
Y01062*
X01277*
X01277Y01062*
G37*
G36*
X01308Y01422D02*
X01308Y01422D01*
X01308Y01422*
X01308Y01422*
X01309Y01422*
X01309Y01422*
X0131Y01422*
X0131Y01422*
X01311Y01421*
X01311Y01421*
X01311Y01421*
X01311Y01421*
X01311Y01421*
X01311Y01421*
X01311Y01421*
X01311Y01421*
X01312Y0142*
X01312Y0142*
X01312Y0142*
X01312Y01419*
X01312Y01419*
X01313Y01419*
X01313Y01418*
X01313Y01418*
X01313Y01417*
Y01417*
Y01417*
X01313Y01417*
X01313Y01417*
X01313Y01417*
X01312Y01416*
X01312Y01416*
X01312Y01415*
X01312Y01415*
X01312Y01415*
X01312Y01415*
X01312Y01415*
X01312Y01414*
X01311Y01414*
X01311Y01414*
X01311Y01413*
X01311Y01413*
X01311Y01413*
X0131Y01413*
X0131Y01413*
X0131Y01413*
X0131Y01412*
X0131Y01412*
X01309Y01412*
X01309Y01412*
X01309Y01411*
X01309Y01411*
X01308Y01411*
X01308Y0141*
X01307Y0141*
X01307Y0141*
X01307Y0141*
X01307Y0141*
X01307Y0141*
X01307Y0141*
X01307Y0141*
X01306Y01409*
X01306Y01409*
X01306Y01408*
X01305Y01408*
X01305Y01408*
X01305Y01408*
X01305Y01408*
X01305Y01408*
X01305Y01408*
X01305Y01408*
X01304Y01407*
X01304Y01407*
X01304Y01407*
X01313*
Y01405*
X01301*
Y01405*
Y01405*
Y01405*
X01301Y01405*
X01301Y01405*
X01301Y01406*
X01301Y01406*
X01301Y01406*
Y01406*
X01301Y01406*
X01301Y01406*
X01301Y01407*
X01302Y01407*
X01302Y01407*
X01302Y01408*
X01302Y01408*
X01303Y01409*
Y01409*
X01303Y01409*
X01303Y01409*
X01303Y01409*
X01303Y01409*
X01304Y0141*
X01304Y0141*
X01305Y01411*
X01305Y01411*
X01306Y01411*
X01306Y01411*
X01306Y01411*
X01306Y01412*
X01306Y01412*
X01306Y01412*
X01307Y01412*
X01307Y01413*
X01308Y01413*
X01308Y01414*
X01309Y01414*
X01309Y01414*
X01309Y01415*
X01309Y01415*
Y01415*
X01309Y01415*
X01309Y01415*
X0131Y01415*
X0131Y01415*
X0131Y01416*
X0131Y01416*
X0131Y01417*
X0131Y01417*
X0131Y01418*
Y01418*
Y01418*
X0131Y01418*
X0131Y01418*
X0131Y01418*
X0131Y01419*
X0131Y01419*
X0131Y01419*
X01309Y0142*
X01309Y0142*
X01309Y0142*
X01309Y0142*
X01309Y0142*
X01308Y0142*
X01308Y0142*
X01308Y01421*
X01307Y01421*
X01307*
X01307Y01421*
X01306Y01421*
X01306Y0142*
X01306Y0142*
X01305Y0142*
X01305Y0142*
X01305Y0142*
X01304Y0142*
X01304Y01419*
X01304Y01419*
X01304Y01419*
X01304Y01419*
X01304Y01418*
X01304Y01418*
X01304Y01417*
X01301Y01417*
Y01417*
X01301Y01417*
Y01418*
X01301Y01418*
X01301Y01418*
X01302Y01418*
X01302Y01418*
X01302Y01419*
X01302Y01419*
X01302Y0142*
X01302Y0142*
X01303Y01421*
X01303Y01421*
X01303Y01421*
X01303Y01421*
X01303Y01421*
X01303Y01421*
X01303Y01421*
X01304Y01421*
X01304Y01421*
X01304Y01422*
X01304Y01422*
X01304Y01422*
X01305Y01422*
X01305Y01422*
X01305Y01422*
X01306Y01422*
X01306Y01422*
X01307Y01422*
X01307Y01422*
X01307*
X01308Y01422*
G37*
G36*
X01296Y01405D02*
X01294D01*
Y01418*
X01294Y01418*
X01293Y01418*
X01293Y01418*
X01293Y01418*
X01293Y01418*
X01292Y01418*
X01292Y01417*
X01291Y01417*
X01291*
X01291Y01417*
X01291Y01417*
X01291Y01417*
X01291Y01417*
X0129Y01416*
X0129Y01416*
X0129Y01416*
X01289Y01416*
Y01418*
X01289*
X01289Y01418*
X01289Y01418*
X0129Y01418*
X0129Y01418*
X0129Y01418*
X0129Y01419*
X01291Y01419*
X01291Y01419*
X01292Y0142*
X01292Y0142*
X01292Y0142*
X01292Y0142*
X01292Y0142*
X01293Y0142*
X01293Y0142*
X01293Y01421*
X01293Y01421*
X01294Y01422*
X01294Y01422*
X01294Y01422*
X01296*
Y01405*
G37*
G36*
X01279Y01422D02*
X01279D01*
X0128Y01422*
X0128Y01422*
X01281Y01422*
X01282Y01422*
X01282Y01422*
X01282Y01422*
X01282*
X01282Y01422*
X01282Y01422*
X01283Y01422*
X01283Y01421*
X01283Y01421*
X01283Y01421*
X01284Y01421*
X01284Y0142*
Y0142*
X01284Y0142*
X01284Y0142*
X01284Y0142*
X01284Y01419*
X01285Y01419*
X01285Y01419*
X01285Y01418*
X01285Y01417*
Y01417*
Y01417*
Y01417*
X01285Y01417*
Y01417*
X01285Y01417*
X01285Y01416*
X01284Y01416*
X01284Y01415*
X01284Y01415*
X01284Y01415*
X01284Y01414*
X01284Y01414*
X01283Y01414*
X01283Y01414*
X01283Y01414*
X01283Y01414*
X01283Y01414*
X01283Y01414*
X01283Y01414*
X01282Y01413*
X01282Y01413*
X01282Y01413*
X01281Y01413*
X01281Y01413*
X01281Y01413*
X0128Y01413*
X0128Y01413*
X0128Y01413*
X0128Y01413*
X0128Y01413*
X0128Y01412*
X01281Y01412*
X01281Y01412*
X01281Y01412*
X01281Y01412*
X01281Y01412*
X01282Y01411*
X01282Y01411*
X01282Y01411*
X01282Y0141*
X01283Y0141*
X01283Y01409*
X01286Y01405*
X01283*
X01281Y01408*
Y01408*
X01281Y01408*
X01281Y01408*
X01281Y01409*
X01281Y01409*
X0128Y01409*
X0128Y0141*
X0128Y0141*
X0128Y0141*
X01279Y01411*
X01279Y01411*
X01279Y01411*
X01279Y01411*
X01279Y01411*
X01278Y01412*
X01278Y01412*
X01278Y01412*
X01278Y01412*
X01278Y01412*
X01278Y01412*
X01278Y01412*
X01278Y01412*
X01277Y01412*
X01277Y01412*
X01277*
X01277Y01412*
X01277*
X01277Y01412*
X01277Y01412*
X01276*
X01276Y01412*
X01273*
Y01405*
X01271*
Y01422*
X01279*
X01279Y01422*
G37*
G36*
X01307Y01224D02*
X01305D01*
Y01237*
X01304Y01237*
X01304Y01237*
X01304Y01237*
X01304Y01237*
X01304Y01237*
X01303Y01237*
X01303Y01236*
X01302Y01236*
X01302*
X01302Y01236*
X01302Y01236*
X01302Y01236*
X01302Y01236*
X01301Y01235*
X01301Y01235*
X01301Y01235*
X013Y01235*
Y01237*
X013*
X013Y01237*
X013Y01237*
X013Y01237*
X01301Y01237*
X01301Y01237*
X01301Y01238*
X01302Y01238*
X01302Y01238*
X01303Y01239*
X01303Y01239*
X01303Y01239*
X01303Y01239*
X01303Y01239*
X01304Y01239*
X01304Y01239*
X01304Y0124*
X01304Y0124*
X01305Y01241*
X01305Y01241*
X01305Y01241*
X01307*
Y01224*
G37*
G36*
X01293D02*
X01291D01*
Y01237*
X01291Y01237*
X01291Y01237*
X0129Y01237*
X0129Y01237*
X0129Y01237*
X0129Y01237*
X01289Y01236*
X01289Y01236*
X01289*
X01289Y01236*
X01289Y01236*
X01288Y01236*
X01288Y01236*
X01288Y01235*
X01287Y01235*
X01287Y01235*
X01286Y01235*
Y01237*
X01286*
X01287Y01237*
X01287Y01237*
X01287Y01237*
X01287Y01237*
X01287Y01237*
X01288Y01238*
X01288Y01238*
X01289Y01238*
X01289Y01239*
X0129Y01239*
X0129Y01239*
X0129Y01239*
X0129Y01239*
X0129Y01239*
X0129Y01239*
X0129Y0124*
X01291Y0124*
X01291Y01241*
X01291Y01241*
X01292Y01241*
X01293*
Y01224*
G37*
G36*
X01276Y01241D02*
X01277D01*
X01277Y01241*
X01278Y01241*
X01278Y01241*
X01279Y01241*
X01279Y01241*
X01279Y01241*
X01279*
X01279Y01241*
X0128Y01241*
X0128Y01241*
X0128Y0124*
X0128Y0124*
X01281Y0124*
X01281Y0124*
X01281Y01239*
Y01239*
X01281Y01239*
X01281Y01239*
X01282Y01239*
X01282Y01238*
X01282Y01238*
X01282Y01238*
X01282Y01237*
X01282Y01236*
Y01236*
Y01236*
Y01236*
X01282Y01236*
Y01236*
X01282Y01236*
X01282Y01235*
X01282Y01235*
X01282Y01234*
X01281Y01234*
X01281Y01234*
X01281Y01233*
X01281Y01233*
X01281Y01233*
X01281Y01233*
X01281Y01233*
X0128Y01233*
X0128Y01233*
X0128Y01233*
X0128Y01233*
X0128Y01232*
X01279Y01232*
X01279Y01232*
X01279Y01232*
X01278Y01232*
X01278Y01232*
X01278Y01232*
X01277Y01232*
X01277Y01232*
X01277Y01232*
X01277Y01232*
X01278Y01231*
X01278Y01231*
X01278Y01231*
X01278Y01231*
X01278Y01231*
X01279Y01231*
X01279Y0123*
X01279Y0123*
X01279Y0123*
X0128Y01229*
X0128Y01229*
X0128Y01228*
X01283Y01224*
X01281*
X01278Y01227*
Y01227*
X01278Y01227*
X01278Y01227*
X01278Y01228*
X01278Y01228*
X01278Y01228*
X01277Y01229*
X01277Y01229*
X01277Y01229*
X01277Y0123*
X01276Y0123*
X01276Y0123*
X01276Y0123*
X01276Y0123*
X01276Y01231*
X01276Y01231*
X01275Y01231*
X01275Y01231*
X01275Y01231*
X01275Y01231*
X01275Y01231*
X01275Y01231*
X01275Y01231*
X01274Y01231*
X01274*
X01274Y01231*
X01274*
X01274Y01231*
X01274Y01231*
X01274*
X01273Y01231*
X0127*
Y01224*
X01268*
Y01241*
X01276*
X01276Y01241*
G37*
G36*
X01942Y01147D02*
X01942Y01147D01*
Y01146*
X01942Y01146*
X01942Y01145*
X01942Y01145*
X01941Y01144*
X01941Y01144*
X01941Y01144*
Y01144*
X01941Y01144*
X01941Y01143*
X01941Y01143*
X01941Y01143*
X01941Y01143*
X0194Y01142*
X0194Y01142*
X0194Y01142*
X0194*
X0194Y01142*
X01939Y01142*
X01939Y01141*
X01939Y01141*
X01938Y01141*
X01938Y01141*
X01938Y01141*
X01937Y01141*
X01937*
X01937*
X01937*
X01937Y01141*
X01937*
X01936Y01141*
X01936Y01141*
X01935Y01141*
X01935Y01141*
X01934Y01142*
X01934Y01142*
X01934Y01142*
X01934Y01142*
X01934Y01142*
X01934Y01142*
X01934Y01142*
X01934Y01142*
X01933Y01143*
X01933Y01143*
X01933Y01143*
X01933Y01143*
X01933Y01144*
X01933Y01144*
X01933Y01144*
X01932Y01145*
X01932Y01145*
X01932Y01145*
X01932Y01146*
X01932Y01146*
X01932Y01146*
X01932Y01146*
X01932Y01145*
X01932Y01145*
X01931Y01145*
X01931Y01144*
X01931Y01144*
X01931Y01144*
X01931Y01144*
X01931Y01144*
X0193Y01144*
X0193Y01143*
X01929Y01143*
X01929Y01143*
X01924Y01139*
Y01142*
X01928Y01145*
X01928*
X01928Y01145*
X01928Y01145*
X01928Y01145*
X01928Y01145*
X01929Y01145*
X01929Y01146*
X0193Y01146*
X0193Y01146*
X0193Y01146*
X0193Y01146*
X0193Y01146*
X01931Y01147*
X01931Y01147*
X01931Y01147*
X01931Y01147*
X01931Y01148*
X01931Y01148*
X01931Y01148*
X01932Y01148*
X01932Y01148*
X01932Y01148*
X01932Y01148*
X01932Y01149*
Y01149*
X01932Y01149*
Y01149*
X01932Y01149*
X01932Y01149*
Y01149*
X01932Y0115*
Y01153*
X01924*
Y01155*
X01942*
Y01147*
G37*
G36*
X01933Y01138D02*
X01933D01*
X01934Y01138*
X01934Y01138*
X01935Y01138*
X01935Y01138*
X01936Y01138*
X01936Y01138*
X01937Y01138*
X01938Y01137*
X01938Y01137*
X01939Y01137*
X01939Y01137*
X0194Y01136*
X0194Y01136*
X0194Y01136*
X0194Y01136*
X0194Y01136*
X0194Y01136*
X0194Y01136*
X01941Y01135*
X01941Y01135*
X01941Y01135*
X01941Y01135*
X01941Y01134*
X01942Y01134*
X01942Y01133*
X01942Y01133*
X01942Y01132*
X01942Y01132*
Y01132*
X01942Y01132*
Y01131*
X01942Y01131*
X01942Y01131*
X01942Y0113*
X01941Y0113*
X01941Y01129*
X01941Y01129*
X01941Y01128*
X01941Y01128*
X01941Y01128*
X01941Y01128*
X01941Y01128*
X0194Y01128*
X0194Y01128*
X0194Y01128*
X01939Y01127*
X01939Y01127*
X01938Y01127*
X01938Y01127*
X01937Y01129*
X01937*
X01937Y01129*
X01938Y01129*
X01938Y01129*
X01938Y01129*
X01938Y01129*
X01939Y01129*
X01939Y0113*
X01939Y0113*
X01939Y0113*
X01939Y0113*
X01939Y0113*
X0194Y0113*
X0194Y01131*
X0194Y01131*
X0194Y01132*
X0194Y01132*
Y01132*
X0194Y01132*
X0194Y01133*
X0194Y01133*
X0194Y01133*
X0194Y01134*
X0194Y01134*
X0194Y01134*
X01939Y01134*
X01939Y01134*
X01939Y01134*
X01939Y01135*
X01938Y01135*
X01938Y01135*
X01937Y01135*
X01937*
X01937Y01135*
X01937Y01136*
X01937Y01136*
X01937Y01136*
X01937Y01136*
X01937Y01136*
X01936Y01136*
X01936Y01136*
X01936Y01136*
X01935Y01136*
X01935Y01136*
X01935Y01136*
X01934Y01136*
X01934Y01136*
X01933*
X01933Y01136*
X01933Y01136*
X01934Y01136*
X01934Y01136*
X01934Y01135*
X01935Y01135*
X01935Y01135*
X01935Y01134*
Y01134*
X01935Y01134*
X01935Y01134*
X01935Y01134*
X01935Y01133*
X01935Y01133*
X01936Y01133*
X01936Y01132*
X01936Y01132*
Y01132*
X01936Y01131*
X01936Y01131*
X01936Y01131*
X01935Y01131*
X01935Y0113*
X01935Y0113*
X01935Y0113*
X01935Y01129*
X01935Y01129*
X01935Y01129*
X01934Y01128*
X01934Y01128*
X01934Y01128*
X01934Y01128*
X01934Y01128*
X01934Y01128*
X01934Y01128*
X01933Y01128*
X01933Y01127*
X01933Y01127*
X01933Y01127*
X01932Y01127*
X01932Y01127*
X01932Y01127*
X01931Y01127*
X01931Y01127*
X0193Y01127*
X0193Y01127*
X0193*
X0193*
X0193*
X0193*
X01929Y01127*
X01929*
X01929Y01127*
X01928Y01127*
X01928Y01127*
X01927Y01127*
X01927Y01127*
X01927*
X01927Y01127*
X01927Y01127*
X01927Y01127*
X01926Y01128*
X01926Y01128*
X01926Y01128*
X01925Y01128*
X01925Y01129*
X01925Y01129*
Y01129*
X01925Y01129*
X01925Y01129*
X01925Y01129*
X01924Y0113*
X01924Y0113*
X01924Y0113*
X01924Y01131*
X01924Y01132*
X01924Y01132*
Y01132*
X01924Y01132*
Y01133*
X01924Y01133*
X01924Y01133*
X01924Y01133*
X01924Y01134*
X01924Y01134*
X01924Y01134*
X01925Y01135*
X01925Y01135*
X01925Y01135*
X01925Y01136*
X01926Y01136*
X01926Y01137*
X01926Y01137*
X01926Y01137*
X01926Y01137*
X01926Y01137*
X01926Y01137*
X01927Y01137*
X01927Y01137*
X01927Y01137*
X01928Y01138*
X01928Y01138*
X01929Y01138*
X01929Y01138*
X0193Y01138*
X01931Y01138*
X01932Y01138*
X01932Y01138*
X01932*
X01932*
X01933*
X01933*
X01933Y01138*
G37*
G36*
X01019Y01278D02*
X01019Y01278D01*
X01019Y01278*
X01019Y01278*
X0102Y01278*
X0102Y01278*
X01021Y01278*
X01021Y01277*
X01022Y01277*
X01022Y01277*
X01022Y01277*
X01022Y01277*
X01022Y01277*
X01023Y01277*
X01023Y01276*
X01023Y01276*
X01023Y01276*
X01023Y01276*
X01023Y01276*
X01024Y01275*
X01024Y01275*
X01024Y01274*
X01024Y01274*
X01024Y01274*
X01024Y01273*
X01024Y01273*
X01024Y01272*
Y01272*
X01024Y01272*
X01024Y01272*
X01024Y01271*
X01024Y01271*
X01024Y01271*
X01024Y0127*
X01024Y01269*
X01024Y01269*
X01024Y01269*
X01023Y01268*
X01023Y01268*
X01023Y01268*
X01023Y01268*
X01023Y01268*
X01023Y01268*
X01023Y01268*
X01023Y01268*
X01022Y01268*
X01022Y01267*
X01022Y01267*
X01022Y01267*
X01021Y01267*
X0102Y01267*
X0102Y01267*
X0102Y01266*
X01019Y01269*
X01019*
X01019*
X0102Y01269*
X0102Y01269*
X0102Y01269*
X0102Y01269*
X01021Y01269*
X01021Y01269*
X01022Y0127*
X01022Y0127*
X01022Y0127*
X01022Y0127*
X01022Y0127*
X01022Y01271*
X01022Y01271*
X01023Y01271*
X01023Y01272*
X01023Y01272*
Y01272*
X01023Y01272*
X01023Y01273*
X01023Y01273*
X01022Y01273*
X01022Y01274*
X01022Y01274*
X01022Y01275*
X01022Y01275*
X01021Y01275*
X01021Y01275*
X01021Y01275*
X01021Y01275*
X01021Y01275*
X01021Y01275*
X0102Y01276*
X0102Y01276*
X01019Y01276*
X01019Y01276*
X01018*
X01018*
X01018*
X01018*
X01018Y01276*
X01018*
X01018Y01276*
X01017Y01276*
X01017Y01276*
X01016Y01275*
X01016Y01275*
X01015Y01275*
X01015*
X01015Y01275*
X01015Y01275*
X01015Y01274*
X01015Y01274*
X01015Y01274*
X01015Y01273*
X01014Y01273*
X01014Y01272*
Y01272*
X01014Y01272*
X01014Y01271*
X01014Y01271*
X01015Y01271*
X01015Y01271*
X01015Y0127*
X01015Y0127*
X01015Y0127*
X01015Y0127*
X01015Y0127*
X01015Y01269*
X01016Y01269*
X01016Y01269*
X01016Y01269*
X01016Y01267*
X01007Y01269*
Y01277*
X01009*
Y0127*
X01014Y01269*
X01014Y01269*
X01014Y01269*
X01013Y01269*
X01013Y0127*
X01013Y0127*
X01013Y0127*
X01013Y0127*
X01013Y01271*
X01013Y01271*
X01013Y01272*
X01012Y01272*
Y01273*
X01012Y01273*
X01013Y01273*
X01013Y01273*
X01013Y01274*
X01013Y01274*
X01013Y01275*
X01013Y01275*
X01013Y01275*
X01013Y01276*
X01014Y01276*
X01014Y01276*
X01014Y01277*
X01014Y01277*
X01014Y01277*
X01014Y01277*
X01014Y01277*
X01015Y01277*
X01015Y01277*
X01015Y01277*
X01015Y01277*
X01015Y01278*
X01016Y01278*
X01016Y01278*
X01016Y01278*
X01017Y01278*
X01017Y01278*
X01018Y01278*
X01018Y01278*
X01018*
X01018*
X01018*
X01019Y01278*
G37*
G36*
X01024Y01262D02*
X0102Y0126D01*
X0102*
X0102Y0126*
X0102Y0126*
X0102Y0126*
X0102Y01259*
X0102Y01259*
X01019Y01259*
X01019Y01259*
X01018Y01258*
X01018Y01258*
X01018Y01258*
X01018Y01258*
X01018Y01258*
X01018Y01258*
X01017Y01257*
X01017Y01257*
X01017Y01257*
X01017Y01257*
X01017Y01257*
X01017Y01257*
X01017Y01257*
X01017Y01256*
X01017Y01256*
X01016Y01256*
Y01256*
X01016Y01256*
Y01256*
X01016Y01256*
X01016Y01255*
Y01255*
X01016Y01255*
Y01252*
X01024*
Y0125*
X01007*
Y01258*
X01007Y01258*
Y01258*
X01007Y01259*
X01007Y01259*
X01007Y0126*
X01007Y0126*
X01007Y01261*
X01007Y01261*
Y01261*
X01007Y01261*
X01007Y01261*
X01007Y01261*
X01007Y01262*
X01008Y01262*
X01008Y01262*
X01008Y01263*
X01009Y01263*
X01009*
X01009Y01263*
X01009Y01263*
X01009Y01263*
X01009Y01263*
X0101Y01263*
X0101Y01264*
X01011Y01264*
X01011Y01264*
X01011*
X01011*
X01012*
X01012Y01264*
X01012*
X01012Y01264*
X01012Y01264*
X01013Y01263*
X01013Y01263*
X01014Y01263*
X01014Y01263*
X01015Y01262*
X01015Y01262*
X01015Y01262*
X01015Y01262*
X01015Y01262*
X01015Y01262*
X01015Y01262*
X01015Y01262*
X01015Y01262*
X01015Y01261*
X01015Y01261*
X01016Y01261*
X01016Y0126*
X01016Y0126*
X01016Y0126*
X01016Y01259*
X01016Y01259*
X01016Y01259*
X01016Y01259*
X01016Y01259*
X01016Y01259*
X01017Y0126*
X01017Y0126*
X01017Y0126*
X01017Y0126*
X01017Y0126*
X01017Y0126*
X01018Y01261*
X01018Y01261*
X01018Y01261*
X01019Y01262*
X01019Y01262*
X01024Y01265*
Y01262*
G37*
G36*
X00444Y01091D02*
X00444Y01091D01*
X00444Y01091*
X00444Y01091*
X00444Y01091*
X00445Y01091*
X00445Y0109*
X00446Y0109*
X00446Y0109*
X00446Y0109*
X00447Y0109*
X00447Y01089*
X00447Y01089*
X00447Y01089*
X00447Y01089*
X00447Y01089*
X00447Y01089*
X00448Y01089*
X00448Y01088*
X00448Y01088*
X00448Y01088*
X00448Y01087*
X00448Y01087*
X00448Y01087*
X00448Y01086*
X00449Y01086*
X00449Y01085*
X00449Y01085*
Y01085*
X00449Y01085*
X00449Y01084*
X00449Y01084*
X00449Y01084*
X00448Y01084*
X00448Y01083*
X00448Y01082*
X00448Y01082*
X00448Y01082*
X00447Y01081*
X00447Y01081*
X00447Y01081*
X00447Y01081*
X00447Y01081*
X00447Y01081*
X00447Y01081*
X00447Y01081*
X00447Y0108*
X00446Y0108*
X00446Y0108*
X00446Y0108*
X00445Y0108*
X00444Y0108*
X00444Y01079*
X00444Y01079*
X00443Y01082*
X00443*
X00443Y01082*
X00444Y01082*
X00444Y01082*
X00444Y01082*
X00444Y01082*
X00444Y01082*
X00445Y01082*
X00445Y01082*
X00446Y01083*
X00446Y01083*
X00446Y01083*
X00446Y01083*
X00446Y01083*
X00446Y01083*
X00447Y01084*
X00447Y01084*
X00447Y01085*
X00447Y01085*
Y01085*
X00447Y01085*
X00447Y01086*
X00447Y01086*
X00447Y01086*
X00446Y01087*
X00446Y01087*
X00446Y01088*
X00446Y01088*
X00446Y01088*
X00445Y01088*
X00445Y01088*
X00445Y01088*
X00444Y01088*
X00444Y01089*
X00443Y01089*
X00443*
X00443*
X00443*
X00443Y01089*
X00443Y01089*
X00442Y01089*
X00442Y01088*
X00441Y01088*
X00441Y01088*
X00441Y01088*
X00441Y01088*
X00441Y01087*
X0044Y01087*
X0044Y01087*
X0044Y01087*
X0044Y01086*
X0044Y01086*
X0044Y01085*
Y01085*
X0044Y01085*
X0044Y01085*
X0044Y01084*
X0044Y01084*
X0044Y01084*
X00438Y01084*
Y01084*
X00438Y01084*
Y01084*
X00438Y01085*
X00438Y01085*
X00438Y01085*
X00438Y01086*
X00438Y01086*
X00437Y01087*
Y01087*
X00437Y01087*
X00437Y01087*
X00437Y01087*
X00437Y01087*
X00436Y01088*
X00436Y01088*
X00436Y01088*
X00435Y01088*
X00435*
X00435*
X00435*
X00435*
X00435Y01088*
X00434Y01088*
X00434Y01088*
X00434Y01088*
X00433Y01087*
X00433Y01087*
X00433Y01087*
X00433Y01087*
X00433Y01087*
X00433Y01086*
X00433Y01086*
X00433Y01086*
X00432Y01085*
X00432Y01085*
Y01085*
X00432Y01085*
X00432Y01084*
X00433Y01084*
X00433Y01084*
X00433Y01083*
X00433Y01083*
X00433Y01083*
X00433Y01083*
X00434Y01083*
X00434Y01082*
X00434Y01082*
X00435Y01082*
X00435Y01082*
X00436Y01082*
X00435Y0108*
X00435*
X00435Y0108*
X00435Y0108*
X00435Y0108*
X00435Y0108*
X00434Y0108*
X00434Y0108*
X00433Y0108*
X00433Y01081*
X00432Y01081*
X00432Y01081*
X00432Y01081*
X00432Y01081*
X00432Y01082*
X00432Y01082*
X00432Y01082*
X00431Y01082*
X00431Y01082*
X00431Y01082*
X00431Y01083*
X00431Y01083*
X00431Y01084*
X00431Y01085*
Y01085*
X00431Y01085*
X00431Y01086*
X00431Y01086*
X00431Y01087*
X00431Y01087*
X00431Y01088*
Y01088*
X00431Y01088*
X00431Y01088*
X00431Y01088*
X00432Y01088*
X00432Y01089*
X00432Y01089*
X00433Y01089*
X00433Y01089*
X00433Y01089*
X00433Y0109*
X00433Y0109*
X00434Y0109*
X00434Y0109*
X00434Y0109*
X00435Y0109*
X00435Y0109*
X00435*
X00435*
X00436Y0109*
X00436Y0109*
X00436Y0109*
X00437Y0109*
X00437Y0109*
X00437Y01089*
X00437Y01089*
X00437Y01089*
X00438Y01089*
X00438Y01089*
X00438Y01089*
X00438Y01088*
X00439Y01088*
X00439Y01088*
Y01088*
X00439Y01088*
X00439Y01088*
X00439Y01088*
X00439Y01088*
X00439Y01089*
X00439Y01089*
X0044Y01089*
X0044Y0109*
X0044Y0109*
X0044Y0109*
X0044Y0109*
X00441Y0109*
X00441Y01091*
X00441Y01091*
X00442Y01091*
X00443Y01091*
X00443Y01091*
X00443*
X00443*
X00443*
X00444Y01091*
G37*
G36*
X00444Y01077D02*
X00444Y01077D01*
X00444Y01077*
X00444Y01077*
X00445Y01077*
X00445Y01077*
X00446Y01077*
X00446Y01077*
X00446Y01076*
X00446Y01076*
X00447Y01076*
X00447Y01076*
X00447Y01076*
X00447Y01076*
X00447Y01075*
X00447Y01075*
X00447Y01075*
X00448Y01075*
X00448Y01075*
X00448Y01075*
X00448Y01074*
X00448Y01074*
X00448Y01074*
X00448Y01073*
X00448Y01073*
X00449Y01072*
X00449Y01072*
X00449Y01071*
Y01071*
X00449Y01071*
X00449Y01071*
X00449Y01071*
X00449Y0107*
X00448Y0107*
X00448Y01069*
X00448Y01069*
X00448Y01069*
X00448Y01068*
X00448Y01068*
X00447Y01068*
X00447Y01067*
X00447Y01067*
X00447Y01067*
X00447Y01067*
X00447Y01067*
X00447Y01067*
X00446Y01067*
X00446Y01067*
X00446Y01066*
X00446Y01066*
X00445Y01066*
X00445Y01066*
X00444Y01066*
X00444Y01066*
X00444Y01066*
X00443Y01066*
X00443*
X00443*
X00443*
X00443Y01066*
X00443*
X00443Y01066*
X00442Y01066*
X00442Y01066*
X00441Y01066*
X00441Y01066*
X0044Y01066*
X0044*
X0044Y01067*
X0044Y01067*
X0044Y01067*
X0044Y01067*
X00439Y01067*
X00439Y01068*
X00439Y01068*
X00439Y01069*
Y01069*
X00439Y01069*
X00439Y01069*
X00439Y01069*
X00439Y01069*
X00438Y01068*
X00438Y01068*
X00438Y01068*
X00438Y01067*
X00437Y01067*
X00437Y01067*
X00437Y01067*
X00437Y01067*
X00437Y01067*
X00436Y01067*
X00436Y01066*
X00436Y01066*
X00435Y01066*
X00435*
X00435*
X00435*
X00435Y01066*
X00435Y01066*
X00434Y01066*
X00434Y01067*
X00434Y01067*
X00433Y01067*
X00433Y01067*
X00432Y01067*
X00432Y01067*
X00432Y01068*
X00432Y01068*
X00432Y01068*
X00432Y01068*
X00432Y01068*
X00432Y01068*
X00432Y01068*
X00431Y01068*
X00431Y01069*
X00431Y01069*
X00431Y01069*
X00431Y0107*
X00431Y0107*
X00431Y01071*
X00431Y01071*
X00431Y01071*
Y01072*
X00431Y01072*
X00431Y01072*
X00431Y01072*
X00431Y01072*
X00431Y01073*
X00431Y01073*
X00431Y01074*
X00431Y01074*
X00431Y01075*
X00432Y01075*
X00432Y01075*
X00432Y01075*
X00432Y01075*
X00432Y01075*
X00432Y01075*
X00432Y01075*
X00432Y01076*
X00433Y01076*
X00433Y01076*
X00434Y01076*
X00435Y01076*
X00435Y01077*
X00435Y01077*
X00435*
X00435*
X00435*
X00436Y01077*
X00436Y01076*
X00436Y01076*
X00437Y01076*
X00437Y01076*
X00437Y01076*
X00437Y01076*
X00438Y01076*
X00438Y01076*
X00438Y01075*
X00438Y01075*
X00438Y01075*
X00439Y01074*
X00439Y01074*
Y01074*
X00439Y01074*
X00439Y01074*
X00439Y01074*
X00439Y01075*
X00439Y01075*
X00439Y01075*
X0044Y01076*
X0044Y01076*
X0044Y01076*
X00441*
X00441Y01076*
X00441Y01077*
X00441Y01077*
X00441Y01077*
X00442Y01077*
X00442Y01077*
X00443Y01077*
X00443Y01077*
X00443*
X00443*
X00444*
X00444Y01077*
G37*
G36*
X00443Y01064D02*
X00443Y01064D01*
X00443Y01064*
X00443Y01063*
X00444Y01063*
X00444Y01063*
X00444Y01063*
X00445Y01063*
X00446Y01062*
X00446Y01062*
X00447Y01062*
X00447Y01061*
X00447Y01061*
X00447Y01061*
X00447Y01061*
X00447Y01061*
X00447Y01061*
X00447Y0106*
X00448Y0106*
X00448Y0106*
X00448Y0106*
X00448Y01059*
X00448Y01059*
X00448Y01059*
X00448Y01058*
X00449Y01058*
X00449Y01057*
X00449Y01057*
X00449Y01056*
Y01056*
X00449Y01056*
Y01056*
X00449Y01055*
X00449Y01055*
X00448Y01055*
X00448Y01054*
X00448Y01053*
X00448Y01052*
X00448Y01052*
X00447Y01052*
X00447Y01052*
X00447Y01052*
X00447Y01052*
X00447Y01051*
X00447Y01051*
X00447Y01051*
X00447Y01051*
X00447Y01051*
X00446Y0105*
X00446Y0105*
X00446Y0105*
X00445Y01049*
X00444Y01049*
X00444*
X00444Y01049*
X00444Y01049*
X00444Y01049*
X00444Y01049*
X00443Y01049*
X00443Y01049*
X00443Y01049*
X00442Y01048*
X00442Y01048*
X00441Y01048*
X0044Y01048*
X00439Y01048*
X00439*
X00439*
X00439*
X00439Y01048*
X00439*
X00438Y01048*
X00438Y01048*
X00438Y01048*
X00437Y01048*
X00436Y01048*
X00435Y01049*
X00435Y01049*
X00435Y01049*
X00434Y01049*
X00434Y01049*
X00434Y01049*
X00434Y01049*
X00434Y0105*
X00433Y0105*
X00433Y0105*
X00432Y01051*
X00432Y01051*
X00431Y01052*
X00431Y01052*
X00431Y01052*
X00431Y01052*
X00431Y01052*
X00431Y01053*
X00431Y01053*
X00431Y01053*
X00431Y01053*
X00431Y01054*
X00431Y01054*
X00431Y01055*
X0043Y01056*
X0043Y01056*
Y01057*
X0043Y01057*
X0043Y01057*
X0043Y01057*
X0043Y01058*
X00431Y01058*
X00431Y01059*
X00431Y01059*
X00431Y0106*
X00431Y0106*
X00431Y0106*
X00432Y01061*
X00432Y01061*
X00432Y01061*
X00432Y01061*
X00432Y01061*
X00432Y01061*
X00432Y01061*
X00432Y01062*
X00433Y01062*
X00433Y01062*
X00433Y01062*
X00434Y01062*
X00434Y01063*
X00434Y01063*
X00435Y01063*
X00435Y01063*
X00436Y01063*
X00436Y01061*
X00436*
X00436Y01061*
X00436Y01061*
X00436Y01061*
X00436Y01061*
X00435Y01061*
X00435Y01061*
X00435Y0106*
X00434Y0106*
X00434Y0106*
X00433Y01059*
X00433Y01059*
X00433Y01059*
X00433Y01059*
X00433Y01058*
X00433Y01058*
X00432Y01058*
X00432Y01057*
X00432Y01056*
Y01056*
X00432Y01056*
Y01056*
X00432Y01056*
X00432Y01055*
X00433Y01055*
X00433Y01054*
X00433Y01053*
X00433Y01053*
Y01053*
X00433Y01053*
X00434Y01053*
X00434Y01052*
X00434Y01052*
X00434Y01052*
X00435Y01052*
X00435Y01051*
X00436Y01051*
X00436*
X00436Y01051*
X00436Y01051*
X00436Y01051*
X00436Y01051*
X00437Y01051*
X00437Y01051*
X00438Y01051*
X00438Y01051*
X00439Y0105*
X00439Y0105*
X00439*
X00439*
X0044*
X0044*
X0044Y0105*
X0044*
X0044Y01051*
X00441Y01051*
X00441Y01051*
X00442Y01051*
X00443Y01051*
X00443Y01051*
X00443*
X00443Y01051*
X00443Y01051*
X00444Y01051*
X00444Y01051*
X00444Y01052*
X00445Y01052*
X00445Y01052*
X00445Y01053*
X00446Y01053*
Y01053*
X00446Y01053*
X00446Y01053*
X00446Y01053*
X00446Y01054*
X00446Y01054*
X00446Y01054*
X00446Y01054*
X00447Y01055*
X00447Y01056*
X00447Y01056*
Y01056*
X00447Y01056*
Y01057*
X00447Y01057*
X00446Y01057*
X00446Y01058*
X00446Y01058*
X00446Y01059*
X00446Y01059*
X00446Y01059*
X00445Y01059*
X00445Y0106*
X00445Y0106*
X00445Y0106*
X00445Y0106*
X00445Y0106*
X00445Y0106*
X00445Y0106*
X00444Y0106*
X00444Y01061*
X00444Y01061*
X00444Y01061*
X00443Y01061*
X00443Y01061*
X00443Y01061*
X00442Y01061*
X00443Y01064*
X00443*
X00443Y01064*
G37*
G36*
X01782Y01344D02*
X01782D01*
X01783Y01344*
X01783Y01343*
X01784Y01343*
X01784Y01343*
X01785Y01343*
X01785Y01343*
X01785Y01342*
X01785Y01342*
X01785Y01342*
X01785Y01342*
X01786Y01342*
X01786Y01342*
X01786Y01342*
X01786Y01342*
X01786Y01341*
X01787Y01341*
X01787Y0134*
X01787Y01339*
X01785Y01339*
Y01339*
X01785Y01339*
Y01339*
X01785Y01339*
X01785Y0134*
X01785Y0134*
X01784Y0134*
X01784Y01341*
X01784Y01341*
X01784Y01341*
X01784Y01341*
X01784Y01341*
X01784Y01341*
X01783Y01342*
X01783Y01342*
X01783Y01342*
X01782Y01342*
X01782Y01342*
X01782*
X01782Y01342*
X01781Y01342*
X01781Y01342*
X01781Y01342*
X0178Y01342*
X0178Y01341*
X0178Y01341*
X0178Y01341*
X0178Y01341*
X0178Y01341*
X0178Y01341*
X01779Y01341*
X01779Y0134*
X01779Y0134*
X01779Y0134*
X01779Y0134*
X01779Y0134*
X01779Y0134*
X01779Y01339*
X01778Y01339*
X01778Y01339*
X01778Y01338*
Y01338*
X01778Y01338*
Y01338*
X01778Y01338*
X01778Y01338*
X01778Y01337*
X01778Y01337*
X01778Y01336*
X01778Y01336*
X01778Y01335*
Y01335*
Y01335*
Y01335*
Y01335*
X01778Y01335*
X01778Y01335*
X01778Y01335*
X01778Y01336*
X01779Y01336*
X01779Y01336*
X01779Y01336*
X0178Y01337*
X0178Y01337*
X0178Y01337*
X0178Y01337*
X0178Y01337*
X01781Y01337*
X01781Y01337*
X01782Y01337*
X01782Y01337*
X01782*
X01782Y01337*
X01783Y01337*
X01783Y01337*
X01783Y01337*
X01783Y01337*
X01784Y01337*
X01784Y01337*
X01785Y01337*
X01785Y01336*
X01785Y01336*
X01785Y01336*
X01786Y01336*
X01786Y01336*
X01786Y01336*
X01786Y01336*
X01786Y01335*
X01786Y01335*
X01786Y01335*
X01786Y01335*
X01786Y01335*
X01787Y01334*
X01787Y01334*
X01787Y01334*
X01787Y01333*
X01787Y01333*
X01787Y01332*
X01787Y01332*
X01787Y01332*
Y01332*
Y01331*
Y01331*
X01787Y01331*
X01787Y01331*
X01787Y01331*
X01787Y0133*
X01787Y0133*
X01787Y01329*
X01787Y01329*
X01787Y01329*
X01786Y01328*
X01786Y01328*
X01786Y01328*
X01786Y01327*
X01786Y01327*
X01786Y01327*
X01786Y01327*
X01785Y01327*
X01785Y01327*
X01785Y01327*
X01785Y01327*
X01785Y01326*
X01784Y01326*
X01784Y01326*
X01783Y01326*
X01783Y01326*
X01783Y01326*
X01782Y01326*
X01782Y01326*
X01782*
X01781Y01326*
X01781*
X01781Y01326*
X01781Y01326*
X0178Y01326*
X0178Y01326*
X01779Y01326*
X01779Y01327*
X01779*
X01779Y01327*
X01778Y01327*
X01778Y01327*
X01778Y01327*
X01778Y01327*
X01777Y01328*
X01777Y01328*
X01777Y01329*
X01776Y01329*
Y01329*
X01776Y01329*
X01776Y01329*
X01776Y0133*
X01776Y0133*
X01776Y0133*
X01776Y0133*
X01776Y0133*
X01776Y01331*
X01776Y01331*
X01776Y01332*
X01776Y01332*
X01776Y01332*
X01776Y01333*
X01776Y01334*
Y01334*
Y01334*
Y01334*
Y01334*
Y01335*
X01776Y01335*
Y01335*
X01776Y01336*
X01776Y01336*
X01776Y01337*
X01776Y01338*
X01776Y01339*
X01776Y01339*
X01776Y0134*
Y0134*
X01776Y0134*
X01776Y0134*
X01777Y0134*
X01777Y0134*
X01777Y0134*
X01777Y01341*
X01777Y01341*
X01778Y01342*
X01778Y01342*
X01779Y01343*
X01779*
X01779Y01343*
X01779Y01343*
X01779Y01343*
X01779Y01343*
X01779Y01343*
X01779Y01343*
X0178Y01343*
X0178Y01343*
X01781Y01343*
X01781Y01344*
X01782Y01344*
X01782*
X01782Y01344*
G37*
G36*
X01811D02*
X01811D01*
X01811Y01344*
X01812Y01344*
X01812Y01343*
X01813Y01343*
X01813Y01343*
X01814Y01343*
X01815Y01343*
X01815Y01342*
X01815Y01342*
X01815Y01342*
X01815Y01342*
X01815Y01342*
X01815Y01342*
X01816Y01342*
X01816Y01342*
X01816Y01342*
X01816Y01341*
X01816Y01341*
X01817Y01341*
X01817Y0134*
X01818Y01339*
Y01339*
X01818Y01339*
X01818Y01339*
X01818Y01339*
X01818Y01339*
X01818Y01338*
X01818Y01338*
X01818Y01338*
X01818Y01337*
X01818Y01337*
X01818Y01336*
X01819Y01335*
X01819Y01334*
Y01334*
Y01334*
Y01334*
X01819Y01334*
Y01334*
X01819Y01333*
X01818Y01333*
X01818Y01333*
X01818Y01332*
X01818Y01331*
X01818Y0133*
X01818Y0133*
X01817Y0133*
X01817Y01329*
X01817Y01329*
X01817Y01329*
X01817Y01329*
X01817Y01329*
X01817Y01328*
X01816Y01328*
X01816Y01327*
X01815Y01327*
X01815Y01326*
X01815Y01326*
X01814Y01326*
X01814Y01326*
X01814Y01326*
X01814Y01326*
X01814Y01326*
X01814Y01326*
X01813Y01326*
X01813Y01326*
X01813Y01326*
X01812Y01326*
X01811Y01325*
X0181Y01325*
X0181*
X0181Y01325*
X0181Y01325*
X01809Y01325*
X01809Y01325*
X01809Y01326*
X01808Y01326*
X01807Y01326*
X01807Y01326*
X01806Y01326*
X01806Y01326*
X01806Y01327*
X01806Y01327*
X01806Y01327*
X01806Y01327*
X01805Y01327*
X01805Y01327*
X01805Y01327*
X01805Y01327*
X01805Y01328*
X01805Y01328*
X01804Y01328*
X01804Y01329*
X01804Y01329*
X01804Y01329*
X01804Y0133*
X01803Y0133*
X01803Y01331*
X01806Y01331*
Y01331*
X01806Y01331*
X01806Y01331*
X01806Y01331*
X01806Y01331*
X01806Y0133*
X01806Y0133*
X01806Y0133*
X01807Y01329*
X01807Y01329*
X01807Y01328*
X01807Y01328*
X01808Y01328*
X01808Y01328*
X01808Y01328*
X01809Y01328*
X01809Y01327*
X0181Y01327*
X0181Y01327*
X01811*
X01811Y01327*
X01811*
X01811Y01327*
X01811Y01327*
X01812Y01328*
X01813Y01328*
X01813Y01328*
X01814Y01328*
X01814*
X01814Y01328*
X01814Y01329*
X01814Y01329*
X01814Y01329*
X01815Y01329*
X01815Y0133*
X01815Y0133*
X01816Y01331*
Y01331*
X01816Y01331*
X01816Y01331*
X01816Y01331*
X01816Y01331*
X01816Y01332*
X01816Y01332*
X01816Y01333*
X01816Y01333*
X01816Y01334*
X01816Y01334*
Y01334*
Y01334*
Y01335*
Y01335*
X01816Y01335*
Y01335*
X01816Y01335*
X01816Y01336*
X01816Y01336*
X01816Y01337*
X01816Y01338*
X01816Y01338*
Y01338*
X01815Y01338*
X01815Y01338*
X01815Y01339*
X01815Y01339*
X01815Y01339*
X01815Y0134*
X01814Y0134*
X01814Y0134*
X01813Y01341*
X01813*
X01813Y01341*
X01813Y01341*
X01813Y01341*
X01813Y01341*
X01813Y01341*
X01813Y01341*
X01812Y01341*
X01812Y01342*
X01811Y01342*
X0181Y01342*
X0181*
X0181Y01342*
X0181*
X0181Y01342*
X01809Y01341*
X01809Y01341*
X01808Y01341*
X01808Y01341*
X01807Y01341*
X01807Y01341*
X01807Y0134*
X01807Y0134*
X01807Y0134*
X01807Y0134*
X01807Y0134*
X01807Y0134*
X01807Y0134*
X01806Y0134*
X01806Y01339*
X01806Y01339*
X01806Y01339*
X01806Y01339*
X01806Y01338*
X01806Y01338*
X01805Y01338*
X01805Y01337*
X01803Y01338*
Y01338*
X01803Y01338*
X01803Y01338*
X01803Y01338*
X01803Y01338*
X01803Y01339*
X01803Y01339*
X01804Y01339*
X01804Y0134*
X01804Y01341*
X01805Y01341*
X01805Y01342*
X01805Y01342*
X01806Y01342*
X01806Y01342*
X01806Y01342*
X01806Y01342*
X01806Y01342*
X01806Y01342*
X01806Y01343*
X01807Y01343*
X01807Y01343*
X01807Y01343*
X01808Y01343*
X01808Y01343*
X01808Y01343*
X01809Y01344*
X01809Y01344*
X0181Y01344*
X0181Y01344*
X01811*
X01811Y01344*
G37*
G36*
X01801Y01343D02*
Y01343D01*
Y01343*
X01801Y01343*
X01801Y01343*
X01801Y01342*
X01801Y01342*
X01801Y01342*
Y01342*
X01801Y01342*
X01801Y01342*
X01801Y01341*
X01801Y01341*
X018Y01341*
X018Y0134*
X018Y0134*
X018Y01339*
Y01339*
X018Y01339*
X01799Y01339*
X01799Y01339*
X01799Y01339*
X01798Y01338*
X01798Y01338*
X01797Y01337*
X01797Y01337*
X01797Y01337*
X01797Y01337*
X01796Y01337*
X01796Y01336*
X01796Y01336*
X01796Y01336*
X01796Y01336*
X01795Y01335*
X01795Y01335*
X01794Y01334*
X01794Y01334*
X01793Y01334*
X01793Y01333*
X01793Y01333*
Y01333*
X01793Y01333*
X01793Y01333*
X01793Y01333*
X01793Y01333*
X01792Y01332*
X01792Y01332*
X01792Y01331*
X01792Y01331*
X01792Y0133*
Y0133*
Y0133*
X01792Y0133*
X01792Y0133*
X01792Y0133*
X01792Y01329*
X01792Y01329*
X01792Y01329*
X01793Y01328*
X01793Y01328*
X01793Y01328*
X01793Y01328*
X01793Y01328*
X01794Y01328*
X01794Y01328*
X01795Y01327*
X01795Y01327*
X01795*
X01795Y01327*
X01796Y01327*
X01796Y01328*
X01796Y01328*
X01797Y01328*
X01797Y01328*
X01798Y01328*
X01798Y01328*
X01798Y01329*
X01798Y01329*
X01798Y01329*
X01798Y01329*
X01798Y0133*
X01799Y0133*
X01799Y01331*
X01801Y01331*
Y01331*
X01801Y01331*
Y0133*
X01801Y0133*
X01801Y0133*
X01801Y0133*
X01801Y0133*
X01801Y01329*
X018Y01329*
X018Y01328*
X018Y01328*
X018Y01327*
X01799Y01327*
X01799Y01327*
X01799Y01327*
X01799Y01327*
X01799Y01327*
X01799Y01327*
X01799Y01327*
X01799Y01327*
X01798Y01326*
X01798Y01326*
X01798Y01326*
X01797Y01326*
X01797Y01326*
X01797Y01326*
X01796Y01326*
X01796Y01326*
X01796Y01326*
X01795Y01326*
X01795*
X01795Y01326*
X01794Y01326*
X01794Y01326*
X01794Y01326*
X01794Y01326*
X01793Y01326*
X01792Y01326*
X01792Y01326*
X01792Y01327*
X01791Y01327*
X01791Y01327*
X01791Y01327*
X01791Y01327*
X01791Y01327*
X01791Y01327*
X01791Y01327*
X01791Y01328*
X0179Y01328*
X0179Y01328*
X0179Y01328*
X0179Y01329*
X0179Y01329*
X0179Y0133*
X0179Y0133*
X0179Y0133*
Y01331*
Y01331*
X0179Y01331*
X0179Y01331*
X0179Y01331*
X0179Y01332*
X0179Y01332*
X0179Y01333*
X0179Y01333*
X0179Y01333*
X0179Y01333*
X0179Y01333*
X01791Y01334*
X01791Y01334*
X01791Y01334*
X01792Y01335*
X01792Y01335*
X01792Y01335*
X01792Y01335*
X01792Y01335*
X01792Y01335*
X01792Y01336*
X01792Y01336*
X01793Y01336*
X01793Y01336*
X01793Y01337*
X01794Y01337*
X01794Y01337*
X01794Y01337*
X01795Y01338*
X01795Y01338*
X01795Y01338*
X01795Y01338*
X01795Y01338*
X01795Y01338*
X01795Y01338*
X01796Y01339*
X01796Y01339*
X01797Y01339*
X01797Y0134*
X01797Y0134*
X01797Y0134*
X01797Y0134*
X01797Y0134*
X01798Y0134*
X01798Y0134*
X01798Y01341*
X01798Y01341*
X01798Y01341*
X0179*
Y01343*
X01801*
Y01343*
G37*
G36*
X01775Y01164D02*
X01775D01*
X01776Y01164*
X01776Y01163*
X01776Y01163*
X01777Y01163*
X01778Y01163*
X01779Y01163*
X01779Y01163*
X01779Y01162*
X0178Y01162*
X0178Y01162*
X0178Y01162*
X0178Y01162*
X0178Y01162*
X01781Y01162*
X01781Y01161*
X01782Y01161*
X01782Y0116*
X01783Y0116*
X01783Y0116*
X01783Y01159*
X01783Y01159*
X01783Y01159*
X01783Y01159*
X01783Y01159*
X01783Y01159*
X01783Y01158*
X01783Y01158*
X01783Y01158*
X01783Y01157*
X01784Y01156*
X01784Y01155*
Y01155*
X01784Y01155*
X01784Y01155*
X01784Y01154*
X01784Y01154*
X01783Y01154*
X01783Y01153*
X01783Y01152*
X01783Y01152*
X01783Y01151*
X01783Y01151*
X01782Y01151*
X01782Y01151*
X01782Y01151*
X01782Y01151*
X01782Y0115*
X01782Y0115*
X01782Y0115*
X01782Y0115*
X01781Y0115*
X01781Y0115*
X01781Y01149*
X0178Y01149*
X0178Y01149*
X0178Y01149*
X01779Y01149*
X01779Y01148*
X01778Y01148*
X01778Y01151*
X01778*
X01778Y01151*
X01778Y01151*
X01778Y01151*
X01778Y01151*
X01779Y01151*
X01779Y01151*
X01779Y01151*
X0178Y01152*
X0178Y01152*
X01781Y01152*
X01781Y01152*
X01781Y01153*
X01781Y01153*
X01781Y01153*
X01781Y01154*
X01782Y01154*
X01782Y01155*
X01782Y01155*
Y01156*
X01782Y01156*
Y01156*
X01782Y01156*
X01782Y01156*
X01781Y01157*
X01781Y01158*
X01781Y01158*
X01781Y01159*
Y01159*
X01781Y01159*
X0178Y01159*
X0178Y01159*
X0178Y01159*
X0178Y0116*
X01779Y0116*
X01779Y0116*
X01778Y01161*
X01778*
X01778Y01161*
X01778Y01161*
X01778Y01161*
X01778Y01161*
X01777Y01161*
X01777Y01161*
X01776Y01161*
X01776Y01161*
X01775Y01161*
X01775Y01161*
X01775*
X01775*
X01774*
X01774*
X01774Y01161*
X01774*
X01774Y01161*
X01773Y01161*
X01773Y01161*
X01772Y01161*
X01771Y01161*
X01771Y01161*
X01771*
X01771Y0116*
X01771Y0116*
X0177Y0116*
X0177Y0116*
X0177Y0116*
X01769Y0116*
X01769Y01159*
X01769Y01159*
X01768Y01158*
Y01158*
X01768Y01158*
X01768Y01158*
X01768Y01158*
X01768Y01158*
X01768Y01158*
X01768Y01158*
X01768Y01157*
X01767Y01157*
X01767Y01156*
X01767Y01155*
Y01155*
X01767Y01155*
Y01155*
X01767Y01155*
X01768Y01154*
X01768Y01154*
X01768Y01153*
X01768Y01153*
X01768Y01152*
X01768Y01152*
X01769Y01152*
X01769Y01152*
X01769Y01152*
X01769Y01152*
X01769Y01152*
X01769Y01152*
X01769Y01152*
X01769Y01151*
X0177Y01151*
X0177Y01151*
X0177Y01151*
X0177Y01151*
X01771Y01151*
X01771Y01151*
X01771Y0115*
X01772Y0115*
X01771Y01148*
X01771*
X01771Y01148*
X01771Y01148*
X01771Y01148*
X01771Y01148*
X0177Y01148*
X0177Y01148*
X0177Y01149*
X01769Y01149*
X01768Y01149*
X01768Y0115*
X01767Y0115*
X01767Y0115*
X01767Y01151*
X01767Y01151*
X01767Y01151*
X01767Y01151*
X01767Y01151*
X01767Y01151*
X01766Y01151*
X01766Y01152*
X01766Y01152*
X01766Y01152*
X01766Y01153*
X01766Y01153*
X01766Y01153*
X01766Y01154*
X01765Y01154*
X01765Y01155*
X01765Y01155*
Y01156*
X01765Y01156*
Y01156*
X01765Y01156*
X01765Y01157*
X01766Y01157*
X01766Y01158*
X01766Y01158*
X01766Y01159*
X01766Y0116*
X01767Y0116*
X01767Y0116*
X01767Y0116*
X01767Y0116*
X01767Y0116*
X01767Y0116*
X01767Y01161*
X01767Y01161*
X01767Y01161*
X01768Y01161*
X01768Y01161*
X01768Y01162*
X01769Y01162*
X0177Y01163*
X0177*
X0177Y01163*
X0177Y01163*
X0177Y01163*
X0177Y01163*
X01771Y01163*
X01771Y01163*
X01771Y01163*
X01772Y01163*
X01772Y01163*
X01773Y01163*
X01774Y01164*
X01775Y01164*
X01775*
X01775*
X01775*
X01775Y01164*
G37*
G36*
X01766Y01146D02*
X01766Y01146D01*
X01767Y01146*
X01767Y01146*
X01767Y01146*
X01767*
X01767Y01146*
X01767Y01146*
X01768Y01146*
X01768Y01146*
X01768Y01145*
X01769Y01145*
X01769Y01145*
X0177Y01145*
X0177*
X0177Y01145*
X0177Y01144*
X0177Y01144*
X0177Y01144*
X01771Y01143*
X01771Y01143*
X01772Y01142*
X01772Y01142*
X01772Y01142*
X01772Y01142*
X01772Y01141*
X01773Y01141*
X01773Y01141*
X01773Y01141*
X01773Y01141*
X01774Y0114*
X01774Y0114*
X01775Y01139*
X01775Y01139*
X01775Y01138*
X01776Y01138*
X01776Y01138*
X01776*
X01776Y01138*
X01776Y01138*
X01776Y01138*
X01776Y01138*
X01777Y01137*
X01777Y01137*
X01778Y01137*
X01778Y01137*
X01779Y01137*
X01779*
X01779*
X01779Y01137*
X01779Y01137*
X01779Y01137*
X0178Y01137*
X0178Y01137*
X0178Y01137*
X01781Y01138*
X01781Y01138*
X01781Y01138*
X01781Y01138*
X01781Y01138*
X01781Y01139*
X01781Y01139*
X01782Y0114*
X01782Y0114*
Y0114*
X01782Y0114*
X01782Y01141*
X01781Y01141*
X01781Y01141*
X01781Y01142*
X01781Y01142*
X01781Y01143*
X01781Y01143*
X0178Y01143*
X0178Y01143*
X0178Y01143*
X0178Y01143*
X01779Y01143*
X01779Y01144*
X01778Y01144*
X01778Y01146*
X01778*
X01778Y01146*
X01779*
X01779Y01146*
X01779Y01146*
X01779Y01146*
X01779Y01146*
X0178Y01146*
X0178Y01145*
X01781Y01145*
X01781Y01145*
X01782Y01145*
X01782Y01144*
X01782Y01144*
X01782Y01144*
X01782Y01144*
X01782Y01144*
X01782Y01144*
X01782Y01144*
X01782Y01144*
X01783Y01143*
X01783Y01143*
X01783Y01143*
X01783Y01142*
X01783Y01142*
X01783Y01142*
X01783Y01141*
X01783Y01141*
X01783Y01141*
X01783Y0114*
Y0114*
X01783Y0114*
X01783Y01139*
X01783Y01139*
X01783Y01139*
X01783Y01139*
X01783Y01138*
X01783Y01137*
X01783Y01137*
X01782Y01137*
X01782Y01136*
X01782Y01136*
X01782Y01136*
X01782Y01136*
X01782Y01136*
X01782Y01136*
X01782Y01136*
X01781Y01136*
X01781Y01135*
X01781Y01135*
X01781Y01135*
X0178Y01135*
X0178Y01135*
X01779Y01135*
X01779Y01135*
X01779Y01135*
X01778*
X01778*
X01778Y01135*
X01778Y01135*
X01778Y01135*
X01777Y01135*
X01777Y01135*
X01776Y01135*
X01776Y01135*
X01776Y01135*
X01776Y01135*
X01776Y01135*
X01775Y01136*
X01775Y01136*
X01775Y01136*
X01774Y01137*
X01774Y01137*
X01774Y01137*
X01774Y01137*
X01774Y01137*
X01774Y01137*
X01773Y01137*
X01773Y01137*
X01773Y01138*
X01773Y01138*
X01772Y01138*
X01772Y01139*
X01772Y01139*
X01772Y01139*
X01771Y0114*
X01771Y0114*
X01771Y0114*
X01771Y0114*
X01771Y0114*
X01771Y0114*
X01771Y0114*
X0177Y01141*
X0177Y01141*
X0177Y01142*
X01769Y01142*
X01769Y01142*
X01769Y01142*
X01769Y01142*
X01769Y01142*
X01769Y01143*
X01769Y01143*
X01768Y01143*
X01768Y01143*
X01768Y01143*
Y01135*
X01766*
Y01146*
X01766*
X01766*
X01766*
X01766Y01146*
G37*
G36*
X01771Y01132D02*
X01771D01*
X01771Y01132*
X01772Y01132*
X01772Y01132*
X01773Y01132*
X01773Y01132*
X01774Y01131*
X01774*
X01774Y01131*
X01774Y01131*
X01774Y01131*
X01774Y01131*
X01775Y0113*
X01775Y0113*
X01775Y01129*
X01775Y01129*
Y01129*
X01775Y01129*
X01775Y01129*
X01775Y01129*
X01775Y01129*
X01776Y0113*
X01776Y0113*
X01776Y0113*
X01776Y01131*
X01777Y01131*
X01777Y01131*
X01777Y01131*
X01777Y01131*
X01777Y01131*
X01778Y01131*
X01778Y01131*
X01778Y01132*
X01779Y01132*
X01779*
X01779*
X01779*
X01779Y01132*
X01779Y01132*
X0178Y01131*
X0178Y01131*
X0178Y01131*
X01781Y01131*
X01781Y01131*
X01782Y01131*
X01782Y0113*
X01782Y0113*
X01782Y0113*
X01782Y0113*
X01782Y0113*
X01782Y0113*
X01782Y0113*
X01782Y0113*
X01783Y01129*
X01783Y01129*
X01783Y01129*
X01783Y01129*
X01783Y01128*
X01783Y01128*
X01783Y01127*
X01783Y01127*
X01783Y01127*
Y01126*
X01783Y01126*
X01783Y01126*
X01783Y01126*
X01783Y01125*
X01783Y01125*
X01783Y01125*
X01783Y01124*
X01783Y01124*
X01783Y01123*
X01782Y01123*
X01782Y01123*
X01782Y01123*
X01782Y01123*
X01782Y01123*
X01782Y01123*
X01782Y01122*
X01782Y01122*
X01781Y01122*
X01781Y01122*
X0178Y01122*
X01779Y01121*
X01779Y01121*
X01779Y01121*
X01779*
X01779*
X01779*
X01778Y01121*
X01778Y01121*
X01778Y01122*
X01777Y01122*
X01777Y01122*
X01777Y01122*
X01777Y01122*
X01776Y01122*
X01776Y01122*
X01776Y01123*
X01776Y01123*
X01776Y01123*
X01775Y01123*
X01775Y01124*
Y01124*
X01775Y01124*
X01775Y01124*
X01775Y01124*
X01775Y01123*
X01775Y01123*
X01775Y01123*
X01774Y01122*
X01774Y01122*
X01774Y01122*
X01773*
X01773Y01121*
X01773Y01121*
X01773Y01121*
X01773Y01121*
X01772Y01121*
X01772Y01121*
X01771Y01121*
X01771Y01121*
X01771*
X01771*
X0177*
X0177Y01121*
X0177Y01121*
X0177Y01121*
X0177Y01121*
X01769Y01121*
X01769Y01121*
X01768Y01121*
X01768Y01121*
X01768Y01122*
X01768Y01122*
X01767Y01122*
X01767Y01122*
X01767Y01122*
X01767Y01122*
X01767Y01122*
X01767Y01123*
X01767Y01123*
X01766Y01123*
X01766Y01123*
X01766Y01123*
X01766Y01124*
X01766Y01124*
X01766Y01124*
X01766Y01125*
X01766Y01125*
X01765Y01126*
X01765Y01126*
X01765Y01126*
Y01127*
X01765Y01127*
X01765Y01127*
X01765Y01127*
X01766Y01128*
X01766Y01128*
X01766Y01129*
X01766Y01129*
X01766Y01129*
X01766Y0113*
X01766Y0113*
X01767Y0113*
X01767Y01131*
X01767Y01131*
X01767Y01131*
X01767Y01131*
X01767Y01131*
X01767Y01131*
X01768Y01131*
X01768Y01131*
X01768Y01131*
X01768Y01132*
X01769Y01132*
X01769Y01132*
X0177Y01132*
X0177Y01132*
X0177Y01132*
X01771Y01132*
X01771*
X01771*
X01771*
X01771Y01132*
G37*
G36*
X01003Y01483D02*
X01003Y01483D01*
X01003Y01483*
X01003Y01483*
X01003Y01483*
X01003Y01483*
X01004Y01483*
X01004Y01482*
X01004Y01482*
X01005Y01482*
X01005Y01481*
X01005Y01481*
X01006Y01481*
X01006Y01481*
X01007Y0148*
X01007Y0148*
X01007Y0148*
X01008Y0148*
X01008Y0148*
X01008Y0148*
X01008Y0148*
X01008Y01479*
X01009Y01479*
X01009Y01479*
X0101Y01479*
X0101Y01479*
X01011Y01478*
X01011Y01478*
X01012Y01478*
X01013Y01477*
X01014*
X01014Y01477*
X01014Y01477*
X01014Y01477*
X01014Y01477*
X01014Y01477*
X01015Y01477*
X01015Y01477*
X01015Y01477*
X01016Y01477*
X01016Y01477*
X01017Y01477*
X01018Y01477*
Y01474*
X01018*
X01018*
X01018*
X01018Y01474*
X01018*
X01018Y01474*
X01017Y01474*
X01017Y01475*
X01017Y01475*
X01016Y01475*
X01016Y01475*
X01015Y01475*
X01015Y01475*
X01014Y01475*
X01013Y01475*
X01013*
X01013Y01475*
X01013Y01475*
X01013Y01475*
X01013Y01475*
X01012Y01476*
X01012Y01476*
X01012Y01476*
X01011Y01476*
X01011Y01476*
X0101Y01476*
X01009Y01477*
X01008Y01477*
X01008Y01477*
X01008Y01478*
X01007Y01478*
X01007Y01478*
X01007Y01478*
X01007Y01478*
X01006Y01478*
X01006Y01478*
X01005Y01479*
X01005Y01479*
X01004Y0148*
X01003Y01481*
Y01472*
X01001*
Y01483*
X01003*
X01003Y01483*
G37*
G36*
X01018Y01458D02*
X01018D01*
X01018*
X01018*
X01018Y01458*
X01018Y01458*
X01017Y01458*
X01017Y01458*
X01017Y01458*
X01017*
X01017Y01458*
X01017Y01458*
X01016Y01458*
X01016Y01458*
X01016Y01459*
X01015Y01459*
X01015Y01459*
X01014Y01459*
X01014*
X01014Y01459*
X01014Y0146*
X01014Y0146*
X01014Y0146*
X01013Y01461*
X01013Y01461*
X01012Y01462*
X01012Y01462*
X01012Y01462*
X01012Y01462*
X01012Y01463*
X01011Y01463*
X01011Y01463*
X01011Y01463*
X01011Y01464*
X0101Y01464*
X0101Y01464*
X01009Y01465*
X01009Y01465*
X01009Y01466*
X01008Y01466*
X01008Y01466*
X01008*
X01008Y01466*
X01008Y01466*
X01008Y01466*
X01008Y01466*
X01007Y01467*
X01007Y01467*
X01006Y01467*
X01006Y01467*
X01005Y01467*
X01005*
X01005*
X01005Y01467*
X01005Y01467*
X01005Y01467*
X01004Y01467*
X01004Y01467*
X01004Y01467*
X01003Y01466*
X01003Y01466*
X01003Y01466*
X01003Y01466*
X01003Y01466*
X01003Y01465*
X01003Y01465*
X01002Y01464*
X01002Y01464*
Y01464*
X01002Y01464*
X01002Y01463*
X01003Y01463*
X01003Y01463*
X01003Y01462*
X01003Y01462*
X01003Y01461*
X01003Y01461*
X01004Y01461*
X01004Y01461*
X01004Y01461*
X01004Y01461*
X01005Y01461*
X01005Y0146*
X01006Y0146*
X01006Y01458*
X01006*
X01006Y01458*
X01005*
X01005Y01458*
X01005Y01458*
X01005Y01458*
X01005Y01458*
X01004Y01458*
X01004Y01459*
X01003Y01459*
X01003Y01459*
X01002Y01459*
X01002Y0146*
X01002Y0146*
X01002Y0146*
X01002Y0146*
X01002Y0146*
X01002Y0146*
X01002Y0146*
X01002Y0146*
X01001Y01461*
X01001Y01461*
X01001Y01461*
X01001Y01462*
X01001Y01462*
X01001Y01462*
X01001Y01463*
X01001Y01463*
X01001Y01463*
X01001Y01464*
Y01464*
X01001Y01464*
X01001Y01465*
X01001Y01465*
X01001Y01465*
X01001Y01465*
X01001Y01466*
X01001Y01467*
X01001Y01467*
X01002Y01467*
X01002Y01468*
X01002Y01468*
X01002Y01468*
X01002Y01468*
X01002Y01468*
X01002Y01468*
X01002Y01468*
X01003Y01468*
X01003Y01469*
X01003Y01469*
X01003Y01469*
X01004Y01469*
X01004Y01469*
X01005Y01469*
X01005Y01469*
X01005Y01469*
X01006*
X01006*
X01006Y01469*
X01006Y01469*
X01006Y01469*
X01007Y01469*
X01007Y01469*
X01008Y01469*
X01008Y01469*
X01008Y01469*
X01008Y01469*
X01008Y01469*
X01009Y01468*
X01009Y01468*
X01009Y01468*
X0101Y01468*
X0101Y01467*
X0101Y01467*
X0101Y01467*
X0101Y01467*
X0101Y01467*
X01011Y01467*
X01011Y01467*
X01011Y01466*
X01011Y01466*
X01012Y01466*
X01012Y01465*
X01012Y01465*
X01012Y01465*
X01013Y01464*
X01013Y01464*
X01013Y01464*
X01013Y01464*
X01013Y01464*
X01013Y01464*
X01013Y01464*
X01014Y01463*
X01014Y01463*
X01014Y01462*
X01015Y01462*
X01015Y01462*
X01015Y01462*
X01015Y01462*
X01015Y01462*
X01015Y01461*
X01015Y01461*
X01016Y01461*
X01016Y01461*
X01016Y01461*
Y01469*
X01018*
Y01458*
G37*
G36*
X01013Y01456D02*
X01013Y01456D01*
X01013Y01456*
X01013Y01456*
X01014Y01456*
X01014Y01456*
X01014Y01455*
X01015Y01455*
X01016Y01455*
X01016Y01454*
X01017Y01454*
X01017Y01454*
X01017Y01453*
X01017Y01453*
X01017Y01453*
X01017Y01453*
X01017Y01453*
X01017Y01453*
X01018Y01453*
X01018Y01452*
X01018Y01452*
X01018Y01452*
X01018Y01451*
X01018Y01451*
X01018Y01451*
X01019Y0145*
X01019Y0145*
X01019Y01449*
X01019Y01449*
Y01448*
X01019Y01448*
Y01448*
X01019Y01448*
X01019Y01447*
X01018Y01447*
X01018Y01446*
X01018Y01446*
X01018Y01445*
X01018Y01444*
X01017Y01444*
X01017Y01444*
X01017Y01444*
X01017Y01444*
X01017Y01444*
X01017Y01444*
X01017Y01443*
X01017Y01443*
X01017Y01443*
X01016Y01443*
X01016Y01443*
X01016Y01442*
X01015Y01442*
X01014Y01441*
X01014*
X01014Y01441*
X01014Y01441*
X01014Y01441*
X01014Y01441*
X01013Y01441*
X01013Y01441*
X01013Y01441*
X01012Y01441*
X01012Y01441*
X01011Y01441*
X0101Y01441*
X01009Y0144*
X01009*
X01009*
X01009*
X01009Y0144*
X01009*
X01008Y01441*
X01008Y01441*
X01008Y01441*
X01007Y01441*
X01006Y01441*
X01005Y01441*
X01005Y01442*
X01005Y01442*
X01004Y01442*
X01004Y01442*
X01004Y01442*
X01004Y01442*
X01004Y01442*
X01003Y01442*
X01003Y01443*
X01002Y01443*
X01002Y01444*
X01001Y01444*
X01001Y01445*
X01001Y01445*
X01001Y01445*
X01001Y01445*
X01001Y01445*
X01001Y01445*
X01001Y01445*
X01001Y01446*
X01001Y01446*
X01001Y01446*
X01001Y01447*
X01Y01448*
X01Y01449*
Y01449*
X01Y01449*
X01Y01449*
X01Y0145*
X01Y0145*
X01001Y0145*
X01001Y01451*
X01001Y01452*
X01001Y01452*
X01001Y01453*
X01001Y01453*
X01002Y01453*
X01002Y01453*
X01002Y01453*
X01002Y01453*
X01002Y01454*
X01002Y01454*
X01002Y01454*
X01002Y01454*
X01003Y01454*
X01003Y01454*
X01003Y01455*
X01004Y01455*
X01004Y01455*
X01004Y01455*
X01005Y01455*
X01005Y01456*
X01006Y01456*
X01006Y01453*
X01006*
X01006Y01453*
X01006Y01453*
X01006Y01453*
X01006Y01453*
X01005Y01453*
X01005Y01453*
X01005Y01453*
X01004Y01452*
X01004Y01452*
X01003Y01452*
X01003Y01452*
X01003Y01451*
X01003Y01451*
X01003Y01451*
X01003Y0145*
X01002Y0145*
X01002Y01449*
X01002Y01449*
Y01449*
X01002Y01448*
Y01448*
X01002Y01448*
X01002Y01448*
X01003Y01447*
X01003Y01446*
X01003Y01446*
X01003Y01445*
Y01445*
X01003Y01445*
X01004Y01445*
X01004Y01445*
X01004Y01445*
X01004Y01444*
X01005Y01444*
X01005Y01444*
X01006Y01443*
X01006*
X01006Y01443*
X01006Y01443*
X01006Y01443*
X01006Y01443*
X01007Y01443*
X01007Y01443*
X01008Y01443*
X01008Y01443*
X01009Y01443*
X01009Y01443*
X01009*
X01009*
X0101*
X0101*
X0101Y01443*
X0101*
X0101Y01443*
X01011Y01443*
X01011Y01443*
X01012Y01443*
X01013Y01443*
X01013Y01443*
X01013*
X01013Y01444*
X01013Y01444*
X01014Y01444*
X01014Y01444*
X01014Y01444*
X01015Y01444*
X01015Y01445*
X01015Y01445*
X01016Y01446*
Y01446*
X01016Y01446*
X01016Y01446*
X01016Y01446*
X01016Y01446*
X01016Y01446*
X01016Y01446*
X01016Y01447*
X01017Y01447*
X01017Y01448*
X01017Y01449*
Y01449*
X01017Y01449*
Y01449*
X01017Y01449*
X01016Y0145*
X01016Y0145*
X01016Y01451*
X01016Y01451*
X01016Y01452*
X01016Y01452*
X01015Y01452*
X01015Y01452*
X01015Y01452*
X01015Y01452*
X01015Y01452*
X01015Y01452*
X01015Y01452*
X01015Y01453*
X01014Y01453*
X01014Y01453*
X01014Y01453*
X01014Y01453*
X01013Y01453*
X01013Y01453*
X01013Y01454*
X01012Y01454*
X01013Y01456*
X01013*
X01013Y01456*
G37*
G36*
X00628Y01086D02*
X00628D01*
X00629Y01086*
X00629Y01086*
X0063Y01086*
X0063Y01085*
X00631Y01085*
X00631*
X00631Y01085*
X00631Y01085*
X00631Y01085*
X00631Y01085*
X00632Y01085*
X00632Y01084*
X00632Y01084*
X00633Y01084*
X00633Y01083*
Y01083*
X00633Y01083*
X00633Y01083*
X00633Y01083*
X00633Y01083*
X00633Y01082*
X00633Y01082*
X00634Y01082*
X00634Y01081*
X00634Y0108*
Y0108*
X00634Y0108*
Y0108*
X00634Y0108*
X00634Y01079*
X00633Y01079*
X00633Y01079*
X00633Y01078*
X00633Y01078*
X00633Y01078*
X00633Y01077*
X00633Y01077*
X00632Y01077*
X00632Y01076*
X00632Y01076*
X00632Y01076*
X00632Y01076*
X00631Y01076*
X00631Y01076*
X00631Y01076*
X00631Y01075*
X0063Y01075*
X0063Y01075*
X0063Y01075*
X00629Y01075*
X00629Y01075*
X00628Y01075*
X00627Y01074*
X00627Y01074*
X00626Y01074*
X00625Y01074*
X00625*
X00625*
X00625*
X00625*
X00625Y01074*
X00624*
X00624Y01074*
X00623Y01074*
X00623Y01074*
X00622Y01074*
X00622Y01075*
X00621Y01075*
X0062Y01075*
X0062Y01075*
X00619Y01075*
X00619Y01076*
X00618Y01076*
X00618Y01076*
X00618Y01076*
X00618Y01076*
X00617Y01076*
X00617Y01076*
X00617Y01077*
X00617Y01077*
X00617Y01077*
X00617Y01077*
X00616Y01078*
X00616Y01078*
X00616Y01078*
X00616Y01079*
X00616Y01079*
X00616Y0108*
X00616Y0108*
X00616Y01081*
Y01081*
X00616Y01081*
Y01081*
X00616Y01081*
X00616Y01082*
X00616Y01082*
X00616Y01083*
X00616Y01083*
X00617Y01084*
X00617Y01084*
X00617Y01084*
X00617Y01084*
X00617Y01084*
X00617Y01084*
X00617Y01084*
X00617Y01084*
X00618Y01085*
X00618Y01085*
X00619Y01085*
X00619Y01086*
X0062Y01086*
X0062Y01083*
X0062*
X0062Y01083*
X0062Y01083*
X0062Y01083*
X00619Y01083*
X00619Y01083*
X00619Y01083*
X00619Y01083*
X00618Y01083*
X00618Y01083*
X00618Y01083*
X00618Y01082*
X00618Y01082*
X00618Y01082*
X00618Y01081*
X00617Y01081*
X00617Y0108*
Y0108*
X00617Y0108*
X00617Y0108*
X00618Y0108*
X00618Y01079*
X00618Y01079*
X00618Y01079*
X00618Y01079*
X00618Y01078*
X00618Y01078*
X00619Y01078*
X00619Y01078*
X00619Y01078*
X0062Y01077*
X0062Y01077*
X0062*
X0062Y01077*
X0062Y01077*
X0062Y01077*
X00621Y01077*
X00621Y01077*
X00621Y01077*
X00621Y01077*
X00621Y01077*
X00622Y01077*
X00622Y01077*
X00622Y01077*
X00623Y01076*
X00623Y01076*
X00624Y01076*
X00624*
X00624Y01076*
X00624Y01077*
X00624Y01077*
X00624Y01077*
X00623Y01077*
X00623Y01078*
X00623Y01078*
X00622Y01078*
Y01078*
X00622Y01078*
X00622Y01079*
X00622Y01079*
X00622Y01079*
X00622Y01079*
X00622Y0108*
X00622Y0108*
X00622Y01081*
Y01081*
X00622Y01081*
X00622Y01081*
X00622Y01081*
X00622Y01082*
X00622Y01082*
X00622Y01083*
X00622Y01083*
X00623Y01083*
X00623Y01083*
X00623Y01084*
X00623Y01084*
X00623Y01084*
X00624Y01084*
X00624Y01084*
X00624Y01085*
X00624Y01085*
X00624Y01085*
X00624Y01085*
X00624Y01085*
X00625Y01085*
X00625Y01085*
X00625Y01085*
X00626Y01086*
X00626Y01086*
X00626Y01086*
X00627Y01086*
X00627Y01086*
X00628Y01086*
X00628*
X00628*
X00628*
X00628*
X00628Y01086*
G37*
G36*
X00633Y0106D02*
X00633D01*
X00633*
X00633*
X00633Y0106*
X00633Y0106*
X00632Y0106*
X00632Y0106*
X00632Y01061*
X00632*
X00632Y01061*
X00632Y01061*
X00631Y01061*
X00631Y01061*
X00631Y01061*
X0063Y01061*
X0063Y01062*
X00629Y01062*
X00629*
X00629Y01062*
X00629Y01062*
X00629Y01062*
X00629Y01063*
X00628Y01063*
X00628Y01064*
X00627Y01064*
X00627Y01065*
X00627Y01065*
X00627Y01065*
X00627Y01065*
X00626Y01065*
X00626Y01066*
X00626Y01066*
X00626Y01066*
X00625Y01066*
X00625Y01067*
X00624Y01068*
X00624Y01068*
X00624Y01068*
X00623Y01069*
X00623Y01069*
X00623*
X00623Y01069*
X00623Y01069*
X00623Y01069*
X00623Y01069*
X00622Y01069*
X00622Y01069*
X00621Y0107*
X00621Y0107*
X0062Y0107*
X0062*
X0062*
X0062Y0107*
X0062Y0107*
X0062Y0107*
X00619Y0107*
X00619Y01069*
X00619Y01069*
X00618Y01069*
X00618Y01069*
X00618Y01069*
X00618Y01069*
X00618Y01068*
X00618Y01068*
X00618Y01067*
X00617Y01067*
X00617Y01066*
Y01066*
X00617Y01066*
X00617Y01066*
X00618Y01066*
X00618Y01065*
X00618Y01065*
X00618Y01064*
X00618Y01064*
X00618Y01064*
X00619Y01064*
X00619Y01064*
X00619Y01063*
X00619Y01063*
X0062Y01063*
X0062Y01063*
X00621Y01063*
X00621Y01061*
X00621*
X00621Y01061*
X0062*
X0062Y01061*
X0062Y01061*
X0062Y01061*
X0062Y01061*
X00619Y01061*
X00619Y01061*
X00618Y01062*
X00618Y01062*
X00617Y01062*
X00617Y01062*
X00617Y01062*
X00617Y01062*
X00617Y01063*
X00617Y01063*
X00617Y01063*
X00617Y01063*
X00617Y01063*
X00616Y01063*
X00616Y01064*
X00616Y01064*
X00616Y01064*
X00616Y01064*
X00616Y01065*
X00616Y01065*
X00616Y01066*
X00616Y01066*
X00616Y01066*
Y01067*
X00616Y01067*
X00616Y01067*
X00616Y01067*
X00616Y01068*
X00616Y01068*
X00616Y01069*
X00616Y01069*
X00616Y0107*
X00617Y0107*
X00617Y0107*
X00617Y01071*
X00617Y01071*
X00617Y01071*
X00617Y01071*
X00617Y01071*
X00617Y01071*
X00618Y01071*
X00618Y01071*
X00618Y01071*
X00618Y01072*
X00619Y01072*
X00619Y01072*
X0062Y01072*
X0062Y01072*
X0062Y01072*
X00621*
X00621*
X00621Y01072*
X00621Y01072*
X00621Y01072*
X00622Y01072*
X00622Y01072*
X00623Y01072*
X00623Y01072*
X00623Y01071*
X00623Y01071*
X00623Y01071*
X00624Y01071*
X00624Y01071*
X00624Y0107*
X00625Y0107*
X00625Y0107*
X00625Y0107*
X00625Y0107*
X00625Y0107*
X00625Y0107*
X00626Y01069*
X00626Y01069*
X00626Y01069*
X00626Y01069*
X00627Y01068*
X00627Y01068*
X00627Y01068*
X00627Y01067*
X00628Y01067*
X00628Y01067*
X00628Y01067*
X00628Y01067*
X00628Y01066*
X00628Y01066*
X00628Y01066*
X00629Y01066*
X00629Y01065*
X00629Y01065*
X0063Y01065*
X0063Y01064*
X0063Y01064*
X0063Y01064*
X0063Y01064*
X0063Y01064*
X0063Y01064*
X00631Y01064*
X00631Y01064*
X00631Y01063*
Y01072*
X00633*
Y0106*
G37*
G36*
X00628Y01059D02*
X00628Y01059D01*
X00628Y01059*
X00628Y01058*
X00629Y01058*
X00629Y01058*
X00629Y01058*
X0063Y01058*
X00631Y01057*
X00631Y01057*
X00632Y01057*
X00632Y01056*
X00632Y01056*
X00632Y01056*
X00632Y01056*
X00632Y01056*
X00632Y01056*
X00632Y01055*
X00633Y01055*
X00633Y01055*
X00633Y01055*
X00633Y01054*
X00633Y01054*
X00633Y01054*
X00633Y01053*
X00634Y01053*
X00634Y01052*
X00634Y01052*
X00634Y01051*
Y01051*
X00634Y01051*
Y01051*
X00634Y0105*
X00634Y0105*
X00633Y0105*
X00633Y01049*
X00633Y01048*
X00633Y01047*
X00633Y01047*
X00632Y01047*
X00632Y01047*
X00632Y01047*
X00632Y01047*
X00632Y01046*
X00632Y01046*
X00632Y01046*
X00632Y01046*
X00632Y01046*
X00631Y01045*
X00631Y01045*
X00631Y01045*
X0063Y01044*
X00629Y01044*
X00629*
X00629Y01044*
X00629Y01044*
X00629Y01044*
X00629Y01044*
X00628Y01044*
X00628Y01044*
X00628Y01044*
X00627Y01043*
X00627Y01043*
X00626Y01043*
X00625Y01043*
X00624Y01043*
X00624*
X00624*
X00624*
X00624Y01043*
X00624*
X00623Y01043*
X00623Y01043*
X00623Y01043*
X00622Y01043*
X00621Y01043*
X0062Y01044*
X0062Y01044*
X0062Y01044*
X00619Y01044*
X00619Y01044*
X00619Y01044*
X00619Y01044*
X00619Y01045*
X00618Y01045*
X00618Y01045*
X00617Y01046*
X00617Y01046*
X00616Y01047*
X00616Y01047*
X00616Y01047*
X00616Y01047*
X00616Y01047*
X00616Y01048*
X00616Y01048*
X00616Y01048*
X00616Y01048*
X00616Y01049*
X00616Y01049*
X00616Y0105*
X00615Y01051*
X00615Y01051*
Y01052*
X00615Y01052*
X00615Y01052*
X00615Y01052*
X00615Y01053*
X00616Y01053*
X00616Y01054*
X00616Y01054*
X00616Y01055*
X00616Y01055*
X00616Y01055*
X00617Y01056*
X00617Y01056*
X00617Y01056*
X00617Y01056*
X00617Y01056*
X00617Y01056*
X00617Y01056*
X00617Y01057*
X00618Y01057*
X00618Y01057*
X00618Y01057*
X00619Y01057*
X00619Y01058*
X00619Y01058*
X0062Y01058*
X0062Y01058*
X00621Y01058*
X00621Y01056*
X00621*
X00621Y01056*
X00621Y01056*
X00621Y01056*
X00621Y01056*
X0062Y01056*
X0062Y01056*
X0062Y01055*
X00619Y01055*
X00619Y01055*
X00618Y01054*
X00618Y01054*
X00618Y01054*
X00618Y01054*
X00618Y01053*
X00618Y01053*
X00617Y01053*
X00617Y01052*
X00617Y01051*
Y01051*
X00617Y01051*
Y01051*
X00617Y01051*
X00617Y0105*
X00618Y0105*
X00618Y01049*
X00618Y01048*
X00618Y01048*
Y01048*
X00618Y01048*
X00619Y01048*
X00619Y01047*
X00619Y01047*
X00619Y01047*
X0062Y01047*
X0062Y01046*
X00621Y01046*
X00621*
X00621Y01046*
X00621Y01046*
X00621Y01046*
X00621Y01046*
X00622Y01046*
X00622Y01046*
X00623Y01046*
X00623Y01046*
X00624Y01045*
X00624Y01045*
X00624*
X00624*
X00625*
X00625*
X00625Y01045*
X00625*
X00625Y01046*
X00626Y01046*
X00626Y01046*
X00627Y01046*
X00628Y01046*
X00628Y01046*
X00628*
X00628Y01046*
X00628Y01046*
X00629Y01046*
X00629Y01046*
X00629Y01047*
X0063Y01047*
X0063Y01047*
X0063Y01048*
X00631Y01048*
Y01048*
X00631Y01048*
X00631Y01048*
X00631Y01048*
X00631Y01049*
X00631Y01049*
X00631Y01049*
X00631Y01049*
X00632Y0105*
X00632Y01051*
X00632Y01051*
Y01051*
X00632Y01051*
Y01052*
X00632Y01052*
X00631Y01052*
X00631Y01053*
X00631Y01053*
X00631Y01054*
X00631Y01054*
X00631Y01054*
X0063Y01054*
X0063Y01055*
X0063Y01055*
X0063Y01055*
X0063Y01055*
X0063Y01055*
X0063Y01055*
X0063Y01055*
X00629Y01055*
X00629Y01056*
X00629Y01056*
X00629Y01056*
X00628Y01056*
X00628Y01056*
X00628Y01056*
X00627Y01056*
X00628Y01059*
X00628*
X00628Y01059*
G37*
G36*
X01539Y00794D02*
X01539Y00794D01*
X01539Y00794*
X0154Y00794*
X0154Y00793*
X01541Y00793*
X01541Y00793*
X01542Y00793*
X01542Y00793*
X01542Y00793*
X01543Y00792*
X01543Y00792*
X01543Y00792*
X01543Y00792*
X01543Y00792*
X01543Y00792*
X01543Y00792*
X01544Y00792*
X01544Y00791*
X01544Y00791*
X01544Y00791*
X01544Y0079*
X01545Y0079*
X01545Y0079*
X01545Y00789*
X01545Y00789*
X01545Y00788*
X01543Y00788*
Y00788*
X01543Y00788*
X01543Y00788*
X01543Y00788*
X01543Y00788*
X01543Y00789*
X01543Y00789*
X01542Y00789*
X01542Y0079*
X01542Y0079*
X01541Y00791*
X01541Y00791*
X01541Y00791*
X01541Y00791*
X0154Y00791*
X0154Y00791*
X01539Y00792*
X01539Y00792*
X01538Y00792*
X01538*
X01538Y00792*
X01538*
X01538Y00792*
X01537Y00792*
X01537Y00791*
X01536Y00791*
X01535Y00791*
X01535Y00791*
X01535*
X01535Y00791*
X01535Y0079*
X01534Y0079*
X01534Y0079*
X01534Y0079*
X01533Y00789*
X01533Y00789*
X01533Y00788*
Y00788*
X01533Y00788*
X01533Y00788*
X01533Y00788*
X01533Y00788*
X01533Y00787*
X01533Y00787*
X01533Y00786*
X01532Y00786*
X01532Y00785*
X01532Y00785*
Y00785*
Y00785*
Y00784*
Y00784*
X01532Y00784*
Y00784*
X01532Y00784*
X01532Y00783*
X01533Y00783*
X01533Y00782*
X01533Y00781*
X01533Y00781*
Y00781*
X01533Y00781*
X01533Y00781*
X01533Y0078*
X01533Y0078*
X01534Y0078*
X01534Y00779*
X01534Y00779*
X01535Y00779*
X01535Y00778*
X01535*
X01535Y00778*
X01535Y00778*
X01535Y00778*
X01535Y00778*
X01536Y00778*
X01536Y00778*
X01536Y00778*
X01537Y00777*
X01538Y00777*
X01538Y00777*
X01538*
X01538Y00777*
X01539*
X01539Y00777*
X01539Y00778*
X0154Y00778*
X0154Y00778*
X01541Y00778*
X01541Y00778*
X01541Y00778*
X01541Y00779*
X01541Y00779*
X01542Y00779*
X01542Y00779*
X01542Y00779*
X01542Y00779*
X01542Y00779*
X01542Y00779*
X01542Y0078*
X01542Y0078*
X01543Y0078*
X01543Y0078*
X01543Y00781*
X01543Y00781*
X01543Y00781*
X01543Y00782*
X01546Y00781*
Y00781*
X01546Y00781*
X01546Y00781*
X01545Y00781*
X01545Y00781*
X01545Y0078*
X01545Y0078*
X01545Y0078*
X01545Y00779*
X01544Y00778*
X01544Y00778*
X01544Y00777*
X01543Y00777*
X01543Y00777*
X01543Y00777*
X01543Y00777*
X01543Y00777*
X01543Y00777*
X01542Y00777*
X01542Y00776*
X01542Y00776*
X01542Y00776*
X01541Y00776*
X01541Y00776*
X01541Y00776*
X0154Y00776*
X0154Y00776*
X01539Y00775*
X01539Y00775*
X01538Y00775*
X01538*
X01538Y00775*
X01538*
X01537Y00775*
X01537Y00775*
X01537Y00776*
X01536Y00776*
X01535Y00776*
X01534Y00776*
X01534Y00776*
X01534Y00777*
X01534Y00777*
X01534Y00777*
X01533Y00777*
X01533Y00777*
X01533Y00777*
X01533Y00777*
X01533Y00777*
X01533Y00777*
X01532Y00778*
X01532Y00778*
X01532Y00778*
X01531Y00779*
X01531Y0078*
Y0078*
X01531Y0078*
X01531Y0078*
X01531Y0078*
X01531Y0078*
X01531Y00781*
X01531Y00781*
X0153Y00781*
X0153Y00782*
X0153Y00782*
X0153Y00783*
X0153Y00784*
X0153Y00785*
Y00785*
Y00785*
Y00785*
X0153Y00785*
Y00785*
X0153Y00786*
X0153Y00786*
X0153Y00786*
X0153Y00787*
X0153Y00788*
X01531Y00789*
X01531Y00789*
X01531Y00789*
X01531Y0079*
X01531Y0079*
X01531Y0079*
X01531Y0079*
X01531Y0079*
X01532Y00791*
X01532Y00791*
X01533Y00792*
X01533Y00792*
X01534Y00793*
X01534Y00793*
X01534Y00793*
X01534Y00793*
X01534Y00793*
X01535Y00793*
X01535Y00793*
X01535Y00793*
X01535Y00793*
X01536Y00793*
X01536Y00793*
X01537Y00793*
X01537Y00794*
X01538Y00794*
X01539*
X01539Y00794*
G37*
G36*
X01554Y00793D02*
X01554Y00793D01*
X01554Y00793*
X01555Y00793*
X01555Y00793*
X01556Y00793*
X01556Y00793*
X01557Y00793*
X01557Y00792*
X01557Y00792*
X01557Y00792*
X01557Y00792*
X01558Y00792*
X01558Y00792*
X01558Y00792*
X01558Y00792*
X01558Y00791*
X01558Y00791*
X01558Y00791*
X01558Y00791*
X01559Y0079*
X01559Y0079*
X01559Y00789*
X01559Y00789*
X01559Y00789*
Y00788*
Y00788*
X01559Y00788*
X01559Y00788*
X01559Y00788*
X01559Y00787*
X01559Y00787*
X01559Y00786*
X01558Y00786*
X01558Y00786*
X01558Y00786*
X01558Y00786*
X01558Y00785*
X01558Y00785*
X01557Y00785*
X01557Y00784*
X01557Y00784*
X01557Y00784*
X01557Y00784*
X01557Y00784*
X01556Y00784*
X01556Y00783*
X01556Y00783*
X01556Y00783*
X01556Y00783*
X01555Y00782*
X01555Y00782*
X01555Y00782*
X01554Y00782*
X01554Y00781*
X01554Y00781*
X01554Y00781*
X01554Y00781*
X01553Y00781*
X01553Y00781*
X01553Y00781*
X01553Y0078*
X01552Y0078*
X01552Y0078*
X01552Y00779*
X01551Y00779*
X01551Y00779*
X01551Y00779*
X01551Y00779*
X01551Y00779*
X01551Y00779*
X01551Y00778*
X01551Y00778*
X0155Y00778*
X01559*
Y00776*
X01547*
Y00776*
Y00776*
Y00776*
X01547Y00776*
X01547Y00776*
X01547Y00777*
X01547Y00777*
X01548Y00777*
Y00777*
X01548Y00777*
X01548Y00777*
X01548Y00778*
X01548Y00778*
X01548Y00778*
X01548Y00779*
X01549Y00779*
X01549Y0078*
Y0078*
X01549Y0078*
X01549Y0078*
X01549Y0078*
X0155Y0078*
X0155Y00781*
X01551Y00781*
X01551Y00782*
X01552Y00782*
X01552Y00782*
X01552Y00782*
X01552Y00782*
X01552Y00783*
X01552Y00783*
X01553Y00783*
X01553Y00783*
X01553Y00784*
X01554Y00784*
X01555Y00785*
X01555Y00785*
X01555Y00785*
X01556Y00786*
X01556Y00786*
Y00786*
X01556Y00786*
X01556Y00786*
X01556Y00786*
X01556Y00786*
X01556Y00787*
X01556Y00787*
X01557Y00788*
X01557Y00788*
X01557Y00789*
Y00789*
Y00789*
X01557Y00789*
X01557Y00789*
X01557Y00789*
X01557Y0079*
X01556Y0079*
X01556Y0079*
X01556Y00791*
X01556Y00791*
X01556Y00791*
X01555Y00791*
X01555Y00791*
X01555Y00791*
X01554Y00791*
X01554Y00792*
X01553Y00792*
X01553*
X01553Y00792*
X01553Y00792*
X01552Y00791*
X01552Y00791*
X01552Y00791*
X01551Y00791*
X01551Y00791*
X01551Y00791*
X01551Y0079*
X01551Y0079*
X0155Y0079*
X0155Y0079*
X0155Y00789*
X0155Y00789*
X0155Y00788*
X01548Y00788*
Y00788*
X01548Y00788*
Y00789*
X01548Y00789*
X01548Y00789*
X01548Y00789*
X01548Y00789*
X01548Y0079*
X01548Y0079*
X01549Y00791*
X01549Y00791*
X01549Y00792*
X01549Y00792*
X01549Y00792*
X01549Y00792*
X01549Y00792*
X0155Y00792*
X0155Y00792*
X0155Y00792*
X0155Y00792*
X0155Y00793*
X0155Y00793*
X01551Y00793*
X01551Y00793*
X01551Y00793*
X01552Y00793*
X01552Y00793*
X01553Y00793*
X01553Y00793*
X01553Y00793*
X01554*
X01554Y00793*
G37*
G36*
X01858Y00794D02*
X01858Y00794D01*
X01858Y00794*
X01859Y00794*
X01859Y00793*
X0186Y00793*
X01861Y00793*
X01861Y00793*
X01861Y00793*
X01862Y00793*
X01862Y00792*
X01862Y00792*
X01862Y00792*
X01862Y00792*
X01862Y00792*
X01862Y00792*
X01863Y00792*
X01863Y00792*
X01863Y00791*
X01863Y00791*
X01863Y00791*
X01864Y0079*
X01864Y0079*
X01864Y0079*
X01864Y00789*
X01864Y00789*
X01865Y00788*
X01862Y00788*
Y00788*
X01862Y00788*
X01862Y00788*
X01862Y00788*
X01862Y00788*
X01862Y00789*
X01862Y00789*
X01862Y00789*
X01861Y0079*
X01861Y0079*
X0186Y00791*
X0186Y00791*
X0186Y00791*
X0186Y00791*
X0186Y00791*
X01859Y00791*
X01859Y00792*
X01858Y00792*
X01857Y00792*
X01857*
X01857Y00792*
X01857*
X01857Y00792*
X01856Y00792*
X01856Y00791*
X01855Y00791*
X01855Y00791*
X01854Y00791*
X01854*
X01854Y00791*
X01854Y0079*
X01854Y0079*
X01853Y0079*
X01853Y0079*
X01853Y00789*
X01852Y00789*
X01852Y00788*
Y00788*
X01852Y00788*
X01852Y00788*
X01852Y00788*
X01852Y00788*
X01852Y00787*
X01852Y00787*
X01852Y00786*
X01852Y00786*
X01852Y00785*
X01852Y00785*
Y00785*
Y00785*
Y00784*
Y00784*
X01852Y00784*
Y00784*
X01852Y00784*
X01852Y00783*
X01852Y00783*
X01852Y00782*
X01852Y00781*
X01852Y00781*
Y00781*
X01852Y00781*
X01852Y00781*
X01852Y0078*
X01853Y0078*
X01853Y0078*
X01853Y00779*
X01853Y00779*
X01854Y00779*
X01854Y00778*
X01854*
X01854Y00778*
X01854Y00778*
X01855Y00778*
X01855Y00778*
X01855Y00778*
X01855Y00778*
X01856Y00778*
X01856Y00777*
X01857Y00777*
X01857Y00777*
X01857*
X01858Y00777*
X01858*
X01858Y00777*
X01858Y00778*
X01859Y00778*
X0186Y00778*
X0186Y00778*
X0186Y00778*
X01861Y00778*
X01861Y00779*
X01861Y00779*
X01861Y00779*
X01861Y00779*
X01861Y00779*
X01861Y00779*
X01861Y00779*
X01861Y00779*
X01862Y0078*
X01862Y0078*
X01862Y0078*
X01862Y0078*
X01862Y00781*
X01862Y00781*
X01862Y00781*
X01862Y00782*
X01865Y00781*
Y00781*
X01865Y00781*
X01865Y00781*
X01865Y00781*
X01865Y00781*
X01864Y0078*
X01864Y0078*
X01864Y0078*
X01864Y00779*
X01863Y00778*
X01863Y00778*
X01863Y00777*
X01863Y00777*
X01862Y00777*
X01862Y00777*
X01862Y00777*
X01862Y00777*
X01862Y00777*
X01862Y00777*
X01861Y00776*
X01861Y00776*
X01861Y00776*
X01861Y00776*
X0186Y00776*
X0186Y00776*
X01859Y00776*
X01859Y00776*
X01859Y00775*
X01858Y00775*
X01858Y00775*
X01857*
X01857Y00775*
X01857*
X01857Y00775*
X01856Y00775*
X01856Y00776*
X01855Y00776*
X01854Y00776*
X01854Y00776*
X01853Y00776*
X01853Y00777*
X01853Y00777*
X01853Y00777*
X01853Y00777*
X01853Y00777*
X01852Y00777*
X01852Y00777*
X01852Y00777*
X01852Y00777*
X01852Y00778*
X01851Y00778*
X01851Y00778*
X01851Y00779*
X0185Y0078*
Y0078*
X0185Y0078*
X0185Y0078*
X0185Y0078*
X0185Y0078*
X0185Y00781*
X0185Y00781*
X0185Y00781*
X0185Y00782*
X0185Y00782*
X01849Y00783*
X01849Y00784*
X01849Y00785*
Y00785*
Y00785*
Y00785*
X01849Y00785*
Y00785*
X01849Y00786*
X01849Y00786*
X01849Y00786*
X01849Y00787*
X0185Y00788*
X0185Y00789*
X0185Y00789*
X0185Y00789*
X0185Y0079*
X0185Y0079*
X0185Y0079*
X01851Y0079*
X01851Y0079*
X01851Y00791*
X01851Y00791*
X01852Y00792*
X01853Y00792*
X01853Y00793*
X01853Y00793*
X01853Y00793*
X01853Y00793*
X01854Y00793*
X01854Y00793*
X01854Y00793*
X01854Y00793*
X01855Y00793*
X01855Y00793*
X01855Y00793*
X01856Y00793*
X01857Y00794*
X01858Y00794*
X01858*
X01858Y00794*
G37*
G36*
X01875Y00776D02*
X01873D01*
Y00789*
X01873Y00789*
X01873Y00789*
X01873Y00789*
X01872Y00789*
X01872Y00789*
X01872Y00789*
X01871Y00788*
X01871Y00788*
X01871*
X01871Y00788*
X01871Y00788*
X0187Y00788*
X0187Y00788*
X0187Y00787*
X01869Y00787*
X01869Y00787*
X01868Y00787*
Y00789*
X01869*
X01869Y00789*
X01869Y00789*
X01869Y00789*
X01869Y00789*
X01869Y00789*
X0187Y0079*
X0187Y0079*
X01871Y0079*
X01871Y00791*
X01872Y00791*
X01872Y00791*
X01872Y00791*
X01872Y00791*
X01872Y00791*
X01872Y00791*
X01872Y00792*
X01873Y00792*
X01873Y00793*
X01873Y00793*
X01874Y00793*
X01875*
Y00776*
G37*
%LNpcb1_top_assembly-2*%
%LPC*%
G36*
X01336Y02411D02*
X01331D01*
Y02405*
X01336*
X01336Y02405*
X01337Y02405*
X01337Y02405*
X01338Y02405*
X01338Y02405*
X01338Y02406*
X01338Y02406*
X01338Y02406*
X01339Y02406*
X01339Y02406*
X01339Y02406*
X01339Y02406*
X01339Y02406*
X0134Y02407*
X0134Y02407*
X0134Y02407*
X0134Y02407*
X0134Y02407*
X0134Y02407*
X0134Y02408*
X0134Y02408*
X0134Y02408*
Y02408*
Y02408*
X0134Y02408*
X0134Y02409*
X0134Y02409*
X0134Y02409*
X0134Y0241*
X0134Y0241*
X01339Y0241*
X01339Y0241*
X01339Y0241*
X01339Y0241*
X01339Y02411*
X01338Y02411*
X01338Y02411*
X01337Y02411*
X01336Y02411*
G37*
G36*
X01546Y02414D02*
X01546D01*
X01546Y02414*
X01546Y02414*
X01546Y02414*
X01545Y02414*
X01545Y02414*
X01545Y02413*
X01544Y02413*
X01544Y02413*
X01544Y02413*
Y02413*
X01544Y02413*
X01544Y02413*
X01544Y02412*
X01544Y02412*
X01544Y02412*
X01544Y02412*
X01543Y02411*
X01543Y02411*
X01543Y02411*
X01543Y0241*
X01543Y0241*
X01543Y02409*
X01543Y02408*
X01543Y02408*
Y02407*
Y02407*
Y02407*
Y02407*
Y02407*
X01543Y02406*
Y02406*
X01543Y02405*
X01543Y02405*
X01543Y02405*
X01543Y02404*
X01543Y02403*
X01543Y02403*
X01543Y02402*
X01544Y02402*
X01544Y02401*
X01544Y02401*
Y02401*
X01544Y02401*
X01544Y02401*
X01544Y02401*
X01544Y02401*
X01545Y024*
X01545Y024*
X01545Y024*
X01546Y024*
X01546Y024*
X01546Y024*
X01546Y024*
X01547*
X01547Y024*
X01547Y024*
X01547Y024*
X01548Y024*
X01548Y024*
X01548Y024*
X01549Y02401*
X01549Y02401*
X01549Y02401*
Y02401*
X01549Y02401*
X01549Y02401*
X01549Y02401*
X01549Y02401*
X01549Y02402*
X01549Y02402*
X01549Y02402*
X0155Y02403*
X0155Y02403*
X0155Y02404*
X0155Y02404*
X0155Y02405*
X0155Y02405*
X0155Y02406*
X0155Y02407*
Y02407*
Y02407*
Y02407*
X0155Y02408*
Y02408*
X0155Y02408*
X0155Y02409*
X0155Y02409*
X0155Y0241*
X0155Y02411*
X0155Y02411*
X01549Y02412*
X01549Y02412*
X01549Y02412*
X01549Y02413*
Y02413*
X01549Y02413*
X01549Y02413*
X01549Y02413*
X01548Y02413*
X01548Y02414*
X01547Y02414*
X01547Y02414*
X01547Y02414*
X01546Y02414*
G37*
G36*
X01754Y02414D02*
X01748D01*
Y02408*
X01754*
X01754Y02408*
X01754Y02408*
X01755Y02408*
X01755Y02408*
X01756Y02408*
X01756Y02408*
X01756Y02408*
X01756Y02408*
X01756Y02408*
X01756Y02408*
X01757Y02408*
X01757Y02409*
X01757Y02409*
X01757Y02409*
X01757Y02409*
X01757Y02409*
X01757Y02409*
X01758Y0241*
X01758Y0241*
X01758Y0241*
X01758Y0241*
X01758Y02411*
Y02411*
Y02411*
X01758Y02411*
X01758Y02411*
X01758Y02411*
X01758Y02412*
X01757Y02412*
X01757Y02412*
X01757Y02413*
X01757Y02413*
X01757Y02413*
X01757Y02413*
X01756Y02413*
X01756Y02413*
X01755Y02413*
X01755Y02413*
X01754Y02414*
G37*
G36*
X01814Y0147D02*
X01809D01*
X01808Y01469*
X01808Y01469*
X01808Y01469*
X01807Y01469*
X01807Y01469*
X01806Y01469*
X01806Y01469*
X01806Y01469*
X01806Y01469*
X01806Y01469*
X01806Y01469*
X01805Y01469*
X01805Y01468*
X01805Y01468*
X01805Y01468*
X01805Y01468*
X01805Y01468*
X01805Y01468*
X01805Y01467*
X01805Y01467*
X01805Y01467*
X01804Y01467*
Y01467*
Y01466*
X01805Y01466*
X01805Y01466*
X01805Y01466*
X01805Y01466*
X01805Y01465*
X01805Y01465*
X01805Y01464*
X01805Y01464*
X01806Y01464*
X01806Y01464*
X01806Y01464*
X01806Y01464*
X01807Y01464*
X01808Y01464*
X01808Y01464*
X01814*
Y0147*
G37*
G36*
X01784Y01473D02*
X01779D01*
Y01465*
X01784Y01473*
G37*
G36*
X01277Y0106D02*
X01271D01*
Y01055*
X01277*
X01277Y01055*
X01277Y01055*
X01278Y01055*
X01278Y01055*
X01279Y01055*
X01279Y01055*
X01279Y01055*
X01279Y01055*
X01279Y01055*
X01279Y01055*
X0128Y01055*
X0128Y01056*
X0128Y01056*
X0128Y01056*
X0128Y01056*
X0128Y01056*
X0128Y01056*
X01281Y01057*
X01281Y01057*
X01281Y01057*
X01281Y01057*
X01281Y01058*
Y01058*
Y01058*
X01281Y01058*
X01281Y01058*
X01281Y01058*
X01281Y01059*
X0128Y01059*
X0128Y01059*
X0128Y0106*
X0128Y0106*
X0128Y0106*
X01279Y0106*
X01279Y0106*
X01279Y0106*
X01278Y0106*
X01278Y0106*
X01277Y0106*
G37*
G36*
X01279Y0142D02*
X01273D01*
Y01414*
X01278*
X01279Y01415*
X01279Y01415*
X01279Y01415*
X0128Y01415*
X0128Y01415*
X01281Y01415*
X01281Y01415*
X01281Y01415*
X01281Y01415*
X01281Y01415*
X01281Y01415*
X01281Y01415*
X01282Y01416*
X01282Y01416*
X01282Y01416*
X01282Y01416*
X01282Y01416*
X01282Y01416*
X01282Y01417*
X01282Y01417*
X01282Y01417*
X01282Y01417*
Y01417*
Y01418*
X01282Y01418*
X01282Y01418*
X01282Y01418*
X01282Y01419*
X01282Y01419*
X01282Y01419*
X01281Y0142*
X01281Y0142*
X01281Y0142*
X01281Y0142*
X01281Y0142*
X0128Y0142*
X0128Y0142*
X01279Y0142*
X01279Y0142*
G37*
G36*
X01276Y01239D02*
X0127D01*
Y01234*
X01276*
X01276Y01234*
X01276Y01234*
X01277Y01234*
X01277Y01234*
X01277Y01234*
X01278Y01234*
X01278Y01234*
X01278Y01234*
X01278Y01234*
X01278Y01234*
X01278Y01234*
X01279Y01234*
X01279Y01235*
X01279Y01235*
X01279Y01235*
X01279Y01235*
X01279Y01235*
X01279Y01235*
X01279Y01236*
X0128Y01236*
X0128Y01236*
X0128Y01236*
Y01236*
Y01237*
X0128Y01237*
X0128Y01237*
X0128Y01237*
X01279Y01238*
X01279Y01238*
X01279Y01238*
X01279Y01239*
X01279Y01239*
X01279Y01239*
X01278Y01239*
X01278Y01239*
X01278Y01239*
X01277Y01239*
X01277Y01239*
X01276Y01239*
G37*
G36*
X0194Y01153D02*
X01934D01*
Y01147*
X01934Y01147*
X01934Y01147*
X01934Y01146*
X01934Y01146*
X01934Y01146*
X01934Y01145*
X01934Y01145*
X01934Y01145*
X01934Y01145*
X01935Y01145*
X01935Y01144*
X01935Y01144*
X01935Y01144*
X01935Y01144*
X01935Y01144*
X01936Y01144*
X01936Y01144*
X01936Y01144*
X01936Y01143*
X01936Y01143*
X01937Y01143*
X01937Y01143*
X01937*
X01937*
X01937Y01143*
X01937Y01143*
X01938Y01143*
X01938Y01144*
X01938Y01144*
X01939Y01144*
X01939Y01144*
X01939Y01144*
X01939Y01144*
X01939Y01145*
X01939Y01145*
X0194Y01145*
X0194Y01146*
X0194Y01146*
X0194Y01147*
Y01153*
G37*
G36*
X0193Y01136D02*
X0193D01*
X0193*
X01929Y01136*
X01929Y01136*
X01929Y01136*
X01929Y01136*
X01928Y01135*
X01928Y01135*
X01928Y01135*
X01928Y01135*
X01927Y01135*
X01927Y01135*
X01927Y01135*
X01927Y01134*
X01926Y01134*
X01926Y01134*
X01926Y01134*
X01926Y01134*
X01926Y01134*
X01926Y01133*
X01926Y01133*
X01926Y01133*
X01926Y01132*
X01926Y01132*
Y01132*
X01926Y01132*
X01926Y01132*
X01926Y01131*
X01926Y01131*
X01926Y01131*
X01926Y0113*
X01927Y0113*
X01927Y0113*
X01927*
X01927Y0113*
X01927Y0113*
X01927Y01129*
X01928Y01129*
X01928Y01129*
X01928Y01129*
X01929Y01129*
X0193Y01129*
X0193*
X0193*
X0193*
X0193Y01129*
X0193*
X0193Y01129*
X01931Y01129*
X01931Y01129*
X01932Y01129*
X01932Y01129*
X01933Y0113*
X01933Y0113*
X01933Y0113*
X01933Y0113*
X01933Y0113*
X01933Y01131*
X01934Y01131*
X01934Y01132*
X01934Y01132*
Y01132*
X01934Y01132*
X01934Y01133*
X01934Y01133*
X01933Y01133*
X01933Y01134*
X01933Y01134*
X01933Y01135*
X01933Y01135*
X01932Y01135*
X01932Y01135*
X01932Y01135*
X01932Y01135*
X01931Y01136*
X01931Y01136*
X0193Y01136*
G37*
G36*
X01011Y01261D02*
X01011D01*
X01011*
X01011Y01261*
X01011Y01261*
X01011Y01261*
X0101Y01261*
X0101Y01261*
X0101Y01261*
X01009Y0126*
X01009Y0126*
X01009Y0126*
X01009Y0126*
X01009Y0126*
X01009Y01259*
X01009Y01259*
X01009Y01258*
X01008Y01257*
Y01252*
X01014*
Y01257*
X01014Y01257*
X01014Y01258*
X01014Y01258*
X01014Y01259*
X01014Y01259*
X01014Y01259*
X01014Y01259*
X01014Y0126*
X01014Y0126*
X01014Y0126*
X01014Y0126*
X01013Y0126*
X01013Y01261*
X01013Y01261*
X01013Y01261*
X01013Y01261*
X01013Y01261*
X01012Y01261*
X01012Y01261*
X01012Y01261*
X01012Y01261*
X01011Y01261*
G37*
G36*
X00435Y01074D02*
X00435D01*
X00435*
X00435*
X00435Y01074*
X00435Y01074*
X00434Y01074*
X00434Y01074*
X00434Y01074*
X00433Y01073*
X00433Y01073*
X00433Y01073*
X00433Y01073*
X00433Y01073*
X00433Y01073*
X00433Y01072*
X00432Y01072*
X00432Y01071*
Y01071*
X00432Y01071*
X00432Y01071*
X00433Y0107*
X00433Y0107*
X00433Y0107*
X00433Y01069*
X00433Y01069*
X00433Y01069*
X00434Y01069*
X00434Y01069*
X00434Y01069*
X00434Y01069*
X00435Y01069*
X00435Y01069*
X00435*
X00435*
X00435Y01069*
X00436Y01069*
X00436Y01069*
X00436Y01069*
X00436Y01069*
X00437Y01069*
X00437Y01069*
X00437Y01069*
X00437Y0107*
X00437Y0107*
X00438Y0107*
X00438Y0107*
X00438Y01071*
X00438Y01071*
X00438Y01071*
Y01071*
X00438Y01072*
X00438Y01072*
X00438Y01072*
X00438Y01073*
X00438Y01073*
X00437Y01073*
X00437Y01074*
X00437Y01074*
X00437Y01074*
X00437Y01074*
X00437Y01074*
X00436Y01074*
X00436Y01074*
X00436Y01074*
X00435Y01074*
G37*
G36*
X00443Y01075D02*
X00443D01*
X00443*
X00443*
X00443Y01075*
X00443Y01075*
X00442Y01075*
X00442Y01075*
X00442Y01075*
X00441Y01074*
X00441Y01074*
X00441Y01074*
X00441Y01074*
X0044Y01074*
X0044Y01073*
X0044Y01073*
X0044Y01072*
X0044Y01072*
X0044Y01071*
Y01071*
X0044Y01071*
X0044Y01071*
X0044Y0107*
X0044Y0107*
X0044Y0107*
X0044Y01069*
X00441Y01069*
X00441Y01069*
X00441Y01069*
X00441Y01069*
X00441Y01068*
X00442Y01068*
X00442Y01068*
X00443Y01068*
X00443Y01068*
X00443*
X00443*
X00444Y01068*
X00444Y01068*
X00444Y01068*
X00444Y01068*
X00445Y01068*
X00445Y01068*
X00445Y01068*
X00445Y01068*
X00445Y01068*
X00446Y01069*
X00446Y01069*
X00446Y01069*
X00446Y01069*
X00446Y0107*
X00446Y0107*
X00446Y0107*
X00447Y0107*
X00447Y0107*
X00447Y0107*
X00447Y01071*
X00447Y01071*
X00447Y01071*
Y01072*
X00447Y01072*
X00447Y01072*
X00447Y01072*
X00447Y01073*
X00446Y01073*
X00446Y01074*
X00446Y01074*
X00446Y01074*
X00446Y01074*
X00445Y01074*
X00445Y01075*
X00445Y01075*
X00444Y01075*
X00444Y01075*
X00443Y01075*
G37*
G36*
X01782Y01335D02*
X01781D01*
X01781Y01335*
X01781Y01335*
X01781Y01335*
X0178Y01335*
X0178Y01335*
X01779Y01335*
X01779Y01334*
X01779Y01334*
X01779Y01334*
X01779Y01334*
X01779Y01334*
X01778Y01333*
X01778Y01333*
X01778Y01332*
X01778Y01331*
Y01331*
Y01331*
Y01331*
X01778Y01331*
Y01331*
X01778Y01331*
X01778Y0133*
X01778Y0133*
X01778Y01329*
X01779Y01329*
X01779Y01328*
Y01328*
X01779Y01328*
X01779Y01328*
X01779Y01328*
X0178Y01328*
X0178Y01328*
X0178Y01328*
X01781Y01327*
X01781Y01327*
X01782*
X01782Y01327*
X01782Y01327*
X01782Y01328*
X01783Y01328*
X01783Y01328*
X01784Y01328*
X01784Y01328*
X01784Y01329*
Y01329*
X01784Y01329*
X01784Y01329*
X01784Y01329*
X01784Y01329*
X01784Y01329*
X01785Y0133*
X01785Y0133*
X01785Y01331*
X01785Y01332*
Y01332*
Y01332*
Y01332*
X01785Y01332*
Y01332*
X01785Y01332*
X01785Y01333*
X01785Y01333*
X01785Y01334*
X01784Y01334*
X01784Y01334*
X01784Y01334*
X01784Y01335*
X01784Y01335*
X01783Y01335*
X01783Y01335*
X01783Y01335*
X01782Y01335*
X01782Y01335*
G37*
G36*
X01779Y01129D02*
X01779D01*
X01779*
X01779Y01129*
X01778Y01129*
X01778Y01129*
X01778Y01129*
X01778Y01129*
X01777Y01129*
X01777Y01129*
X01777Y01129*
X01777Y01128*
X01777Y01128*
X01776Y01128*
X01776Y01128*
X01776Y01127*
X01776Y01127*
X01776Y01126*
Y01126*
X01776Y01126*
X01776Y01126*
X01776Y01126*
X01776Y01125*
X01776Y01125*
X01777Y01125*
X01777Y01124*
X01777Y01124*
X01777Y01124*
X01777Y01124*
X01777Y01124*
X01778Y01124*
X01778Y01124*
X01778Y01124*
X01779Y01124*
X01779*
X01779*
X01779*
X01779Y01124*
X01779Y01124*
X0178Y01124*
X0178Y01124*
X0178Y01124*
X01781Y01124*
X01781Y01124*
X01781Y01125*
X01781Y01125*
X01781Y01125*
X01781Y01125*
X01781Y01126*
X01782Y01126*
X01782Y01126*
Y01127*
X01782Y01127*
X01782Y01127*
X01781Y01128*
X01781Y01128*
X01781Y01128*
X01781Y01129*
X01781Y01129*
X01781Y01129*
X0178Y01129*
X0178Y01129*
X0178Y01129*
X0178Y01129*
X01779Y01129*
X01779Y01129*
G37*
G36*
X01771Y0113D02*
X01771D01*
X01771*
X0177Y0113*
X0177Y0113*
X0177Y0113*
X0177Y0113*
X01769Y0113*
X01769Y0113*
X01769Y0113*
X01769Y0113*
X01769Y01129*
X01768Y01129*
X01768Y01129*
X01768Y01129*
X01768Y01129*
X01768Y01128*
X01768Y01128*
X01768Y01128*
X01767Y01128*
X01767Y01128*
X01767Y01128*
X01767Y01127*
X01767Y01127*
X01767Y01126*
Y01126*
X01767Y01126*
X01767Y01126*
X01767Y01126*
X01767Y01125*
X01768Y01125*
X01768Y01124*
X01768Y01124*
X01768Y01124*
X01768Y01124*
X01769Y01124*
X01769Y01123*
X01769Y01123*
X0177Y01123*
X0177Y01123*
X01771Y01123*
X01771*
X01771*
X01771*
X01771Y01123*
X01771Y01123*
X01772Y01123*
X01772Y01123*
X01772Y01123*
X01773Y01124*
X01773Y01124*
X01773Y01124*
X01773Y01124*
X01774Y01124*
X01774Y01125*
X01774Y01125*
X01774Y01125*
X01774Y01126*
X01774Y01127*
Y01127*
X01774Y01127*
X01774Y01127*
X01774Y01127*
X01774Y01128*
X01774Y01128*
X01774Y01129*
X01773Y01129*
X01773Y01129*
X01773Y01129*
X01773Y01129*
X01773Y0113*
X01772Y0113*
X01772Y0113*
X01771Y0113*
X01771Y0113*
G37*
G36*
X00628Y01084D02*
X00628D01*
X00628*
X00628*
X00627Y01084*
X00627*
X00627Y01084*
X00627Y01084*
X00626Y01083*
X00626Y01083*
X00625Y01083*
X00625Y01083*
X00625Y01083*
X00625Y01083*
X00625Y01082*
X00624Y01082*
X00624Y01082*
X00624Y01081*
X00624Y01081*
X00624Y0108*
Y0108*
X00624Y0108*
X00624Y0108*
X00624Y01079*
X00624Y01079*
X00624Y01079*
X00625Y01078*
X00625Y01078*
X00625Y01078*
X00625Y01078*
X00625Y01077*
X00626Y01077*
X00626Y01077*
X00626Y01077*
X00627Y01077*
X00628Y01077*
X00628*
X00628*
X00628Y01077*
X00628Y01077*
X00629Y01077*
X00629Y01077*
X00629Y01077*
X0063Y01077*
X0063Y01077*
X0063Y01077*
X0063Y01077*
X0063Y01078*
X00631Y01078*
X00631Y01078*
X00631Y01078*
X00631Y01079*
X00631Y01079*
X00631Y01079*
X00631Y01079*
X00632Y01079*
X00632Y01079*
X00632Y0108*
X00632Y0108*
X00632Y0108*
Y0108*
X00632Y01081*
X00632Y01081*
X00632Y01081*
X00632Y01082*
X00631Y01082*
X00631Y01082*
X00631Y01083*
X00631Y01083*
X00631*
X00631Y01083*
X00631Y01083*
X0063Y01083*
X0063Y01083*
X0063Y01083*
X00629Y01084*
X00628Y01084*
X00628Y01084*
G37*
%LNpcb1_top_assembly-3*%
%LPD*%
G54D13*
X01283Y02366D02*
Y02444D01*
X01417*
Y02366D02*
Y02444D01*
X01283Y02366D02*
X01417D01*
X01629Y02371D02*
Y02442D01*
X01495Y02371D02*
X01629D01*
X01495D02*
Y02442D01*
X01629*
X01693Y02368D02*
Y02447D01*
X01827*
Y02368D02*
Y02447D01*
X01693Y02368D02*
X01827D01*
X01862Y0143D02*
Y01509D01*
X01728Y0143D02*
X01862D01*
X01728D02*
Y01509D01*
X01862*
X01223Y01015D02*
Y01094D01*
X01357*
Y01015D02*
Y01094D01*
X01223Y01015D02*
X01357D01*
X01225Y01375D02*
Y01454D01*
X01359*
Y01375D02*
Y01454D01*
X01225Y01375D02*
X01359D01*
X0122Y01194D02*
Y01273D01*
X01354*
Y01194D02*
Y01273D01*
X0122Y01194D02*
X01354D01*
X01895Y01208D02*
X01973D01*
Y01074D02*
Y01208D01*
X01895Y01074D02*
X01973D01*
X01895D02*
Y01208D01*
X00975Y01197D02*
X01054D01*
X00975D02*
Y01331D01*
X01054*
Y01197D02*
Y01331D01*
X00404Y01003D02*
X00475D01*
X00404D02*
Y01136D01*
X00475*
Y01003D02*
Y01136D01*
X01864Y01299D02*
Y0137D01*
X0173Y01299D02*
X01864D01*
X0173D02*
Y0137D01*
X01864*
X01739Y01209D02*
X0181D01*
Y01075D02*
Y01209D01*
X01739Y01075D02*
X0181D01*
X01739D02*
Y01209D01*
X00974Y01395D02*
X01045D01*
X00974D02*
Y01529D01*
X01045*
Y01395D02*
Y01529D01*
X00589Y00998D02*
X0066D01*
X00589D02*
Y01131D01*
X0066*
Y00998D02*
Y01131D01*
X01478Y00749D02*
Y0082D01*
X01611*
Y00749D02*
Y0082D01*
X01478Y00749D02*
X01611D01*
X01795D02*
Y0082D01*
X01929*
Y00749D02*
Y0082D01*
X01795Y00749D02*
X01929D01*
M02*