%FSTAX23Y23*%
%MOIN*%
%SFA1B1*%

%IPPOS*%
%ADD19R,0.157480X0.133858*%
%ADD20R,0.033465X0.059055*%
%ADD21R,0.035433X0.051181*%
%ADD22R,0.401574X0.248031*%
%ADD23R,0.017323X0.059055*%
%ADD24R,0.059055X0.033465*%
%ADD25R,0.043307X0.055118*%
%ADD26R,0.051181X0.035433*%
%ADD27R,0.165354X0.043307*%
%LNpcb1_paste_top-1*%
%LPD*%
G54D19*
X00468Y02082D03*
X00861D03*
Y01807D03*
X00468D03*
X00861Y02357D03*
X00468D03*
G54D20*
X01389Y02405D03*
X0131D03*
X018Y02408D03*
X01721D03*
X01756Y0147D03*
X01835D03*
X0133Y01055D03*
X01251D03*
X01331Y01415D03*
X01252D03*
X01327Y01234D03*
X01248D03*
G54D21*
X016Y02407D03*
X01525D03*
X01835Y01335D03*
X0176D03*
X01507Y00785D03*
X01582D03*
X01825D03*
X019D03*
G54D22*
X01517Y01947D03*
G54D23*
X01299Y02212D03*
X01325D03*
X0135D03*
X01376D03*
X01401D03*
X01427D03*
X01453D03*
X01478D03*
X01504D03*
X01529D03*
X01555D03*
X01581D03*
X01606D03*
X01632D03*
X01657D03*
X01683D03*
X01709D03*
X01734D03*
X01299Y01681D03*
X01325D03*
X0135D03*
X01376D03*
X01401D03*
X01427D03*
X01453D03*
X01478D03*
X01504D03*
X01529D03*
X01555D03*
X01581D03*
X01606D03*
X01632D03*
X01657D03*
X01683D03*
X01709D03*
X01734D03*
G54D24*
X01934Y01101D03*
Y0118D03*
X01015Y01303D03*
Y01225D03*
G54D25*
X00835Y01048D03*
Y00905D03*
X01011Y01093D03*
Y00949D03*
G54D26*
X0044Y01032D03*
Y01107D03*
X01775Y0118D03*
Y01105D03*
X0101Y01425D03*
Y01499D03*
X00625Y01027D03*
Y01102D03*
G54D27*
X00834Y01445D03*
X00487D03*
M02*