%FSTAX23Y23*%
%MOIN*%
%SFA1B1*%

%IPPOS*%
%ADD28R,0.173228X0.149606*%
%ADD29R,0.041464X0.067055*%
%ADD30R,0.043433X0.059181*%
%ADD31R,0.405511X0.251968*%
%ADD32R,0.021260X0.062992*%
%ADD33R,0.067055X0.041464*%
%ADD34R,0.047244X0.059055*%
%ADD35R,0.059181X0.043433*%
%ADD36R,0.169291X0.047244*%
%ADD37C,0.059181*%
%ADD38R,0.059181X0.059181*%
%ADD39R,0.074929X0.074929*%
%ADD40C,0.074929*%
%ADD41C,0.058000*%
%LNpcb1_soldermask_top-1*%
%LPD*%
G54D28*
X00468Y02082D03*
X00861D03*
Y01807D03*
X00468D03*
X00861Y02357D03*
X00468D03*
G54D29*
X01389Y02405D03*
X0131D03*
X018Y02408D03*
X01721D03*
X01756Y0147D03*
X01835D03*
X0133Y01055D03*
X01251D03*
X01331Y01415D03*
X01252D03*
X01327Y01234D03*
X01248D03*
G54D30*
X016Y02407D03*
X01525D03*
X01835Y01335D03*
X0176D03*
X01507Y00785D03*
X01582D03*
X01825D03*
X019D03*
G54D31*
X01517Y01947D03*
G54D32*
X01299Y02212D03*
X01325D03*
X0135D03*
X01376D03*
X01401D03*
X01427D03*
X01453D03*
X01478D03*
X01504D03*
X01529D03*
X01555D03*
X01581D03*
X01606D03*
X01632D03*
X01657D03*
X01683D03*
X01709D03*
X01734D03*
X01299Y01681D03*
X01325D03*
X0135D03*
X01376D03*
X01401D03*
X01427D03*
X01453D03*
X01478D03*
X01504D03*
X01529D03*
X01555D03*
X01581D03*
X01606D03*
X01632D03*
X01657D03*
X01683D03*
X01709D03*
X01734D03*
G54D33*
X01934Y01101D03*
Y0118D03*
X01015Y01303D03*
Y01225D03*
G54D34*
X00835Y01048D03*
Y00905D03*
X01011Y01093D03*
Y00949D03*
G54D35*
X0044Y01032D03*
Y01107D03*
X01775Y0118D03*
Y01105D03*
X0101Y01425D03*
Y01499D03*
X00625Y01027D03*
Y01102D03*
G54D36*
X00834Y01445D03*
X00487D03*
G54D37*
X01822Y00515D03*
X01743D03*
X01665D03*
X01586D03*
X01507D03*
X01428D03*
X0135D03*
X01271D03*
X01822Y00593D03*
X01743D03*
X01665D03*
X01586D03*
X01507D03*
X01428D03*
X0135D03*
G54D38*
X01271Y00593D03*
G54D39*
X00445Y00745D03*
G54D40*
X00545Y00745D03*
X00645D03*
X00745D03*
X00845D03*
X00945D03*
X00445Y00645D03*
X00545D03*
X00645D03*
X00745D03*
X00845D03*
X00945D03*
G54D41*
X01384Y01528D03*
X01452Y01417D03*
X01292Y00907D03*
X01045Y00275D03*
X01048Y0052D03*
X01138Y00852D03*
X01168Y00662D03*
X01934Y02284D03*
X01426Y02284D03*
X01935Y02409D03*
X01548Y02285D03*
X01152Y02141D03*
X01131Y01406D03*
X00639Y0085D03*
X01102Y02464D03*
X01141Y02223D03*
X00982Y02204D03*
X01076Y02297D03*
X01719Y02488D03*
X01476Y01261D03*
X01109Y01533D03*
X01932Y01014D03*
X01685Y0157D03*
X0072Y01048D03*
X01055Y01677D03*
X01161Y01665D03*
X00952Y02496D03*
X01838Y00425D03*
X01259Y00385D03*
X01578Y00996D03*
X01407Y01057D03*
M02*