%FSTAX23Y23*%
%MOIN*%
%SFA1B1*%

%IPPOS*%
%ADD37C,0.059181*%
%ADD38R,0.059181X0.059181*%
%ADD39R,0.074929X0.074929*%
%ADD40C,0.074929*%
%ADD41C,0.058000*%
%LNpcb1_soldermask_bot-1*%
%LPD*%
G54D37*
X01822Y00515D03*
X01743D03*
X01665D03*
X01586D03*
X01507D03*
X01428D03*
X0135D03*
X01271D03*
X01822Y00593D03*
X01743D03*
X01665D03*
X01586D03*
X01507D03*
X01428D03*
X0135D03*
G54D38*
X01271Y00593D03*
G54D39*
X00445Y00745D03*
G54D40*
X00545Y00745D03*
X00645D03*
X00745D03*
X00845D03*
X00945D03*
X00445Y00645D03*
X00545D03*
X00645D03*
X00745D03*
X00845D03*
X00945D03*
G54D41*
X01384Y01528D03*
X01452Y01417D03*
X01292Y00907D03*
X01045Y00275D03*
X01048Y0052D03*
X01138Y00852D03*
X01168Y00662D03*
X01934Y02284D03*
X01426Y02284D03*
X01935Y02409D03*
X01548Y02285D03*
X01152Y02141D03*
X01131Y01406D03*
X00639Y0085D03*
X01102Y02464D03*
X01141Y02223D03*
X00982Y02204D03*
X01076Y02297D03*
X01719Y02488D03*
X01476Y01261D03*
X01109Y01533D03*
X01932Y01014D03*
X01685Y0157D03*
X0072Y01048D03*
X01055Y01677D03*
X01161Y01665D03*
X00952Y02496D03*
X01838Y00425D03*
X01259Y00385D03*
X01578Y00996D03*
X01407Y01057D03*
M02*