%FSTAX23Y23*%
%MOIN*%
%SFA1B1*%

%IPPOS*%
%ADD14O,0.070992X0.086740*%
%ADD15R,0.070992X0.086740*%
%ADD16C,0.068000*%
%ADD17O,0.086740X0.070992*%
%ADD18R,0.086740X0.070992*%
%ADD19C,0.244220*%
%ADD20C,0.128000*%
%ADD21C,0.067055*%
%LNvssl_v2-1*%
%LPD*%
G54D14*
X0157Y01486D03*
X0167D03*
X0177D03*
X0187D03*
X0197D03*
X0207D03*
X0157Y02084D03*
X0167D03*
X0177D03*
X0187D03*
X0197D03*
X02215Y0233D03*
X02519Y02079D03*
X02219Y01481D03*
X02419D03*
X02519D03*
X02319Y02079D03*
Y01481D03*
X03219Y02079D03*
X03119D03*
X03019D03*
X02919D03*
X02819D03*
X02719D03*
X02619D03*
X02419D03*
X02219D03*
X03319Y01481D03*
X03219D03*
X03119D03*
X03019D03*
X02919D03*
X02819D03*
X02719D03*
X02619D03*
X02315Y0233D03*
X02415D03*
X02515D03*
X02615D03*
G54D15*
X0207Y02084D03*
X03319Y02079D03*
X02715Y0233D03*
G54D16*
X0301Y01955D03*
X03125D03*
X0199Y01892D03*
X01885Y01897D03*
Y01582D03*
X0199Y01577D03*
G54D17*
X0333Y01955D03*
Y01855D03*
Y01755D03*
Y01655D03*
X0323Y01955D03*
Y01855D03*
Y01755D03*
X0214Y0176D03*
Y0186D03*
Y0166D03*
G54D18*
X0323Y01655D03*
G54D19*
X016Y0129D03*
X03355Y01285D03*
X016Y02285D03*
X03345Y0228D03*
G54D20*
X01645Y01898D03*
Y01701D03*
G54D21*
X0237Y0182D03*
X0292Y01955D03*
M02*