%FSTAX23Y23*%
%MOIN*%
%SFA1B1*%

%IPPOS*%
%ADD11C,0.010000*%
%ADD12C,0.011811*%
%ADD13C,0.005905*%
%ADD34R,0.059055X0.078740*%
%ADD35R,0.059055X0.078740*%
%LNvssl_v2-1*%
%LPD*%
G54D11*
X01507Y01603D02*
Y01996D01*
Y01603D02*
X01802D01*
Y01996*
X01507D02*
X01802D01*
X01885Y01631D02*
Y01651D01*
Y01828D02*
Y01848D01*
X01845Y01651D02*
Y01828D01*
X01904*
X01924*
X01845Y01651D02*
X01924D01*
Y01828*
X0199Y01823D02*
Y01843D01*
Y01626D02*
Y01646D01*
X02029D02*
Y01823D01*
X0197Y01646D02*
X02029D01*
X0195D02*
X0197D01*
X0195Y01823D02*
X02029D01*
X0195Y01646D02*
Y01823D01*
X031Y01324D02*
Y01293D01*
X03084*
X03079Y01298*
Y01319*
X03084Y01324*
X031*
X03053Y01293D02*
X03063D01*
X03068Y01298*
Y01309*
X03063Y01314*
X03053*
X03047Y01309*
Y01303*
X03068*
X03037Y01293D02*
X03021D01*
X03016Y01298*
X03021Y01303*
X03032*
X03037Y01309*
X03032Y01314*
X03016*
X03005Y01293D02*
X02995D01*
X03*
Y01314*
X03005*
X02969Y01282D02*
X02963D01*
X02958Y01288*
Y01314*
X02974*
X02979Y01309*
Y01298*
X02974Y01293*
X02958*
X02948D02*
Y01314D01*
X02932*
X02927Y01309*
Y01293*
X029D02*
X02911D01*
X02916Y01298*
Y01309*
X02911Y01314*
X029*
X02895Y01309*
Y01303*
X02916*
X02864Y01324D02*
Y01293D01*
X02879*
X02885Y01298*
Y01309*
X02879Y01314*
X02864*
X02822Y01324D02*
Y01293D01*
X02806*
X02801Y01298*
Y01303*
Y01309*
X02806Y01314*
X02822*
X0279D02*
Y01298D01*
X02785Y01293*
X02769*
Y01288*
X02775Y01282*
X0278*
X02769Y01293D02*
Y01314D01*
X02759D02*
X02754D01*
Y01309*
X02759*
Y01314*
Y01298D02*
X02754D01*
Y01293*
X02759*
Y01298*
X031Y01221D02*
Y01252D01*
X03084*
X03079Y01247*
Y01236*
X03084Y01231*
X031*
X03089D02*
X03079Y01221D01*
X03063D02*
X03053D01*
X03047Y01226*
Y01236*
X03053Y01241*
X03063*
X03068Y01236*
Y01226*
X03063Y01221*
X03016Y01252D02*
Y01221D01*
X03032*
X03037Y01226*
Y01236*
X03032Y01241*
X03016*
X03005D02*
Y01221D01*
Y01231*
X03Y01236*
X02995Y01241*
X0299*
X02974Y01221D02*
X02963D01*
X02969*
Y01241*
X02974*
X02937Y0121D02*
X02932D01*
X02927Y01215*
Y01241*
X02942*
X02948Y01236*
Y01226*
X02942Y01221*
X02927*
X02911D02*
X029D01*
X02895Y01226*
Y01236*
X029Y01241*
X02911*
X02916Y01236*
Y01226*
X02911Y01221*
X02832Y01247D02*
X02838Y01252D01*
X02848*
X02853Y01247*
Y01241*
X02848Y01236*
X02838*
X02832Y01231*
Y01226*
X02838Y01221*
X02848*
X02853Y01226*
X02822Y01221D02*
X02811D01*
X02817*
Y01241*
X02822*
X0278Y01221D02*
X0279D01*
X02796Y01226*
Y01236*
X0279Y01241*
X0278*
X02775Y01236*
Y01231*
X02796*
X02764Y01241D02*
Y01221D01*
Y01231*
X02759Y01236*
X02754Y01241*
X02748*
X02733D02*
Y01221D01*
Y01231*
X02727Y01236*
X02722Y01241*
X02717*
X02696D02*
X02685D01*
X0268Y01236*
Y01221*
X02696*
X02701Y01226*
X02696Y01231*
X0268*
X02617Y01221D02*
X02638D01*
X02617Y01241*
Y01247*
X02622Y01252*
X02633*
X02638Y01247*
X02607D02*
X02601Y01252D01*
X02591*
X02586Y01247*
Y01226*
X02591Y01221*
X02601*
X02607Y01226*
Y01247*
X02554Y01221D02*
X02575D01*
X02554Y01241*
Y01247*
X02559Y01252*
X0257*
X02575Y01247*
X02523Y01252D02*
X02544D01*
Y01236*
X02533Y01241*
X02528*
X02523Y01236*
Y01226*
X02528Y01221*
X02538*
X02544Y01226*
X02194Y01994D02*
Y01955D01*
X02174Y01935*
X02155Y01955*
Y01994*
X02135Y01935D02*
X02115D01*
X02125*
Y01994*
X02135Y01984*
X01932Y01978D02*
X01925Y01984D01*
X01912*
X01906Y01978*
Y01971*
X01912Y01965*
X01919*
X01912*
X01906Y01958*
Y01951*
X01912Y01945*
X01925*
X01932Y01951*
X01893Y01978D02*
X01886Y01984D01*
X01873*
X01866Y01978*
Y01971*
X01873Y01965*
X0188*
X01873*
X01866Y01958*
Y01951*
X01873Y01945*
X01886*
X01893Y01951*
X01853Y01978D02*
X01847Y01984D01*
X01834*
X01827Y01978*
Y01951*
X01834Y01945*
X01847*
X01853Y01951*
Y01978*
X02036Y01945D02*
X02062D01*
X02036Y01971*
Y01978*
X02042Y01984*
X02055*
X02062Y01978*
X02023D02*
X02016Y01984D01*
X02003*
X01996Y01978*
Y01951*
X02003Y01945*
X02016*
X02023Y01951*
Y01978*
X01983D02*
X01977Y01984D01*
X01964*
X01957Y01978*
Y01951*
X01964Y01945*
X01977*
X01983Y01951*
Y01978*
X0174Y01834D02*
X01759D01*
X01749*
Y01785*
X01759Y01775*
X01769*
X01779Y01785*
X0172Y01775D02*
X017D01*
X0171*
Y01834*
X0172Y01824*
G54D12*
X03033Y01821D02*
Y01784D01*
X03014Y01766*
X02996Y01784*
Y01821*
X02941Y01812D02*
X0295Y01821D01*
X02968*
X02978Y01812*
Y01803*
X02968Y01793*
X0295*
X02941Y01784*
Y01775*
X0295Y01766*
X02968*
X02978Y01775*
X02886Y01812D02*
X02895Y01821D01*
X02913*
X02922Y01812*
Y01803*
X02913Y01793*
X02895*
X02886Y01784*
Y01775*
X02895Y01766*
X02913*
X02922Y01775*
X02867Y01821D02*
Y01766D01*
X02831*
X02757D02*
Y01821D01*
X02739Y01803*
X0272Y01821*
Y01766*
X02693Y01803D02*
X02675D01*
X02665Y01793*
Y01766*
X02693*
X02702Y01775*
X02693Y01784*
X02665*
X02647Y01766D02*
X02629D01*
X02638*
Y01803*
X02647*
X02601Y01766D02*
Y01803D01*
X02574*
X02564Y01793*
Y01766*
X03033Y01726D02*
Y01671D01*
X03005*
X02996Y0168*
Y0169*
X03005Y01699*
X03033*
X03005*
X02996Y01708*
Y01717*
X03005Y01726*
X03033*
X02968Y01671D02*
X0295D01*
X02941Y0168*
Y01699*
X0295Y01708*
X02968*
X02978Y01699*
Y0168*
X02968Y01671*
X02913Y01708D02*
X02895D01*
X02886Y01699*
Y01671*
X02913*
X02922Y0168*
X02913Y0169*
X02886*
X02867Y01708D02*
Y01671D01*
Y0169*
X02858Y01699*
X02849Y01708*
X0284*
X02776Y01726D02*
Y01671D01*
X02803*
X02812Y0168*
Y01699*
X02803Y01708*
X02776*
X02665Y01671D02*
X02702D01*
X02665Y01708*
Y01717*
X02675Y01726*
X02693*
X02702Y01717*
X02647Y01671D02*
Y0168D01*
X02638*
Y01671*
X02647*
X02601Y01717D02*
X02592Y01726D01*
X02574*
X02564Y01717*
Y0168*
X02574Y01671*
X02592*
X02601Y0168*
Y01717*
G54D13*
X02259Y0165D02*
Y01664D01*
X02252Y0167*
X02245Y01664*
Y0165*
Y0166*
X02259*
X02239Y0167D02*
Y0165D01*
X02229*
X02226Y01654*
Y01667*
X02229Y0167*
X02239*
X02206D02*
X02213D01*
X02209*
Y01654*
X02213Y0165*
X02216*
X02219Y01654*
X02244Y0177D02*
X0225D01*
X02254Y01767*
Y01754*
X0225Y0175*
X02244*
X0224Y01754*
Y01767*
X02244Y0177*
X02234D02*
Y01754D01*
X02231Y0175*
X02224*
X02221Y01754*
Y0177*
X02214D02*
X02201D01*
X02208*
Y0175*
X02234Y0187D02*
X02227D01*
X0223*
Y0185*
X02234*
X02227*
X02217D02*
Y0187D01*
X02204Y0185*
Y0187*
X03164Y01745D02*
Y01765D01*
X03157Y01759*
X0315Y01765*
Y01745*
X03134Y01765D02*
X03141D01*
X03144Y01762*
Y01749*
X03141Y01745*
X03134*
X03131Y01749*
Y01762*
X03134Y01765*
X03111Y01762D02*
X03114Y01765D01*
X03121*
X03124Y01762*
Y01759*
X03121Y01755*
X03114*
X03111Y01752*
Y01749*
X03114Y01745*
X03121*
X03124Y01749*
X03105Y01765D02*
X03098D01*
X03101*
Y01745*
X03105*
X03098*
X03145Y01862D02*
X03149Y01865D01*
X03155*
X03159Y01862*
Y01849*
X03155Y01845*
X03149*
X03145Y01849*
X03126Y01862D02*
X03129Y01865D01*
X03136*
X03139Y01862*
Y01859*
X03136Y01855*
X03129*
X03126Y01852*
Y01849*
X03129Y01845*
X03136*
X03139Y01849*
X03119Y01845D02*
Y01865D01*
X03106Y01845*
Y01865*
X0343Y01957D02*
X03434Y0196D01*
X0344*
X03444Y01957*
Y01944*
X0344Y0194*
X03434*
X0343Y01944*
Y0195*
X03437*
X03424Y0194D02*
Y0196D01*
X03411Y0194*
Y0196*
X03404D02*
Y0194D01*
X03394*
X03391Y01944*
Y01957*
X03394Y0196*
X03404*
X03415Y01857D02*
X03419Y0186D01*
X03425*
X03429Y01857*
Y01844*
X03425Y0184*
X03419*
X03415Y01844*
X03396Y0186D02*
X03409D01*
Y0184*
X03396*
X03409Y0185D02*
X03402D01*
X0343Y01762D02*
X03434Y01765D01*
X0344*
X03444Y01762*
Y01759*
X0344Y01755*
X03434*
X0343Y01752*
Y01749*
X03434Y01745*
X0344*
X03444Y01749*
X03411Y01762D02*
X03414Y01765D01*
X03421*
X03424Y01762*
Y01749*
X03421Y01745*
X03414*
X03411Y01749*
X03404Y01765D02*
Y01745D01*
Y01752*
X03391Y01765*
X03401Y01755*
X03391Y01745*
X03454Y01645D02*
Y01665D01*
X03447Y01659*
X0344Y01665*
Y01645*
X03434Y01665D02*
X03427D01*
X03431*
Y01645*
X03434*
X03427*
X03404Y01662D02*
X03408Y01665D01*
X03414*
X03418Y01662*
Y01659*
X03414Y01655*
X03408*
X03404Y01652*
Y01649*
X03408Y01645*
X03414*
X03418Y01649*
X03388Y01665D02*
X03395D01*
X03398Y01662*
Y01649*
X03395Y01645*
X03388*
X03385Y01649*
Y01662*
X03388Y01665*
G54D34*
X01536Y01898D03*
G54D35*
X01536Y01701D03*
M02*