G04*
G04 #@! TF.GenerationSoftware,Altium Limited,Altium Designer,25.4.2 (15)*
G04*
G04 Layer_Physical_Order=1*
G04 Layer_Color=255*
%FSLAX44Y44*%
%MOMM*%
G71*
G04*
G04 #@! TF.SameCoordinates,7F9F24B7-B9C1-45AF-9387-6EDD806BED2B*
G04*
G04*
G04 #@! TF.FilePolarity,Positive*
G04*
G01*
G75*
%ADD19R,4.0000X3.4000*%
%ADD20R,0.8500X1.5000*%
%ADD21R,0.9000X1.3000*%
%ADD22R,10.2000X6.3000*%
%ADD23R,0.4400X1.5000*%
%ADD24R,1.5000X0.8500*%
%ADD25R,1.1000X1.4000*%
%ADD26R,1.3000X0.9000*%
%ADD27R,4.2000X1.1000*%
%ADD42C,0.4500*%
%ADD43C,1.3000*%
%ADD44R,1.3000X1.3000*%
%ADD45R,1.7000X1.7000*%
%ADD46C,1.7000*%
%ADD47C,1.2700*%
G36*
X521000Y649876D02*
Y56000D01*
X77828D01*
X77000Y58000D01*
Y651000D01*
X518876Y651995D01*
X521000Y649876D01*
D02*
G37*
%LPC*%
G36*
X243270Y642863D02*
Y635270D01*
X250863D01*
X250284Y637431D01*
X249114Y639459D01*
X247459Y641114D01*
X245431Y642284D01*
X243270Y642863D01*
D02*
G37*
G36*
X240730D02*
X238569Y642284D01*
X236541Y641114D01*
X234886Y639459D01*
X233716Y637431D01*
X233137Y635270D01*
X240730D01*
Y642863D01*
D02*
G37*
G36*
X250863Y632730D02*
X243270D01*
Y625137D01*
X245431Y625716D01*
X247459Y626886D01*
X249114Y628541D01*
X250284Y630569D01*
X250863Y632730D01*
D02*
G37*
G36*
X240730D02*
X233137D01*
X233716Y630569D01*
X234886Y628541D01*
X236541Y626886D01*
X238569Y625716D01*
X240730Y625137D01*
Y632730D01*
D02*
G37*
G36*
X413440Y620490D02*
X407670D01*
Y612720D01*
X413440D01*
Y620490D01*
D02*
G37*
G36*
X331650Y621050D02*
X326130D01*
Y612280D01*
X331650D01*
Y621050D01*
D02*
G37*
G36*
X141450Y618290D02*
X120180D01*
Y600020D01*
X141450D01*
Y618290D01*
D02*
G37*
G36*
X117640D02*
X96370D01*
Y600020D01*
X117640D01*
Y618290D01*
D02*
G37*
G36*
X141450Y597480D02*
X120180D01*
Y579210D01*
X141450D01*
Y597480D01*
D02*
G37*
G36*
X117640D02*
X96370D01*
Y579210D01*
X117640D01*
Y597480D01*
D02*
G37*
G36*
X437769Y640420D02*
X435571D01*
X433447Y639851D01*
X431543Y638752D01*
X429988Y637197D01*
X428889Y635293D01*
X428320Y633169D01*
Y630971D01*
X428889Y628847D01*
X429988Y626943D01*
X431543Y625388D01*
X432627Y624763D01*
Y621170D01*
X431000D01*
Y611398D01*
X418036Y598434D01*
X417097Y597028D01*
X416767Y595370D01*
Y571550D01*
X412433D01*
Y590009D01*
X412103Y591667D01*
X411164Y593073D01*
X404598Y599638D01*
X405746Y602410D01*
X413440D01*
Y610180D01*
X406400D01*
Y611450D01*
X405130D01*
Y620490D01*
X399360D01*
Y619750D01*
X393900D01*
Y619950D01*
X380900D01*
Y617043D01*
X359170D01*
Y620510D01*
X346670D01*
Y620259D01*
X339710D01*
Y621050D01*
X334190D01*
Y611010D01*
X332920D01*
Y609740D01*
X326130D01*
Y603593D01*
X308585D01*
X288263Y623915D01*
X288500Y624801D01*
Y626999D01*
X287931Y629123D01*
X286832Y631027D01*
X285277Y632582D01*
X283373Y633681D01*
X281249Y634250D01*
X279051D01*
X276927Y633681D01*
X275023Y632582D01*
X273468Y631027D01*
X272369Y629123D01*
X271800Y626999D01*
Y624801D01*
X272369Y622677D01*
X273468Y620773D01*
X275023Y619218D01*
X276927Y618119D01*
X279051Y617550D01*
X281249D01*
X282135Y617787D01*
X300979Y598943D01*
X299736Y595943D01*
X281540D01*
X279882Y595613D01*
X278476Y594674D01*
X275355Y591553D01*
X274469Y591790D01*
X272271D01*
X270147Y591221D01*
X268243Y590122D01*
X266688Y588567D01*
X265589Y586663D01*
X265020Y584539D01*
Y582341D01*
X265589Y580217D01*
X266688Y578313D01*
X268243Y576758D01*
X270147Y575659D01*
X272271Y575090D01*
X274469D01*
X276593Y575659D01*
X278497Y576758D01*
X280052Y578313D01*
X281151Y580217D01*
X281720Y582341D01*
Y584539D01*
X281597Y584996D01*
X283555Y587277D01*
X353351D01*
X353385Y587250D01*
X354908Y584277D01*
X354519Y583603D01*
X353950Y581479D01*
Y579673D01*
X352861Y578318D01*
X351552Y577162D01*
X349644Y577344D01*
X347304Y579684D01*
X345899Y580623D01*
X344240Y580953D01*
X301300D01*
X299642Y580623D01*
X298236Y579684D01*
X291635Y573084D01*
X291089Y573230D01*
X288891D01*
X286767Y572661D01*
X284863Y571562D01*
X283308Y570007D01*
X282209Y568103D01*
X281640Y565979D01*
Y563781D01*
X282209Y561657D01*
X283308Y559753D01*
X284863Y558198D01*
X286767Y557099D01*
X288891Y556530D01*
X291089D01*
X293213Y557099D01*
X295117Y558198D01*
X296672Y559753D01*
X297771Y561657D01*
X298340Y563781D01*
Y565979D01*
X298012Y567204D01*
X303095Y572287D01*
X322441D01*
X325360Y572090D01*
Y563320D01*
X330100D01*
Y562050D01*
X331370D01*
Y552010D01*
X334840D01*
Y552550D01*
X362426D01*
X363682Y549550D01*
X362308Y548153D01*
X299760D01*
X299302Y548947D01*
X297747Y550502D01*
X295843Y551601D01*
X293719Y552170D01*
X291521D01*
X289397Y551601D01*
X287493Y550502D01*
X285938Y548947D01*
X284839Y547043D01*
X284270Y544920D01*
Y542721D01*
X284839Y540597D01*
X285026Y540273D01*
X283294Y537273D01*
X260625D01*
X253763Y544135D01*
Y552750D01*
X254557Y553208D01*
X256112Y554763D01*
X257211Y556667D01*
X257780Y558791D01*
Y560989D01*
X257211Y563113D01*
X256112Y565017D01*
X254557Y566572D01*
X252653Y567671D01*
X250529Y568240D01*
X248331D01*
X246207Y567671D01*
X244303Y566572D01*
X242748Y565017D01*
X241649Y563113D01*
X241080Y560989D01*
Y558791D01*
X241649Y556667D01*
X242748Y554763D01*
X244303Y553208D01*
X245097Y552750D01*
Y542340D01*
X245427Y540682D01*
X246366Y539276D01*
X255766Y529876D01*
X257172Y528937D01*
X258830Y528607D01*
X328817D01*
X331810Y528590D01*
X331810Y525607D01*
Y495820D01*
X385350D01*
X438890D01*
Y528590D01*
X390561D01*
X389318Y531590D01*
X397654Y539926D01*
X399487Y540412D01*
X401445Y540376D01*
X401454Y540371D01*
X402851Y539437D01*
X404510Y539107D01*
X438465D01*
X447987Y529585D01*
Y463265D01*
X439235Y454513D01*
X240910D01*
Y478050D01*
X223243D01*
Y509900D01*
X240910D01*
Y547900D01*
X223243D01*
Y579750D01*
X240910D01*
Y617750D01*
X196910D01*
Y579750D01*
X214577D01*
Y547900D01*
X196910D01*
Y509900D01*
X214577D01*
Y478050D01*
X196910D01*
Y440050D01*
X240910D01*
Y445847D01*
X397267D01*
Y436550D01*
X334840D01*
Y437090D01*
X331370D01*
Y427050D01*
Y417010D01*
X334840D01*
Y417550D01*
X345267D01*
Y410961D01*
X345169Y410863D01*
X272333D01*
Y418860D01*
X273127Y419318D01*
X274682Y420873D01*
X275781Y422777D01*
X276350Y424901D01*
Y427099D01*
X275781Y429223D01*
X274682Y431127D01*
X273127Y432682D01*
X271223Y433781D01*
X269099Y434350D01*
X266901D01*
X264777Y433781D01*
X262873Y432682D01*
X261318Y431127D01*
X260219Y429223D01*
X259650Y427099D01*
Y424901D01*
X260219Y422777D01*
X261318Y420873D01*
X262873Y419318D01*
X263667Y418860D01*
Y410863D01*
X178640D01*
X176982Y410533D01*
X175576Y409594D01*
X140762Y374780D01*
X100890D01*
Y359780D01*
X119557D01*
Y337224D01*
X108696Y326363D01*
X107757Y324958D01*
X107427Y323299D01*
Y287780D01*
X103260D01*
Y285613D01*
X99670D01*
X98012Y285283D01*
X96606Y284344D01*
X85836Y273574D01*
X84897Y272168D01*
X84567Y270510D01*
Y187960D01*
X84897Y186302D01*
X85836Y184896D01*
X103162Y167570D01*
X102530Y165212D01*
Y162448D01*
X103246Y159777D01*
X104628Y157383D01*
X106583Y155428D01*
X108977Y154045D01*
X111648Y153330D01*
X114412D01*
X117083Y154045D01*
X119477Y155428D01*
X121432Y157383D01*
X122814Y159777D01*
X123530Y162448D01*
Y165212D01*
X122814Y167883D01*
X121432Y170277D01*
X119477Y172232D01*
X117083Y173614D01*
X114412Y174330D01*
X111648D01*
X109945Y173874D01*
X108678Y175207D01*
X109929Y178190D01*
X111760D01*
Y187960D01*
X101990D01*
Y184918D01*
X99218Y183770D01*
X93233Y189755D01*
Y268715D01*
X100260Y275742D01*
X103260Y274780D01*
X103429Y272320D01*
X102720Y269320D01*
X102720D01*
Y263550D01*
X111760D01*
X120800D01*
Y269320D01*
X120060D01*
Y274780D01*
X120260D01*
Y276947D01*
X150250D01*
Y273510D01*
X150450D01*
Y267510D01*
X150250D01*
Y254510D01*
X161122D01*
X188826Y226806D01*
X190232Y225867D01*
X191890Y225537D01*
X204590D01*
Y221173D01*
X169056D01*
X169002Y221267D01*
X167447Y222822D01*
X165543Y223921D01*
X163419Y224490D01*
X161221D01*
X159097Y223921D01*
X157193Y222822D01*
X155638Y221267D01*
X154539Y219363D01*
X153970Y217239D01*
Y215041D01*
X154539Y212917D01*
X155638Y211013D01*
X157193Y209458D01*
X159097Y208359D01*
X161221Y207790D01*
X163399D01*
X163446Y207743D01*
X164945Y205093D01*
X162739Y202887D01*
X161800Y201482D01*
X161470Y199823D01*
Y199468D01*
X159777Y199014D01*
X157383Y197632D01*
X155428Y195677D01*
X154046Y193283D01*
X153330Y190612D01*
Y187848D01*
X154046Y185177D01*
X155428Y182783D01*
X157383Y180828D01*
X159777Y179446D01*
X162448Y178730D01*
X165212D01*
X167883Y179446D01*
X170277Y180828D01*
X172232Y182783D01*
X173615Y185177D01*
X174330Y187848D01*
Y190612D01*
X173615Y193283D01*
X172232Y195677D01*
X170277Y197632D01*
X172021Y199913D01*
X178115Y206007D01*
X259505D01*
X275247Y190265D01*
Y147235D01*
X268305Y140293D01*
X267419Y140530D01*
X265221D01*
X263097Y139961D01*
X261193Y138862D01*
X259638Y137307D01*
X258539Y135403D01*
X257970Y133279D01*
Y131081D01*
X258539Y128957D01*
X259638Y127053D01*
X261193Y125498D01*
X263097Y124399D01*
X265221Y123830D01*
X267419D01*
X269543Y124399D01*
X271447Y125498D01*
X273002Y127053D01*
X274101Y128957D01*
X274670Y131081D01*
Y133279D01*
X274433Y134165D01*
X282644Y142376D01*
X285105Y140687D01*
X298046Y127746D01*
X299452Y126807D01*
X301110Y126477D01*
X315597D01*
X316108Y125591D01*
X317691Y124008D01*
X319629Y122889D01*
X321791Y122310D01*
X324029D01*
X326191Y122889D01*
X328129Y124008D01*
X329712Y125591D01*
X330831Y127529D01*
X331410Y129691D01*
Y131929D01*
X330831Y134091D01*
X329712Y136029D01*
X328129Y137612D01*
X326191Y138731D01*
X324029Y139310D01*
X321791D01*
X319629Y138731D01*
X317691Y137612D01*
X316108Y136029D01*
X315597Y135143D01*
X302905D01*
X290413Y147635D01*
Y158772D01*
X293413Y160504D01*
X293457Y160479D01*
X295581Y159910D01*
X297779D01*
X299903Y160479D01*
X301807Y161578D01*
X303362Y163133D01*
X304461Y165037D01*
X305030Y167161D01*
Y169359D01*
X304793Y170245D01*
X319518Y184970D01*
X322518Y183727D01*
Y159310D01*
X314410D01*
Y142310D01*
X331410D01*
Y159310D01*
X331184D01*
Y222626D01*
X331643Y222749D01*
X333547Y223848D01*
X335102Y225403D01*
X335577Y226226D01*
X338577Y225422D01*
Y158123D01*
X337691Y157612D01*
X336108Y156029D01*
X334989Y154091D01*
X334410Y151929D01*
Y149691D01*
X334989Y147529D01*
X336108Y145591D01*
X337691Y144008D01*
X339629Y142889D01*
X341791Y142310D01*
X344029D01*
X346191Y142889D01*
X348129Y144008D01*
X349712Y145591D01*
X350831Y147529D01*
X351410Y149691D01*
Y151929D01*
X350831Y154091D01*
X349712Y156029D01*
X348129Y157612D01*
X347243Y158123D01*
Y231031D01*
X346913Y232689D01*
X345974Y234095D01*
X342153Y237915D01*
Y258470D01*
X344070D01*
Y264387D01*
X350260D01*
X350718Y263593D01*
X352273Y262038D01*
X354177Y260939D01*
X356301Y260370D01*
X358499D01*
X360623Y260939D01*
X360667Y260964D01*
X363667Y259232D01*
Y159995D01*
X362982Y159310D01*
X361791D01*
X359629Y158731D01*
X357691Y157612D01*
X356108Y156029D01*
X354989Y154091D01*
X354410Y151929D01*
Y149691D01*
X354989Y147529D01*
X356108Y145591D01*
X357691Y144008D01*
X359629Y142889D01*
X361791Y142310D01*
X364029D01*
X366191Y142889D01*
X368129Y144008D01*
X369712Y145591D01*
X370831Y147529D01*
X371077Y148450D01*
X374183D01*
X374486Y147321D01*
X375676Y145259D01*
X377359Y143576D01*
X379421Y142386D01*
X379507Y142363D01*
Y139257D01*
X379421Y139234D01*
X377359Y138044D01*
X375676Y136361D01*
X374486Y134299D01*
X374183Y133170D01*
X371077D01*
X370831Y134091D01*
X369712Y136029D01*
X368129Y137612D01*
X366191Y138731D01*
X364029Y139310D01*
X361791D01*
X359629Y138731D01*
X357691Y137612D01*
X356108Y136029D01*
X354989Y134091D01*
X354410Y131929D01*
Y129691D01*
X354989Y127529D01*
X356108Y125591D01*
X357691Y124008D01*
X359629Y122889D01*
X361791Y122310D01*
X364029D01*
X366191Y122889D01*
X368129Y124008D01*
X369712Y125591D01*
X370831Y127529D01*
X371077Y128450D01*
X374183D01*
X374486Y127321D01*
X375676Y125259D01*
X377359Y123576D01*
X379421Y122386D01*
X381640Y121791D01*
Y130810D01*
X384180D01*
Y121791D01*
X386399Y122386D01*
X388461Y123576D01*
X390144Y125259D01*
X391334Y127321D01*
X391637Y128450D01*
X394742D01*
X394989Y127529D01*
X396108Y125591D01*
X397691Y124008D01*
X398577Y123497D01*
Y115705D01*
X385205Y102333D01*
X327140D01*
X326682Y103127D01*
X325127Y104682D01*
X323223Y105781D01*
X321099Y106350D01*
X318901D01*
X316777Y105781D01*
X314873Y104682D01*
X313318Y103127D01*
X312860Y102333D01*
X206055D01*
X148298Y160090D01*
X148930Y162448D01*
Y165212D01*
X148214Y167883D01*
X146832Y170277D01*
X144877Y172232D01*
X142483Y173614D01*
X139812Y174330D01*
X137048D01*
X134377Y173614D01*
X131983Y172232D01*
X130028Y170277D01*
X128646Y167883D01*
X127930Y165212D01*
Y162448D01*
X128646Y159777D01*
X130028Y157383D01*
X131983Y155428D01*
X134377Y154046D01*
X137048Y153330D01*
X139812D01*
X142170Y153962D01*
X201196Y94936D01*
X202602Y93997D01*
X204260Y93667D01*
X312860D01*
X313318Y92873D01*
X314873Y91318D01*
X316777Y90219D01*
X318901Y89650D01*
X321099D01*
X323223Y90219D01*
X325127Y91318D01*
X326682Y92873D01*
X327140Y93667D01*
X387000D01*
X388658Y93997D01*
X390064Y94936D01*
X405974Y110846D01*
X406913Y112252D01*
X407243Y113910D01*
Y123497D01*
X408129Y124008D01*
X409712Y125591D01*
X410831Y127529D01*
X411410Y129691D01*
Y131929D01*
X410831Y134091D01*
X409712Y136029D01*
X408129Y137612D01*
X407243Y138123D01*
Y143497D01*
X408129Y144008D01*
X409712Y145591D01*
X410831Y147529D01*
X411410Y149691D01*
Y151929D01*
X410831Y154091D01*
X409712Y156029D01*
X408129Y157612D01*
X406263Y158689D01*
Y190890D01*
X408430D01*
Y195057D01*
X457100D01*
Y190890D01*
X458577D01*
Y158123D01*
X457691Y157612D01*
X456108Y156029D01*
X454989Y154091D01*
X454410Y151929D01*
Y149691D01*
X454989Y147529D01*
X456108Y145591D01*
X457691Y144008D01*
X459629Y142889D01*
X460550Y142642D01*
Y139537D01*
X459421Y139234D01*
X457359Y138044D01*
X455676Y136361D01*
X454486Y134299D01*
X454183Y133170D01*
X451078D01*
X450831Y134091D01*
X449712Y136029D01*
X448129Y137612D01*
X446191Y138731D01*
X444029Y139310D01*
X441791D01*
X439629Y138731D01*
X437691Y137612D01*
X436108Y136029D01*
X434989Y134091D01*
X434410Y131929D01*
Y129691D01*
X434989Y127529D01*
X436108Y125591D01*
X437691Y124008D01*
X438577Y123497D01*
Y88675D01*
X424295Y74393D01*
X272780D01*
X272322Y75187D01*
X270767Y76742D01*
X268863Y77841D01*
X266739Y78410D01*
X264541D01*
X262417Y77841D01*
X260513Y76742D01*
X258958Y75187D01*
X257859Y73283D01*
X257290Y71159D01*
Y68961D01*
X257859Y66837D01*
X258958Y64933D01*
X260513Y63378D01*
X262417Y62279D01*
X264541Y61710D01*
X266739D01*
X268863Y62279D01*
X270767Y63378D01*
X272322Y64933D01*
X272780Y65727D01*
X426090D01*
X427748Y66057D01*
X429154Y66996D01*
X445974Y83816D01*
X446913Y85222D01*
X447243Y86880D01*
Y123497D01*
X448129Y124008D01*
X449712Y125591D01*
X450831Y127529D01*
X451078Y128450D01*
X454183D01*
X454486Y127321D01*
X455676Y125259D01*
X457359Y123576D01*
X459421Y122386D01*
X461640Y121791D01*
Y130810D01*
X462910D01*
Y132080D01*
X471929D01*
X471334Y134299D01*
X470144Y136361D01*
X468461Y138044D01*
X466399Y139234D01*
X465270Y139537D01*
Y142642D01*
X466191Y142889D01*
X468129Y144008D01*
X469712Y145591D01*
X470831Y147529D01*
X471410Y149691D01*
Y151929D01*
X470831Y154091D01*
X469712Y156029D01*
X468129Y157612D01*
X467243Y158123D01*
Y190890D01*
X470100D01*
Y191090D01*
X475560D01*
Y190350D01*
X481330D01*
Y199390D01*
Y208430D01*
X475560D01*
Y207690D01*
X470100D01*
Y207890D01*
X457100D01*
Y203723D01*
X408430D01*
Y207890D01*
X395430D01*
Y207690D01*
X389970D01*
Y208430D01*
X384200D01*
Y199390D01*
Y190350D01*
X389970D01*
Y191090D01*
X395430D01*
Y190890D01*
X397597D01*
Y157518D01*
X396108Y156029D01*
X394989Y154091D01*
X394742Y153170D01*
X391637D01*
X391334Y154299D01*
X390144Y156361D01*
X388461Y158044D01*
X386399Y159234D01*
X384180Y159829D01*
Y150810D01*
X381640D01*
Y159829D01*
X379421Y159234D01*
X377359Y158044D01*
X375676Y156361D01*
X375275Y155665D01*
X371907Y155832D01*
X371755Y156170D01*
X372003Y156542D01*
X372333Y158200D01*
Y282540D01*
X372003Y284198D01*
X371064Y285604D01*
X349732Y306936D01*
X349581Y309211D01*
X350019Y310891D01*
X364905Y325777D01*
X367306Y323935D01*
X367189Y323733D01*
X366620Y321609D01*
Y319411D01*
X367189Y317287D01*
X368288Y315383D01*
X369843Y313828D01*
X371747Y312729D01*
X373871Y312160D01*
X376069D01*
X378193Y312729D01*
X380097Y313828D01*
X381652Y315383D01*
X382751Y317287D01*
X383320Y319411D01*
Y321609D01*
X383083Y322495D01*
X391664Y331076D01*
X392603Y332482D01*
X392933Y334140D01*
Y345589D01*
X395705Y346737D01*
X442350Y300092D01*
Y293220D01*
X442550D01*
Y287760D01*
X441810D01*
Y281990D01*
X450850D01*
X459890D01*
Y287760D01*
X459150D01*
Y293220D01*
X459350D01*
Y295547D01*
X481830D01*
Y293630D01*
X482079D01*
Y286130D01*
X481830D01*
Y273630D01*
X486607D01*
Y264940D01*
X485813Y264482D01*
X484258Y262927D01*
X483159Y261023D01*
X482590Y258899D01*
Y256701D01*
X483159Y254577D01*
X484258Y252673D01*
X485813Y251118D01*
X487717Y250019D01*
X489841Y249450D01*
X492039D01*
X494163Y250019D01*
X496067Y251118D01*
X497622Y252673D01*
X498721Y254577D01*
X499290Y256701D01*
Y258899D01*
X498721Y261023D01*
X497622Y262927D01*
X496067Y264482D01*
X495273Y264940D01*
Y273630D01*
X500830D01*
Y286130D01*
X500579D01*
Y293630D01*
X500830D01*
Y306130D01*
X495593D01*
Y573190D01*
X496387Y573648D01*
X497942Y575203D01*
X499041Y577107D01*
X499610Y579231D01*
Y581429D01*
X499041Y583553D01*
X497942Y585457D01*
X496387Y587012D01*
X494483Y588111D01*
X492359Y588680D01*
X490161D01*
X488037Y588111D01*
X486133Y587012D01*
X484578Y585457D01*
X483479Y583553D01*
X482910Y581429D01*
Y579231D01*
X483479Y577107D01*
X484578Y575203D01*
X486133Y573648D01*
X486927Y573190D01*
Y306130D01*
X481830D01*
Y304213D01*
X459350D01*
Y306220D01*
X448478D01*
X399433Y355265D01*
Y417550D01*
X403767D01*
Y384380D01*
X404097Y382722D01*
X405036Y381316D01*
X416036Y370316D01*
X417442Y369377D01*
X419100Y369047D01*
X439840D01*
Y363880D01*
X441757D01*
Y347590D01*
X440590D01*
Y330590D01*
X453590D01*
Y330790D01*
X459050D01*
Y330050D01*
X464820D01*
Y339090D01*
Y348130D01*
X459050D01*
Y347390D01*
X453590D01*
Y347590D01*
X450423D01*
Y363880D01*
X452340D01*
Y364131D01*
X459300D01*
Y363340D01*
X464820D01*
Y373380D01*
Y383420D01*
X459300D01*
Y382631D01*
X452340D01*
Y382880D01*
X439840D01*
Y377713D01*
X420895D01*
X412433Y386175D01*
Y417550D01*
X416767D01*
Y407554D01*
X417097Y405896D01*
X418036Y404490D01*
X420324Y402202D01*
X420209Y402003D01*
X419640Y399879D01*
Y397681D01*
X420209Y395557D01*
X421308Y393653D01*
X422863Y392098D01*
X424767Y390999D01*
X426891Y390430D01*
X429089D01*
X431213Y390999D01*
X433117Y392098D01*
X434672Y393653D01*
X435771Y395557D01*
X436340Y397681D01*
Y399879D01*
X435771Y402003D01*
X434672Y403907D01*
X433117Y405462D01*
X431213Y406561D01*
X429089Y407130D01*
X427652D01*
X425433Y409349D01*
Y417550D01*
X435860D01*
Y417010D01*
X439330D01*
Y427050D01*
Y437090D01*
X435860D01*
Y436550D01*
X405933D01*
Y445847D01*
X441030D01*
X442688Y446177D01*
X444094Y447116D01*
X455384Y458406D01*
X456323Y459812D01*
X456653Y461470D01*
Y531380D01*
X456323Y533038D01*
X455384Y534444D01*
X443324Y546504D01*
X441918Y547444D01*
X440260Y547773D01*
X406305D01*
X405933Y548145D01*
Y552550D01*
X435860D01*
Y552010D01*
X439330D01*
Y562050D01*
Y572090D01*
X435860D01*
Y571550D01*
X425433D01*
Y593575D01*
X434028Y602170D01*
X443500D01*
Y602419D01*
X451000D01*
Y602170D01*
X463500D01*
Y607597D01*
X484690D01*
X485056Y606962D01*
X486611Y605407D01*
X488515Y604308D01*
X490639Y603739D01*
X492837D01*
X494961Y604308D01*
X496865Y605407D01*
X498419Y606962D01*
X499519Y608866D01*
X500088Y610990D01*
Y613188D01*
X499519Y615312D01*
X498419Y617216D01*
X496865Y618771D01*
X494961Y619870D01*
X492837Y620439D01*
X490639D01*
X488515Y619870D01*
X486611Y618771D01*
X485056Y617216D01*
X484506Y616263D01*
X463500D01*
Y621170D01*
X451000D01*
Y620919D01*
X443500D01*
Y621170D01*
X441293D01*
Y625098D01*
X441797Y625388D01*
X443352Y626943D01*
X444451Y628847D01*
X445020Y630971D01*
Y633169D01*
X444451Y635293D01*
X443352Y637197D01*
X441797Y638752D01*
X439893Y639851D01*
X437769Y640420D01*
D02*
G37*
G36*
X445340Y572090D02*
X441870D01*
Y563320D01*
X445340D01*
Y572090D01*
D02*
G37*
G36*
Y560780D02*
X441870D01*
Y552010D01*
X445340D01*
Y560780D01*
D02*
G37*
G36*
X328830D02*
X325360D01*
Y552010D01*
X328830D01*
Y560780D01*
D02*
G37*
G36*
X141450Y548440D02*
X120180D01*
Y530170D01*
X141450D01*
Y548440D01*
D02*
G37*
G36*
X117640D02*
X96370D01*
Y530170D01*
X117640D01*
Y548440D01*
D02*
G37*
G36*
X141450Y527630D02*
X120180D01*
Y509360D01*
X141450D01*
Y527630D01*
D02*
G37*
G36*
X117640D02*
X96370D01*
Y509360D01*
X117640D01*
Y527630D01*
D02*
G37*
G36*
X438890Y493280D02*
X386620D01*
Y460510D01*
X438890D01*
Y493280D01*
D02*
G37*
G36*
X384080D02*
X331810D01*
Y460510D01*
X384080D01*
Y493280D01*
D02*
G37*
G36*
X141450Y478590D02*
X120180D01*
Y460320D01*
X141450D01*
Y478590D01*
D02*
G37*
G36*
X117640D02*
X96370D01*
Y460320D01*
X117640D01*
Y478590D01*
D02*
G37*
G36*
X141450Y457780D02*
X120180D01*
Y439510D01*
X141450D01*
Y457780D01*
D02*
G37*
G36*
X117640D02*
X96370D01*
Y439510D01*
X117640D01*
Y457780D01*
D02*
G37*
G36*
X445340Y437090D02*
X441870D01*
Y428320D01*
X445340D01*
Y437090D01*
D02*
G37*
G36*
X328830D02*
X325360D01*
Y428320D01*
X328830D01*
Y437090D01*
D02*
G37*
G36*
X296270Y431863D02*
Y424270D01*
X303863D01*
X303284Y426431D01*
X302114Y428459D01*
X300459Y430114D01*
X298431Y431284D01*
X296270Y431863D01*
D02*
G37*
G36*
X293730D02*
X291569Y431284D01*
X289541Y430114D01*
X287886Y428459D01*
X286716Y426431D01*
X286137Y424270D01*
X293730D01*
Y431863D01*
D02*
G37*
G36*
X445340Y425780D02*
X441870D01*
Y417010D01*
X445340D01*
Y425780D01*
D02*
G37*
G36*
X328830D02*
X325360D01*
Y417010D01*
X328830D01*
Y425780D01*
D02*
G37*
G36*
X303863Y421730D02*
X296270D01*
Y414137D01*
X298431Y414716D01*
X300459Y415886D01*
X302114Y417541D01*
X303284Y419569D01*
X303863Y421730D01*
D02*
G37*
G36*
X293730D02*
X286137D01*
X286716Y419569D01*
X287886Y417541D01*
X289541Y415886D01*
X291569Y414716D01*
X293730Y414137D01*
Y421730D01*
D02*
G37*
G36*
X472880Y383420D02*
X467360D01*
Y374650D01*
X472880D01*
Y383420D01*
D02*
G37*
G36*
Y372110D02*
X467360D01*
Y363340D01*
X472880D01*
Y372110D01*
D02*
G37*
G36*
X473130Y348130D02*
X467360D01*
Y340360D01*
X473130D01*
Y348130D01*
D02*
G37*
G36*
Y337820D02*
X467360D01*
Y330050D01*
X473130D01*
Y337820D01*
D02*
G37*
G36*
X459890Y279450D02*
X452120D01*
Y273680D01*
X459890D01*
Y279450D01*
D02*
G37*
G36*
X449580D02*
X441810D01*
Y273680D01*
X449580D01*
Y279450D01*
D02*
G37*
G36*
X489640Y208430D02*
X483870D01*
Y200660D01*
X489640D01*
Y208430D01*
D02*
G37*
G36*
X381660D02*
X375890D01*
Y200660D01*
X381660D01*
Y208430D01*
D02*
G37*
G36*
X120800Y261010D02*
X111760D01*
X102720D01*
Y255240D01*
X107427D01*
Y200270D01*
X101990D01*
Y190500D01*
X113030D01*
X124070D01*
Y200270D01*
X116093D01*
Y255240D01*
X120800D01*
Y261010D01*
D02*
G37*
G36*
X489640Y198120D02*
X483870D01*
Y190350D01*
X489640D01*
Y198120D01*
D02*
G37*
G36*
X381660D02*
X375890D01*
Y190350D01*
X381660D01*
Y198120D01*
D02*
G37*
G36*
X139812Y199730D02*
X137048D01*
X134377Y199014D01*
X131983Y197632D01*
X130028Y195677D01*
X128646Y193283D01*
X127930Y190612D01*
Y187848D01*
X128646Y185177D01*
X130028Y182783D01*
X131983Y180828D01*
X134377Y179446D01*
X137048Y178730D01*
X139812D01*
X142483Y179446D01*
X144877Y180828D01*
X146832Y182783D01*
X148215Y185177D01*
X148930Y187848D01*
Y190612D01*
X148215Y193283D01*
X146832Y195677D01*
X144877Y197632D01*
X142483Y199014D01*
X139812Y199730D01*
D02*
G37*
G36*
X241412Y199730D02*
X238648D01*
X235977Y199014D01*
X233583Y197632D01*
X231628Y195677D01*
X230246Y193283D01*
X229530Y190612D01*
Y187848D01*
X230246Y185177D01*
X231628Y182783D01*
X233583Y180828D01*
X235977Y179446D01*
X238648Y178730D01*
X241412D01*
X244083Y179446D01*
X246477Y180828D01*
X248432Y182783D01*
X249814Y185177D01*
X250530Y187848D01*
Y190612D01*
X249814Y193283D01*
X248432Y195677D01*
X246477Y197632D01*
X244083Y199014D01*
X241412Y199730D01*
D02*
G37*
G36*
X216012Y199730D02*
X213248D01*
X210577Y199014D01*
X208183Y197632D01*
X206228Y195677D01*
X204846Y193283D01*
X204130Y190612D01*
Y187848D01*
X204846Y185177D01*
X206228Y182783D01*
X208183Y180828D01*
X210577Y179445D01*
X213248Y178730D01*
X216012D01*
X218683Y179445D01*
X221077Y180828D01*
X223032Y182783D01*
X224414Y185177D01*
X225130Y187848D01*
Y190612D01*
X224414Y193283D01*
X223032Y195677D01*
X221077Y197632D01*
X218683Y199014D01*
X216012Y199730D01*
D02*
G37*
G36*
X190612D02*
X187848D01*
X185177Y199014D01*
X182783Y197632D01*
X180828Y195677D01*
X179446Y193283D01*
X178730Y190612D01*
Y187848D01*
X179446Y185177D01*
X180828Y182783D01*
X182783Y180828D01*
X185177Y179445D01*
X187848Y178730D01*
X190612D01*
X193283Y179445D01*
X195677Y180828D01*
X197632Y182783D01*
X199014Y185177D01*
X199730Y187848D01*
Y190612D01*
X199014Y193283D01*
X197632Y195677D01*
X195677Y197632D01*
X193283Y199014D01*
X190612Y199730D01*
D02*
G37*
G36*
X124070Y187960D02*
X114300D01*
Y178190D01*
X124070D01*
Y187960D01*
D02*
G37*
G36*
X216012Y174330D02*
X213248D01*
X210577Y173614D01*
X208183Y172232D01*
X206228Y170277D01*
X204846Y167883D01*
X204130Y165212D01*
Y162448D01*
X204846Y159777D01*
X206228Y157383D01*
X208183Y155428D01*
X210577Y154046D01*
X213248Y153330D01*
X216012D01*
X218683Y154046D01*
X221077Y155428D01*
X223032Y157383D01*
X224414Y159777D01*
X225130Y162448D01*
Y165212D01*
X224414Y167883D01*
X223032Y170277D01*
X221077Y172232D01*
X218683Y173614D01*
X216012Y174330D01*
D02*
G37*
G36*
X241412Y174330D02*
X238648D01*
X235977Y173614D01*
X233583Y172232D01*
X231628Y170277D01*
X230246Y167883D01*
X229530Y165212D01*
Y162448D01*
X230246Y159777D01*
X231628Y157383D01*
X233583Y155428D01*
X235977Y154046D01*
X238648Y153330D01*
X241412D01*
X244083Y154046D01*
X246477Y155428D01*
X248432Y157383D01*
X249814Y159777D01*
X250530Y162448D01*
Y165212D01*
X249814Y167883D01*
X248432Y170277D01*
X246477Y172232D01*
X244083Y173614D01*
X241412Y174330D01*
D02*
G37*
G36*
X190612D02*
X187848D01*
X185177Y173614D01*
X182783Y172232D01*
X180828Y170277D01*
X179446Y167883D01*
X178730Y165212D01*
Y162448D01*
X179446Y159777D01*
X180828Y157383D01*
X182783Y155428D01*
X185177Y154046D01*
X187848Y153330D01*
X190612D01*
X193283Y154046D01*
X195677Y155428D01*
X197632Y157383D01*
X199014Y159777D01*
X199730Y162448D01*
Y165212D01*
X199014Y167883D01*
X197632Y170277D01*
X195677Y172232D01*
X193283Y173614D01*
X190612Y174330D01*
D02*
G37*
G36*
X165212D02*
X162448D01*
X159777Y173614D01*
X157383Y172232D01*
X155428Y170277D01*
X154046Y167883D01*
X153330Y165212D01*
Y162448D01*
X154046Y159777D01*
X155428Y157383D01*
X157383Y155428D01*
X159777Y154046D01*
X162448Y153330D01*
X165212D01*
X167883Y154046D01*
X170277Y155428D01*
X172232Y157383D01*
X173614Y159777D01*
X174330Y162448D01*
Y165212D01*
X173614Y167883D01*
X172232Y170277D01*
X170277Y172232D01*
X167883Y173614D01*
X165212Y174330D01*
D02*
G37*
G36*
X424029Y159310D02*
X421791D01*
X419629Y158731D01*
X417691Y157612D01*
X416108Y156029D01*
X414989Y154091D01*
X414410Y151929D01*
Y149691D01*
X414989Y147529D01*
X416108Y145591D01*
X417691Y144008D01*
X419629Y142889D01*
X421791Y142310D01*
X424029D01*
X426191Y142889D01*
X428129Y144008D01*
X429712Y145591D01*
X430831Y147529D01*
X431410Y149691D01*
Y151929D01*
X430831Y154091D01*
X429712Y156029D01*
X428129Y157612D01*
X426191Y158731D01*
X424029Y159310D01*
D02*
G37*
G36*
X444029Y159310D02*
X441791D01*
X439629Y158731D01*
X437691Y157612D01*
X436108Y156029D01*
X434989Y154091D01*
X434410Y151929D01*
Y149691D01*
X434989Y147529D01*
X436108Y145591D01*
X437691Y144008D01*
X439629Y142889D01*
X441791Y142310D01*
X444029D01*
X446191Y142889D01*
X448129Y144008D01*
X449712Y145591D01*
X450831Y147529D01*
X451410Y149691D01*
Y151929D01*
X450831Y154091D01*
X449712Y156029D01*
X448129Y157612D01*
X446191Y158731D01*
X444029Y159310D01*
D02*
G37*
G36*
X344029Y139310D02*
X341791D01*
X339629Y138731D01*
X337691Y137612D01*
X336108Y136029D01*
X334989Y134091D01*
X334410Y131929D01*
Y129691D01*
X334989Y127529D01*
X336108Y125591D01*
X337691Y124008D01*
X339629Y122889D01*
X341791Y122310D01*
X344029D01*
X346191Y122889D01*
X348129Y124008D01*
X349712Y125591D01*
X350831Y127529D01*
X351410Y129691D01*
Y131929D01*
X350831Y134091D01*
X349712Y136029D01*
X348129Y137612D01*
X346191Y138731D01*
X344029Y139310D01*
D02*
G37*
G36*
X424029Y139310D02*
X421791D01*
X419629Y138731D01*
X417691Y137612D01*
X416108Y136029D01*
X414989Y134091D01*
X414410Y131929D01*
Y129691D01*
X414989Y127529D01*
X416108Y125591D01*
X417691Y124008D01*
X419629Y122889D01*
X421791Y122310D01*
X424029D01*
X426191Y122889D01*
X428129Y124008D01*
X429712Y125591D01*
X430831Y127529D01*
X431410Y129691D01*
Y131929D01*
X430831Y134091D01*
X429712Y136029D01*
X428129Y137612D01*
X426191Y138731D01*
X424029Y139310D01*
D02*
G37*
G36*
X471929Y129540D02*
X464180D01*
Y121791D01*
X466399Y122386D01*
X468461Y123576D01*
X470144Y125259D01*
X471334Y127321D01*
X471929Y129540D01*
D02*
G37*
G36*
X402099Y261350D02*
X399901D01*
X397777Y260781D01*
X395873Y259682D01*
X394318Y258127D01*
X393219Y256223D01*
X392650Y254099D01*
Y251901D01*
X393219Y249777D01*
X394318Y247873D01*
X395873Y246318D01*
X397777Y245219D01*
X399901Y244650D01*
X402099D01*
X402985Y244887D01*
X425936Y221936D01*
X427342Y220997D01*
X429000Y220667D01*
X500569D01*
X500667Y220569D01*
Y112431D01*
X500569Y112333D01*
X474140D01*
X473682Y113127D01*
X472127Y114682D01*
X470223Y115781D01*
X468099Y116350D01*
X465901D01*
X463777Y115781D01*
X461873Y114682D01*
X460318Y113127D01*
X459219Y111223D01*
X458650Y109099D01*
Y106901D01*
X459219Y104777D01*
X460318Y102873D01*
X461873Y101318D01*
X463777Y100219D01*
X465901Y99650D01*
X468099D01*
X470223Y100219D01*
X472127Y101318D01*
X473682Y102873D01*
X474140Y103667D01*
X502364D01*
X504022Y103997D01*
X505428Y104936D01*
X508064Y107572D01*
X509003Y108978D01*
X509333Y110636D01*
Y222364D01*
X509003Y224022D01*
X508064Y225428D01*
X505428Y228064D01*
X504022Y229003D01*
X502364Y229333D01*
X430795D01*
X409113Y251015D01*
X409350Y251901D01*
Y254099D01*
X408781Y256223D01*
X407682Y258127D01*
X406127Y259682D01*
X404223Y260781D01*
X402099Y261350D01*
D02*
G37*
%LPD*%
G36*
X380900Y602950D02*
X389030D01*
X403767Y588214D01*
Y585297D01*
X400767Y584493D01*
X400072Y585697D01*
X398517Y587252D01*
X396613Y588351D01*
X394489Y588920D01*
X392291D01*
X390167Y588351D01*
X389433Y587927D01*
X386535Y589370D01*
X386433Y589494D01*
Y591100D01*
X386103Y592758D01*
X385164Y594164D01*
X377004Y602324D01*
X375598Y603263D01*
X373940Y603593D01*
X359170D01*
Y608377D01*
X380900D01*
Y602950D01*
D02*
G37*
G36*
X390767Y545295D02*
X382745Y537273D01*
X368198D01*
X367462Y540273D01*
X368184Y540756D01*
X372164Y544736D01*
X373103Y546142D01*
X373433Y547800D01*
Y552550D01*
X390767D01*
Y545295D01*
D02*
G37*
G36*
X341438Y399197D02*
X325564Y383323D01*
X302476D01*
X300818Y382993D01*
X299412Y382054D01*
X296776Y379418D01*
X295837Y378012D01*
X295507Y376354D01*
Y365164D01*
X292577Y363852D01*
X290673Y364951D01*
X288549Y365520D01*
X286351D01*
X284227Y364951D01*
X282323Y363852D01*
X280768Y362297D01*
X279669Y360393D01*
X279100Y358269D01*
Y356071D01*
X279669Y353947D01*
X280768Y352043D01*
X282323Y350488D01*
X283117Y350030D01*
Y299464D01*
X280117Y298221D01*
X267310Y311028D01*
Y317400D01*
X267061D01*
Y324900D01*
X267310D01*
Y337400D01*
X262143D01*
Y355450D01*
X265040D01*
Y368450D01*
X264840D01*
Y374450D01*
X265040D01*
Y380033D01*
X265194Y380136D01*
X270185Y385127D01*
X274610D01*
X275068Y384333D01*
X276623Y382778D01*
X278527Y381679D01*
X280651Y381110D01*
X282849D01*
X284973Y381679D01*
X286877Y382778D01*
X288432Y384333D01*
X289531Y386237D01*
X290100Y388361D01*
Y390559D01*
X289531Y392683D01*
X288432Y394587D01*
X286877Y396142D01*
X284973Y397241D01*
X282849Y397810D01*
X280651D01*
X278527Y397241D01*
X276623Y396142D01*
X275068Y394587D01*
X274610Y393793D01*
X268390D01*
X266732Y393463D01*
X265326Y392524D01*
X260335Y387533D01*
X258790D01*
X258371Y387450D01*
X248040D01*
Y374450D01*
X248240D01*
Y368450D01*
X248040D01*
Y355450D01*
X253477D01*
Y337400D01*
X248310D01*
Y324900D01*
X248561D01*
Y317400D01*
X248310D01*
Y304900D01*
X261182D01*
X275067Y291015D01*
Y243095D01*
X275065Y243093D01*
X264320D01*
Y250170D01*
X251018D01*
X231754Y269434D01*
X230348Y270373D01*
X228690Y270703D01*
X219590D01*
Y275370D01*
X204590D01*
Y257370D01*
X219590D01*
Y262037D01*
X226895D01*
X249320Y239612D01*
Y234203D01*
X219590D01*
Y238870D01*
X204590D01*
Y234203D01*
X193685D01*
X167250Y260638D01*
Y267510D01*
X167050D01*
Y273510D01*
X167250D01*
Y281841D01*
X167333Y282260D01*
Y282465D01*
X167535Y282667D01*
X245695D01*
X249006Y279356D01*
X249320Y279146D01*
Y268670D01*
X264320D01*
Y286670D01*
X253989D01*
X253938Y286680D01*
X250554Y290064D01*
X249148Y291003D01*
X247490Y291333D01*
X165740D01*
X164082Y291003D01*
X162676Y290064D01*
X159936Y287324D01*
X159392Y286510D01*
X150250D01*
Y285613D01*
X120260D01*
Y287780D01*
X116093D01*
Y321505D01*
X126954Y332365D01*
X127893Y333771D01*
X128223Y335429D01*
Y359780D01*
X146890D01*
Y368652D01*
X180435Y402197D01*
X340195D01*
X341438Y399197D01*
D02*
G37*
G36*
X371267Y395721D02*
Y370614D01*
X369003Y368350D01*
X367901D01*
X365777Y367781D01*
X363873Y366682D01*
X362318Y365127D01*
X361860Y364333D01*
X344460D01*
Y368911D01*
X331960D01*
Y368660D01*
X324460D01*
Y368911D01*
X311960D01*
Y349911D01*
X313322D01*
Y322940D01*
X310850D01*
Y303940D01*
X313127D01*
Y277470D01*
X311570D01*
Y258470D01*
X313487D01*
Y191195D01*
X298665Y176373D01*
X297779Y176610D01*
X295581D01*
X293457Y176041D01*
X293413Y176016D01*
X290413Y177748D01*
Y189535D01*
X302904Y202026D01*
X303843Y203432D01*
X304173Y205090D01*
Y374559D01*
X304271Y374657D01*
X327359D01*
X329018Y374987D01*
X330423Y375926D01*
X340560Y386062D01*
X343906Y385166D01*
X343919Y385117D01*
X345018Y383213D01*
X346573Y381658D01*
X348477Y380559D01*
X350601Y379990D01*
X352799D01*
X354923Y380559D01*
X356827Y381658D01*
X358382Y383213D01*
X359481Y385117D01*
X360050Y387241D01*
Y388424D01*
X368495Y396869D01*
X371267Y395721D01*
D02*
G37*
G36*
X362318Y354873D02*
X363873Y353318D01*
X365777Y352219D01*
X367901Y351650D01*
X370099D01*
X372223Y352219D01*
X373373Y352883D01*
X375738Y352155D01*
X376591Y351540D01*
X376816Y349944D01*
X346350Y319478D01*
X343350Y320721D01*
Y322940D01*
X330850D01*
Y322689D01*
X323350D01*
Y322940D01*
X321988D01*
Y349911D01*
X324460D01*
Y350160D01*
X331960D01*
Y349911D01*
X344460D01*
Y355667D01*
X361860D01*
X362318Y354873D01*
D02*
G37*
G36*
X330850Y303940D02*
X338681D01*
X339100Y303857D01*
X340555D01*
X363439Y280973D01*
X363200Y277938D01*
X360667Y276476D01*
X360623Y276501D01*
X358499Y277070D01*
X356301D01*
X354177Y276501D01*
X352273Y275402D01*
X350718Y273847D01*
X350260Y273053D01*
X344070D01*
Y277470D01*
X331570D01*
Y277219D01*
X324070D01*
Y277470D01*
X321793D01*
Y303940D01*
X323350D01*
Y304189D01*
X330850D01*
Y303940D01*
D02*
G37*
G36*
X331570Y258470D02*
X333487D01*
Y240390D01*
X330487Y238621D01*
X329519Y238880D01*
X327321D01*
X325197Y238311D01*
X325153Y238286D01*
X322153Y240018D01*
Y258470D01*
X324070D01*
Y258719D01*
X331570D01*
Y258470D01*
D02*
G37*
G36*
X295507Y346394D02*
Y226078D01*
X292507Y224346D01*
X292463Y224371D01*
X290339Y224940D01*
X288141D01*
X286017Y224371D01*
X284113Y223272D01*
X282558Y221717D01*
X282244Y221173D01*
X219590D01*
Y225537D01*
X277162D01*
X278821Y225867D01*
X280226Y226806D01*
X290514Y237094D01*
X291453Y238499D01*
X291783Y240158D01*
Y347557D01*
X292507Y348025D01*
X295507Y346394D01*
D02*
G37*
G36*
X282558Y211463D02*
X284113Y209908D01*
X286017Y208809D01*
X288141Y208240D01*
X290339D01*
X293300Y205957D01*
X293448Y204827D01*
X285088Y196466D01*
X281074Y196695D01*
X268033Y209735D01*
X269181Y212507D01*
X281956D01*
X282558Y211463D01*
D02*
G37*
%LPC*%
G36*
X235430Y375320D02*
X213160D01*
Y368550D01*
X235430D01*
Y375320D01*
D02*
G37*
G36*
X210620D02*
X188350D01*
Y368550D01*
X210620D01*
Y375320D01*
D02*
G37*
G36*
X235430Y366010D02*
X213160D01*
Y359240D01*
X235430D01*
Y366010D01*
D02*
G37*
G36*
X210620D02*
X188350D01*
Y359240D01*
X210620D01*
Y366010D01*
D02*
G37*
G36*
X184164Y275296D02*
Y267702D01*
X191757D01*
X191178Y269864D01*
X190008Y271891D01*
X188353Y273546D01*
X186325Y274716D01*
X184164Y275296D01*
D02*
G37*
G36*
X181624D02*
X179463Y274716D01*
X177435Y273546D01*
X175780Y271891D01*
X174610Y269864D01*
X174031Y267702D01*
X181624D01*
Y275296D01*
D02*
G37*
G36*
X191757Y265162D02*
X184164D01*
Y257569D01*
X186325Y258148D01*
X188353Y259319D01*
X190008Y260974D01*
X191178Y263001D01*
X191757Y265162D01*
D02*
G37*
G36*
X181624D02*
X174031D01*
X174610Y263001D01*
X175780Y260974D01*
X177435Y259319D01*
X179463Y258148D01*
X181624Y257569D01*
Y265162D01*
D02*
G37*
%LPD*%
D19*
X118910Y528900D02*
D03*
X218910D02*
D03*
Y459050D02*
D03*
X118910D02*
D03*
X218910Y598750D02*
D03*
X118910D02*
D03*
D20*
X352920Y611010D02*
D03*
X332920D02*
D03*
X457250Y611670D02*
D03*
X437250D02*
D03*
X446090Y373380D02*
D03*
X466090D02*
D03*
X337820Y267970D02*
D03*
X317820D02*
D03*
X338210Y359411D02*
D03*
X318210D02*
D03*
X337100Y313440D02*
D03*
X317100D02*
D03*
D21*
X406400Y611450D02*
D03*
X387400D02*
D03*
X466090Y339090D02*
D03*
X447090D02*
D03*
X382930Y199390D02*
D03*
X401930D02*
D03*
X463600D02*
D03*
X482600D02*
D03*
D22*
X385350Y494550D02*
D03*
D23*
X330100Y562050D02*
D03*
X336600D02*
D03*
X343100D02*
D03*
X349600D02*
D03*
X356100D02*
D03*
X362600D02*
D03*
X369100D02*
D03*
X375600D02*
D03*
X382100D02*
D03*
X388600D02*
D03*
X395100D02*
D03*
X401600D02*
D03*
X408100D02*
D03*
X414600D02*
D03*
X421100D02*
D03*
X427600D02*
D03*
X434100D02*
D03*
X440600D02*
D03*
X330100Y427050D02*
D03*
X336600D02*
D03*
X343100D02*
D03*
X349600D02*
D03*
X356100D02*
D03*
X362600D02*
D03*
X369100D02*
D03*
X375600D02*
D03*
X382100D02*
D03*
X388600D02*
D03*
X395100D02*
D03*
X401600D02*
D03*
X408100D02*
D03*
X414600D02*
D03*
X421100D02*
D03*
X427600D02*
D03*
X434100D02*
D03*
X440600D02*
D03*
D24*
X491330Y279880D02*
D03*
Y299880D02*
D03*
X257810Y331150D02*
D03*
Y311150D02*
D03*
D25*
X212090Y266370D02*
D03*
Y229870D02*
D03*
X256820Y277670D02*
D03*
Y241170D02*
D03*
D26*
X111760Y262280D02*
D03*
Y281280D02*
D03*
X450850Y299720D02*
D03*
Y280720D02*
D03*
X256540Y361950D02*
D03*
Y380950D02*
D03*
X158750Y261010D02*
D03*
Y280010D02*
D03*
D27*
X211890Y367280D02*
D03*
X123890D02*
D03*
D42*
X353838Y388340D02*
X369100Y403602D01*
Y427050D01*
X165740Y287000D02*
X247490D01*
X163000Y284260D02*
X165740Y287000D01*
X247490D02*
X252070Y282420D01*
X163000Y282260D02*
Y284260D01*
X160750Y280010D02*
X163000Y282260D01*
X111760Y190500D02*
Y262280D01*
Y190500D02*
X113030Y189230D01*
X158750Y280010D02*
X160750D01*
X253570Y282420D02*
X256820Y279170D01*
Y277670D02*
Y279170D01*
X252070Y282420D02*
X253570D01*
X111760Y281280D02*
X157480D01*
X268000Y406530D02*
Y426000D01*
Y406530D02*
X346964D01*
X178640D02*
X268000D01*
X467000Y108000D02*
X502364D01*
X505000Y110636D01*
Y222364D01*
X502364Y225000D02*
X505000Y222364D01*
X429000Y225000D02*
X502364D01*
X401000Y253000D02*
X429000Y225000D01*
X387000Y98000D02*
X402910Y113910D01*
X204260Y98000D02*
X387000D01*
X138430Y163830D02*
X204260Y98000D01*
X368000Y158200D02*
Y282540D01*
X342350Y308190D02*
X368000Y282540D01*
X338570Y268720D02*
X357400D01*
X362910Y153110D02*
X368000Y158200D01*
X356100Y406474D02*
Y427050D01*
X348566Y398940D02*
X356100Y406474D01*
X302476Y378990D02*
X327359D01*
X347309Y398940D02*
X348566D01*
X351700Y388340D02*
X353838D01*
X327359Y378990D02*
X347309Y398940D01*
X338210Y359411D02*
X338799Y360000D01*
X369000D01*
X375600Y368819D02*
Y421800D01*
X369000Y362219D02*
X375600Y368819D01*
X369000Y360000D02*
Y362219D01*
X346440Y313440D02*
X382100Y349100D01*
X337100Y313440D02*
X346440D01*
X382100Y349100D02*
Y427050D01*
X337100Y310190D02*
Y313440D01*
X299840Y205090D02*
Y376354D01*
X286080Y191330D02*
X299840Y205090D01*
X286080Y145840D02*
Y191330D01*
X301110Y130810D02*
X322910D01*
X286080Y145840D02*
X301110Y130810D01*
X326851Y228961D02*
X328420Y230530D01*
X326851Y154751D02*
Y228961D01*
X322910Y150810D02*
X326851Y154751D01*
X296680Y168260D02*
X317820Y189400D01*
X337820Y236121D02*
Y267970D01*
X342910Y150810D02*
Y231031D01*
X337820Y236121D02*
X342910Y231031D01*
X317820Y189400D02*
Y267970D01*
X426090Y70060D02*
X442910Y86880D01*
X265640Y70060D02*
X426090D01*
X279580Y145440D02*
Y192060D01*
X266320Y132180D02*
X279580Y145440D01*
X299840Y376354D02*
X302476Y378990D01*
X288990Y216840D02*
X289240Y216590D01*
X163020Y216840D02*
X288990D01*
X261300Y210340D02*
X279580Y192060D01*
X176320Y210340D02*
X261300D01*
X165803Y199823D02*
X176320Y210340D01*
X162320Y216140D02*
X163020Y216840D01*
X491010Y300200D02*
X491260Y299950D01*
Y580330D01*
X490690Y299880D02*
X491010Y300200D01*
X356100Y562050D02*
Y573956D01*
X362300Y580156D02*
Y580380D01*
X356100Y573956D02*
X362300Y580156D01*
X375600Y562050D02*
Y587970D01*
X281540Y591610D02*
X371960D01*
X375600Y587970D01*
X373940Y599260D02*
X382100Y591100D01*
X306790Y599260D02*
X373940D01*
X382100Y562050D02*
Y591100D01*
X273370Y583440D02*
X281540Y591610D01*
X280150Y625900D02*
X306790Y599260D01*
X436960Y611670D02*
Y631780D01*
X421100Y595370D02*
X437000Y611270D01*
X457530Y611930D02*
X491897D01*
X491738Y612089D02*
X491897Y611930D01*
X390909Y607200D02*
X408100Y590009D01*
X354620Y612710D02*
X386140D01*
X408100Y562050D02*
Y590009D01*
X421100Y562050D02*
Y595370D01*
X388600Y562050D02*
Y574146D01*
X393390Y578936D01*
Y580570D01*
X249430Y542340D02*
Y559890D01*
Y542340D02*
X258830Y532940D01*
X384540D01*
X292620Y543820D02*
X365120D01*
X369100Y547800D01*
Y562050D01*
X395100Y557860D02*
Y562050D01*
X384540Y532940D02*
X395100Y543500D01*
Y557860D01*
X287450Y240158D02*
Y357170D01*
X277162Y229870D02*
X287450Y240158D01*
X212090Y229870D02*
X277162D01*
X395100Y353470D02*
Y427050D01*
Y353470D02*
X448850Y299720D01*
X374970Y320510D02*
X388600Y334140D01*
Y427050D01*
X349600Y409166D02*
Y427050D01*
X346964Y406530D02*
X349600Y409166D01*
X317460Y268330D02*
X317820Y267970D01*
X337820D02*
X338570Y268720D01*
X362910Y150810D02*
Y153110D01*
X339100Y308190D02*
X342350D01*
X337100Y310190D02*
X339100Y308190D01*
X317460Y313080D02*
X317655Y313275D01*
Y358856D01*
X318210Y359411D01*
X317460Y268330D02*
Y313080D01*
X289990Y565310D02*
X301300Y576620D01*
X289990Y564880D02*
Y565310D01*
X301300Y576620D02*
X344240D01*
X395050Y559005D02*
X395100Y559055D01*
X395050Y557860D02*
Y559005D01*
X99670Y281280D02*
X111760D01*
X344240Y576620D02*
X349550Y571310D01*
Y562100D02*
Y571310D01*
Y562100D02*
X349600Y562050D01*
X401600Y546350D02*
X404510Y543440D01*
X491260Y299950D02*
X491330Y299880D01*
X441030Y450180D02*
X452320Y461470D01*
X401600Y450180D02*
X441030D01*
X218910Y459050D02*
X227780Y450180D01*
X401600D01*
Y427050D02*
Y450180D01*
X452320Y461470D02*
Y531380D01*
X440260Y543440D02*
X452320Y531380D01*
X404510Y543440D02*
X440260D01*
X401600Y546350D02*
Y562050D01*
X436670Y632070D02*
X436960Y631780D01*
X165803Y191203D02*
Y199823D01*
X163830Y189230D02*
X165803Y191203D01*
X462220Y199390D02*
X462910Y198700D01*
X401930Y199390D02*
X462220D01*
X88900Y187960D02*
X113030Y163830D01*
X88900Y187960D02*
Y270510D01*
X99670Y281280D01*
X258790Y383200D02*
X262130D01*
X256540Y380950D02*
X258790Y383200D01*
X256540Y238520D02*
X256780Y238760D01*
X276860D01*
X261060Y311150D02*
X279400Y292810D01*
X276860Y238760D02*
X279400Y241300D01*
Y292810D01*
X262130Y383200D02*
X268390Y389460D01*
X281750D01*
X139390Y367280D02*
X178640Y406530D01*
X123890Y367280D02*
X139390D01*
X442910Y86880D02*
Y130810D01*
X402910Y113910D02*
Y130810D01*
X490940Y279490D02*
X491330Y279880D01*
X490940Y257800D02*
Y279490D01*
X421100Y407554D02*
X427990Y400664D01*
X421100Y407554D02*
Y427050D01*
X111760Y323299D02*
X123890Y335429D01*
X111760Y281280D02*
Y323299D01*
X123890Y335429D02*
Y367280D01*
X427990Y398780D02*
Y400664D01*
X218910Y459050D02*
Y528900D01*
X212090Y266370D02*
X228690D01*
X256540Y238520D01*
X218910Y528900D02*
Y598750D01*
X160750Y261010D02*
X191890Y229870D01*
X158750Y261010D02*
X160750D01*
X257810Y311150D02*
X261060D01*
X401930Y151790D02*
Y199390D01*
X257810Y331150D02*
Y360680D01*
X191890Y229870D02*
X212090D01*
X256540Y361950D02*
X257810Y360680D01*
X462910Y150810D02*
Y198700D01*
X401930Y151790D02*
X402910Y150810D01*
X446090Y340090D02*
Y373380D01*
X408100Y384380D02*
X419100Y373380D01*
X451010Y299880D02*
X490690D01*
X450850Y299720D02*
X451010Y299880D01*
X408100Y384380D02*
Y427050D01*
X446090Y340090D02*
X447090Y339090D01*
X419100Y373380D02*
X446090D01*
X448850Y299720D02*
X450850D01*
X402910Y130810D02*
X402910Y130810D01*
X402910Y130810D02*
Y150810D01*
D43*
X462910Y130810D02*
D03*
X442910D02*
D03*
X422910D02*
D03*
X402910D02*
D03*
X382910D02*
D03*
X362910D02*
D03*
X342910Y130810D02*
D03*
X322910Y130810D02*
D03*
X462910Y150810D02*
D03*
X442910Y150810D02*
D03*
X422910Y150810D02*
D03*
X402910D02*
D03*
X382910D02*
D03*
X362910D02*
D03*
X342910D02*
D03*
D44*
X322910D02*
D03*
D45*
X113030Y189230D02*
D03*
D46*
X138430Y189230D02*
D03*
X163830Y189230D02*
D03*
X189230Y189230D02*
D03*
X214630D02*
D03*
X240030Y189230D02*
D03*
X113030Y163830D02*
D03*
X138430Y163830D02*
D03*
X163830Y163830D02*
D03*
X189230D02*
D03*
X214630Y163830D02*
D03*
X240030Y163830D02*
D03*
D47*
X351700Y388340D02*
D03*
X369000Y360000D02*
D03*
X328420Y230530D02*
D03*
X265640Y70060D02*
D03*
X266320Y132180D02*
D03*
X289240Y216590D02*
D03*
X296680Y168260D02*
D03*
X491260Y580330D02*
D03*
X362300Y580380D02*
D03*
X491738Y612089D02*
D03*
X393390Y580570D02*
D03*
X292620Y543820D02*
D03*
X287450Y357170D02*
D03*
X162320Y216140D02*
D03*
X280150Y625900D02*
D03*
X289990Y564880D02*
D03*
X249430Y559890D02*
D03*
X273370Y583440D02*
D03*
X436670Y632070D02*
D03*
X374970Y320510D02*
D03*
X281750Y389460D02*
D03*
X490940Y257800D02*
D03*
X427990Y398780D02*
D03*
X182894Y266432D02*
D03*
X268000Y426000D02*
D03*
X295000Y423000D02*
D03*
X242000Y634000D02*
D03*
X467000Y108000D02*
D03*
X320000Y98000D02*
D03*
X401000Y253000D02*
D03*
X357400Y268720D02*
D03*
M02*
