G04*
G04 #@! TF.GenerationSoftware,Altium Limited,Altium Designer,25.4.2 (15)*
G04*
G04 Layer_Color=32896*
%FSLAX44Y44*%
%MOMM*%
G71*
G04*
G04 #@! TF.SameCoordinates,7F9F24B7-B9C1-45AF-9387-6EDD806BED2B*
G04*
G04*
G04 #@! TF.FilePolarity,Positive*
G04*
G01*
G75*
%ADD16C,0.2540*%
%ADD48C,0.3000*%
D16*
X439745Y534460D02*
X447743D01*
Y530461D01*
X446410Y529128D01*
X441078D01*
X439745Y530461D01*
Y534460D01*
X447743Y522464D02*
Y525130D01*
X446410Y526463D01*
X443744D01*
X442411Y525130D01*
Y522464D01*
X443744Y521131D01*
X445077D01*
Y526463D01*
X447743Y518465D02*
Y514466D01*
X446410Y513134D01*
X445077Y514466D01*
Y517132D01*
X443744Y518465D01*
X442411Y517132D01*
Y513134D01*
X447743Y510468D02*
Y507802D01*
Y509135D01*
X442411D01*
Y510468D01*
X450408Y501137D02*
Y499804D01*
X449076Y498472D01*
X442411D01*
Y502470D01*
X443744Y503803D01*
X446410D01*
X447743Y502470D01*
Y498472D01*
Y495806D02*
X442411D01*
Y491807D01*
X443744Y490474D01*
X447743D01*
Y483810D02*
Y486475D01*
X446410Y487808D01*
X443744D01*
X442411Y486475D01*
Y483810D01*
X443744Y482477D01*
X445077D01*
Y487808D01*
X439745Y474479D02*
X447743D01*
Y478478D01*
X446410Y479811D01*
X443744D01*
X442411Y478478D01*
Y474479D01*
X439745Y463816D02*
X447743D01*
Y459817D01*
X446410Y458484D01*
X445077D01*
X443744D01*
X442411Y459817D01*
Y463816D01*
Y455819D02*
X446410D01*
X447743Y454486D01*
Y450487D01*
X449076D01*
X450408Y451820D01*
Y453153D01*
X447743Y450487D02*
X442411D01*
Y447821D02*
Y446488D01*
X443744D01*
Y447821D01*
X442411D01*
X446410D02*
Y446488D01*
X447743D01*
Y447821D01*
X446410D01*
X466101Y534460D02*
X458104D01*
Y530461D01*
X459437Y529128D01*
X462103D01*
X463436Y530461D01*
Y534460D01*
Y531794D02*
X466101Y529128D01*
Y525130D02*
Y522464D01*
X464768Y521131D01*
X462103D01*
X460770Y522464D01*
Y525130D01*
X462103Y526463D01*
X464768D01*
X466101Y525130D01*
X458104Y513134D02*
X466101D01*
Y517132D01*
X464768Y518465D01*
X462103D01*
X460770Y517132D01*
Y513134D01*
Y510468D02*
X466101D01*
X463436D01*
X462103Y509135D01*
X460770Y507802D01*
Y506469D01*
X466101Y502470D02*
Y499804D01*
Y501137D01*
X460770D01*
Y502470D01*
X468767Y493140D02*
Y491807D01*
X467434Y490474D01*
X460770D01*
Y494473D01*
X462103Y495806D01*
X464768D01*
X466101Y494473D01*
Y490474D01*
Y486475D02*
Y483810D01*
X464768Y482477D01*
X462103D01*
X460770Y483810D01*
Y486475D01*
X462103Y487808D01*
X464768D01*
X466101Y486475D01*
X477795Y529128D02*
X476463Y530461D01*
Y533127D01*
X477795Y534460D01*
X479128D01*
X480461Y533127D01*
Y530461D01*
X481794Y529128D01*
X483127D01*
X484460Y530461D01*
Y533127D01*
X483127Y534460D01*
X484460Y526463D02*
Y523797D01*
Y525130D01*
X479128D01*
Y526463D01*
X484460Y515799D02*
Y518465D01*
X483127Y519798D01*
X480461D01*
X479128Y518465D01*
Y515799D01*
X480461Y514466D01*
X481794D01*
Y519798D01*
X479128Y511801D02*
X484460D01*
X481794D01*
X480461Y510468D01*
X479128Y509135D01*
Y507802D01*
Y503803D02*
X484460D01*
X481794D01*
X480461Y502470D01*
X479128Y501137D01*
Y499804D01*
Y494473D02*
Y491807D01*
X480461Y490474D01*
X484460D01*
Y494473D01*
X483127Y495806D01*
X481794Y494473D01*
Y490474D01*
X484460Y474479D02*
Y479811D01*
X479128Y474479D01*
X477795D01*
X476463Y475812D01*
Y478478D01*
X477795Y479811D01*
Y471814D02*
X476463Y470481D01*
Y467815D01*
X477795Y466482D01*
X483127D01*
X484460Y467815D01*
Y470481D01*
X483127Y471814D01*
X477795D01*
X484460Y458484D02*
Y463816D01*
X479128Y458484D01*
X477795D01*
X476463Y459817D01*
Y462483D01*
X477795Y463816D01*
X476463Y450487D02*
Y455819D01*
X480461D01*
X479128Y453153D01*
Y451820D01*
X480461Y450487D01*
X483127D01*
X484460Y451820D01*
Y454486D01*
X483127Y455819D01*
D48*
X158205Y592600D02*
X144210D01*
X148875Y587935D01*
X144210Y583270D01*
X158205D01*
Y576272D02*
Y571607D01*
X155873Y569274D01*
X151208D01*
X148875Y571607D01*
Y576272D01*
X151208Y578605D01*
X155873D01*
X158205Y576272D01*
X146543Y562276D02*
X148875D01*
Y564609D01*
Y559944D01*
Y562276D01*
X155873D01*
X158205Y559944D01*
Y550614D02*
Y545948D01*
X155873Y543616D01*
X151208D01*
X148875Y545948D01*
Y550614D01*
X151208Y552946D01*
X155873D01*
X158205Y550614D01*
X148875Y538951D02*
X158205D01*
X153540D01*
X151208Y536618D01*
X148875Y534286D01*
Y531953D01*
X144210Y510960D02*
X158205D01*
Y503962D01*
X155873Y501629D01*
X153540D01*
X151208Y503962D01*
Y510960D01*
Y503962D01*
X148875Y501629D01*
X146543D01*
X144210Y503962D01*
Y510960D01*
Y496964D02*
X158205D01*
Y487634D01*
X144210Y482969D02*
X158205D01*
Y475971D01*
X155873Y473638D01*
X146543D01*
X144210Y475971D01*
Y482969D01*
X146543Y459643D02*
X144210Y461976D01*
Y466641D01*
X146543Y468973D01*
X155873D01*
X158205Y466641D01*
Y461976D01*
X155873Y459643D01*
X168205Y592600D02*
X182200D01*
Y585602D01*
X179867Y583270D01*
X170537D01*
X168205Y585602D01*
Y592600D01*
X172870Y578605D02*
X182200D01*
X177535D01*
X175202Y576272D01*
X172870Y573939D01*
Y571607D01*
X182200Y564609D02*
Y559944D01*
Y562276D01*
X172870D01*
Y564609D01*
Y552946D02*
X182200Y548281D01*
X172870Y543616D01*
X182200Y531953D02*
Y536618D01*
X179867Y538951D01*
X175202D01*
X172870Y536618D01*
Y531953D01*
X175202Y529620D01*
X177535D01*
Y538951D01*
X172870Y524955D02*
X182200D01*
X177535D01*
X175202Y522623D01*
X172870Y520290D01*
Y517957D01*
X182200Y496964D02*
X168205D01*
X172870Y492299D01*
X168205Y487634D01*
X182200D01*
Y480636D02*
Y475971D01*
X179867Y473638D01*
X175202D01*
X172870Y475971D01*
Y480636D01*
X175202Y482969D01*
X179867D01*
X182200Y480636D01*
X168205Y459643D02*
X182200D01*
Y466641D01*
X179867Y468973D01*
X175202D01*
X172870Y466641D01*
Y459643D01*
Y454978D02*
X179867D01*
X182200Y452645D01*
Y445648D01*
X172870D01*
X182200Y440982D02*
Y436317D01*
Y438650D01*
X168205D01*
Y440982D01*
X182200Y422322D02*
Y426987D01*
X179867Y429319D01*
X175202D01*
X172870Y426987D01*
Y422322D01*
X175202Y419989D01*
X177535D01*
Y429319D01*
X182200Y401329D02*
Y396663D01*
Y398996D01*
X168205D01*
X170537Y401329D01*
X182200Y389666D02*
X179867D01*
Y387333D01*
X182200D01*
Y389666D01*
X170537Y378003D02*
X168205Y375670D01*
Y371005D01*
X170537Y368672D01*
X179867D01*
X182200Y371005D01*
Y375670D01*
X179867Y378003D01*
X170537D01*
M02*
