G04*
G04 #@! TF.GenerationSoftware,Altium Limited,Altium Designer,25.4.2 (15)*
G04*
G04 Layer_Color=8388736*
%FSLAX44Y44*%
%MOMM*%
G71*
G04*
G04 #@! TF.SameCoordinates,7F9F24B7-B9C1-45AF-9387-6EDD806BED2B*
G04*
G04*
G04 #@! TF.FilePolarity,Positive*
G04*
G01*
G75*
%ADD13C,0.1500*%
G36*
X348079Y612447D02*
X346285D01*
X346045Y611235D01*
X346052Y611242D01*
X346065Y611248D01*
X346084Y611261D01*
X346116Y611281D01*
X346155Y611300D01*
X346201Y611326D01*
X346304Y611378D01*
X346434Y611430D01*
X346576Y611475D01*
X346732Y611507D01*
X346810Y611520D01*
X346952D01*
X346991Y611514D01*
X347043Y611507D01*
X347101Y611501D01*
X347166Y611488D01*
X347237Y611469D01*
X347392Y611423D01*
X347477Y611391D01*
X347561Y611345D01*
X347645Y611300D01*
X347729Y611248D01*
X347807Y611184D01*
X347885Y611112D01*
X347891Y611106D01*
X347904Y611093D01*
X347924Y611073D01*
X347949Y611041D01*
X347982Y610996D01*
X348014Y610950D01*
X348053Y610892D01*
X348092Y610827D01*
X348124Y610756D01*
X348163Y610678D01*
X348196Y610588D01*
X348228Y610497D01*
X348254Y610400D01*
X348273Y610290D01*
X348286Y610180D01*
X348293Y610063D01*
Y610057D01*
Y610037D01*
Y610005D01*
X348286Y609959D01*
X348280Y609908D01*
X348273Y609849D01*
X348260Y609778D01*
X348247Y609707D01*
X348209Y609538D01*
X348144Y609364D01*
X348105Y609273D01*
X348053Y609189D01*
X348001Y609098D01*
X347937Y609014D01*
X347930Y609007D01*
X347917Y608988D01*
X347891Y608962D01*
X347859Y608930D01*
X347813Y608891D01*
X347762Y608839D01*
X347697Y608793D01*
X347626Y608742D01*
X347548Y608690D01*
X347457Y608645D01*
X347360Y608599D01*
X347256Y608554D01*
X347146Y608521D01*
X347023Y608496D01*
X346894Y608476D01*
X346758Y608470D01*
X346699D01*
X346654Y608476D01*
X346602Y608483D01*
X346544Y608489D01*
X346473Y608496D01*
X346401Y608515D01*
X346240Y608554D01*
X346078Y608612D01*
X345993Y608651D01*
X345909Y608696D01*
X345831Y608748D01*
X345754Y608806D01*
X345747Y608813D01*
X345734Y608820D01*
X345721Y608845D01*
X345695Y608871D01*
X345663Y608904D01*
X345631Y608942D01*
X345592Y608994D01*
X345560Y609053D01*
X345521Y609111D01*
X345482Y609182D01*
X345410Y609338D01*
X345352Y609519D01*
X345333Y609616D01*
X345320Y609720D01*
X345896Y609765D01*
Y609759D01*
Y609746D01*
X345903Y609726D01*
X345909Y609694D01*
X345929Y609623D01*
X345955Y609525D01*
X345993Y609428D01*
X346045Y609318D01*
X346110Y609221D01*
X346188Y609130D01*
X346201Y609124D01*
X346227Y609098D01*
X346278Y609066D01*
X346350Y609027D01*
X346427Y608988D01*
X346525Y608955D01*
X346635Y608930D01*
X346758Y608923D01*
X346797D01*
X346823Y608930D01*
X346900Y608936D01*
X346991Y608962D01*
X347101Y608994D01*
X347211Y609046D01*
X347328Y609124D01*
X347379Y609169D01*
X347431Y609221D01*
X347438Y609227D01*
X347444Y609234D01*
X347457Y609253D01*
X347477Y609273D01*
X347522Y609344D01*
X347574Y609435D01*
X347619Y609545D01*
X347664Y609681D01*
X347697Y609843D01*
X347710Y609927D01*
Y610018D01*
Y610024D01*
Y610037D01*
Y610063D01*
X347703Y610095D01*
Y610134D01*
X347697Y610180D01*
X347677Y610283D01*
X347645Y610406D01*
X347600Y610529D01*
X347535Y610646D01*
X347444Y610756D01*
Y610763D01*
X347431Y610769D01*
X347399Y610801D01*
X347341Y610847D01*
X347263Y610899D01*
X347159Y610944D01*
X347043Y610989D01*
X346907Y611022D01*
X346829Y611035D01*
X346706D01*
X346654Y611028D01*
X346589Y611022D01*
X346512Y611002D01*
X346434Y610983D01*
X346350Y610950D01*
X346265Y610911D01*
X346259Y610905D01*
X346233Y610892D01*
X346194Y610860D01*
X346142Y610827D01*
X346091Y610782D01*
X346039Y610724D01*
X345980Y610665D01*
X345935Y610594D01*
X345417Y610665D01*
X345851Y612971D01*
X348079D01*
Y612447D01*
D02*
G37*
G36*
X343908Y608547D02*
X343357D01*
Y612052D01*
X343351Y612045D01*
X343318Y612019D01*
X343280Y611980D01*
X343215Y611935D01*
X343144Y611877D01*
X343053Y611812D01*
X342949Y611741D01*
X342833Y611669D01*
X342826D01*
X342820Y611663D01*
X342781Y611637D01*
X342716Y611605D01*
X342638Y611566D01*
X342548Y611520D01*
X342450Y611475D01*
X342353Y611430D01*
X342256Y611391D01*
Y611922D01*
X342263D01*
X342276Y611935D01*
X342301Y611941D01*
X342334Y611961D01*
X342373Y611980D01*
X342418Y612006D01*
X342528Y612071D01*
X342658Y612142D01*
X342787Y612233D01*
X342923Y612337D01*
X343059Y612447D01*
X343066Y612453D01*
X343072Y612459D01*
X343092Y612479D01*
X343118Y612498D01*
X343176Y612563D01*
X343254Y612641D01*
X343331Y612732D01*
X343416Y612835D01*
X343487Y612939D01*
X343552Y613049D01*
X343908D01*
Y608547D01*
D02*
G37*
G36*
X339678Y613023D02*
X339737D01*
X339873Y613017D01*
X340015Y612997D01*
X340171Y612978D01*
X340313Y612945D01*
X340384Y612926D01*
X340443Y612906D01*
X340449D01*
X340456Y612900D01*
X340494Y612881D01*
X340553Y612855D01*
X340624Y612809D01*
X340702Y612751D01*
X340786Y612673D01*
X340864Y612583D01*
X340941Y612479D01*
Y612472D01*
X340948Y612466D01*
X340974Y612427D01*
X341000Y612362D01*
X341039Y612278D01*
X341071Y612181D01*
X341103Y612064D01*
X341123Y611941D01*
X341129Y611805D01*
Y611799D01*
Y611786D01*
Y611760D01*
X341123Y611728D01*
Y611682D01*
X341116Y611637D01*
X341090Y611527D01*
X341051Y611397D01*
X341000Y611261D01*
X340922Y611125D01*
X340870Y611060D01*
X340818Y610996D01*
X340812Y610989D01*
X340805Y610983D01*
X340786Y610963D01*
X340760Y610944D01*
X340728Y610918D01*
X340689Y610892D01*
X340637Y610860D01*
X340585Y610821D01*
X340520Y610788D01*
X340449Y610756D01*
X340371Y610717D01*
X340287Y610685D01*
X340190Y610659D01*
X340093Y610626D01*
X339983Y610607D01*
X339866Y610588D01*
X339879Y610581D01*
X339905Y610568D01*
X339944Y610542D01*
X339996Y610516D01*
X340112Y610445D01*
X340171Y610400D01*
X340222Y610361D01*
X340235Y610348D01*
X340268Y610316D01*
X340320Y610264D01*
X340384Y610199D01*
X340456Y610108D01*
X340540Y610011D01*
X340624Y609895D01*
X340715Y609765D01*
X341485Y608547D01*
X340747D01*
X340158Y609480D01*
Y609487D01*
X340145Y609500D01*
X340132Y609519D01*
X340112Y609545D01*
X340067Y609616D01*
X340009Y609707D01*
X339937Y609804D01*
X339866Y609908D01*
X339795Y610005D01*
X339730Y610095D01*
X339724Y610102D01*
X339704Y610128D01*
X339672Y610167D01*
X339627Y610212D01*
X339529Y610309D01*
X339478Y610354D01*
X339426Y610393D01*
X339419Y610400D01*
X339406Y610406D01*
X339380Y610419D01*
X339342Y610439D01*
X339303Y610458D01*
X339257Y610478D01*
X339154Y610510D01*
X339147D01*
X339134Y610516D01*
X339108D01*
X339076Y610523D01*
X339031Y610529D01*
X338979D01*
X338908Y610536D01*
X338143D01*
Y608547D01*
X337547D01*
Y613030D01*
X339627D01*
X339678Y613023D01*
D02*
G37*
G36*
X396544Y613762D02*
X396596Y613756D01*
X396654Y613749D01*
X396719Y613736D01*
X396790Y613723D01*
X396945Y613685D01*
X397107Y613620D01*
X397192Y613581D01*
X397269Y613535D01*
X397347Y613477D01*
X397425Y613419D01*
X397431Y613412D01*
X397444Y613400D01*
X397463Y613380D01*
X397483Y613354D01*
X397515Y613322D01*
X397548Y613276D01*
X397587Y613231D01*
X397625Y613173D01*
X397664Y613108D01*
X397703Y613043D01*
X397774Y612888D01*
X397833Y612706D01*
X397852Y612609D01*
X397865Y612506D01*
X397314Y612434D01*
Y612441D01*
X397308Y612454D01*
X397302Y612480D01*
X397295Y612512D01*
X397289Y612551D01*
X397276Y612596D01*
X397243Y612693D01*
X397198Y612810D01*
X397140Y612920D01*
X397075Y613024D01*
X396997Y613115D01*
X396984Y613121D01*
X396958Y613147D01*
X396907Y613179D01*
X396842Y613212D01*
X396764Y613251D01*
X396667Y613283D01*
X396557Y613309D01*
X396440Y613315D01*
X396401D01*
X396375Y613309D01*
X396304Y613302D01*
X396213Y613283D01*
X396110Y613251D01*
X396000Y613205D01*
X395890Y613140D01*
X395786Y613050D01*
X395773Y613037D01*
X395741Y612998D01*
X395702Y612940D01*
X395650Y612862D01*
X395598Y612765D01*
X395559Y612655D01*
X395527Y612525D01*
X395514Y612383D01*
Y612376D01*
Y612363D01*
Y612344D01*
X395520Y612318D01*
X395527Y612247D01*
X395546Y612162D01*
X395572Y612059D01*
X395617Y611955D01*
X395682Y611852D01*
X395766Y611754D01*
X395779Y611741D01*
X395812Y611716D01*
X395864Y611677D01*
X395935Y611631D01*
X396026Y611586D01*
X396136Y611547D01*
X396259Y611521D01*
X396395Y611508D01*
X396453D01*
X396498Y611515D01*
X396557Y611521D01*
X396622Y611534D01*
X396699Y611547D01*
X396783Y611567D01*
X396719Y611081D01*
X396686D01*
X396660Y611087D01*
X396576D01*
X396505Y611074D01*
X396421Y611061D01*
X396324Y611042D01*
X396213Y611009D01*
X396110Y610964D01*
X396000Y610906D01*
X395993D01*
X395987Y610899D01*
X395954Y610873D01*
X395909Y610828D01*
X395857Y610770D01*
X395805Y610686D01*
X395760Y610588D01*
X395728Y610478D01*
X395715Y610414D01*
Y610342D01*
Y610336D01*
Y610329D01*
Y610290D01*
X395728Y610239D01*
X395741Y610168D01*
X395766Y610090D01*
X395799Y610005D01*
X395851Y609921D01*
X395922Y609844D01*
X395928Y609837D01*
X395961Y609811D01*
X396006Y609779D01*
X396064Y609740D01*
X396142Y609708D01*
X396233Y609675D01*
X396337Y609649D01*
X396453Y609643D01*
X396505D01*
X396563Y609656D01*
X396641Y609669D01*
X396725Y609695D01*
X396809Y609727D01*
X396900Y609779D01*
X396984Y609844D01*
X396991Y609850D01*
X397017Y609883D01*
X397055Y609928D01*
X397101Y609993D01*
X397146Y610077D01*
X397192Y610180D01*
X397230Y610303D01*
X397256Y610446D01*
X397807Y610349D01*
Y610342D01*
X397800Y610323D01*
X397794Y610297D01*
X397787Y610258D01*
X397774Y610213D01*
X397755Y610161D01*
X397716Y610038D01*
X397651Y609895D01*
X397574Y609753D01*
X397476Y609617D01*
X397353Y609494D01*
X397347Y609487D01*
X397334Y609481D01*
X397314Y609468D01*
X397289Y609449D01*
X397256Y609423D01*
X397211Y609397D01*
X397166Y609371D01*
X397107Y609338D01*
X396978Y609287D01*
X396829Y609235D01*
X396654Y609202D01*
X396563Y609189D01*
X396401D01*
X396330Y609196D01*
X396246Y609209D01*
X396142Y609228D01*
X396026Y609261D01*
X395909Y609300D01*
X395792Y609351D01*
X395786D01*
X395779Y609358D01*
X395741Y609377D01*
X395682Y609416D01*
X395617Y609462D01*
X395540Y609526D01*
X395462Y609598D01*
X395384Y609682D01*
X395320Y609779D01*
X395313Y609792D01*
X395294Y609824D01*
X395268Y609883D01*
X395235Y609954D01*
X395203Y610038D01*
X395177Y610135D01*
X395158Y610245D01*
X395151Y610355D01*
Y610368D01*
Y610407D01*
X395158Y610459D01*
X395171Y610530D01*
X395190Y610614D01*
X395223Y610705D01*
X395261Y610796D01*
X395313Y610886D01*
X395320Y610899D01*
X395339Y610925D01*
X395378Y610971D01*
X395430Y611022D01*
X395494Y611081D01*
X395572Y611146D01*
X395663Y611204D01*
X395773Y611262D01*
X395766D01*
X395754Y611269D01*
X395734Y611275D01*
X395708Y611282D01*
X395637Y611307D01*
X395546Y611346D01*
X395443Y611398D01*
X395339Y611463D01*
X395242Y611547D01*
X395151Y611644D01*
X395145Y611657D01*
X395119Y611696D01*
X395080Y611761D01*
X395041Y611845D01*
X395002Y611949D01*
X394963Y612072D01*
X394938Y612214D01*
X394931Y612370D01*
Y612376D01*
Y612396D01*
Y612428D01*
X394938Y612467D01*
X394944Y612519D01*
X394957Y612577D01*
X394970Y612642D01*
X394983Y612713D01*
X395035Y612868D01*
X395074Y612953D01*
X395112Y613030D01*
X395164Y613115D01*
X395223Y613199D01*
X395287Y613283D01*
X395365Y613361D01*
X395371Y613367D01*
X395384Y613380D01*
X395410Y613400D01*
X395443Y613425D01*
X395481Y613458D01*
X395533Y613490D01*
X395592Y613529D01*
X395663Y613561D01*
X395734Y613600D01*
X395818Y613639D01*
X395902Y613671D01*
X396000Y613704D01*
X396103Y613730D01*
X396213Y613749D01*
X396324Y613762D01*
X396447Y613769D01*
X396505D01*
X396544Y613762D01*
D02*
G37*
G36*
X400359D02*
X400417D01*
X400488Y613756D01*
X400566Y613743D01*
X400657Y613730D01*
X400844Y613697D01*
X401039Y613646D01*
X401233Y613574D01*
X401324Y613529D01*
X401414Y613477D01*
X401421Y613471D01*
X401434Y613464D01*
X401460Y613445D01*
X401486Y613419D01*
X401525Y613393D01*
X401570Y613354D01*
X401622Y613309D01*
X401674Y613257D01*
X401725Y613199D01*
X401784Y613140D01*
X401900Y612991D01*
X402010Y612817D01*
X402108Y612622D01*
Y612616D01*
X402121Y612596D01*
X402127Y612564D01*
X402146Y612525D01*
X402159Y612473D01*
X402179Y612408D01*
X402205Y612337D01*
X402224Y612259D01*
X402243Y612175D01*
X402269Y612078D01*
X402302Y611877D01*
X402328Y611651D01*
X402341Y611418D01*
Y611411D01*
Y611385D01*
Y611346D01*
X402334Y611301D01*
Y611236D01*
X402328Y611171D01*
X402321Y611087D01*
X402308Y611003D01*
X402276Y610815D01*
X402231Y610608D01*
X402166Y610401D01*
X402075Y610200D01*
X402069Y610193D01*
X402062Y610174D01*
X402049Y610148D01*
X402023Y610116D01*
X401997Y610070D01*
X401965Y610019D01*
X401881Y609902D01*
X401771Y609772D01*
X401641Y609643D01*
X401492Y609513D01*
X401317Y609403D01*
X401311Y609397D01*
X401291Y609390D01*
X401265Y609377D01*
X401233Y609358D01*
X401181Y609338D01*
X401129Y609319D01*
X401065Y609293D01*
X400993Y609267D01*
X400916Y609241D01*
X400831Y609215D01*
X400650Y609176D01*
X400443Y609144D01*
X400229Y609131D01*
X400164D01*
X400119Y609138D01*
X400061Y609144D01*
X399990Y609151D01*
X399918Y609157D01*
X399834Y609176D01*
X399659Y609215D01*
X399465Y609274D01*
X399368Y609313D01*
X399277Y609358D01*
X399186Y609416D01*
X399096Y609474D01*
X399089Y609481D01*
X399076Y609487D01*
X399050Y609507D01*
X399018Y609539D01*
X398986Y609572D01*
X398940Y609617D01*
X398895Y609669D01*
X398843Y609720D01*
X398791Y609785D01*
X398740Y609863D01*
X398681Y609941D01*
X398629Y610025D01*
X398584Y610122D01*
X398532Y610219D01*
X398493Y610323D01*
X398455Y610439D01*
X399037Y610575D01*
Y610569D01*
X399044Y610556D01*
X399057Y610530D01*
X399070Y610498D01*
X399083Y610459D01*
X399102Y610407D01*
X399154Y610303D01*
X399219Y610187D01*
X399296Y610070D01*
X399394Y609960D01*
X399497Y609863D01*
X399510Y609850D01*
X399549Y609824D01*
X399614Y609792D01*
X399698Y609747D01*
X399808Y609708D01*
X399931Y609669D01*
X400080Y609643D01*
X400242Y609636D01*
X400294D01*
X400326Y609643D01*
X400372D01*
X400424Y609649D01*
X400546Y609669D01*
X400683Y609695D01*
X400825Y609740D01*
X400974Y609805D01*
X401110Y609889D01*
X401116D01*
X401123Y609902D01*
X401168Y609934D01*
X401227Y609986D01*
X401298Y610064D01*
X401382Y610161D01*
X401460Y610271D01*
X401531Y610407D01*
X401596Y610556D01*
Y610563D01*
X401602Y610575D01*
X401609Y610595D01*
X401615Y610627D01*
X401628Y610666D01*
X401641Y610712D01*
X401661Y610822D01*
X401687Y610951D01*
X401712Y611094D01*
X401725Y611249D01*
X401732Y611418D01*
Y611424D01*
Y611443D01*
Y611476D01*
Y611515D01*
X401725Y611560D01*
Y611618D01*
X401719Y611683D01*
X401712Y611754D01*
X401693Y611910D01*
X401661Y612078D01*
X401622Y612247D01*
X401570Y612415D01*
Y612421D01*
X401563Y612434D01*
X401550Y612454D01*
X401538Y612486D01*
X401499Y612564D01*
X401440Y612655D01*
X401369Y612758D01*
X401278Y612868D01*
X401175Y612966D01*
X401052Y613056D01*
X401045D01*
X401032Y613063D01*
X401013Y613076D01*
X400987Y613089D01*
X400955Y613102D01*
X400916Y613121D01*
X400825Y613160D01*
X400709Y613199D01*
X400579Y613231D01*
X400436Y613257D01*
X400288Y613264D01*
X400242D01*
X400203Y613257D01*
X400158D01*
X400113Y613251D01*
X399996Y613225D01*
X399860Y613192D01*
X399724Y613140D01*
X399581Y613069D01*
X399510Y613030D01*
X399445Y612979D01*
X399439Y612972D01*
X399432Y612966D01*
X399413Y612946D01*
X399387Y612927D01*
X399361Y612894D01*
X399329Y612855D01*
X399290Y612817D01*
X399258Y612765D01*
X399219Y612706D01*
X399173Y612642D01*
X399135Y612577D01*
X399096Y612499D01*
X399063Y612415D01*
X399031Y612324D01*
X398998Y612227D01*
X398973Y612123D01*
X398377Y612272D01*
Y612279D01*
X398383Y612305D01*
X398396Y612344D01*
X398416Y612396D01*
X398435Y612454D01*
X398461Y612525D01*
X398493Y612603D01*
X398532Y612687D01*
X398623Y612868D01*
X398740Y613050D01*
X398811Y613140D01*
X398882Y613231D01*
X398960Y613309D01*
X399050Y613386D01*
X399057Y613393D01*
X399070Y613406D01*
X399102Y613419D01*
X399135Y613445D01*
X399186Y613477D01*
X399238Y613510D01*
X399309Y613542D01*
X399381Y613574D01*
X399465Y613613D01*
X399556Y613646D01*
X399653Y613678D01*
X399756Y613710D01*
X399866Y613736D01*
X399983Y613749D01*
X400106Y613762D01*
X400236Y613769D01*
X400307D01*
X400359Y613762D01*
D02*
G37*
G36*
X393033D02*
X393085Y613756D01*
X393150Y613743D01*
X393221Y613730D01*
X393299Y613710D01*
X393377Y613685D01*
X393461Y613659D01*
X393545Y613620D01*
X393629Y613574D01*
X393713Y613522D01*
X393797Y613458D01*
X393875Y613386D01*
X393946Y613309D01*
X393953Y613302D01*
X393966Y613283D01*
X393985Y613251D01*
X394018Y613199D01*
X394050Y613140D01*
X394082Y613063D01*
X394128Y612972D01*
X394167Y612868D01*
X394206Y612752D01*
X394244Y612616D01*
X394283Y612467D01*
X394316Y612298D01*
X394348Y612117D01*
X394367Y611923D01*
X394380Y611709D01*
X394387Y611482D01*
Y611476D01*
Y611450D01*
Y611405D01*
Y611353D01*
X394380Y611282D01*
Y611204D01*
X394374Y611120D01*
X394367Y611022D01*
X394348Y610822D01*
X394316Y610608D01*
X394277Y610394D01*
X394251Y610297D01*
X394225Y610200D01*
Y610193D01*
X394218Y610180D01*
X394206Y610154D01*
X394193Y610122D01*
X394180Y610077D01*
X394154Y610031D01*
X394102Y609921D01*
X394037Y609805D01*
X393953Y609682D01*
X393856Y609559D01*
X393739Y609455D01*
X393733D01*
X393726Y609442D01*
X393707Y609429D01*
X393681Y609416D01*
X393648Y609390D01*
X393610Y609371D01*
X393512Y609319D01*
X393396Y609274D01*
X393260Y609228D01*
X393098Y609202D01*
X392923Y609189D01*
X392865D01*
X392794Y609196D01*
X392709Y609209D01*
X392612Y609228D01*
X392509Y609254D01*
X392398Y609287D01*
X392295Y609338D01*
X392288D01*
X392282Y609345D01*
X392249Y609364D01*
X392198Y609397D01*
X392133Y609442D01*
X392062Y609507D01*
X391984Y609578D01*
X391913Y609662D01*
X391842Y609759D01*
X391835Y609772D01*
X391809Y609805D01*
X391783Y609863D01*
X391738Y609947D01*
X391699Y610044D01*
X391647Y610154D01*
X391602Y610284D01*
X391563Y610426D01*
Y610433D01*
X391557Y610446D01*
X391550Y610465D01*
X391544Y610498D01*
X391537Y610537D01*
X391531Y610582D01*
X391518Y610640D01*
X391511Y610705D01*
X391498Y610776D01*
X391492Y610854D01*
X391485Y610945D01*
X391472Y611035D01*
X391466Y611139D01*
Y611243D01*
X391459Y611359D01*
Y611482D01*
Y611489D01*
Y611515D01*
Y611560D01*
Y611612D01*
X391466Y611683D01*
Y611761D01*
X391472Y611845D01*
X391479Y611936D01*
X391498Y612143D01*
X391531Y612357D01*
X391569Y612564D01*
X391595Y612661D01*
X391628Y612758D01*
Y612765D01*
X391634Y612778D01*
X391647Y612804D01*
X391660Y612836D01*
X391673Y612881D01*
X391699Y612927D01*
X391751Y613037D01*
X391815Y613153D01*
X391900Y613283D01*
X391997Y613400D01*
X392113Y613510D01*
X392120D01*
X392126Y613522D01*
X392146Y613535D01*
X392172Y613549D01*
X392204Y613568D01*
X392237Y613594D01*
X392334Y613639D01*
X392450Y613685D01*
X392586Y613730D01*
X392748Y613756D01*
X392923Y613769D01*
X392988D01*
X393033Y613762D01*
D02*
G37*
G36*
X450864Y613168D02*
X450858Y613162D01*
X450845Y613149D01*
X450819Y613123D01*
X450793Y613084D01*
X450754Y613039D01*
X450702Y612987D01*
X450650Y612922D01*
X450592Y612844D01*
X450534Y612766D01*
X450463Y612676D01*
X450391Y612572D01*
X450320Y612469D01*
X450243Y612352D01*
X450165Y612229D01*
X450087Y612093D01*
X450009Y611957D01*
X450003Y611950D01*
X449990Y611925D01*
X449970Y611886D01*
X449938Y611827D01*
X449906Y611756D01*
X449867Y611678D01*
X449822Y611588D01*
X449776Y611484D01*
X449724Y611367D01*
X449666Y611251D01*
X449614Y611121D01*
X449562Y610985D01*
X449459Y610707D01*
X449362Y610409D01*
Y610402D01*
X449355Y610383D01*
X449349Y610351D01*
X449336Y610312D01*
X449323Y610260D01*
X449310Y610195D01*
X449290Y610124D01*
X449277Y610046D01*
X449258Y609955D01*
X449239Y609858D01*
X449206Y609651D01*
X449174Y609424D01*
X449154Y609178D01*
X448591D01*
Y609185D01*
Y609204D01*
Y609230D01*
X448597Y609269D01*
Y609321D01*
X448604Y609385D01*
X448610Y609457D01*
X448617Y609534D01*
X448630Y609625D01*
X448643Y609716D01*
X448662Y609826D01*
X448681Y609936D01*
X448701Y610053D01*
X448727Y610182D01*
X448792Y610448D01*
Y610454D01*
X448798Y610480D01*
X448811Y610519D01*
X448830Y610577D01*
X448850Y610642D01*
X448876Y610720D01*
X448902Y610811D01*
X448941Y610908D01*
X448979Y611018D01*
X449018Y611128D01*
X449115Y611374D01*
X449232Y611633D01*
X449362Y611892D01*
X449368Y611899D01*
X449381Y611925D01*
X449400Y611957D01*
X449426Y612009D01*
X449459Y612067D01*
X449504Y612138D01*
X449549Y612216D01*
X449601Y612300D01*
X449724Y612488D01*
X449854Y612682D01*
X450003Y612883D01*
X450158Y613071D01*
X447963D01*
Y613602D01*
X450864D01*
Y613168D01*
D02*
G37*
G36*
X445767Y613654D02*
X445825D01*
X445961Y613647D01*
X446104Y613628D01*
X446259Y613609D01*
X446402Y613576D01*
X446473Y613557D01*
X446531Y613537D01*
X446538D01*
X446544Y613531D01*
X446583Y613511D01*
X446641Y613485D01*
X446712Y613440D01*
X446790Y613382D01*
X446874Y613304D01*
X446952Y613213D01*
X447030Y613110D01*
Y613103D01*
X447036Y613097D01*
X447062Y613058D01*
X447088Y612993D01*
X447127Y612909D01*
X447159Y612812D01*
X447192Y612695D01*
X447211Y612572D01*
X447218Y612436D01*
Y612430D01*
Y612417D01*
Y612391D01*
X447211Y612359D01*
Y612313D01*
X447205Y612268D01*
X447179Y612158D01*
X447140Y612028D01*
X447088Y611892D01*
X447010Y611756D01*
X446959Y611691D01*
X446907Y611627D01*
X446900Y611620D01*
X446894Y611614D01*
X446874Y611594D01*
X446848Y611575D01*
X446816Y611549D01*
X446777Y611523D01*
X446725Y611491D01*
X446674Y611452D01*
X446609Y611419D01*
X446538Y611387D01*
X446460Y611348D01*
X446376Y611316D01*
X446278Y611290D01*
X446181Y611257D01*
X446071Y611238D01*
X445955Y611218D01*
X445968Y611212D01*
X445993Y611199D01*
X446032Y611173D01*
X446084Y611147D01*
X446201Y611076D01*
X446259Y611031D01*
X446311Y610992D01*
X446324Y610979D01*
X446356Y610947D01*
X446408Y610895D01*
X446473Y610830D01*
X446544Y610739D01*
X446628Y610642D01*
X446712Y610526D01*
X446803Y610396D01*
X447574Y609178D01*
X446836D01*
X446246Y610111D01*
Y610117D01*
X446233Y610130D01*
X446220Y610150D01*
X446201Y610176D01*
X446156Y610247D01*
X446097Y610338D01*
X446026Y610435D01*
X445955Y610538D01*
X445883Y610636D01*
X445819Y610726D01*
X445812Y610733D01*
X445793Y610759D01*
X445760Y610798D01*
X445715Y610843D01*
X445618Y610940D01*
X445566Y610985D01*
X445514Y611024D01*
X445508Y611031D01*
X445495Y611037D01*
X445469Y611050D01*
X445430Y611069D01*
X445391Y611089D01*
X445346Y611108D01*
X445242Y611141D01*
X445236D01*
X445223Y611147D01*
X445197D01*
X445164Y611154D01*
X445119Y611160D01*
X445067D01*
X444996Y611167D01*
X444232D01*
Y609178D01*
X443636D01*
Y613660D01*
X445715D01*
X445767Y613654D01*
D02*
G37*
G36*
X461437Y371399D02*
X459358D01*
X459306Y371406D01*
X459247D01*
X459111Y371412D01*
X458969Y371432D01*
X458814Y371451D01*
X458671Y371484D01*
X458600Y371503D01*
X458541Y371522D01*
X458535D01*
X458529Y371529D01*
X458490Y371548D01*
X458431Y371574D01*
X458360Y371620D01*
X458282Y371678D01*
X458198Y371756D01*
X458120Y371846D01*
X458043Y371950D01*
Y371956D01*
X458036Y371963D01*
X458010Y372002D01*
X457984Y372066D01*
X457946Y372151D01*
X457913Y372248D01*
X457881Y372364D01*
X457861Y372487D01*
X457855Y372623D01*
Y372630D01*
Y372643D01*
Y372669D01*
X457861Y372701D01*
Y372747D01*
X457868Y372792D01*
X457894Y372902D01*
X457933Y373032D01*
X457984Y373168D01*
X458062Y373304D01*
X458114Y373368D01*
X458166Y373433D01*
X458172Y373440D01*
X458179Y373446D01*
X458198Y373465D01*
X458224Y373485D01*
X458256Y373511D01*
X458295Y373537D01*
X458347Y373569D01*
X458399Y373608D01*
X458464Y373640D01*
X458535Y373673D01*
X458613Y373712D01*
X458697Y373744D01*
X458794Y373770D01*
X458891Y373802D01*
X459001Y373822D01*
X459118Y373841D01*
X459105Y373848D01*
X459079Y373861D01*
X459040Y373886D01*
X458988Y373912D01*
X458872Y373984D01*
X458814Y374029D01*
X458762Y374068D01*
X458749Y374081D01*
X458716Y374113D01*
X458665Y374165D01*
X458600Y374230D01*
X458529Y374320D01*
X458444Y374418D01*
X458360Y374534D01*
X458269Y374664D01*
X457499Y375881D01*
X458237D01*
X458826Y374949D01*
Y374942D01*
X458839Y374929D01*
X458852Y374910D01*
X458872Y374884D01*
X458917Y374813D01*
X458975Y374722D01*
X459047Y374625D01*
X459118Y374521D01*
X459189Y374424D01*
X459254Y374333D01*
X459260Y374327D01*
X459280Y374301D01*
X459312Y374262D01*
X459358Y374217D01*
X459455Y374120D01*
X459506Y374074D01*
X459558Y374035D01*
X459565Y374029D01*
X459578Y374022D01*
X459604Y374010D01*
X459642Y373990D01*
X459681Y373971D01*
X459727Y373951D01*
X459830Y373919D01*
X459837D01*
X459850Y373912D01*
X459876D01*
X459908Y373906D01*
X459953Y373899D01*
X460005D01*
X460076Y373893D01*
X460841D01*
Y375881D01*
X461437D01*
Y371399D01*
D02*
G37*
G36*
X451903Y374806D02*
X453852D01*
Y374301D01*
X451799Y371399D01*
X451352D01*
Y374301D01*
X450743D01*
Y374806D01*
X451352D01*
Y375881D01*
X451903D01*
Y374806D01*
D02*
G37*
G36*
X455627Y372377D02*
X455633Y372384D01*
X455666Y372410D01*
X455704Y372449D01*
X455769Y372494D01*
X455840Y372552D01*
X455931Y372617D01*
X456035Y372688D01*
X456151Y372760D01*
X456158D01*
X456164Y372766D01*
X456203Y372792D01*
X456268Y372824D01*
X456346Y372863D01*
X456436Y372909D01*
X456534Y372954D01*
X456631Y372999D01*
X456728Y373038D01*
Y372507D01*
X456721D01*
X456708Y372494D01*
X456683Y372487D01*
X456650Y372468D01*
X456611Y372449D01*
X456566Y372423D01*
X456456Y372358D01*
X456326Y372287D01*
X456197Y372196D01*
X456061Y372092D01*
X455925Y371982D01*
X455918Y371976D01*
X455912Y371969D01*
X455892Y371950D01*
X455866Y371931D01*
X455808Y371866D01*
X455730Y371788D01*
X455653Y371697D01*
X455569Y371594D01*
X455497Y371490D01*
X455433Y371380D01*
X455076D01*
Y375881D01*
X455627D01*
Y372377D01*
D02*
G37*
G36*
X331777Y270002D02*
X331862Y269989D01*
X331965Y269970D01*
X332082Y269938D01*
X332198Y269899D01*
X332315Y269847D01*
X332322D01*
X332328Y269841D01*
X332367Y269821D01*
X332425Y269782D01*
X332490Y269737D01*
X332568Y269672D01*
X332645Y269601D01*
X332723Y269517D01*
X332788Y269419D01*
X332794Y269407D01*
X332814Y269374D01*
X332840Y269316D01*
X332872Y269245D01*
X332905Y269160D01*
X332930Y269063D01*
X332950Y268953D01*
X332956Y268843D01*
Y268830D01*
Y268791D01*
X332950Y268739D01*
X332937Y268668D01*
X332918Y268584D01*
X332885Y268493D01*
X332846Y268403D01*
X332794Y268312D01*
X332788Y268299D01*
X332769Y268273D01*
X332730Y268228D01*
X332678Y268176D01*
X332613Y268118D01*
X332535Y268053D01*
X332445Y267995D01*
X332335Y267936D01*
X332341D01*
X332354Y267930D01*
X332373Y267923D01*
X332399Y267917D01*
X332471Y267891D01*
X332561Y267852D01*
X332665Y267800D01*
X332769Y267736D01*
X332866Y267651D01*
X332956Y267554D01*
X332963Y267541D01*
X332989Y267502D01*
X333028Y267438D01*
X333066Y267353D01*
X333105Y267250D01*
X333144Y267127D01*
X333170Y266984D01*
X333176Y266829D01*
Y266822D01*
Y266803D01*
Y266770D01*
X333170Y266732D01*
X333164Y266680D01*
X333151Y266621D01*
X333138Y266557D01*
X333125Y266485D01*
X333073Y266330D01*
X333034Y266246D01*
X332995Y266168D01*
X332943Y266084D01*
X332885Y266000D01*
X332820Y265916D01*
X332743Y265838D01*
X332736Y265831D01*
X332723Y265818D01*
X332697Y265799D01*
X332665Y265773D01*
X332626Y265741D01*
X332574Y265708D01*
X332516Y265669D01*
X332445Y265637D01*
X332373Y265598D01*
X332289Y265559D01*
X332205Y265527D01*
X332108Y265494D01*
X332004Y265469D01*
X331894Y265449D01*
X331784Y265436D01*
X331661Y265430D01*
X331603D01*
X331564Y265436D01*
X331512Y265443D01*
X331454Y265449D01*
X331389Y265462D01*
X331318Y265475D01*
X331162Y265514D01*
X331000Y265579D01*
X330916Y265618D01*
X330838Y265663D01*
X330761Y265721D01*
X330683Y265779D01*
X330676Y265786D01*
X330663Y265799D01*
X330644Y265818D01*
X330625Y265844D01*
X330592Y265877D01*
X330560Y265922D01*
X330521Y265967D01*
X330482Y266026D01*
X330443Y266090D01*
X330404Y266155D01*
X330333Y266311D01*
X330275Y266492D01*
X330255Y266589D01*
X330243Y266693D01*
X330793Y266764D01*
Y266758D01*
X330799Y266744D01*
X330806Y266719D01*
X330812Y266686D01*
X330819Y266647D01*
X330832Y266602D01*
X330864Y266505D01*
X330910Y266388D01*
X330968Y266278D01*
X331033Y266175D01*
X331110Y266084D01*
X331123Y266077D01*
X331149Y266052D01*
X331201Y266019D01*
X331266Y265987D01*
X331344Y265948D01*
X331441Y265916D01*
X331551Y265890D01*
X331667Y265883D01*
X331706D01*
X331732Y265890D01*
X331803Y265896D01*
X331894Y265916D01*
X331998Y265948D01*
X332108Y265993D01*
X332218Y266058D01*
X332322Y266149D01*
X332335Y266162D01*
X332367Y266201D01*
X332406Y266259D01*
X332458Y266336D01*
X332509Y266434D01*
X332548Y266544D01*
X332581Y266673D01*
X332594Y266816D01*
Y266822D01*
Y266835D01*
Y266855D01*
X332587Y266880D01*
X332581Y266952D01*
X332561Y267036D01*
X332535Y267140D01*
X332490Y267243D01*
X332425Y267347D01*
X332341Y267444D01*
X332328Y267457D01*
X332296Y267483D01*
X332244Y267522D01*
X332173Y267567D01*
X332082Y267612D01*
X331972Y267651D01*
X331849Y267677D01*
X331713Y267690D01*
X331655D01*
X331609Y267684D01*
X331551Y267677D01*
X331486Y267664D01*
X331408Y267651D01*
X331324Y267632D01*
X331389Y268118D01*
X331421D01*
X331447Y268111D01*
X331531D01*
X331603Y268124D01*
X331687Y268137D01*
X331784Y268157D01*
X331894Y268189D01*
X331998Y268234D01*
X332108Y268293D01*
X332114D01*
X332121Y268299D01*
X332153Y268325D01*
X332198Y268370D01*
X332250Y268428D01*
X332302Y268513D01*
X332347Y268610D01*
X332380Y268720D01*
X332393Y268785D01*
Y268856D01*
Y268862D01*
Y268869D01*
Y268908D01*
X332380Y268960D01*
X332367Y269031D01*
X332341Y269109D01*
X332309Y269193D01*
X332257Y269277D01*
X332186Y269355D01*
X332179Y269361D01*
X332147Y269387D01*
X332101Y269419D01*
X332043Y269458D01*
X331965Y269491D01*
X331875Y269523D01*
X331771Y269549D01*
X331655Y269555D01*
X331603D01*
X331544Y269543D01*
X331467Y269530D01*
X331382Y269504D01*
X331298Y269471D01*
X331208Y269419D01*
X331123Y269355D01*
X331117Y269348D01*
X331091Y269316D01*
X331052Y269271D01*
X331007Y269206D01*
X330961Y269122D01*
X330916Y269018D01*
X330877Y268895D01*
X330851Y268752D01*
X330301Y268850D01*
Y268856D01*
X330307Y268876D01*
X330314Y268901D01*
X330320Y268940D01*
X330333Y268986D01*
X330353Y269037D01*
X330391Y269160D01*
X330456Y269303D01*
X330534Y269445D01*
X330631Y269582D01*
X330754Y269704D01*
X330761Y269711D01*
X330774Y269718D01*
X330793Y269730D01*
X330819Y269750D01*
X330851Y269776D01*
X330897Y269802D01*
X330942Y269828D01*
X331000Y269860D01*
X331130Y269912D01*
X331279Y269964D01*
X331454Y269996D01*
X331544Y270009D01*
X331706D01*
X331777Y270002D01*
D02*
G37*
G36*
X328824Y265507D02*
X328274D01*
Y269011D01*
X328267Y269005D01*
X328235Y268979D01*
X328196Y268940D01*
X328131Y268895D01*
X328060Y268837D01*
X327969Y268772D01*
X327865Y268701D01*
X327749Y268629D01*
X327742D01*
X327736Y268623D01*
X327697Y268597D01*
X327632Y268565D01*
X327555Y268526D01*
X327464Y268480D01*
X327367Y268435D01*
X327270Y268390D01*
X327172Y268351D01*
Y268882D01*
X327179D01*
X327192Y268895D01*
X327218Y268901D01*
X327250Y268921D01*
X327289Y268940D01*
X327334Y268966D01*
X327444Y269031D01*
X327574Y269102D01*
X327704Y269193D01*
X327840Y269296D01*
X327976Y269407D01*
X327982Y269413D01*
X327989Y269419D01*
X328008Y269439D01*
X328034Y269458D01*
X328092Y269523D01*
X328170Y269601D01*
X328248Y269692D01*
X328332Y269795D01*
X328403Y269899D01*
X328468Y270009D01*
X328824D01*
Y265507D01*
D02*
G37*
G36*
X324594Y269983D02*
X324653D01*
X324789Y269977D01*
X324931Y269957D01*
X325087Y269938D01*
X325229Y269905D01*
X325300Y269886D01*
X325359Y269866D01*
X325365D01*
X325372Y269860D01*
X325411Y269841D01*
X325469Y269815D01*
X325540Y269769D01*
X325618Y269711D01*
X325702Y269633D01*
X325780Y269543D01*
X325858Y269439D01*
Y269433D01*
X325864Y269426D01*
X325890Y269387D01*
X325916Y269322D01*
X325955Y269238D01*
X325987Y269141D01*
X326020Y269024D01*
X326039Y268901D01*
X326045Y268765D01*
Y268759D01*
Y268746D01*
Y268720D01*
X326039Y268688D01*
Y268642D01*
X326032Y268597D01*
X326007Y268487D01*
X325968Y268357D01*
X325916Y268221D01*
X325838Y268085D01*
X325786Y268020D01*
X325734Y267956D01*
X325728Y267949D01*
X325722Y267943D01*
X325702Y267923D01*
X325676Y267904D01*
X325644Y267878D01*
X325605Y267852D01*
X325553Y267820D01*
X325501Y267781D01*
X325437Y267749D01*
X325365Y267716D01*
X325288Y267677D01*
X325203Y267645D01*
X325106Y267619D01*
X325009Y267586D01*
X324899Y267567D01*
X324782Y267548D01*
X324795Y267541D01*
X324821Y267528D01*
X324860Y267502D01*
X324912Y267476D01*
X325028Y267405D01*
X325087Y267360D01*
X325139Y267321D01*
X325151Y267308D01*
X325184Y267276D01*
X325236Y267224D01*
X325300Y267159D01*
X325372Y267068D01*
X325456Y266971D01*
X325540Y266855D01*
X325631Y266725D01*
X326402Y265507D01*
X325663D01*
X325074Y266440D01*
Y266447D01*
X325061Y266460D01*
X325048Y266479D01*
X325028Y266505D01*
X324983Y266576D01*
X324925Y266667D01*
X324854Y266764D01*
X324782Y266868D01*
X324711Y266965D01*
X324646Y267055D01*
X324640Y267062D01*
X324620Y267088D01*
X324588Y267127D01*
X324543Y267172D01*
X324446Y267269D01*
X324394Y267314D01*
X324342Y267353D01*
X324335Y267360D01*
X324323Y267366D01*
X324297Y267379D01*
X324258Y267399D01*
X324219Y267418D01*
X324174Y267438D01*
X324070Y267470D01*
X324063D01*
X324050Y267476D01*
X324025D01*
X323992Y267483D01*
X323947Y267489D01*
X323895D01*
X323824Y267496D01*
X323060D01*
Y265507D01*
X322464D01*
Y269989D01*
X324543D01*
X324594Y269983D01*
D02*
G37*
G36*
X332242Y361404D02*
X332294Y361398D01*
X332359Y361391D01*
X332430Y361378D01*
X332501Y361365D01*
X332669Y361320D01*
X332838Y361255D01*
X332922Y361216D01*
X333006Y361171D01*
X333084Y361113D01*
X333155Y361048D01*
X333162Y361042D01*
X333175Y361035D01*
X333188Y361009D01*
X333214Y360983D01*
X333246Y360951D01*
X333278Y360906D01*
X333311Y360860D01*
X333350Y360802D01*
X333414Y360679D01*
X333479Y360523D01*
X333505Y360446D01*
X333518Y360355D01*
X333531Y360264D01*
X333537Y360167D01*
Y360154D01*
Y360122D01*
X333531Y360070D01*
X333525Y359999D01*
X333512Y359921D01*
X333486Y359830D01*
X333460Y359733D01*
X333421Y359636D01*
X333414Y359623D01*
X333401Y359591D01*
X333376Y359539D01*
X333337Y359468D01*
X333285Y359390D01*
X333220Y359293D01*
X333142Y359196D01*
X333052Y359086D01*
X333039Y359073D01*
X333006Y359034D01*
X332974Y359001D01*
X332942Y358969D01*
X332903Y358930D01*
X332851Y358878D01*
X332799Y358826D01*
X332734Y358768D01*
X332669Y358703D01*
X332592Y358632D01*
X332508Y358561D01*
X332417Y358477D01*
X332313Y358392D01*
X332210Y358302D01*
X332203Y358295D01*
X332190Y358282D01*
X332164Y358263D01*
X332132Y358237D01*
X332093Y358198D01*
X332048Y358159D01*
X331944Y358075D01*
X331834Y357978D01*
X331730Y357881D01*
X331640Y357797D01*
X331601Y357764D01*
X331568Y357732D01*
X331562Y357725D01*
X331543Y357706D01*
X331517Y357680D01*
X331484Y357641D01*
X331452Y357596D01*
X331413Y357551D01*
X331335Y357440D01*
X333544D01*
Y356909D01*
X330571D01*
Y356916D01*
Y356942D01*
Y356981D01*
X330577Y357032D01*
X330584Y357091D01*
X330597Y357155D01*
X330610Y357220D01*
X330636Y357291D01*
Y357298D01*
X330642Y357304D01*
X330655Y357343D01*
X330681Y357402D01*
X330720Y357479D01*
X330772Y357570D01*
X330836Y357673D01*
X330908Y357777D01*
X330998Y357887D01*
Y357894D01*
X331011Y357900D01*
X331044Y357939D01*
X331102Y357997D01*
X331186Y358082D01*
X331283Y358179D01*
X331407Y358295D01*
X331555Y358425D01*
X331717Y358561D01*
X331724Y358567D01*
X331750Y358587D01*
X331789Y358619D01*
X331834Y358658D01*
X331892Y358710D01*
X331964Y358768D01*
X332035Y358833D01*
X332119Y358904D01*
X332281Y359060D01*
X332443Y359215D01*
X332520Y359293D01*
X332592Y359370D01*
X332657Y359442D01*
X332708Y359513D01*
Y359520D01*
X332721Y359526D01*
X332734Y359545D01*
X332747Y359571D01*
X332793Y359642D01*
X332844Y359727D01*
X332890Y359830D01*
X332935Y359940D01*
X332961Y360064D01*
X332974Y360180D01*
Y360187D01*
Y360193D01*
X332967Y360232D01*
X332961Y360297D01*
X332942Y360368D01*
X332916Y360459D01*
X332870Y360549D01*
X332812Y360640D01*
X332734Y360731D01*
X332721Y360744D01*
X332689Y360770D01*
X332644Y360802D01*
X332572Y360847D01*
X332482Y360886D01*
X332378Y360925D01*
X332255Y360951D01*
X332119Y360957D01*
X332080D01*
X332054Y360951D01*
X331977Y360944D01*
X331886Y360925D01*
X331789Y360899D01*
X331679Y360854D01*
X331575Y360795D01*
X331478Y360718D01*
X331465Y360705D01*
X331439Y360672D01*
X331400Y360621D01*
X331361Y360543D01*
X331316Y360452D01*
X331277Y360336D01*
X331251Y360206D01*
X331238Y360057D01*
X330675Y360115D01*
Y360122D01*
X330681Y360141D01*
Y360174D01*
X330688Y360219D01*
X330700Y360271D01*
X330714Y360329D01*
X330733Y360400D01*
X330752Y360472D01*
X330804Y360627D01*
X330882Y360783D01*
X330927Y360860D01*
X330985Y360938D01*
X331044Y361009D01*
X331109Y361074D01*
X331115Y361080D01*
X331128Y361087D01*
X331147Y361106D01*
X331180Y361126D01*
X331219Y361152D01*
X331264Y361178D01*
X331316Y361210D01*
X331381Y361242D01*
X331452Y361275D01*
X331530Y361307D01*
X331614Y361333D01*
X331704Y361359D01*
X331802Y361378D01*
X331905Y361398D01*
X332015Y361404D01*
X332132Y361411D01*
X332197D01*
X332242Y361404D01*
D02*
G37*
G36*
X329237Y356909D02*
X328686D01*
Y360413D01*
X328680Y360407D01*
X328647Y360381D01*
X328608Y360342D01*
X328544Y360297D01*
X328472Y360238D01*
X328382Y360174D01*
X328278Y360102D01*
X328162Y360031D01*
X328155D01*
X328149Y360025D01*
X328110Y359999D01*
X328045Y359966D01*
X327967Y359927D01*
X327877Y359882D01*
X327779Y359837D01*
X327682Y359791D01*
X327585Y359753D01*
Y360284D01*
X327592D01*
X327604Y360297D01*
X327630Y360303D01*
X327663Y360323D01*
X327702Y360342D01*
X327747Y360368D01*
X327857Y360433D01*
X327987Y360504D01*
X328116Y360595D01*
X328252Y360698D01*
X328388Y360808D01*
X328395Y360815D01*
X328401Y360821D01*
X328421Y360841D01*
X328447Y360860D01*
X328505Y360925D01*
X328582Y361003D01*
X328660Y361093D01*
X328745Y361197D01*
X328816Y361301D01*
X328881Y361411D01*
X329237D01*
Y356909D01*
D02*
G37*
G36*
X325007Y361385D02*
X325065D01*
X325201Y361378D01*
X325344Y361359D01*
X325499Y361339D01*
X325642Y361307D01*
X325713Y361288D01*
X325771Y361268D01*
X325778D01*
X325784Y361262D01*
X325823Y361242D01*
X325882Y361216D01*
X325953Y361171D01*
X326031Y361113D01*
X326115Y361035D01*
X326193Y360944D01*
X326270Y360841D01*
Y360834D01*
X326277Y360828D01*
X326303Y360789D01*
X326329Y360724D01*
X326367Y360640D01*
X326400Y360543D01*
X326432Y360426D01*
X326452Y360303D01*
X326458Y360167D01*
Y360161D01*
Y360148D01*
Y360122D01*
X326452Y360089D01*
Y360044D01*
X326445Y359999D01*
X326419Y359889D01*
X326380Y359759D01*
X326329Y359623D01*
X326251Y359487D01*
X326199Y359422D01*
X326147Y359357D01*
X326141Y359351D01*
X326134Y359345D01*
X326115Y359325D01*
X326089Y359306D01*
X326057Y359280D01*
X326018Y359254D01*
X325966Y359221D01*
X325914Y359183D01*
X325849Y359150D01*
X325778Y359118D01*
X325700Y359079D01*
X325616Y359047D01*
X325519Y359021D01*
X325422Y358988D01*
X325312Y358969D01*
X325195Y358950D01*
X325208Y358943D01*
X325234Y358930D01*
X325273Y358904D01*
X325325Y358878D01*
X325441Y358807D01*
X325499Y358762D01*
X325551Y358723D01*
X325564Y358710D01*
X325597Y358677D01*
X325648Y358626D01*
X325713Y358561D01*
X325784Y358470D01*
X325869Y358373D01*
X325953Y358256D01*
X326044Y358127D01*
X326814Y356909D01*
X326076D01*
X325486Y357842D01*
Y357848D01*
X325474Y357861D01*
X325461Y357881D01*
X325441Y357907D01*
X325396Y357978D01*
X325338Y358069D01*
X325266Y358166D01*
X325195Y358269D01*
X325124Y358367D01*
X325059Y358457D01*
X325053Y358464D01*
X325033Y358490D01*
X325001Y358529D01*
X324955Y358574D01*
X324858Y358671D01*
X324806Y358716D01*
X324755Y358755D01*
X324748Y358762D01*
X324735Y358768D01*
X324709Y358781D01*
X324670Y358801D01*
X324632Y358820D01*
X324586Y358839D01*
X324483Y358872D01*
X324476D01*
X324463Y358878D01*
X324437D01*
X324405Y358885D01*
X324360Y358891D01*
X324308D01*
X324236Y358898D01*
X323472D01*
Y356909D01*
X322876D01*
Y361391D01*
X324955D01*
X325007Y361385D01*
D02*
G37*
G36*
X332023Y310939D02*
X331472D01*
Y314443D01*
X331466Y314436D01*
X331433Y314410D01*
X331394Y314371D01*
X331330Y314326D01*
X331258Y314268D01*
X331168Y314203D01*
X331064Y314132D01*
X330947Y314060D01*
X330941D01*
X330934Y314054D01*
X330896Y314028D01*
X330831Y313996D01*
X330753Y313957D01*
X330662Y313911D01*
X330565Y313866D01*
X330468Y313821D01*
X330371Y313782D01*
Y314313D01*
X330377D01*
X330390Y314326D01*
X330416Y314333D01*
X330449Y314352D01*
X330488Y314371D01*
X330533Y314397D01*
X330643Y314462D01*
X330773Y314533D01*
X330902Y314624D01*
X331038Y314728D01*
X331174Y314838D01*
X331181Y314844D01*
X331187Y314851D01*
X331207Y314870D01*
X331232Y314890D01*
X331291Y314954D01*
X331368Y315032D01*
X331446Y315123D01*
X331530Y315226D01*
X331602Y315330D01*
X331666Y315440D01*
X332023D01*
Y310939D01*
D02*
G37*
G36*
X328538D02*
X327987D01*
Y314443D01*
X327981Y314436D01*
X327949Y314410D01*
X327910Y314371D01*
X327845Y314326D01*
X327774Y314268D01*
X327683Y314203D01*
X327579Y314132D01*
X327463Y314060D01*
X327456D01*
X327450Y314054D01*
X327411Y314028D01*
X327346Y313996D01*
X327268Y313957D01*
X327178Y313911D01*
X327081Y313866D01*
X326983Y313821D01*
X326886Y313782D01*
Y314313D01*
X326893D01*
X326906Y314326D01*
X326932Y314333D01*
X326964Y314352D01*
X327003Y314371D01*
X327048Y314397D01*
X327158Y314462D01*
X327288Y314533D01*
X327417Y314624D01*
X327553Y314728D01*
X327690Y314838D01*
X327696Y314844D01*
X327702Y314851D01*
X327722Y314870D01*
X327748Y314890D01*
X327806Y314954D01*
X327884Y315032D01*
X327962Y315123D01*
X328046Y315226D01*
X328117Y315330D01*
X328182Y315440D01*
X328538D01*
Y310939D01*
D02*
G37*
G36*
X324309Y315414D02*
X324367D01*
X324503Y315408D01*
X324645Y315388D01*
X324801Y315369D01*
X324943Y315336D01*
X325014Y315317D01*
X325073Y315298D01*
X325079D01*
X325086Y315291D01*
X325125Y315272D01*
X325183Y315246D01*
X325254Y315200D01*
X325332Y315142D01*
X325416Y315064D01*
X325494Y314974D01*
X325572Y314870D01*
Y314864D01*
X325578Y314857D01*
X325604Y314818D01*
X325630Y314753D01*
X325669Y314669D01*
X325701Y314572D01*
X325733Y314456D01*
X325753Y314333D01*
X325759Y314196D01*
Y314190D01*
Y314177D01*
Y314151D01*
X325753Y314119D01*
Y314073D01*
X325746Y314028D01*
X325720Y313918D01*
X325682Y313789D01*
X325630Y313652D01*
X325552Y313516D01*
X325500Y313452D01*
X325448Y313387D01*
X325442Y313380D01*
X325435Y313374D01*
X325416Y313354D01*
X325390Y313335D01*
X325358Y313309D01*
X325319Y313283D01*
X325267Y313251D01*
X325215Y313212D01*
X325150Y313180D01*
X325079Y313147D01*
X325001Y313108D01*
X324917Y313076D01*
X324820Y313050D01*
X324723Y313018D01*
X324613Y312998D01*
X324496Y312979D01*
X324509Y312972D01*
X324535Y312959D01*
X324574Y312934D01*
X324626Y312908D01*
X324743Y312836D01*
X324801Y312791D01*
X324853Y312752D01*
X324865Y312739D01*
X324898Y312707D01*
X324950Y312655D01*
X325014Y312590D01*
X325086Y312500D01*
X325170Y312402D01*
X325254Y312286D01*
X325345Y312156D01*
X326116Y310939D01*
X325377D01*
X324788Y311871D01*
Y311878D01*
X324775Y311891D01*
X324762Y311910D01*
X324743Y311936D01*
X324697Y312007D01*
X324639Y312098D01*
X324568Y312195D01*
X324496Y312299D01*
X324425Y312396D01*
X324360Y312487D01*
X324354Y312493D01*
X324334Y312519D01*
X324302Y312558D01*
X324257Y312603D01*
X324160Y312700D01*
X324108Y312746D01*
X324056Y312785D01*
X324049Y312791D01*
X324036Y312798D01*
X324011Y312810D01*
X323972Y312830D01*
X323933Y312849D01*
X323887Y312869D01*
X323784Y312901D01*
X323777D01*
X323764Y312908D01*
X323739D01*
X323706Y312914D01*
X323661Y312920D01*
X323609D01*
X323538Y312927D01*
X322773D01*
Y310939D01*
X322178D01*
Y315421D01*
X324257D01*
X324309Y315414D01*
D02*
G37*
G36*
X493349Y291415D02*
X493343Y291363D01*
Y291305D01*
X493337Y291169D01*
X493317Y291026D01*
X493298Y290871D01*
X493265Y290728D01*
X493246Y290657D01*
X493227Y290599D01*
Y290592D01*
X493220Y290586D01*
X493201Y290547D01*
X493175Y290489D01*
X493129Y290417D01*
X493071Y290340D01*
X492993Y290256D01*
X492903Y290178D01*
X492799Y290100D01*
X492793D01*
X492786Y290094D01*
X492747Y290068D01*
X492682Y290042D01*
X492598Y290003D01*
X492501Y289971D01*
X492384Y289938D01*
X492261Y289919D01*
X492125Y289912D01*
X492119D01*
X492106D01*
X492080D01*
X492048Y289919D01*
X492002D01*
X491957Y289925D01*
X491847Y289951D01*
X491717Y289990D01*
X491581Y290042D01*
X491445Y290120D01*
X491381Y290171D01*
X491316Y290223D01*
X491309Y290230D01*
X491303Y290236D01*
X491283Y290256D01*
X491264Y290282D01*
X491238Y290314D01*
X491212Y290353D01*
X491180Y290405D01*
X491141Y290456D01*
X491109Y290521D01*
X491076Y290592D01*
X491037Y290670D01*
X491005Y290754D01*
X490979Y290851D01*
X490947Y290949D01*
X490927Y291059D01*
X490908Y291175D01*
X490901Y291162D01*
X490888Y291136D01*
X490862Y291098D01*
X490836Y291046D01*
X490765Y290929D01*
X490720Y290871D01*
X490681Y290819D01*
X490668Y290806D01*
X490636Y290774D01*
X490584Y290722D01*
X490519Y290657D01*
X490428Y290586D01*
X490331Y290502D01*
X490215Y290417D01*
X490085Y290327D01*
X488867Y289556D01*
Y290294D01*
X489800Y290884D01*
X489807D01*
X489820Y290897D01*
X489839Y290910D01*
X489865Y290929D01*
X489936Y290975D01*
X490027Y291033D01*
X490124Y291104D01*
X490228Y291175D01*
X490325Y291247D01*
X490415Y291311D01*
X490422Y291318D01*
X490448Y291337D01*
X490487Y291370D01*
X490532Y291415D01*
X490629Y291512D01*
X490675Y291564D01*
X490713Y291616D01*
X490720Y291622D01*
X490726Y291635D01*
X490739Y291661D01*
X490759Y291700D01*
X490778Y291739D01*
X490798Y291784D01*
X490830Y291888D01*
Y291894D01*
X490836Y291907D01*
Y291933D01*
X490843Y291966D01*
X490849Y292011D01*
Y292063D01*
X490856Y292134D01*
Y292898D01*
X488867D01*
Y293494D01*
X493349D01*
Y291415D01*
D02*
G37*
G36*
X491083Y289226D02*
X491173D01*
X491277Y289219D01*
X491400Y289206D01*
X491536Y289193D01*
X491685Y289174D01*
X491834Y289148D01*
X491996Y289116D01*
X492151Y289077D01*
X492307Y289032D01*
X492456Y288973D01*
X492598Y288908D01*
X492734Y288837D01*
X492851Y288753D01*
X492857Y288746D01*
X492870Y288734D01*
X492896Y288708D01*
X492935Y288675D01*
X492974Y288636D01*
X493013Y288584D01*
X493064Y288520D01*
X493110Y288455D01*
X493155Y288377D01*
X493207Y288293D01*
X493246Y288196D01*
X493291Y288099D01*
X493324Y287989D01*
X493349Y287872D01*
X493363Y287749D01*
X493369Y287619D01*
Y287568D01*
X493363Y287529D01*
Y287483D01*
X493356Y287432D01*
X493330Y287309D01*
X493298Y287173D01*
X493246Y287030D01*
X493168Y286888D01*
X493123Y286816D01*
X493071Y286751D01*
X493064Y286745D01*
X493058Y286739D01*
X493039Y286719D01*
X493019Y286700D01*
X492987Y286667D01*
X492948Y286641D01*
X492857Y286570D01*
X492741Y286499D01*
X492598Y286434D01*
X492436Y286376D01*
X492255Y286337D01*
X492210Y286888D01*
X492216D01*
X492223Y286894D01*
X492261Y286901D01*
X492320Y286920D01*
X492391Y286946D01*
X492469Y286972D01*
X492546Y287011D01*
X492618Y287056D01*
X492676Y287101D01*
X492689Y287114D01*
X492715Y287140D01*
X492754Y287185D01*
X492799Y287250D01*
X492838Y287334D01*
X492877Y287425D01*
X492903Y287535D01*
X492916Y287652D01*
Y287697D01*
X492909Y287749D01*
X492896Y287807D01*
X492877Y287885D01*
X492851Y287963D01*
X492818Y288041D01*
X492767Y288118D01*
X492760Y288131D01*
X492734Y288164D01*
X492689Y288209D01*
X492624Y288267D01*
X492546Y288332D01*
X492456Y288403D01*
X492339Y288468D01*
X492210Y288533D01*
X492203D01*
X492190Y288539D01*
X492171Y288546D01*
X492145Y288559D01*
X492106Y288565D01*
X492061Y288578D01*
X492009Y288591D01*
X491944Y288604D01*
X491873Y288623D01*
X491795Y288636D01*
X491711Y288649D01*
X491620Y288656D01*
X491516Y288669D01*
X491413Y288675D01*
X491296Y288682D01*
X491180D01*
X491186Y288675D01*
X491225Y288649D01*
X491277Y288604D01*
X491342Y288546D01*
X491419Y288481D01*
X491491Y288397D01*
X491562Y288306D01*
X491627Y288202D01*
Y288196D01*
X491633Y288189D01*
X491653Y288151D01*
X491672Y288092D01*
X491704Y288015D01*
X491730Y287924D01*
X491750Y287820D01*
X491769Y287710D01*
X491776Y287594D01*
Y287542D01*
X491769Y287503D01*
X491763Y287451D01*
X491756Y287399D01*
X491743Y287334D01*
X491724Y287270D01*
X491679Y287121D01*
X491646Y287043D01*
X491601Y286965D01*
X491555Y286888D01*
X491504Y286803D01*
X491439Y286726D01*
X491368Y286654D01*
X491361Y286648D01*
X491348Y286635D01*
X491329Y286616D01*
X491296Y286596D01*
X491251Y286564D01*
X491206Y286531D01*
X491147Y286499D01*
X491083Y286460D01*
X491011Y286421D01*
X490934Y286389D01*
X490843Y286357D01*
X490752Y286324D01*
X490655Y286305D01*
X490545Y286285D01*
X490435Y286272D01*
X490318Y286266D01*
X490312D01*
X490299D01*
X490279D01*
X490247D01*
X490208Y286272D01*
X490169D01*
X490066Y286292D01*
X489943Y286311D01*
X489813Y286343D01*
X489671Y286389D01*
X489535Y286454D01*
X489528D01*
X489522Y286460D01*
X489502Y286473D01*
X489476Y286486D01*
X489412Y286525D01*
X489327Y286583D01*
X489237Y286654D01*
X489146Y286739D01*
X489055Y286842D01*
X488978Y286952D01*
Y286959D01*
X488971Y286965D01*
X488958Y286985D01*
X488952Y287011D01*
X488919Y287075D01*
X488887Y287160D01*
X488848Y287270D01*
X488822Y287393D01*
X488796Y287529D01*
X488790Y287678D01*
Y287710D01*
X488796Y287743D01*
Y287794D01*
X488803Y287853D01*
X488816Y287917D01*
X488835Y287995D01*
X488854Y288073D01*
X488880Y288164D01*
X488913Y288254D01*
X488952Y288345D01*
X489003Y288442D01*
X489062Y288533D01*
X489127Y288623D01*
X489204Y288714D01*
X489295Y288798D01*
X489301Y288805D01*
X489321Y288818D01*
X489347Y288837D01*
X489392Y288863D01*
X489450Y288902D01*
X489515Y288934D01*
X489599Y288973D01*
X489690Y289012D01*
X489800Y289057D01*
X489923Y289096D01*
X490059Y289129D01*
X490208Y289161D01*
X490377Y289193D01*
X490558Y289213D01*
X490752Y289226D01*
X490960Y289232D01*
X490966D01*
X490973D01*
X490992D01*
X491018D01*
X491083Y289226D01*
D02*
G37*
G36*
X258851Y324774D02*
X258903Y324767D01*
X258961Y324761D01*
X259032Y324748D01*
X259104Y324735D01*
X259272Y324696D01*
X259447Y324632D01*
X259538Y324593D01*
X259622Y324541D01*
X259712Y324489D01*
X259797Y324424D01*
X259803Y324418D01*
X259822Y324405D01*
X259848Y324379D01*
X259881Y324347D01*
X259920Y324301D01*
X259971Y324249D01*
X260017Y324185D01*
X260069Y324113D01*
X260120Y324036D01*
X260166Y323945D01*
X260211Y323848D01*
X260256Y323744D01*
X260289Y323634D01*
X260315Y323511D01*
X260334Y323381D01*
X260341Y323245D01*
Y323187D01*
X260334Y323142D01*
X260328Y323090D01*
X260321Y323032D01*
X260315Y322960D01*
X260295Y322889D01*
X260256Y322727D01*
X260198Y322565D01*
X260159Y322481D01*
X260114Y322397D01*
X260062Y322319D01*
X260004Y322242D01*
X259997Y322235D01*
X259991Y322222D01*
X259965Y322209D01*
X259939Y322183D01*
X259907Y322151D01*
X259868Y322118D01*
X259816Y322080D01*
X259758Y322047D01*
X259699Y322008D01*
X259628Y321969D01*
X259473Y321898D01*
X259291Y321840D01*
X259194Y321820D01*
X259090Y321808D01*
X259045Y322384D01*
X259052D01*
X259065D01*
X259084Y322390D01*
X259116Y322397D01*
X259188Y322416D01*
X259285Y322442D01*
X259382Y322481D01*
X259492Y322533D01*
X259589Y322598D01*
X259680Y322675D01*
X259686Y322688D01*
X259712Y322714D01*
X259745Y322766D01*
X259784Y322837D01*
X259822Y322915D01*
X259855Y323012D01*
X259881Y323122D01*
X259887Y323245D01*
Y323284D01*
X259881Y323310D01*
X259874Y323388D01*
X259848Y323479D01*
X259816Y323589D01*
X259764Y323699D01*
X259686Y323815D01*
X259641Y323867D01*
X259589Y323919D01*
X259583Y323926D01*
X259576Y323932D01*
X259557Y323945D01*
X259538Y323964D01*
X259466Y324010D01*
X259375Y324062D01*
X259265Y324107D01*
X259129Y324152D01*
X258967Y324185D01*
X258883Y324198D01*
X258793D01*
X258786D01*
X258773D01*
X258747D01*
X258715Y324191D01*
X258676D01*
X258631Y324185D01*
X258527Y324165D01*
X258404Y324133D01*
X258281Y324087D01*
X258164Y324023D01*
X258054Y323932D01*
X258048D01*
X258041Y323919D01*
X258009Y323887D01*
X257964Y323828D01*
X257912Y323751D01*
X257866Y323647D01*
X257821Y323530D01*
X257789Y323394D01*
X257776Y323317D01*
Y323194D01*
X257782Y323142D01*
X257789Y323077D01*
X257808Y322999D01*
X257827Y322922D01*
X257860Y322837D01*
X257899Y322753D01*
X257905Y322747D01*
X257918Y322721D01*
X257951Y322682D01*
X257983Y322630D01*
X258028Y322578D01*
X258087Y322527D01*
X258145Y322468D01*
X258216Y322423D01*
X258145Y321905D01*
X255839Y322339D01*
Y324567D01*
X256364D01*
Y322773D01*
X257575Y322533D01*
X257568Y322539D01*
X257562Y322552D01*
X257549Y322572D01*
X257530Y322604D01*
X257510Y322643D01*
X257484Y322688D01*
X257432Y322792D01*
X257381Y322922D01*
X257335Y323064D01*
X257303Y323219D01*
X257290Y323297D01*
Y323440D01*
X257296Y323479D01*
X257303Y323530D01*
X257309Y323589D01*
X257322Y323653D01*
X257342Y323725D01*
X257387Y323880D01*
X257419Y323964D01*
X257465Y324049D01*
X257510Y324133D01*
X257562Y324217D01*
X257627Y324295D01*
X257698Y324372D01*
X257705Y324379D01*
X257717Y324392D01*
X257737Y324411D01*
X257769Y324437D01*
X257815Y324470D01*
X257860Y324502D01*
X257918Y324541D01*
X257983Y324580D01*
X258054Y324612D01*
X258132Y324651D01*
X258223Y324683D01*
X258313Y324716D01*
X258410Y324742D01*
X258521Y324761D01*
X258631Y324774D01*
X258747Y324781D01*
X258754D01*
X258773D01*
X258806D01*
X258851Y324774D01*
D02*
G37*
G36*
X260263Y320719D02*
X259330Y320130D01*
X259324D01*
X259311Y320117D01*
X259291Y320104D01*
X259265Y320085D01*
X259194Y320039D01*
X259104Y319981D01*
X259006Y319910D01*
X258903Y319839D01*
X258806Y319767D01*
X258715Y319702D01*
X258708Y319696D01*
X258682Y319677D01*
X258644Y319644D01*
X258598Y319599D01*
X258501Y319502D01*
X258456Y319450D01*
X258417Y319398D01*
X258410Y319392D01*
X258404Y319379D01*
X258391Y319353D01*
X258372Y319314D01*
X258352Y319275D01*
X258333Y319230D01*
X258300Y319126D01*
Y319120D01*
X258294Y319107D01*
Y319081D01*
X258287Y319048D01*
X258281Y319003D01*
Y318951D01*
X258274Y318880D01*
Y318116D01*
X260263D01*
Y317520D01*
X255781D01*
Y319599D01*
X255787Y319651D01*
Y319709D01*
X255794Y319845D01*
X255813Y319988D01*
X255833Y320143D01*
X255865Y320285D01*
X255884Y320357D01*
X255904Y320415D01*
Y320421D01*
X255910Y320428D01*
X255930Y320467D01*
X255956Y320525D01*
X256001Y320596D01*
X256059Y320674D01*
X256137Y320758D01*
X256228Y320836D01*
X256331Y320914D01*
X256338D01*
X256344Y320920D01*
X256383Y320946D01*
X256448Y320972D01*
X256532Y321011D01*
X256629Y321043D01*
X256746Y321076D01*
X256869Y321095D01*
X257005Y321101D01*
X257011D01*
X257024D01*
X257050D01*
X257083Y321095D01*
X257128D01*
X257173Y321089D01*
X257283Y321063D01*
X257413Y321024D01*
X257549Y320972D01*
X257685Y320894D01*
X257750Y320842D01*
X257815Y320791D01*
X257821Y320784D01*
X257827Y320778D01*
X257847Y320758D01*
X257866Y320732D01*
X257892Y320700D01*
X257918Y320661D01*
X257951Y320609D01*
X257990Y320557D01*
X258022Y320493D01*
X258054Y320421D01*
X258093Y320344D01*
X258125Y320260D01*
X258151Y320162D01*
X258184Y320065D01*
X258203Y319955D01*
X258223Y319839D01*
X258229Y319851D01*
X258242Y319877D01*
X258268Y319916D01*
X258294Y319968D01*
X258365Y320085D01*
X258410Y320143D01*
X258449Y320195D01*
X258462Y320208D01*
X258495Y320240D01*
X258547Y320292D01*
X258611Y320357D01*
X258702Y320428D01*
X258799Y320512D01*
X258916Y320596D01*
X259045Y320687D01*
X260263Y321458D01*
Y320719D01*
D02*
G37*
G36*
X112777Y277221D02*
X112829Y277214D01*
X112887Y277201D01*
X112952Y277188D01*
X113023Y277175D01*
X113178Y277124D01*
X113263Y277085D01*
X113340Y277046D01*
X113425Y276994D01*
X113509Y276936D01*
X113593Y276871D01*
X113671Y276793D01*
X113677Y276787D01*
X113690Y276774D01*
X113709Y276748D01*
X113735Y276716D01*
X113768Y276677D01*
X113800Y276625D01*
X113839Y276567D01*
X113871Y276495D01*
X113910Y276424D01*
X113949Y276340D01*
X113982Y276256D01*
X114014Y276159D01*
X114040Y276055D01*
X114059Y275945D01*
X114072Y275835D01*
X114079Y275712D01*
Y275653D01*
X114072Y275614D01*
X114066Y275563D01*
X114059Y275504D01*
X114046Y275439D01*
X114033Y275368D01*
X113995Y275213D01*
X113930Y275051D01*
X113891Y274967D01*
X113846Y274889D01*
X113787Y274811D01*
X113729Y274734D01*
X113722Y274727D01*
X113709Y274714D01*
X113690Y274695D01*
X113664Y274675D01*
X113632Y274643D01*
X113586Y274611D01*
X113541Y274572D01*
X113483Y274533D01*
X113418Y274494D01*
X113353Y274455D01*
X113198Y274384D01*
X113017Y274326D01*
X112919Y274306D01*
X112816Y274293D01*
X112744Y274844D01*
X112751D01*
X112764Y274850D01*
X112790Y274857D01*
X112822Y274863D01*
X112861Y274870D01*
X112906Y274883D01*
X113004Y274915D01*
X113120Y274960D01*
X113230Y275019D01*
X113334Y275083D01*
X113425Y275161D01*
X113431Y275174D01*
X113457Y275200D01*
X113489Y275252D01*
X113522Y275317D01*
X113560Y275394D01*
X113593Y275491D01*
X113619Y275602D01*
X113625Y275718D01*
Y275757D01*
X113619Y275783D01*
X113612Y275854D01*
X113593Y275945D01*
X113560Y276048D01*
X113515Y276159D01*
X113450Y276269D01*
X113360Y276372D01*
X113347Y276385D01*
X113308Y276418D01*
X113250Y276456D01*
X113172Y276508D01*
X113075Y276560D01*
X112965Y276599D01*
X112835Y276631D01*
X112693Y276644D01*
X112686D01*
X112673D01*
X112654D01*
X112628Y276638D01*
X112557Y276631D01*
X112472Y276612D01*
X112369Y276586D01*
X112265Y276541D01*
X112162Y276476D01*
X112064Y276392D01*
X112051Y276379D01*
X112025Y276346D01*
X111987Y276294D01*
X111941Y276223D01*
X111896Y276133D01*
X111857Y276022D01*
X111831Y275899D01*
X111818Y275763D01*
Y275705D01*
X111825Y275660D01*
X111831Y275602D01*
X111844Y275537D01*
X111857Y275459D01*
X111876Y275375D01*
X111391Y275439D01*
Y275472D01*
X111397Y275498D01*
Y275582D01*
X111384Y275653D01*
X111371Y275737D01*
X111352Y275835D01*
X111320Y275945D01*
X111274Y276048D01*
X111216Y276159D01*
Y276165D01*
X111209Y276171D01*
X111184Y276204D01*
X111138Y276249D01*
X111080Y276301D01*
X110996Y276353D01*
X110899Y276398D01*
X110788Y276430D01*
X110724Y276444D01*
X110652D01*
X110646D01*
X110639D01*
X110601D01*
X110549Y276430D01*
X110478Y276418D01*
X110400Y276392D01*
X110316Y276359D01*
X110231Y276307D01*
X110154Y276236D01*
X110147Y276230D01*
X110121Y276197D01*
X110089Y276152D01*
X110050Y276094D01*
X110018Y276016D01*
X109985Y275925D01*
X109959Y275822D01*
X109953Y275705D01*
Y275653D01*
X109966Y275595D01*
X109979Y275517D01*
X110005Y275433D01*
X110037Y275349D01*
X110089Y275258D01*
X110154Y275174D01*
X110160Y275168D01*
X110192Y275142D01*
X110238Y275103D01*
X110303Y275057D01*
X110387Y275012D01*
X110490Y274967D01*
X110613Y274928D01*
X110756Y274902D01*
X110659Y274351D01*
X110652D01*
X110633Y274358D01*
X110607Y274364D01*
X110568Y274371D01*
X110523Y274384D01*
X110471Y274403D01*
X110348Y274442D01*
X110205Y274507D01*
X110063Y274585D01*
X109927Y274682D01*
X109804Y274805D01*
X109797Y274811D01*
X109791Y274824D01*
X109778Y274844D01*
X109759Y274870D01*
X109733Y274902D01*
X109707Y274947D01*
X109681Y274993D01*
X109648Y275051D01*
X109597Y275180D01*
X109545Y275329D01*
X109512Y275504D01*
X109500Y275595D01*
Y275757D01*
X109506Y275828D01*
X109519Y275912D01*
X109538Y276016D01*
X109571Y276133D01*
X109610Y276249D01*
X109661Y276366D01*
Y276372D01*
X109668Y276379D01*
X109687Y276418D01*
X109726Y276476D01*
X109771Y276541D01*
X109836Y276618D01*
X109908Y276696D01*
X109992Y276774D01*
X110089Y276839D01*
X110102Y276845D01*
X110134Y276864D01*
X110192Y276890D01*
X110264Y276923D01*
X110348Y276955D01*
X110445Y276981D01*
X110555Y277001D01*
X110665Y277007D01*
X110678D01*
X110717D01*
X110769Y277001D01*
X110840Y276987D01*
X110924Y276968D01*
X111015Y276936D01*
X111106Y276897D01*
X111196Y276845D01*
X111209Y276839D01*
X111235Y276819D01*
X111281Y276780D01*
X111332Y276728D01*
X111391Y276664D01*
X111455Y276586D01*
X111514Y276495D01*
X111572Y276385D01*
Y276392D01*
X111579Y276405D01*
X111585Y276424D01*
X111592Y276450D01*
X111617Y276521D01*
X111656Y276612D01*
X111708Y276716D01*
X111773Y276819D01*
X111857Y276916D01*
X111954Y277007D01*
X111967Y277013D01*
X112006Y277039D01*
X112071Y277078D01*
X112155Y277117D01*
X112259Y277156D01*
X112382Y277195D01*
X112524Y277221D01*
X112680Y277227D01*
X112686D01*
X112706D01*
X112738D01*
X112777Y277221D01*
D02*
G37*
G36*
X112822Y273743D02*
X112867Y273736D01*
X112926Y273730D01*
X112991Y273717D01*
X113062Y273697D01*
X113211Y273652D01*
X113295Y273619D01*
X113373Y273574D01*
X113457Y273529D01*
X113535Y273477D01*
X113612Y273412D01*
X113690Y273341D01*
X113696Y273335D01*
X113709Y273322D01*
X113729Y273302D01*
X113748Y273270D01*
X113781Y273224D01*
X113813Y273179D01*
X113846Y273121D01*
X113884Y273056D01*
X113923Y272985D01*
X113956Y272901D01*
X113988Y272810D01*
X114020Y272719D01*
X114040Y272616D01*
X114059Y272505D01*
X114072Y272395D01*
X114079Y272272D01*
Y272208D01*
X114072Y272162D01*
X114066Y272104D01*
X114059Y272039D01*
X114046Y271968D01*
X114027Y271890D01*
X113982Y271715D01*
X113949Y271625D01*
X113917Y271540D01*
X113871Y271450D01*
X113820Y271359D01*
X113761Y271275D01*
X113690Y271197D01*
X113684Y271191D01*
X113671Y271178D01*
X113651Y271158D01*
X113619Y271132D01*
X113580Y271106D01*
X113535Y271068D01*
X113483Y271035D01*
X113418Y270996D01*
X113353Y270957D01*
X113275Y270925D01*
X113114Y270860D01*
X113017Y270834D01*
X112919Y270815D01*
X112816Y270802D01*
X112712Y270795D01*
X112706D01*
X112693D01*
X112667D01*
X112641Y270802D01*
X112602D01*
X112557Y270809D01*
X112453Y270821D01*
X112336Y270847D01*
X112220Y270886D01*
X112097Y270944D01*
X111980Y271016D01*
X111974D01*
X111967Y271029D01*
X111935Y271055D01*
X111883Y271106D01*
X111818Y271178D01*
X111753Y271268D01*
X111682Y271378D01*
X111624Y271502D01*
X111579Y271651D01*
Y271644D01*
X111572Y271637D01*
X111566Y271618D01*
X111553Y271592D01*
X111527Y271534D01*
X111488Y271456D01*
X111436Y271372D01*
X111371Y271288D01*
X111300Y271210D01*
X111222Y271139D01*
X111209Y271132D01*
X111184Y271113D01*
X111132Y271087D01*
X111067Y271061D01*
X110983Y271029D01*
X110885Y271003D01*
X110775Y270983D01*
X110659Y270977D01*
X110652D01*
X110639D01*
X110613D01*
X110575Y270983D01*
X110536Y270990D01*
X110484Y270996D01*
X110374Y271022D01*
X110244Y271061D01*
X110108Y271126D01*
X110037Y271165D01*
X109966Y271210D01*
X109901Y271268D01*
X109836Y271327D01*
X109830Y271333D01*
X109823Y271346D01*
X109804Y271366D01*
X109784Y271391D01*
X109759Y271424D01*
X109733Y271469D01*
X109700Y271521D01*
X109668Y271573D01*
X109635Y271637D01*
X109603Y271709D01*
X109577Y271786D01*
X109551Y271871D01*
X109512Y272052D01*
X109506Y272156D01*
X109500Y272259D01*
Y272318D01*
X109506Y272356D01*
X109512Y272408D01*
X109519Y272467D01*
X109525Y272531D01*
X109545Y272596D01*
X109584Y272752D01*
X109642Y272907D01*
X109681Y272985D01*
X109726Y273062D01*
X109784Y273134D01*
X109843Y273205D01*
X109849Y273211D01*
X109856Y273218D01*
X109875Y273237D01*
X109901Y273263D01*
X109940Y273289D01*
X109979Y273322D01*
X110076Y273386D01*
X110199Y273451D01*
X110342Y273509D01*
X110503Y273555D01*
X110588Y273561D01*
X110678Y273568D01*
X110685D01*
X110691D01*
X110730D01*
X110788Y273561D01*
X110860Y273548D01*
X110950Y273529D01*
X111041Y273496D01*
X111132Y273458D01*
X111222Y273399D01*
X111235Y273393D01*
X111261Y273367D01*
X111300Y273328D01*
X111352Y273276D01*
X111410Y273205D01*
X111468Y273121D01*
X111527Y273024D01*
X111579Y272907D01*
Y272913D01*
X111585Y272927D01*
X111592Y272946D01*
X111604Y272972D01*
X111637Y273050D01*
X111682Y273140D01*
X111747Y273237D01*
X111818Y273341D01*
X111909Y273438D01*
X112013Y273529D01*
X112019D01*
X112025Y273535D01*
X112064Y273561D01*
X112129Y273600D01*
X112213Y273639D01*
X112317Y273678D01*
X112440Y273717D01*
X112576Y273743D01*
X112725Y273749D01*
X112732D01*
X112751D01*
X112783D01*
X112822Y273743D01*
D02*
G37*
G36*
X112615Y270290D02*
X112654Y270277D01*
X112706Y270258D01*
X112764Y270238D01*
X112835Y270213D01*
X112913Y270180D01*
X112997Y270141D01*
X113178Y270051D01*
X113360Y269934D01*
X113450Y269863D01*
X113541Y269792D01*
X113619Y269714D01*
X113696Y269623D01*
X113703Y269617D01*
X113716Y269604D01*
X113729Y269571D01*
X113755Y269539D01*
X113787Y269487D01*
X113820Y269435D01*
X113852Y269364D01*
X113884Y269293D01*
X113923Y269209D01*
X113956Y269118D01*
X113988Y269021D01*
X114020Y268917D01*
X114046Y268807D01*
X114059Y268690D01*
X114072Y268567D01*
X114079Y268438D01*
Y268367D01*
X114072Y268315D01*
Y268256D01*
X114066Y268185D01*
X114053Y268108D01*
X114040Y268017D01*
X114007Y267829D01*
X113956Y267635D01*
X113884Y267440D01*
X113839Y267350D01*
X113787Y267259D01*
X113781Y267253D01*
X113774Y267240D01*
X113755Y267214D01*
X113729Y267188D01*
X113703Y267149D01*
X113664Y267104D01*
X113619Y267052D01*
X113567Y267000D01*
X113509Y266948D01*
X113450Y266890D01*
X113301Y266773D01*
X113127Y266663D01*
X112932Y266566D01*
X112926D01*
X112906Y266553D01*
X112874Y266547D01*
X112835Y266527D01*
X112783Y266514D01*
X112718Y266495D01*
X112647Y266469D01*
X112570Y266450D01*
X112485Y266430D01*
X112388Y266404D01*
X112187Y266372D01*
X111961Y266346D01*
X111728Y266333D01*
X111721D01*
X111695D01*
X111656D01*
X111611Y266339D01*
X111546D01*
X111481Y266346D01*
X111397Y266352D01*
X111313Y266365D01*
X111125Y266398D01*
X110918Y266443D01*
X110711Y266508D01*
X110510Y266598D01*
X110503Y266605D01*
X110484Y266611D01*
X110458Y266624D01*
X110426Y266650D01*
X110380Y266676D01*
X110329Y266709D01*
X110212Y266793D01*
X110082Y266903D01*
X109953Y267032D01*
X109823Y267181D01*
X109713Y267356D01*
X109707Y267363D01*
X109700Y267382D01*
X109687Y267408D01*
X109668Y267440D01*
X109648Y267492D01*
X109629Y267544D01*
X109603Y267609D01*
X109577Y267680D01*
X109551Y267758D01*
X109525Y267842D01*
X109487Y268023D01*
X109454Y268231D01*
X109441Y268444D01*
Y268509D01*
X109448Y268554D01*
X109454Y268613D01*
X109461Y268684D01*
X109467Y268755D01*
X109487Y268839D01*
X109525Y269014D01*
X109584Y269209D01*
X109622Y269306D01*
X109668Y269396D01*
X109726Y269487D01*
X109784Y269578D01*
X109791Y269584D01*
X109797Y269597D01*
X109817Y269623D01*
X109849Y269656D01*
X109882Y269688D01*
X109927Y269733D01*
X109979Y269779D01*
X110031Y269830D01*
X110095Y269882D01*
X110173Y269934D01*
X110251Y269992D01*
X110335Y270044D01*
X110432Y270089D01*
X110529Y270141D01*
X110633Y270180D01*
X110750Y270219D01*
X110885Y269636D01*
X110879D01*
X110866Y269630D01*
X110840Y269617D01*
X110808Y269604D01*
X110769Y269591D01*
X110717Y269571D01*
X110613Y269520D01*
X110497Y269455D01*
X110380Y269377D01*
X110270Y269280D01*
X110173Y269176D01*
X110160Y269163D01*
X110134Y269125D01*
X110102Y269060D01*
X110056Y268976D01*
X110018Y268865D01*
X109979Y268742D01*
X109953Y268593D01*
X109946Y268431D01*
Y268380D01*
X109953Y268347D01*
Y268302D01*
X109959Y268250D01*
X109979Y268127D01*
X110005Y267991D01*
X110050Y267848D01*
X110115Y267700D01*
X110199Y267563D01*
Y267557D01*
X110212Y267551D01*
X110244Y267505D01*
X110296Y267447D01*
X110374Y267376D01*
X110471Y267292D01*
X110581Y267214D01*
X110717Y267143D01*
X110866Y267078D01*
X110873D01*
X110885Y267071D01*
X110905Y267065D01*
X110937Y267058D01*
X110976Y267045D01*
X111021Y267032D01*
X111132Y267013D01*
X111261Y266987D01*
X111404Y266961D01*
X111559Y266948D01*
X111728Y266942D01*
X111734D01*
X111753D01*
X111786D01*
X111825D01*
X111870Y266948D01*
X111928D01*
X111993Y266955D01*
X112064Y266961D01*
X112220Y266981D01*
X112388Y267013D01*
X112557Y267052D01*
X112725Y267104D01*
X112732D01*
X112744Y267110D01*
X112764Y267123D01*
X112796Y267136D01*
X112874Y267175D01*
X112965Y267233D01*
X113068Y267304D01*
X113178Y267395D01*
X113275Y267499D01*
X113366Y267622D01*
Y267628D01*
X113373Y267641D01*
X113386Y267661D01*
X113399Y267687D01*
X113412Y267719D01*
X113431Y267758D01*
X113470Y267848D01*
X113509Y267965D01*
X113541Y268095D01*
X113567Y268237D01*
X113574Y268386D01*
Y268431D01*
X113567Y268470D01*
Y268516D01*
X113560Y268561D01*
X113535Y268678D01*
X113502Y268814D01*
X113450Y268950D01*
X113379Y269092D01*
X113340Y269163D01*
X113288Y269228D01*
X113282Y269235D01*
X113275Y269241D01*
X113256Y269261D01*
X113237Y269286D01*
X113204Y269312D01*
X113165Y269345D01*
X113127Y269384D01*
X113075Y269416D01*
X113017Y269455D01*
X112952Y269500D01*
X112887Y269539D01*
X112809Y269578D01*
X112725Y269610D01*
X112634Y269643D01*
X112537Y269675D01*
X112434Y269701D01*
X112583Y270297D01*
X112589D01*
X112615Y270290D01*
D02*
G37*
G36*
X452830Y341402D02*
X452875D01*
X452927Y341396D01*
X453050Y341370D01*
X453186Y341337D01*
X453329Y341286D01*
X453471Y341214D01*
X453543Y341169D01*
X453607Y341117D01*
X453614Y341111D01*
X453620Y341104D01*
X453640Y341085D01*
X453659Y341065D01*
X453685Y341033D01*
X453717Y340994D01*
X453782Y340904D01*
X453847Y340787D01*
X453912Y340644D01*
X453964Y340482D01*
X454002Y340295D01*
X453471Y340249D01*
Y340256D01*
X453465Y340269D01*
Y340282D01*
X453458Y340308D01*
X453439Y340379D01*
X453413Y340457D01*
X453381Y340547D01*
X453335Y340638D01*
X453283Y340722D01*
X453219Y340793D01*
X453212Y340800D01*
X453186Y340819D01*
X453141Y340845D01*
X453089Y340871D01*
X453018Y340904D01*
X452934Y340929D01*
X452836Y340949D01*
X452733Y340955D01*
X452688D01*
X452642Y340949D01*
X452584Y340942D01*
X452513Y340929D01*
X452441Y340910D01*
X452364Y340884D01*
X452293Y340845D01*
X452286Y340839D01*
X452260Y340826D01*
X452221Y340800D01*
X452182Y340761D01*
X452131Y340716D01*
X452079Y340664D01*
X452027Y340606D01*
X451975Y340534D01*
X451969Y340528D01*
X451956Y340495D01*
X451930Y340450D01*
X451904Y340392D01*
X451871Y340314D01*
X451839Y340223D01*
X451807Y340120D01*
X451774Y340003D01*
Y339997D01*
X451768Y339990D01*
Y339971D01*
X451761Y339945D01*
X451748Y339880D01*
X451729Y339796D01*
X451716Y339692D01*
X451703Y339582D01*
X451697Y339459D01*
X451690Y339330D01*
Y339323D01*
Y339304D01*
Y339271D01*
Y339220D01*
X451697Y339232D01*
X451722Y339265D01*
X451761Y339310D01*
X451807Y339375D01*
X451871Y339440D01*
X451949Y339511D01*
X452040Y339582D01*
X452144Y339647D01*
X452156Y339653D01*
X452195Y339673D01*
X452254Y339699D01*
X452325Y339725D01*
X452422Y339757D01*
X452526Y339783D01*
X452642Y339802D01*
X452765Y339809D01*
X452817D01*
X452856Y339802D01*
X452908Y339796D01*
X452960Y339789D01*
X453024Y339776D01*
X453089Y339757D01*
X453238Y339712D01*
X453316Y339679D01*
X453394Y339641D01*
X453478Y339595D01*
X453555Y339537D01*
X453633Y339478D01*
X453704Y339407D01*
X453711Y339401D01*
X453724Y339388D01*
X453737Y339368D01*
X453763Y339336D01*
X453795Y339291D01*
X453828Y339245D01*
X453860Y339187D01*
X453892Y339122D01*
X453931Y339051D01*
X453964Y338973D01*
X453996Y338883D01*
X454028Y338792D01*
X454054Y338688D01*
X454067Y338578D01*
X454080Y338468D01*
X454087Y338345D01*
Y338339D01*
Y338313D01*
Y338280D01*
X454080Y338235D01*
X454074Y338177D01*
X454067Y338105D01*
X454054Y338034D01*
X454035Y337950D01*
X453989Y337782D01*
X453957Y337691D01*
X453918Y337594D01*
X453873Y337503D01*
X453815Y337419D01*
X453756Y337328D01*
X453685Y337251D01*
X453679Y337244D01*
X453666Y337231D01*
X453646Y337212D01*
X453614Y337186D01*
X453575Y337153D01*
X453523Y337114D01*
X453471Y337082D01*
X453406Y337037D01*
X453342Y336998D01*
X453264Y336965D01*
X453089Y336894D01*
X452999Y336868D01*
X452895Y336849D01*
X452791Y336836D01*
X452681Y336829D01*
X452636D01*
X452603Y336836D01*
X452571D01*
X452526Y336842D01*
X452416Y336862D01*
X452293Y336888D01*
X452156Y336933D01*
X452020Y336991D01*
X451884Y337069D01*
X451878D01*
X451871Y337082D01*
X451852Y337095D01*
X451826Y337114D01*
X451761Y337166D01*
X451677Y337238D01*
X451593Y337335D01*
X451496Y337451D01*
X451412Y337587D01*
X451334Y337743D01*
Y337749D01*
X451327Y337762D01*
X451314Y337788D01*
X451301Y337820D01*
X451288Y337866D01*
X451269Y337924D01*
X451256Y337989D01*
X451237Y338060D01*
X451217Y338144D01*
X451198Y338241D01*
X451185Y338345D01*
X451172Y338455D01*
X451159Y338578D01*
X451146Y338708D01*
X451140Y338850D01*
Y338999D01*
Y339006D01*
Y339038D01*
Y339083D01*
Y339142D01*
X451146Y339213D01*
Y339297D01*
X451152Y339394D01*
X451166Y339492D01*
X451185Y339712D01*
X451217Y339945D01*
X451263Y340165D01*
X451295Y340275D01*
X451327Y340372D01*
Y340379D01*
X451334Y340392D01*
X451347Y340418D01*
X451360Y340457D01*
X451379Y340495D01*
X451405Y340547D01*
X451470Y340657D01*
X451548Y340780D01*
X451638Y340910D01*
X451755Y341033D01*
X451884Y341143D01*
X451891D01*
X451904Y341156D01*
X451923Y341169D01*
X451949Y341182D01*
X451988Y341201D01*
X452027Y341227D01*
X452079Y341253D01*
X452131Y341273D01*
X452254Y341325D01*
X452403Y341370D01*
X452565Y341396D01*
X452746Y341409D01*
X452798D01*
X452830Y341402D01*
D02*
G37*
G36*
X460058D02*
X460117D01*
X460188Y341396D01*
X460266Y341383D01*
X460356Y341370D01*
X460544Y341337D01*
X460738Y341286D01*
X460933Y341214D01*
X461023Y341169D01*
X461114Y341117D01*
X461121Y341111D01*
X461134Y341104D01*
X461160Y341085D01*
X461185Y341059D01*
X461224Y341033D01*
X461270Y340994D01*
X461321Y340949D01*
X461373Y340897D01*
X461425Y340839D01*
X461483Y340780D01*
X461600Y340631D01*
X461710Y340457D01*
X461807Y340262D01*
Y340256D01*
X461820Y340236D01*
X461827Y340204D01*
X461846Y340165D01*
X461859Y340113D01*
X461878Y340048D01*
X461904Y339977D01*
X461924Y339899D01*
X461943Y339815D01*
X461969Y339718D01*
X462001Y339517D01*
X462027Y339291D01*
X462040Y339058D01*
Y339051D01*
Y339025D01*
Y338986D01*
X462034Y338941D01*
Y338876D01*
X462027Y338811D01*
X462021Y338727D01*
X462008Y338643D01*
X461976Y338455D01*
X461930Y338248D01*
X461866Y338041D01*
X461775Y337840D01*
X461768Y337833D01*
X461762Y337814D01*
X461749Y337788D01*
X461723Y337756D01*
X461697Y337710D01*
X461665Y337659D01*
X461581Y337542D01*
X461470Y337412D01*
X461341Y337283D01*
X461192Y337153D01*
X461017Y337043D01*
X461011Y337037D01*
X460991Y337030D01*
X460965Y337017D01*
X460933Y336998D01*
X460881Y336978D01*
X460829Y336959D01*
X460764Y336933D01*
X460693Y336907D01*
X460615Y336881D01*
X460531Y336855D01*
X460350Y336816D01*
X460143Y336784D01*
X459929Y336771D01*
X459864D01*
X459819Y336778D01*
X459760Y336784D01*
X459689Y336791D01*
X459618Y336797D01*
X459534Y336816D01*
X459359Y336855D01*
X459165Y336914D01*
X459067Y336953D01*
X458977Y336998D01*
X458886Y337056D01*
X458795Y337114D01*
X458789Y337121D01*
X458776Y337127D01*
X458750Y337147D01*
X458718Y337179D01*
X458685Y337212D01*
X458640Y337257D01*
X458595Y337309D01*
X458543Y337361D01*
X458491Y337425D01*
X458439Y337503D01*
X458381Y337581D01*
X458329Y337665D01*
X458284Y337762D01*
X458232Y337859D01*
X458193Y337963D01*
X458154Y338079D01*
X458737Y338215D01*
Y338209D01*
X458744Y338196D01*
X458756Y338170D01*
X458769Y338138D01*
X458782Y338099D01*
X458802Y338047D01*
X458854Y337943D01*
X458918Y337827D01*
X458996Y337710D01*
X459093Y337600D01*
X459197Y337503D01*
X459210Y337490D01*
X459249Y337464D01*
X459314Y337432D01*
X459398Y337387D01*
X459508Y337348D01*
X459631Y337309D01*
X459780Y337283D01*
X459942Y337276D01*
X459994D01*
X460026Y337283D01*
X460071D01*
X460123Y337289D01*
X460246Y337309D01*
X460382Y337335D01*
X460525Y337380D01*
X460674Y337445D01*
X460810Y337529D01*
X460816D01*
X460823Y337542D01*
X460868Y337574D01*
X460926Y337626D01*
X460998Y337704D01*
X461082Y337801D01*
X461160Y337911D01*
X461231Y338047D01*
X461296Y338196D01*
Y338203D01*
X461302Y338215D01*
X461308Y338235D01*
X461315Y338267D01*
X461328Y338306D01*
X461341Y338352D01*
X461360Y338462D01*
X461386Y338591D01*
X461412Y338734D01*
X461425Y338889D01*
X461432Y339058D01*
Y339064D01*
Y339083D01*
Y339116D01*
Y339155D01*
X461425Y339200D01*
Y339258D01*
X461419Y339323D01*
X461412Y339394D01*
X461393Y339550D01*
X461360Y339718D01*
X461321Y339887D01*
X461270Y340055D01*
Y340061D01*
X461263Y340074D01*
X461250Y340094D01*
X461237Y340126D01*
X461198Y340204D01*
X461140Y340295D01*
X461069Y340398D01*
X460978Y340508D01*
X460874Y340606D01*
X460751Y340696D01*
X460745D01*
X460732Y340703D01*
X460713Y340716D01*
X460687Y340729D01*
X460654Y340742D01*
X460615Y340761D01*
X460525Y340800D01*
X460408Y340839D01*
X460279Y340871D01*
X460136Y340897D01*
X459987Y340904D01*
X459942D01*
X459903Y340897D01*
X459858D01*
X459812Y340891D01*
X459696Y340865D01*
X459560Y340832D01*
X459424Y340780D01*
X459281Y340709D01*
X459210Y340670D01*
X459145Y340619D01*
X459139Y340612D01*
X459132Y340606D01*
X459113Y340586D01*
X459087Y340567D01*
X459061Y340534D01*
X459029Y340495D01*
X458990Y340457D01*
X458957Y340405D01*
X458918Y340346D01*
X458873Y340282D01*
X458834Y340217D01*
X458795Y340139D01*
X458763Y340055D01*
X458731Y339964D01*
X458698Y339867D01*
X458672Y339763D01*
X458076Y339912D01*
Y339919D01*
X458083Y339945D01*
X458096Y339984D01*
X458115Y340036D01*
X458135Y340094D01*
X458161Y340165D01*
X458193Y340243D01*
X458232Y340327D01*
X458323Y340508D01*
X458439Y340690D01*
X458510Y340780D01*
X458582Y340871D01*
X458659Y340949D01*
X458750Y341026D01*
X458756Y341033D01*
X458769Y341046D01*
X458802Y341059D01*
X458834Y341085D01*
X458886Y341117D01*
X458938Y341150D01*
X459009Y341182D01*
X459080Y341214D01*
X459165Y341253D01*
X459255Y341286D01*
X459352Y341318D01*
X459456Y341350D01*
X459566Y341376D01*
X459683Y341389D01*
X459806Y341402D01*
X459935Y341409D01*
X460007D01*
X460058Y341402D01*
D02*
G37*
G36*
X457649Y341325D02*
Y341299D01*
Y341260D01*
X457643Y341208D01*
X457636Y341150D01*
X457623Y341085D01*
X457610Y341020D01*
X457584Y340949D01*
Y340942D01*
X457578Y340936D01*
X457565Y340897D01*
X457539Y340839D01*
X457500Y340761D01*
X457448Y340670D01*
X457383Y340567D01*
X457312Y340463D01*
X457221Y340353D01*
Y340346D01*
X457209Y340340D01*
X457176Y340301D01*
X457118Y340243D01*
X457034Y340159D01*
X456936Y340061D01*
X456813Y339945D01*
X456664Y339815D01*
X456502Y339679D01*
X456496Y339673D01*
X456470Y339653D01*
X456431Y339621D01*
X456386Y339582D01*
X456328Y339530D01*
X456256Y339472D01*
X456185Y339407D01*
X456101Y339336D01*
X455939Y339181D01*
X455777Y339025D01*
X455699Y338947D01*
X455628Y338870D01*
X455563Y338798D01*
X455512Y338727D01*
Y338721D01*
X455499Y338714D01*
X455486Y338695D01*
X455473Y338669D01*
X455427Y338598D01*
X455376Y338513D01*
X455330Y338410D01*
X455285Y338300D01*
X455259Y338177D01*
X455246Y338060D01*
Y338054D01*
Y338047D01*
X455252Y338008D01*
X455259Y337943D01*
X455278Y337872D01*
X455304Y337782D01*
X455350Y337691D01*
X455408Y337600D01*
X455486Y337509D01*
X455499Y337497D01*
X455531Y337471D01*
X455576Y337438D01*
X455648Y337393D01*
X455738Y337354D01*
X455842Y337315D01*
X455965Y337289D01*
X456101Y337283D01*
X456140D01*
X456166Y337289D01*
X456243Y337296D01*
X456334Y337315D01*
X456431Y337341D01*
X456541Y337387D01*
X456645Y337445D01*
X456742Y337523D01*
X456755Y337535D01*
X456781Y337568D01*
X456820Y337620D01*
X456859Y337697D01*
X456904Y337788D01*
X456943Y337905D01*
X456969Y338034D01*
X456982Y338183D01*
X457545Y338125D01*
Y338118D01*
X457539Y338099D01*
Y338067D01*
X457532Y338021D01*
X457519Y337969D01*
X457506Y337911D01*
X457487Y337840D01*
X457468Y337769D01*
X457416Y337613D01*
X457338Y337458D01*
X457293Y337380D01*
X457234Y337302D01*
X457176Y337231D01*
X457111Y337166D01*
X457105Y337160D01*
X457092Y337153D01*
X457072Y337134D01*
X457040Y337114D01*
X457001Y337089D01*
X456956Y337063D01*
X456904Y337030D01*
X456839Y336998D01*
X456768Y336965D01*
X456690Y336933D01*
X456606Y336907D01*
X456516Y336881D01*
X456418Y336862D01*
X456315Y336842D01*
X456205Y336836D01*
X456088Y336829D01*
X456023D01*
X455978Y336836D01*
X455926Y336842D01*
X455861Y336849D01*
X455790Y336862D01*
X455719Y336875D01*
X455550Y336920D01*
X455382Y336985D01*
X455298Y337024D01*
X455214Y337069D01*
X455136Y337127D01*
X455065Y337192D01*
X455058Y337199D01*
X455045Y337205D01*
X455032Y337231D01*
X455006Y337257D01*
X454974Y337289D01*
X454942Y337335D01*
X454909Y337380D01*
X454870Y337438D01*
X454805Y337561D01*
X454741Y337717D01*
X454715Y337794D01*
X454702Y337885D01*
X454689Y337976D01*
X454683Y338073D01*
Y338086D01*
Y338118D01*
X454689Y338170D01*
X454695Y338241D01*
X454708Y338319D01*
X454734Y338410D01*
X454760Y338507D01*
X454799Y338604D01*
X454805Y338617D01*
X454818Y338649D01*
X454844Y338701D01*
X454883Y338773D01*
X454935Y338850D01*
X455000Y338947D01*
X455078Y339045D01*
X455168Y339155D01*
X455181Y339168D01*
X455214Y339207D01*
X455246Y339239D01*
X455278Y339271D01*
X455317Y339310D01*
X455369Y339362D01*
X455421Y339414D01*
X455486Y339472D01*
X455550Y339537D01*
X455628Y339608D01*
X455712Y339679D01*
X455803Y339763D01*
X455907Y339848D01*
X456010Y339938D01*
X456017Y339945D01*
X456030Y339958D01*
X456056Y339977D01*
X456088Y340003D01*
X456127Y340042D01*
X456172Y340081D01*
X456276Y340165D01*
X456386Y340262D01*
X456490Y340359D01*
X456580Y340444D01*
X456619Y340476D01*
X456651Y340508D01*
X456658Y340515D01*
X456677Y340534D01*
X456703Y340560D01*
X456736Y340599D01*
X456768Y340644D01*
X456807Y340690D01*
X456885Y340800D01*
X454676D01*
Y341331D01*
X457649D01*
Y341325D01*
D02*
G37*
G36*
X450999Y295664D02*
X451064D01*
X451129Y295657D01*
X451213Y295651D01*
X451297Y295638D01*
X451485Y295606D01*
X451692Y295560D01*
X451899Y295495D01*
X452100Y295405D01*
X452107Y295398D01*
X452126Y295392D01*
X452152Y295379D01*
X452184Y295353D01*
X452230Y295327D01*
X452281Y295295D01*
X452398Y295210D01*
X452528Y295100D01*
X452657Y294971D01*
X452787Y294822D01*
X452897Y294647D01*
X452903Y294641D01*
X452910Y294621D01*
X452923Y294595D01*
X452942Y294563D01*
X452962Y294511D01*
X452981Y294459D01*
X453007Y294394D01*
X453033Y294323D01*
X453059Y294245D01*
X453085Y294161D01*
X453123Y293980D01*
X453156Y293773D01*
X453169Y293559D01*
Y293494D01*
X453162Y293449D01*
X453156Y293390D01*
X453149Y293319D01*
X453143Y293248D01*
X453123Y293164D01*
X453085Y292989D01*
X453026Y292794D01*
X452987Y292697D01*
X452942Y292607D01*
X452884Y292516D01*
X452826Y292425D01*
X452819Y292419D01*
X452812Y292406D01*
X452793Y292380D01*
X452761Y292348D01*
X452728Y292315D01*
X452683Y292270D01*
X452631Y292225D01*
X452579Y292173D01*
X452515Y292121D01*
X452437Y292069D01*
X452359Y292011D01*
X452275Y291959D01*
X452178Y291914D01*
X452081Y291862D01*
X451977Y291823D01*
X451860Y291784D01*
X451724Y292367D01*
X451731D01*
X451744Y292374D01*
X451770Y292386D01*
X451802Y292399D01*
X451841Y292412D01*
X451893Y292432D01*
X451996Y292484D01*
X452113Y292548D01*
X452230Y292626D01*
X452340Y292723D01*
X452437Y292827D01*
X452450Y292840D01*
X452476Y292879D01*
X452508Y292943D01*
X452553Y293028D01*
X452592Y293138D01*
X452631Y293261D01*
X452657Y293410D01*
X452664Y293572D01*
Y293624D01*
X452657Y293656D01*
Y293701D01*
X452651Y293753D01*
X452631Y293876D01*
X452605Y294012D01*
X452560Y294155D01*
X452495Y294304D01*
X452411Y294440D01*
Y294446D01*
X452398Y294453D01*
X452366Y294498D01*
X452314Y294556D01*
X452236Y294627D01*
X452139Y294712D01*
X452029Y294790D01*
X451893Y294861D01*
X451744Y294925D01*
X451737D01*
X451724Y294932D01*
X451705Y294938D01*
X451673Y294945D01*
X451634Y294958D01*
X451588Y294971D01*
X451478Y294990D01*
X451349Y295016D01*
X451206Y295042D01*
X451051Y295055D01*
X450882Y295061D01*
X450876D01*
X450857D01*
X450824D01*
X450785D01*
X450740Y295055D01*
X450682D01*
X450617Y295049D01*
X450546Y295042D01*
X450390Y295023D01*
X450222Y294990D01*
X450053Y294951D01*
X449885Y294900D01*
X449878D01*
X449865Y294893D01*
X449846Y294880D01*
X449814Y294867D01*
X449736Y294828D01*
X449645Y294770D01*
X449542Y294699D01*
X449431Y294608D01*
X449334Y294505D01*
X449244Y294381D01*
Y294375D01*
X449237Y294362D01*
X449224Y294342D01*
X449211Y294317D01*
X449198Y294284D01*
X449179Y294245D01*
X449140Y294155D01*
X449101Y294038D01*
X449069Y293909D01*
X449043Y293766D01*
X449036Y293617D01*
Y293572D01*
X449043Y293533D01*
Y293488D01*
X449049Y293442D01*
X449075Y293326D01*
X449108Y293190D01*
X449160Y293054D01*
X449231Y292911D01*
X449270Y292840D01*
X449321Y292775D01*
X449328Y292769D01*
X449334Y292762D01*
X449354Y292743D01*
X449373Y292717D01*
X449406Y292691D01*
X449445Y292659D01*
X449483Y292620D01*
X449535Y292587D01*
X449594Y292548D01*
X449658Y292503D01*
X449723Y292464D01*
X449801Y292425D01*
X449885Y292393D01*
X449976Y292361D01*
X450073Y292328D01*
X450176Y292302D01*
X450027Y291706D01*
X450021D01*
X449995Y291713D01*
X449956Y291726D01*
X449904Y291745D01*
X449846Y291765D01*
X449775Y291791D01*
X449697Y291823D01*
X449613Y291862D01*
X449431Y291952D01*
X449250Y292069D01*
X449160Y292140D01*
X449069Y292212D01*
X448991Y292289D01*
X448913Y292380D01*
X448907Y292386D01*
X448894Y292399D01*
X448881Y292432D01*
X448855Y292464D01*
X448823Y292516D01*
X448790Y292568D01*
X448758Y292639D01*
X448726Y292710D01*
X448687Y292794D01*
X448654Y292885D01*
X448622Y292982D01*
X448590Y293086D01*
X448564Y293196D01*
X448551Y293313D01*
X448538Y293436D01*
X448531Y293565D01*
Y293636D01*
X448538Y293688D01*
Y293747D01*
X448544Y293818D01*
X448557Y293896D01*
X448570Y293986D01*
X448602Y294174D01*
X448654Y294368D01*
X448726Y294563D01*
X448771Y294653D01*
X448823Y294744D01*
X448829Y294751D01*
X448836Y294764D01*
X448855Y294790D01*
X448881Y294815D01*
X448907Y294854D01*
X448946Y294900D01*
X448991Y294951D01*
X449043Y295003D01*
X449101Y295055D01*
X449160Y295113D01*
X449309Y295230D01*
X449483Y295340D01*
X449678Y295437D01*
X449684D01*
X449704Y295450D01*
X449736Y295457D01*
X449775Y295476D01*
X449827Y295489D01*
X449891Y295508D01*
X449963Y295534D01*
X450040Y295554D01*
X450125Y295573D01*
X450222Y295599D01*
X450423Y295632D01*
X450649Y295657D01*
X450882Y295670D01*
X450889D01*
X450915D01*
X450954D01*
X450999Y295664D01*
D02*
G37*
G36*
X448732Y291272D02*
X448790Y291266D01*
X448855Y291253D01*
X448920Y291240D01*
X448991Y291214D01*
X448998D01*
X449004Y291208D01*
X449043Y291195D01*
X449101Y291169D01*
X449179Y291130D01*
X449270Y291078D01*
X449373Y291013D01*
X449477Y290942D01*
X449587Y290851D01*
X449594D01*
X449600Y290839D01*
X449639Y290806D01*
X449697Y290748D01*
X449781Y290664D01*
X449878Y290566D01*
X449995Y290443D01*
X450125Y290294D01*
X450261Y290133D01*
X450267Y290126D01*
X450286Y290100D01*
X450319Y290061D01*
X450358Y290016D01*
X450410Y289958D01*
X450468Y289886D01*
X450533Y289815D01*
X450604Y289731D01*
X450759Y289569D01*
X450915Y289407D01*
X450993Y289329D01*
X451070Y289258D01*
X451142Y289193D01*
X451213Y289142D01*
X451219D01*
X451226Y289129D01*
X451245Y289116D01*
X451271Y289103D01*
X451342Y289057D01*
X451427Y289006D01*
X451530Y288960D01*
X451640Y288915D01*
X451763Y288889D01*
X451880Y288876D01*
X451886D01*
X451893D01*
X451932Y288882D01*
X451996Y288889D01*
X452068Y288908D01*
X452158Y288934D01*
X452249Y288980D01*
X452340Y289038D01*
X452430Y289116D01*
X452443Y289129D01*
X452469Y289161D01*
X452502Y289206D01*
X452547Y289277D01*
X452586Y289368D01*
X452625Y289472D01*
X452651Y289595D01*
X452657Y289731D01*
Y289770D01*
X452651Y289796D01*
X452644Y289873D01*
X452625Y289964D01*
X452599Y290061D01*
X452553Y290171D01*
X452495Y290275D01*
X452417Y290372D01*
X452405Y290385D01*
X452372Y290411D01*
X452320Y290450D01*
X452243Y290489D01*
X452152Y290534D01*
X452035Y290573D01*
X451906Y290599D01*
X451757Y290612D01*
X451815Y291175D01*
X451822D01*
X451841Y291169D01*
X451873D01*
X451919Y291162D01*
X451970Y291149D01*
X452029Y291136D01*
X452100Y291117D01*
X452171Y291098D01*
X452327Y291046D01*
X452482Y290968D01*
X452560Y290923D01*
X452638Y290864D01*
X452709Y290806D01*
X452774Y290741D01*
X452780Y290735D01*
X452787Y290722D01*
X452806Y290702D01*
X452826Y290670D01*
X452851Y290631D01*
X452877Y290586D01*
X452910Y290534D01*
X452942Y290469D01*
X452975Y290398D01*
X453007Y290320D01*
X453033Y290236D01*
X453059Y290145D01*
X453078Y290048D01*
X453097Y289945D01*
X453104Y289834D01*
X453111Y289718D01*
Y289653D01*
X453104Y289608D01*
X453097Y289556D01*
X453091Y289491D01*
X453078Y289420D01*
X453065Y289349D01*
X453020Y289180D01*
X452955Y289012D01*
X452916Y288928D01*
X452871Y288844D01*
X452812Y288766D01*
X452748Y288695D01*
X452741Y288688D01*
X452735Y288675D01*
X452709Y288662D01*
X452683Y288636D01*
X452651Y288604D01*
X452605Y288571D01*
X452560Y288539D01*
X452502Y288500D01*
X452379Y288435D01*
X452223Y288371D01*
X452145Y288345D01*
X452055Y288332D01*
X451964Y288319D01*
X451867Y288312D01*
X451854D01*
X451822D01*
X451770Y288319D01*
X451698Y288325D01*
X451621Y288338D01*
X451530Y288364D01*
X451433Y288390D01*
X451336Y288429D01*
X451323Y288435D01*
X451290Y288449D01*
X451239Y288474D01*
X451167Y288513D01*
X451090Y288565D01*
X450993Y288630D01*
X450895Y288708D01*
X450785Y288798D01*
X450772Y288811D01*
X450733Y288844D01*
X450701Y288876D01*
X450669Y288908D01*
X450630Y288947D01*
X450578Y288999D01*
X450526Y289051D01*
X450468Y289116D01*
X450403Y289180D01*
X450332Y289258D01*
X450261Y289342D01*
X450176Y289433D01*
X450092Y289537D01*
X450001Y289640D01*
X449995Y289647D01*
X449982Y289660D01*
X449963Y289686D01*
X449937Y289718D01*
X449898Y289757D01*
X449859Y289802D01*
X449775Y289906D01*
X449678Y290016D01*
X449580Y290119D01*
X449496Y290210D01*
X449464Y290249D01*
X449431Y290282D01*
X449425Y290288D01*
X449406Y290307D01*
X449380Y290333D01*
X449341Y290366D01*
X449296Y290398D01*
X449250Y290437D01*
X449140Y290515D01*
Y288306D01*
X448609D01*
Y291279D01*
X448615D01*
X448641D01*
X448680D01*
X448732Y291272D01*
D02*
G37*
G36*
X449969Y287717D02*
X450008D01*
X450053Y287710D01*
X450157Y287697D01*
X450274Y287671D01*
X450390Y287632D01*
X450513Y287574D01*
X450630Y287503D01*
X450636D01*
X450643Y287490D01*
X450675Y287464D01*
X450727Y287412D01*
X450792Y287341D01*
X450857Y287250D01*
X450928Y287140D01*
X450986Y287017D01*
X451031Y286868D01*
Y286875D01*
X451038Y286881D01*
X451044Y286901D01*
X451057Y286926D01*
X451083Y286985D01*
X451122Y287062D01*
X451174Y287147D01*
X451239Y287231D01*
X451310Y287309D01*
X451388Y287380D01*
X451400Y287386D01*
X451427Y287406D01*
X451478Y287432D01*
X451543Y287458D01*
X451627Y287490D01*
X451724Y287516D01*
X451834Y287535D01*
X451951Y287542D01*
X451958D01*
X451970D01*
X451996D01*
X452035Y287535D01*
X452074Y287529D01*
X452126Y287522D01*
X452236Y287496D01*
X452366Y287458D01*
X452502Y287393D01*
X452573Y287354D01*
X452644Y287309D01*
X452709Y287250D01*
X452774Y287192D01*
X452780Y287185D01*
X452787Y287173D01*
X452806Y287153D01*
X452826Y287127D01*
X452851Y287095D01*
X452877Y287049D01*
X452910Y286998D01*
X452942Y286946D01*
X452975Y286881D01*
X453007Y286810D01*
X453033Y286732D01*
X453059Y286648D01*
X453097Y286467D01*
X453104Y286363D01*
X453111Y286259D01*
Y286201D01*
X453104Y286162D01*
X453097Y286110D01*
X453091Y286052D01*
X453085Y285987D01*
X453065Y285922D01*
X453026Y285767D01*
X452968Y285611D01*
X452929Y285534D01*
X452884Y285456D01*
X452826Y285385D01*
X452767Y285314D01*
X452761Y285307D01*
X452754Y285301D01*
X452735Y285281D01*
X452709Y285255D01*
X452670Y285229D01*
X452631Y285197D01*
X452534Y285132D01*
X452411Y285068D01*
X452268Y285009D01*
X452107Y284964D01*
X452022Y284957D01*
X451932Y284951D01*
X451925D01*
X451919D01*
X451880D01*
X451822Y284957D01*
X451750Y284970D01*
X451660Y284990D01*
X451569Y285022D01*
X451478Y285061D01*
X451388Y285119D01*
X451375Y285126D01*
X451349Y285152D01*
X451310Y285191D01*
X451258Y285242D01*
X451200Y285314D01*
X451142Y285398D01*
X451083Y285495D01*
X451031Y285611D01*
Y285605D01*
X451025Y285592D01*
X451018Y285573D01*
X451005Y285547D01*
X450973Y285469D01*
X450928Y285378D01*
X450863Y285281D01*
X450792Y285178D01*
X450701Y285080D01*
X450597Y284990D01*
X450591D01*
X450584Y284983D01*
X450546Y284957D01*
X450481Y284918D01*
X450397Y284880D01*
X450293Y284841D01*
X450170Y284802D01*
X450034Y284776D01*
X449885Y284769D01*
X449878D01*
X449859D01*
X449827D01*
X449788Y284776D01*
X449742Y284783D01*
X449684Y284789D01*
X449619Y284802D01*
X449548Y284821D01*
X449399Y284867D01*
X449315Y284899D01*
X449237Y284944D01*
X449153Y284990D01*
X449075Y285042D01*
X448998Y285106D01*
X448920Y285178D01*
X448913Y285184D01*
X448900Y285197D01*
X448881Y285216D01*
X448862Y285249D01*
X448829Y285294D01*
X448797Y285340D01*
X448764Y285398D01*
X448726Y285463D01*
X448687Y285534D01*
X448654Y285618D01*
X448622Y285709D01*
X448590Y285799D01*
X448570Y285903D01*
X448551Y286013D01*
X448538Y286123D01*
X448531Y286246D01*
Y286311D01*
X448538Y286356D01*
X448544Y286415D01*
X448551Y286479D01*
X448564Y286551D01*
X448583Y286628D01*
X448628Y286803D01*
X448661Y286894D01*
X448693Y286978D01*
X448739Y287069D01*
X448790Y287160D01*
X448849Y287244D01*
X448920Y287321D01*
X448926Y287328D01*
X448939Y287341D01*
X448959Y287360D01*
X448991Y287386D01*
X449030Y287412D01*
X449075Y287451D01*
X449127Y287483D01*
X449192Y287522D01*
X449257Y287561D01*
X449334Y287593D01*
X449496Y287658D01*
X449594Y287684D01*
X449691Y287704D01*
X449794Y287717D01*
X449898Y287723D01*
X449904D01*
X449917D01*
X449943D01*
X449969Y287717D01*
D02*
G37*
G36*
X254798Y376891D02*
X254811Y376878D01*
X254837Y376852D01*
X254875Y376826D01*
X254921Y376787D01*
X254972Y376735D01*
X255037Y376683D01*
X255115Y376625D01*
X255193Y376567D01*
X255283Y376496D01*
X255387Y376424D01*
X255491Y376353D01*
X255607Y376275D01*
X255730Y376198D01*
X255866Y376120D01*
X256002Y376042D01*
X256009Y376036D01*
X256035Y376023D01*
X256074Y376003D01*
X256132Y375971D01*
X256203Y375939D01*
X256281Y375900D01*
X256371Y375854D01*
X256475Y375809D01*
X256592Y375757D01*
X256708Y375699D01*
X256838Y375647D01*
X256974Y375595D01*
X257252Y375492D01*
X257550Y375395D01*
X257557D01*
X257576Y375388D01*
X257609Y375382D01*
X257647Y375369D01*
X257699Y375356D01*
X257764Y375343D01*
X257835Y375323D01*
X257913Y375310D01*
X258004Y375291D01*
X258101Y375271D01*
X258308Y375239D01*
X258535Y375207D01*
X258781Y375187D01*
Y374624D01*
X258775D01*
X258755D01*
X258729D01*
X258690Y374630D01*
X258638D01*
X258574Y374637D01*
X258503Y374643D01*
X258425Y374650D01*
X258334Y374663D01*
X258243Y374676D01*
X258133Y374695D01*
X258023Y374714D01*
X257907Y374734D01*
X257777Y374760D01*
X257512Y374824D01*
X257505D01*
X257479Y374831D01*
X257440Y374844D01*
X257382Y374863D01*
X257317Y374883D01*
X257239Y374909D01*
X257149Y374935D01*
X257052Y374973D01*
X256942Y375012D01*
X256831Y375051D01*
X256585Y375148D01*
X256326Y375265D01*
X256067Y375395D01*
X256061Y375401D01*
X256035Y375414D01*
X256002Y375433D01*
X255951Y375459D01*
X255892Y375492D01*
X255821Y375537D01*
X255743Y375582D01*
X255659Y375634D01*
X255471Y375757D01*
X255277Y375887D01*
X255076Y376036D01*
X254888Y376191D01*
Y373996D01*
X254357D01*
Y376897D01*
X254791D01*
X254798Y376891D01*
D02*
G37*
G36*
X258781Y370394D02*
X258775D01*
X258749D01*
X258710D01*
X258658Y370401D01*
X258600Y370407D01*
X258535Y370420D01*
X258470Y370433D01*
X258399Y370459D01*
X258392D01*
X258386Y370466D01*
X258347Y370479D01*
X258289Y370504D01*
X258211Y370543D01*
X258120Y370595D01*
X258017Y370660D01*
X257913Y370731D01*
X257803Y370822D01*
X257796D01*
X257790Y370835D01*
X257751Y370867D01*
X257693Y370925D01*
X257609Y371010D01*
X257512Y371107D01*
X257395Y371230D01*
X257265Y371379D01*
X257129Y371541D01*
X257123Y371547D01*
X257103Y371573D01*
X257071Y371612D01*
X257032Y371657D01*
X256980Y371716D01*
X256922Y371787D01*
X256857Y371858D01*
X256786Y371942D01*
X256631Y372104D01*
X256475Y372266D01*
X256397Y372344D01*
X256320Y372415D01*
X256248Y372480D01*
X256177Y372532D01*
X256171D01*
X256164Y372545D01*
X256145Y372558D01*
X256119Y372571D01*
X256048Y372616D01*
X255963Y372668D01*
X255860Y372713D01*
X255750Y372758D01*
X255627Y372784D01*
X255510Y372797D01*
X255504D01*
X255497D01*
X255458Y372791D01*
X255394Y372784D01*
X255322Y372765D01*
X255232Y372739D01*
X255141Y372694D01*
X255050Y372635D01*
X254960Y372558D01*
X254947Y372545D01*
X254921Y372512D01*
X254888Y372467D01*
X254843Y372396D01*
X254804Y372305D01*
X254765Y372201D01*
X254739Y372078D01*
X254733Y371942D01*
Y371903D01*
X254739Y371878D01*
X254746Y371800D01*
X254765Y371709D01*
X254791Y371612D01*
X254837Y371502D01*
X254895Y371398D01*
X254972Y371301D01*
X254985Y371288D01*
X255018Y371262D01*
X255070Y371223D01*
X255147Y371185D01*
X255238Y371139D01*
X255355Y371100D01*
X255484Y371074D01*
X255633Y371061D01*
X255575Y370498D01*
X255568D01*
X255549Y370504D01*
X255517D01*
X255471Y370511D01*
X255419Y370524D01*
X255361Y370537D01*
X255290Y370556D01*
X255219Y370576D01*
X255063Y370628D01*
X254908Y370705D01*
X254830Y370751D01*
X254752Y370809D01*
X254681Y370867D01*
X254616Y370932D01*
X254610Y370938D01*
X254603Y370951D01*
X254584Y370971D01*
X254564Y371003D01*
X254538Y371042D01*
X254513Y371087D01*
X254480Y371139D01*
X254448Y371204D01*
X254415Y371275D01*
X254383Y371353D01*
X254357Y371437D01*
X254331Y371528D01*
X254312Y371625D01*
X254292Y371729D01*
X254286Y371839D01*
X254279Y371955D01*
Y372020D01*
X254286Y372065D01*
X254292Y372117D01*
X254299Y372182D01*
X254312Y372253D01*
X254325Y372324D01*
X254370Y372493D01*
X254435Y372661D01*
X254474Y372745D01*
X254519Y372830D01*
X254577Y372907D01*
X254642Y372979D01*
X254649Y372985D01*
X254655Y372998D01*
X254681Y373011D01*
X254707Y373037D01*
X254739Y373069D01*
X254785Y373102D01*
X254830Y373134D01*
X254888Y373173D01*
X255011Y373238D01*
X255167Y373302D01*
X255245Y373328D01*
X255335Y373341D01*
X255426Y373354D01*
X255523Y373361D01*
X255536D01*
X255568D01*
X255620Y373354D01*
X255691Y373348D01*
X255769Y373335D01*
X255860Y373309D01*
X255957Y373283D01*
X256054Y373244D01*
X256067Y373238D01*
X256099Y373225D01*
X256151Y373199D01*
X256223Y373160D01*
X256300Y373108D01*
X256397Y373043D01*
X256495Y372966D01*
X256605Y372875D01*
X256618Y372862D01*
X256656Y372830D01*
X256689Y372797D01*
X256721Y372765D01*
X256760Y372726D01*
X256812Y372674D01*
X256864Y372622D01*
X256922Y372558D01*
X256987Y372493D01*
X257058Y372415D01*
X257129Y372331D01*
X257213Y372240D01*
X257298Y372137D01*
X257388Y372033D01*
X257395Y372026D01*
X257408Y372014D01*
X257427Y371988D01*
X257453Y371955D01*
X257492Y371916D01*
X257531Y371871D01*
X257615Y371767D01*
X257712Y371657D01*
X257809Y371554D01*
X257894Y371463D01*
X257926Y371424D01*
X257958Y371392D01*
X257965Y371385D01*
X257984Y371366D01*
X258010Y371340D01*
X258049Y371307D01*
X258094Y371275D01*
X258140Y371236D01*
X258250Y371159D01*
Y373367D01*
X258781D01*
Y370394D01*
D02*
G37*
G36*
X257395Y369960D02*
X257434Y369947D01*
X257486Y369928D01*
X257544Y369908D01*
X257615Y369883D01*
X257693Y369850D01*
X257777Y369811D01*
X257958Y369721D01*
X258140Y369604D01*
X258230Y369533D01*
X258321Y369462D01*
X258399Y369384D01*
X258477Y369293D01*
X258483Y369287D01*
X258496Y369274D01*
X258509Y369241D01*
X258535Y369209D01*
X258567Y369157D01*
X258600Y369105D01*
X258632Y369034D01*
X258664Y368963D01*
X258703Y368879D01*
X258736Y368788D01*
X258768Y368691D01*
X258800Y368587D01*
X258826Y368477D01*
X258839Y368360D01*
X258852Y368237D01*
X258859Y368108D01*
Y368037D01*
X258852Y367985D01*
Y367926D01*
X258846Y367855D01*
X258833Y367778D01*
X258820Y367687D01*
X258787Y367499D01*
X258736Y367305D01*
X258664Y367110D01*
X258619Y367020D01*
X258567Y366929D01*
X258561Y366923D01*
X258554Y366910D01*
X258535Y366884D01*
X258509Y366858D01*
X258483Y366819D01*
X258444Y366774D01*
X258399Y366722D01*
X258347Y366670D01*
X258289Y366618D01*
X258230Y366560D01*
X258081Y366443D01*
X257907Y366333D01*
X257712Y366236D01*
X257706D01*
X257686Y366223D01*
X257654Y366217D01*
X257615Y366197D01*
X257563Y366184D01*
X257498Y366165D01*
X257427Y366139D01*
X257349Y366119D01*
X257265Y366100D01*
X257168Y366074D01*
X256967Y366042D01*
X256741Y366016D01*
X256507Y366003D01*
X256501D01*
X256475D01*
X256436D01*
X256391Y366009D01*
X256326D01*
X256261Y366016D01*
X256177Y366022D01*
X256093Y366035D01*
X255905Y366068D01*
X255698Y366113D01*
X255491Y366178D01*
X255290Y366268D01*
X255283Y366275D01*
X255264Y366281D01*
X255238Y366294D01*
X255206Y366320D01*
X255160Y366346D01*
X255109Y366379D01*
X254992Y366463D01*
X254862Y366573D01*
X254733Y366702D01*
X254603Y366851D01*
X254493Y367026D01*
X254487Y367033D01*
X254480Y367052D01*
X254467Y367078D01*
X254448Y367110D01*
X254428Y367162D01*
X254409Y367214D01*
X254383Y367279D01*
X254357Y367350D01*
X254331Y367428D01*
X254305Y367512D01*
X254266Y367693D01*
X254234Y367901D01*
X254221Y368114D01*
Y368179D01*
X254228Y368224D01*
X254234Y368283D01*
X254241Y368354D01*
X254247Y368425D01*
X254266Y368509D01*
X254305Y368684D01*
X254364Y368879D01*
X254403Y368976D01*
X254448Y369067D01*
X254506Y369157D01*
X254564Y369248D01*
X254571Y369254D01*
X254577Y369267D01*
X254597Y369293D01*
X254629Y369326D01*
X254662Y369358D01*
X254707Y369403D01*
X254759Y369449D01*
X254811Y369501D01*
X254875Y369552D01*
X254953Y369604D01*
X255031Y369662D01*
X255115Y369714D01*
X255212Y369759D01*
X255309Y369811D01*
X255413Y369850D01*
X255529Y369889D01*
X255665Y369306D01*
X255659D01*
X255646Y369300D01*
X255620Y369287D01*
X255588Y369274D01*
X255549Y369261D01*
X255497Y369241D01*
X255394Y369190D01*
X255277Y369125D01*
X255160Y369047D01*
X255050Y368950D01*
X254953Y368846D01*
X254940Y368833D01*
X254914Y368795D01*
X254882Y368730D01*
X254837Y368646D01*
X254798Y368535D01*
X254759Y368412D01*
X254733Y368263D01*
X254726Y368101D01*
Y368050D01*
X254733Y368017D01*
Y367972D01*
X254739Y367920D01*
X254759Y367797D01*
X254785Y367661D01*
X254830Y367519D01*
X254895Y367369D01*
X254979Y367234D01*
Y367227D01*
X254992Y367221D01*
X255024Y367175D01*
X255076Y367117D01*
X255154Y367046D01*
X255251Y366962D01*
X255361Y366884D01*
X255497Y366813D01*
X255646Y366748D01*
X255653D01*
X255665Y366741D01*
X255685Y366735D01*
X255717Y366728D01*
X255756Y366715D01*
X255802Y366702D01*
X255912Y366683D01*
X256041Y366657D01*
X256184Y366631D01*
X256339Y366618D01*
X256507Y366612D01*
X256514D01*
X256533D01*
X256566D01*
X256605D01*
X256650Y366618D01*
X256708D01*
X256773Y366625D01*
X256844Y366631D01*
X257000Y366651D01*
X257168Y366683D01*
X257337Y366722D01*
X257505Y366774D01*
X257512D01*
X257524Y366780D01*
X257544Y366793D01*
X257576Y366806D01*
X257654Y366845D01*
X257745Y366903D01*
X257848Y366974D01*
X257958Y367065D01*
X258055Y367169D01*
X258146Y367292D01*
Y367298D01*
X258153Y367311D01*
X258166Y367331D01*
X258179Y367357D01*
X258192Y367389D01*
X258211Y367428D01*
X258250Y367519D01*
X258289Y367635D01*
X258321Y367765D01*
X258347Y367907D01*
X258354Y368056D01*
Y368101D01*
X258347Y368140D01*
Y368186D01*
X258340Y368231D01*
X258315Y368348D01*
X258282Y368484D01*
X258230Y368620D01*
X258159Y368762D01*
X258120Y368833D01*
X258069Y368898D01*
X258062Y368905D01*
X258055Y368911D01*
X258036Y368931D01*
X258017Y368956D01*
X257984Y368982D01*
X257945Y369015D01*
X257907Y369053D01*
X257855Y369086D01*
X257796Y369125D01*
X257732Y369170D01*
X257667Y369209D01*
X257589Y369248D01*
X257505Y369280D01*
X257414Y369313D01*
X257317Y369345D01*
X257213Y369371D01*
X257362Y369967D01*
X257369D01*
X257395Y369960D01*
D02*
G37*
G36*
X159650Y275951D02*
X159689D01*
X159793Y275931D01*
X159916Y275912D01*
X160045Y275879D01*
X160188Y275834D01*
X160324Y275769D01*
X160330D01*
X160337Y275763D01*
X160356Y275750D01*
X160382Y275737D01*
X160447Y275698D01*
X160531Y275640D01*
X160622Y275569D01*
X160713Y275484D01*
X160803Y275381D01*
X160881Y275271D01*
Y275264D01*
X160887Y275258D01*
X160900Y275238D01*
X160907Y275212D01*
X160939Y275148D01*
X160972Y275063D01*
X161010Y274953D01*
X161036Y274830D01*
X161062Y274694D01*
X161069Y274545D01*
Y274513D01*
X161062Y274480D01*
Y274429D01*
X161056Y274370D01*
X161043Y274305D01*
X161023Y274228D01*
X161004Y274150D01*
X160978Y274059D01*
X160946Y273969D01*
X160907Y273878D01*
X160855Y273781D01*
X160797Y273690D01*
X160732Y273600D01*
X160654Y273509D01*
X160564Y273425D01*
X160557Y273418D01*
X160538Y273405D01*
X160512Y273386D01*
X160466Y273360D01*
X160408Y273321D01*
X160343Y273289D01*
X160259Y273250D01*
X160168Y273211D01*
X160058Y273166D01*
X159935Y273127D01*
X159799Y273094D01*
X159650Y273062D01*
X159482Y273030D01*
X159300Y273010D01*
X159106Y272997D01*
X158899Y272991D01*
X158892D01*
X158886D01*
X158867D01*
X158841D01*
X158776Y272997D01*
X158685D01*
X158581Y273004D01*
X158458Y273017D01*
X158322Y273030D01*
X158174Y273049D01*
X158025Y273075D01*
X157863Y273107D01*
X157707Y273146D01*
X157552Y273192D01*
X157403Y273250D01*
X157260Y273315D01*
X157124Y273386D01*
X157008Y273470D01*
X157001Y273477D01*
X156988Y273489D01*
X156962Y273515D01*
X156923Y273548D01*
X156884Y273587D01*
X156846Y273638D01*
X156794Y273703D01*
X156749Y273768D01*
X156703Y273846D01*
X156651Y273930D01*
X156613Y274027D01*
X156567Y274124D01*
X156535Y274234D01*
X156509Y274351D01*
X156496Y274474D01*
X156489Y274604D01*
Y274655D01*
X156496Y274694D01*
Y274739D01*
X156502Y274791D01*
X156528Y274914D01*
X156561Y275050D01*
X156613Y275193D01*
X156690Y275335D01*
X156736Y275407D01*
X156787Y275471D01*
X156794Y275478D01*
X156800Y275484D01*
X156820Y275504D01*
X156839Y275523D01*
X156872Y275556D01*
X156910Y275581D01*
X157001Y275653D01*
X157118Y275724D01*
X157260Y275789D01*
X157422Y275847D01*
X157604Y275886D01*
X157649Y275335D01*
X157642D01*
X157636Y275329D01*
X157597Y275322D01*
X157539Y275303D01*
X157467Y275277D01*
X157390Y275251D01*
X157312Y275212D01*
X157241Y275167D01*
X157183Y275122D01*
X157170Y275109D01*
X157144Y275083D01*
X157105Y275037D01*
X157059Y274973D01*
X157021Y274888D01*
X156982Y274798D01*
X156956Y274688D01*
X156943Y274571D01*
Y274526D01*
X156949Y274474D01*
X156962Y274416D01*
X156982Y274338D01*
X157008Y274260D01*
X157040Y274182D01*
X157092Y274105D01*
X157098Y274092D01*
X157124Y274059D01*
X157170Y274014D01*
X157234Y273956D01*
X157312Y273891D01*
X157403Y273820D01*
X157519Y273755D01*
X157649Y273690D01*
X157655D01*
X157668Y273684D01*
X157688Y273677D01*
X157714Y273664D01*
X157753Y273658D01*
X157798Y273645D01*
X157850Y273632D01*
X157914Y273619D01*
X157986Y273600D01*
X158063Y273587D01*
X158148Y273574D01*
X158238Y273567D01*
X158342Y273554D01*
X158446Y273548D01*
X158562Y273541D01*
X158679D01*
X158672Y273548D01*
X158633Y273574D01*
X158581Y273619D01*
X158517Y273677D01*
X158439Y273742D01*
X158368Y273826D01*
X158296Y273917D01*
X158232Y274021D01*
Y274027D01*
X158225Y274034D01*
X158206Y274072D01*
X158186Y274131D01*
X158154Y274208D01*
X158128Y274299D01*
X158109Y274403D01*
X158089Y274513D01*
X158083Y274629D01*
Y274681D01*
X158089Y274720D01*
X158096Y274772D01*
X158102Y274824D01*
X158115Y274888D01*
X158135Y274953D01*
X158180Y275102D01*
X158212Y275180D01*
X158258Y275258D01*
X158303Y275335D01*
X158355Y275420D01*
X158420Y275497D01*
X158491Y275569D01*
X158497Y275575D01*
X158510Y275588D01*
X158530Y275607D01*
X158562Y275627D01*
X158607Y275659D01*
X158653Y275692D01*
X158711Y275724D01*
X158776Y275763D01*
X158847Y275802D01*
X158925Y275834D01*
X159016Y275867D01*
X159106Y275899D01*
X159203Y275918D01*
X159313Y275938D01*
X159424Y275951D01*
X159540Y275957D01*
X159547D01*
X159559D01*
X159579D01*
X159611D01*
X159650Y275951D01*
D02*
G37*
G36*
X160991Y269454D02*
X160984D01*
X160959D01*
X160920D01*
X160868Y269461D01*
X160810Y269467D01*
X160745Y269480D01*
X160680Y269493D01*
X160609Y269519D01*
X160602D01*
X160596Y269526D01*
X160557Y269538D01*
X160499Y269564D01*
X160421Y269603D01*
X160330Y269655D01*
X160227Y269720D01*
X160123Y269791D01*
X160013Y269882D01*
X160007D01*
X160000Y269895D01*
X159961Y269927D01*
X159903Y269985D01*
X159819Y270070D01*
X159721Y270167D01*
X159605Y270290D01*
X159475Y270439D01*
X159339Y270601D01*
X159333Y270607D01*
X159313Y270633D01*
X159281Y270672D01*
X159242Y270717D01*
X159190Y270776D01*
X159132Y270847D01*
X159067Y270918D01*
X158996Y271002D01*
X158841Y271164D01*
X158685Y271326D01*
X158607Y271404D01*
X158530Y271475D01*
X158458Y271540D01*
X158387Y271592D01*
X158381D01*
X158374Y271605D01*
X158355Y271618D01*
X158329Y271630D01*
X158258Y271676D01*
X158174Y271728D01*
X158070Y271773D01*
X157960Y271818D01*
X157837Y271844D01*
X157720Y271857D01*
X157714D01*
X157707D01*
X157668Y271851D01*
X157604Y271844D01*
X157532Y271825D01*
X157442Y271799D01*
X157351Y271754D01*
X157260Y271695D01*
X157170Y271618D01*
X157157Y271605D01*
X157131Y271572D01*
X157098Y271527D01*
X157053Y271456D01*
X157014Y271365D01*
X156975Y271261D01*
X156949Y271138D01*
X156943Y271002D01*
Y270963D01*
X156949Y270938D01*
X156956Y270860D01*
X156975Y270769D01*
X157001Y270672D01*
X157046Y270562D01*
X157105Y270458D01*
X157183Y270361D01*
X157195Y270348D01*
X157228Y270322D01*
X157280Y270283D01*
X157357Y270245D01*
X157448Y270199D01*
X157565Y270160D01*
X157694Y270134D01*
X157843Y270121D01*
X157785Y269558D01*
X157778D01*
X157759Y269564D01*
X157727D01*
X157681Y269571D01*
X157629Y269584D01*
X157571Y269597D01*
X157500Y269616D01*
X157429Y269636D01*
X157273Y269687D01*
X157118Y269765D01*
X157040Y269811D01*
X156962Y269869D01*
X156891Y269927D01*
X156826Y269992D01*
X156820Y269998D01*
X156813Y270011D01*
X156794Y270031D01*
X156774Y270063D01*
X156749Y270102D01*
X156723Y270147D01*
X156690Y270199D01*
X156658Y270264D01*
X156625Y270335D01*
X156593Y270413D01*
X156567Y270497D01*
X156541Y270588D01*
X156522Y270685D01*
X156502Y270788D01*
X156496Y270899D01*
X156489Y271015D01*
Y271080D01*
X156496Y271125D01*
X156502Y271177D01*
X156509Y271242D01*
X156522Y271313D01*
X156535Y271384D01*
X156580Y271553D01*
X156645Y271721D01*
X156684Y271805D01*
X156729Y271890D01*
X156787Y271967D01*
X156852Y272039D01*
X156859Y272045D01*
X156865Y272058D01*
X156891Y272071D01*
X156917Y272097D01*
X156949Y272129D01*
X156995Y272162D01*
X157040Y272194D01*
X157098Y272233D01*
X157221Y272298D01*
X157377Y272362D01*
X157455Y272388D01*
X157545Y272401D01*
X157636Y272414D01*
X157733Y272421D01*
X157746D01*
X157778D01*
X157830Y272414D01*
X157901Y272408D01*
X157979Y272395D01*
X158070Y272369D01*
X158167Y272343D01*
X158264Y272304D01*
X158277Y272298D01*
X158309Y272285D01*
X158361Y272259D01*
X158433Y272220D01*
X158510Y272168D01*
X158607Y272103D01*
X158705Y272026D01*
X158815Y271935D01*
X158828Y271922D01*
X158867Y271890D01*
X158899Y271857D01*
X158931Y271825D01*
X158970Y271786D01*
X159022Y271734D01*
X159074Y271682D01*
X159132Y271618D01*
X159197Y271553D01*
X159268Y271475D01*
X159339Y271391D01*
X159424Y271300D01*
X159508Y271197D01*
X159598Y271093D01*
X159605Y271087D01*
X159618Y271073D01*
X159637Y271048D01*
X159663Y271015D01*
X159702Y270976D01*
X159741Y270931D01*
X159825Y270827D01*
X159922Y270717D01*
X160019Y270614D01*
X160104Y270523D01*
X160136Y270484D01*
X160168Y270452D01*
X160175Y270445D01*
X160194Y270426D01*
X160220Y270400D01*
X160259Y270368D01*
X160304Y270335D01*
X160350Y270296D01*
X160460Y270219D01*
Y272427D01*
X160991D01*
Y269454D01*
D02*
G37*
G36*
X159605Y269020D02*
X159644Y269007D01*
X159696Y268988D01*
X159754Y268969D01*
X159825Y268943D01*
X159903Y268910D01*
X159987Y268871D01*
X160168Y268781D01*
X160350Y268664D01*
X160440Y268593D01*
X160531Y268522D01*
X160609Y268444D01*
X160686Y268353D01*
X160693Y268347D01*
X160706Y268334D01*
X160719Y268301D01*
X160745Y268269D01*
X160777Y268217D01*
X160810Y268165D01*
X160842Y268094D01*
X160874Y268023D01*
X160913Y267939D01*
X160946Y267848D01*
X160978Y267751D01*
X161010Y267647D01*
X161036Y267537D01*
X161049Y267421D01*
X161062Y267297D01*
X161069Y267168D01*
Y267097D01*
X161062Y267045D01*
Y266987D01*
X161056Y266915D01*
X161043Y266838D01*
X161030Y266747D01*
X160997Y266559D01*
X160946Y266365D01*
X160874Y266170D01*
X160829Y266080D01*
X160777Y265989D01*
X160771Y265983D01*
X160764Y265970D01*
X160745Y265944D01*
X160719Y265918D01*
X160693Y265879D01*
X160654Y265834D01*
X160609Y265782D01*
X160557Y265730D01*
X160499Y265678D01*
X160440Y265620D01*
X160291Y265503D01*
X160117Y265393D01*
X159922Y265296D01*
X159916D01*
X159896Y265283D01*
X159864Y265277D01*
X159825Y265257D01*
X159773Y265244D01*
X159708Y265225D01*
X159637Y265199D01*
X159559Y265180D01*
X159475Y265160D01*
X159378Y265134D01*
X159177Y265102D01*
X158951Y265076D01*
X158717Y265063D01*
X158711D01*
X158685D01*
X158646D01*
X158601Y265069D01*
X158536D01*
X158471Y265076D01*
X158387Y265082D01*
X158303Y265095D01*
X158115Y265128D01*
X157908Y265173D01*
X157701Y265238D01*
X157500Y265328D01*
X157493Y265335D01*
X157474Y265341D01*
X157448Y265354D01*
X157416Y265380D01*
X157370Y265406D01*
X157318Y265438D01*
X157202Y265523D01*
X157072Y265633D01*
X156943Y265762D01*
X156813Y265911D01*
X156703Y266086D01*
X156697Y266093D01*
X156690Y266112D01*
X156677Y266138D01*
X156658Y266170D01*
X156638Y266222D01*
X156619Y266274D01*
X156593Y266339D01*
X156567Y266410D01*
X156541Y266488D01*
X156515Y266572D01*
X156476Y266753D01*
X156444Y266961D01*
X156431Y267174D01*
Y267239D01*
X156438Y267285D01*
X156444Y267343D01*
X156451Y267414D01*
X156457Y267485D01*
X156476Y267570D01*
X156515Y267744D01*
X156574Y267939D01*
X156613Y268036D01*
X156658Y268127D01*
X156716Y268217D01*
X156774Y268308D01*
X156781Y268314D01*
X156787Y268327D01*
X156807Y268353D01*
X156839Y268386D01*
X156872Y268418D01*
X156917Y268463D01*
X156969Y268509D01*
X157021Y268560D01*
X157085Y268612D01*
X157163Y268664D01*
X157241Y268722D01*
X157325Y268774D01*
X157422Y268820D01*
X157519Y268871D01*
X157623Y268910D01*
X157739Y268949D01*
X157875Y268366D01*
X157869D01*
X157856Y268360D01*
X157830Y268347D01*
X157798Y268334D01*
X157759Y268321D01*
X157707Y268301D01*
X157604Y268250D01*
X157487Y268185D01*
X157370Y268107D01*
X157260Y268010D01*
X157163Y267906D01*
X157150Y267893D01*
X157124Y267854D01*
X157092Y267790D01*
X157046Y267705D01*
X157008Y267595D01*
X156969Y267472D01*
X156943Y267323D01*
X156936Y267161D01*
Y267110D01*
X156943Y267077D01*
Y267032D01*
X156949Y266980D01*
X156969Y266857D01*
X156995Y266721D01*
X157040Y266579D01*
X157105Y266430D01*
X157189Y266294D01*
Y266287D01*
X157202Y266280D01*
X157234Y266235D01*
X157286Y266177D01*
X157364Y266106D01*
X157461Y266021D01*
X157571Y265944D01*
X157707Y265872D01*
X157856Y265808D01*
X157863D01*
X157875Y265801D01*
X157895Y265795D01*
X157927Y265788D01*
X157966Y265775D01*
X158012Y265762D01*
X158122Y265743D01*
X158251Y265717D01*
X158394Y265691D01*
X158549Y265678D01*
X158717Y265672D01*
X158724D01*
X158743D01*
X158776D01*
X158815D01*
X158860Y265678D01*
X158918D01*
X158983Y265685D01*
X159054Y265691D01*
X159210Y265711D01*
X159378Y265743D01*
X159547Y265782D01*
X159715Y265834D01*
X159721D01*
X159734Y265840D01*
X159754Y265853D01*
X159786Y265866D01*
X159864Y265905D01*
X159955Y265963D01*
X160058Y266034D01*
X160168Y266125D01*
X160266Y266229D01*
X160356Y266352D01*
Y266358D01*
X160363Y266371D01*
X160376Y266391D01*
X160389Y266417D01*
X160402Y266449D01*
X160421Y266488D01*
X160460Y266579D01*
X160499Y266695D01*
X160531Y266825D01*
X160557Y266967D01*
X160564Y267116D01*
Y267161D01*
X160557Y267200D01*
Y267246D01*
X160550Y267291D01*
X160525Y267407D01*
X160492Y267544D01*
X160440Y267680D01*
X160369Y267822D01*
X160330Y267893D01*
X160278Y267958D01*
X160272Y267965D01*
X160266Y267971D01*
X160246Y267990D01*
X160227Y268016D01*
X160194Y268042D01*
X160155Y268075D01*
X160117Y268113D01*
X160065Y268146D01*
X160007Y268185D01*
X159942Y268230D01*
X159877Y268269D01*
X159799Y268308D01*
X159715Y268340D01*
X159624Y268373D01*
X159527Y268405D01*
X159424Y268431D01*
X159572Y269027D01*
X159579D01*
X159605Y269020D01*
D02*
G37*
G36*
X390969Y201702D02*
X391028Y201696D01*
X391099Y201689D01*
X391170Y201683D01*
X391254Y201663D01*
X391429Y201625D01*
X391624Y201566D01*
X391721Y201527D01*
X391811Y201482D01*
X391902Y201424D01*
X391993Y201366D01*
X391999Y201359D01*
X392012Y201353D01*
X392038Y201333D01*
X392071Y201301D01*
X392103Y201268D01*
X392148Y201223D01*
X392194Y201171D01*
X392245Y201119D01*
X392297Y201055D01*
X392349Y200977D01*
X392407Y200899D01*
X392459Y200815D01*
X392505Y200718D01*
X392556Y200621D01*
X392595Y200517D01*
X392634Y200400D01*
X392051Y200264D01*
Y200271D01*
X392045Y200284D01*
X392032Y200310D01*
X392019Y200342D01*
X392006Y200381D01*
X391986Y200433D01*
X391935Y200536D01*
X391870Y200653D01*
X391792Y200770D01*
X391695Y200880D01*
X391591Y200977D01*
X391578Y200990D01*
X391539Y201016D01*
X391475Y201048D01*
X391390Y201094D01*
X391280Y201132D01*
X391157Y201171D01*
X391008Y201197D01*
X390846Y201204D01*
X390794D01*
X390762Y201197D01*
X390717D01*
X390665Y201191D01*
X390542Y201171D01*
X390406Y201145D01*
X390263Y201100D01*
X390115Y201035D01*
X389978Y200951D01*
X389972D01*
X389966Y200938D01*
X389920Y200906D01*
X389862Y200854D01*
X389791Y200776D01*
X389706Y200679D01*
X389629Y200569D01*
X389557Y200433D01*
X389493Y200284D01*
Y200277D01*
X389486Y200264D01*
X389480Y200245D01*
X389473Y200213D01*
X389460Y200174D01*
X389447Y200128D01*
X389428Y200018D01*
X389402Y199889D01*
X389376Y199746D01*
X389363Y199591D01*
X389357Y199422D01*
Y199416D01*
Y199396D01*
Y199364D01*
Y199325D01*
X389363Y199280D01*
Y199222D01*
X389370Y199157D01*
X389376Y199086D01*
X389395Y198930D01*
X389428Y198762D01*
X389467Y198593D01*
X389519Y198425D01*
Y198419D01*
X389525Y198405D01*
X389538Y198386D01*
X389551Y198354D01*
X389590Y198276D01*
X389648Y198185D01*
X389719Y198082D01*
X389810Y197972D01*
X389914Y197874D01*
X390037Y197784D01*
X390043D01*
X390056Y197777D01*
X390076Y197764D01*
X390102Y197751D01*
X390134Y197738D01*
X390173Y197719D01*
X390263Y197680D01*
X390380Y197641D01*
X390510Y197609D01*
X390652Y197583D01*
X390801Y197577D01*
X390846D01*
X390885Y197583D01*
X390931D01*
X390976Y197589D01*
X391092Y197615D01*
X391228Y197648D01*
X391365Y197700D01*
X391507Y197771D01*
X391578Y197810D01*
X391643Y197861D01*
X391650Y197868D01*
X391656Y197874D01*
X391675Y197894D01*
X391701Y197913D01*
X391727Y197946D01*
X391760Y197985D01*
X391799Y198023D01*
X391831Y198075D01*
X391870Y198134D01*
X391915Y198198D01*
X391954Y198263D01*
X391993Y198341D01*
X392025Y198425D01*
X392058Y198516D01*
X392090Y198613D01*
X392116Y198716D01*
X392712Y198567D01*
Y198561D01*
X392705Y198535D01*
X392692Y198496D01*
X392673Y198444D01*
X392653Y198386D01*
X392627Y198315D01*
X392595Y198237D01*
X392556Y198153D01*
X392466Y197972D01*
X392349Y197790D01*
X392278Y197700D01*
X392206Y197609D01*
X392129Y197531D01*
X392038Y197453D01*
X392032Y197447D01*
X392019Y197434D01*
X391986Y197421D01*
X391954Y197395D01*
X391902Y197363D01*
X391850Y197330D01*
X391779Y197298D01*
X391708Y197266D01*
X391624Y197227D01*
X391533Y197194D01*
X391436Y197162D01*
X391332Y197130D01*
X391222Y197104D01*
X391105Y197091D01*
X390982Y197078D01*
X390853Y197071D01*
X390782D01*
X390730Y197078D01*
X390672D01*
X390600Y197084D01*
X390522Y197097D01*
X390432Y197110D01*
X390244Y197143D01*
X390050Y197194D01*
X389855Y197266D01*
X389765Y197311D01*
X389674Y197363D01*
X389668Y197369D01*
X389655Y197376D01*
X389629Y197395D01*
X389603Y197421D01*
X389564Y197447D01*
X389519Y197486D01*
X389467Y197531D01*
X389415Y197583D01*
X389363Y197641D01*
X389305Y197700D01*
X389188Y197848D01*
X389078Y198023D01*
X388981Y198218D01*
Y198224D01*
X388968Y198244D01*
X388962Y198276D01*
X388942Y198315D01*
X388929Y198367D01*
X388910Y198431D01*
X388884Y198503D01*
X388864Y198580D01*
X388845Y198665D01*
X388819Y198762D01*
X388787Y198962D01*
X388761Y199189D01*
X388748Y199422D01*
Y199429D01*
Y199455D01*
Y199494D01*
X388754Y199539D01*
Y199604D01*
X388761Y199669D01*
X388767Y199753D01*
X388780Y199837D01*
X388813Y200025D01*
X388858Y200232D01*
X388923Y200439D01*
X389013Y200640D01*
X389020Y200647D01*
X389026Y200666D01*
X389039Y200692D01*
X389065Y200724D01*
X389091Y200770D01*
X389123Y200821D01*
X389208Y200938D01*
X389318Y201068D01*
X389447Y201197D01*
X389596Y201327D01*
X389771Y201437D01*
X389778Y201443D01*
X389797Y201450D01*
X389823Y201463D01*
X389855Y201482D01*
X389907Y201502D01*
X389959Y201521D01*
X390024Y201547D01*
X390095Y201573D01*
X390173Y201599D01*
X390257Y201625D01*
X390438Y201663D01*
X390646Y201696D01*
X390859Y201709D01*
X390924D01*
X390969Y201702D01*
D02*
G37*
G36*
X394810Y201644D02*
X394862Y201637D01*
X394927Y201631D01*
X394998Y201618D01*
X395069Y201605D01*
X395238Y201560D01*
X395406Y201495D01*
X395490Y201456D01*
X395575Y201411D01*
X395652Y201353D01*
X395723Y201288D01*
X395730Y201281D01*
X395743Y201275D01*
X395756Y201249D01*
X395782Y201223D01*
X395814Y201191D01*
X395847Y201145D01*
X395879Y201100D01*
X395918Y201042D01*
X395983Y200919D01*
X396047Y200763D01*
X396073Y200685D01*
X396086Y200595D01*
X396099Y200504D01*
X396106Y200407D01*
Y200394D01*
Y200362D01*
X396099Y200310D01*
X396093Y200238D01*
X396080Y200161D01*
X396054Y200070D01*
X396028Y199973D01*
X395989Y199876D01*
X395983Y199863D01*
X395970Y199830D01*
X395944Y199779D01*
X395905Y199707D01*
X395853Y199630D01*
X395788Y199533D01*
X395711Y199435D01*
X395620Y199325D01*
X395607Y199312D01*
X395575Y199273D01*
X395542Y199241D01*
X395510Y199209D01*
X395471Y199170D01*
X395419Y199118D01*
X395367Y199066D01*
X395303Y199008D01*
X395238Y198943D01*
X395160Y198872D01*
X395076Y198801D01*
X394985Y198716D01*
X394882Y198632D01*
X394778Y198542D01*
X394771Y198535D01*
X394758Y198522D01*
X394733Y198503D01*
X394700Y198477D01*
X394661Y198438D01*
X394616Y198399D01*
X394512Y198315D01*
X394402Y198218D01*
X394299Y198120D01*
X394208Y198036D01*
X394169Y198004D01*
X394137Y197972D01*
X394130Y197965D01*
X394111Y197946D01*
X394085Y197920D01*
X394053Y197881D01*
X394020Y197836D01*
X393981Y197790D01*
X393904Y197680D01*
X396112D01*
Y197149D01*
X393139D01*
Y197155D01*
Y197181D01*
Y197220D01*
X393146Y197272D01*
X393152Y197330D01*
X393165Y197395D01*
X393178Y197460D01*
X393204Y197531D01*
Y197538D01*
X393210Y197544D01*
X393223Y197583D01*
X393249Y197641D01*
X393288Y197719D01*
X393340Y197810D01*
X393405Y197913D01*
X393476Y198017D01*
X393567Y198127D01*
Y198134D01*
X393580Y198140D01*
X393612Y198179D01*
X393670Y198237D01*
X393755Y198321D01*
X393852Y198419D01*
X393975Y198535D01*
X394124Y198665D01*
X394286Y198801D01*
X394292Y198807D01*
X394318Y198827D01*
X394357Y198859D01*
X394402Y198898D01*
X394460Y198950D01*
X394532Y199008D01*
X394603Y199073D01*
X394687Y199144D01*
X394849Y199299D01*
X395011Y199455D01*
X395089Y199533D01*
X395160Y199610D01*
X395225Y199681D01*
X395277Y199753D01*
Y199759D01*
X395290Y199766D01*
X395303Y199785D01*
X395316Y199811D01*
X395361Y199882D01*
X395413Y199967D01*
X395458Y200070D01*
X395503Y200180D01*
X395529Y200303D01*
X395542Y200420D01*
Y200426D01*
Y200433D01*
X395536Y200472D01*
X395529Y200536D01*
X395510Y200608D01*
X395484Y200698D01*
X395439Y200789D01*
X395380Y200880D01*
X395303Y200970D01*
X395290Y200983D01*
X395257Y201009D01*
X395212Y201042D01*
X395141Y201087D01*
X395050Y201126D01*
X394946Y201165D01*
X394823Y201191D01*
X394687Y201197D01*
X394648D01*
X394622Y201191D01*
X394545Y201184D01*
X394454Y201165D01*
X394357Y201139D01*
X394247Y201094D01*
X394143Y201035D01*
X394046Y200958D01*
X394033Y200944D01*
X394007Y200912D01*
X393968Y200860D01*
X393929Y200783D01*
X393884Y200692D01*
X393845Y200575D01*
X393819Y200446D01*
X393806Y200297D01*
X393243Y200355D01*
Y200362D01*
X393249Y200381D01*
Y200413D01*
X393256Y200459D01*
X393269Y200511D01*
X393282Y200569D01*
X393301Y200640D01*
X393321Y200711D01*
X393372Y200867D01*
X393450Y201022D01*
X393495Y201100D01*
X393554Y201178D01*
X393612Y201249D01*
X393677Y201314D01*
X393683Y201320D01*
X393696Y201327D01*
X393716Y201346D01*
X393748Y201366D01*
X393787Y201391D01*
X393832Y201417D01*
X393884Y201450D01*
X393949Y201482D01*
X394020Y201514D01*
X394098Y201547D01*
X394182Y201573D01*
X394273Y201599D01*
X394370Y201618D01*
X394473Y201637D01*
X394584Y201644D01*
X394700Y201651D01*
X394765D01*
X394810Y201644D01*
D02*
G37*
G36*
X472051Y201702D02*
X472109Y201696D01*
X472180Y201689D01*
X472252Y201683D01*
X472336Y201663D01*
X472511Y201625D01*
X472705Y201566D01*
X472802Y201527D01*
X472893Y201482D01*
X472983Y201424D01*
X473074Y201366D01*
X473080Y201359D01*
X473093Y201353D01*
X473119Y201333D01*
X473152Y201301D01*
X473184Y201268D01*
X473229Y201223D01*
X473275Y201171D01*
X473327Y201119D01*
X473378Y201055D01*
X473430Y200977D01*
X473489Y200899D01*
X473540Y200815D01*
X473586Y200718D01*
X473638Y200621D01*
X473676Y200517D01*
X473715Y200400D01*
X473132Y200264D01*
Y200271D01*
X473126Y200284D01*
X473113Y200310D01*
X473100Y200342D01*
X473087Y200381D01*
X473068Y200433D01*
X473016Y200536D01*
X472951Y200653D01*
X472873Y200770D01*
X472776Y200880D01*
X472673Y200977D01*
X472659Y200990D01*
X472621Y201016D01*
X472556Y201048D01*
X472472Y201094D01*
X472362Y201132D01*
X472239Y201171D01*
X472090Y201197D01*
X471928Y201204D01*
X471876D01*
X471843Y201197D01*
X471798D01*
X471746Y201191D01*
X471623Y201171D01*
X471487Y201145D01*
X471345Y201100D01*
X471196Y201035D01*
X471060Y200951D01*
X471053D01*
X471047Y200938D01*
X471001Y200906D01*
X470943Y200854D01*
X470872Y200776D01*
X470788Y200679D01*
X470710Y200569D01*
X470639Y200433D01*
X470574Y200284D01*
Y200277D01*
X470568Y200264D01*
X470561Y200245D01*
X470555Y200213D01*
X470542Y200174D01*
X470529Y200128D01*
X470509Y200018D01*
X470483Y199889D01*
X470457Y199746D01*
X470444Y199591D01*
X470438Y199422D01*
Y199416D01*
Y199396D01*
Y199364D01*
Y199325D01*
X470444Y199280D01*
Y199222D01*
X470451Y199157D01*
X470457Y199086D01*
X470477Y198930D01*
X470509Y198762D01*
X470548Y198593D01*
X470600Y198425D01*
Y198419D01*
X470606Y198405D01*
X470619Y198386D01*
X470632Y198354D01*
X470671Y198276D01*
X470729Y198185D01*
X470801Y198082D01*
X470891Y197972D01*
X470995Y197874D01*
X471118Y197784D01*
X471124D01*
X471137Y197777D01*
X471157Y197764D01*
X471183Y197751D01*
X471215Y197738D01*
X471254Y197719D01*
X471345Y197680D01*
X471461Y197641D01*
X471591Y197609D01*
X471733Y197583D01*
X471882Y197577D01*
X471928D01*
X471967Y197583D01*
X472012D01*
X472057Y197589D01*
X472174Y197615D01*
X472310Y197648D01*
X472446Y197700D01*
X472588Y197771D01*
X472659Y197810D01*
X472724Y197861D01*
X472731Y197868D01*
X472737Y197874D01*
X472757Y197894D01*
X472783Y197913D01*
X472808Y197946D01*
X472841Y197985D01*
X472880Y198023D01*
X472912Y198075D01*
X472951Y198134D01*
X472996Y198198D01*
X473035Y198263D01*
X473074Y198341D01*
X473106Y198425D01*
X473139Y198516D01*
X473171Y198613D01*
X473197Y198716D01*
X473793Y198567D01*
Y198561D01*
X473787Y198535D01*
X473774Y198496D01*
X473754Y198444D01*
X473735Y198386D01*
X473709Y198315D01*
X473676Y198237D01*
X473638Y198153D01*
X473547Y197972D01*
X473430Y197790D01*
X473359Y197700D01*
X473288Y197609D01*
X473210Y197531D01*
X473119Y197453D01*
X473113Y197447D01*
X473100Y197434D01*
X473068Y197421D01*
X473035Y197395D01*
X472983Y197363D01*
X472932Y197330D01*
X472860Y197298D01*
X472789Y197266D01*
X472705Y197227D01*
X472614Y197194D01*
X472517Y197162D01*
X472413Y197130D01*
X472303Y197104D01*
X472187Y197091D01*
X472064Y197078D01*
X471934Y197071D01*
X471863D01*
X471811Y197078D01*
X471753D01*
X471682Y197084D01*
X471604Y197097D01*
X471513Y197110D01*
X471325Y197143D01*
X471131Y197194D01*
X470937Y197266D01*
X470846Y197311D01*
X470755Y197363D01*
X470749Y197369D01*
X470736Y197376D01*
X470710Y197395D01*
X470684Y197421D01*
X470645Y197447D01*
X470600Y197486D01*
X470548Y197531D01*
X470496Y197583D01*
X470444Y197641D01*
X470386Y197700D01*
X470270Y197848D01*
X470159Y198023D01*
X470062Y198218D01*
Y198224D01*
X470049Y198244D01*
X470043Y198276D01*
X470023Y198315D01*
X470010Y198367D01*
X469991Y198431D01*
X469965Y198503D01*
X469946Y198580D01*
X469926Y198665D01*
X469900Y198762D01*
X469868Y198962D01*
X469842Y199189D01*
X469829Y199422D01*
Y199429D01*
Y199455D01*
Y199494D01*
X469836Y199539D01*
Y199604D01*
X469842Y199669D01*
X469849Y199753D01*
X469861Y199837D01*
X469894Y200025D01*
X469939Y200232D01*
X470004Y200439D01*
X470095Y200640D01*
X470101Y200647D01*
X470108Y200666D01*
X470121Y200692D01*
X470146Y200724D01*
X470172Y200770D01*
X470205Y200821D01*
X470289Y200938D01*
X470399Y201068D01*
X470529Y201197D01*
X470678Y201327D01*
X470852Y201437D01*
X470859Y201443D01*
X470878Y201450D01*
X470904Y201463D01*
X470937Y201482D01*
X470989Y201502D01*
X471040Y201521D01*
X471105Y201547D01*
X471176Y201573D01*
X471254Y201599D01*
X471338Y201625D01*
X471520Y201663D01*
X471727Y201696D01*
X471941Y201709D01*
X472005D01*
X472051Y201702D01*
D02*
G37*
G36*
X476371Y197149D02*
X475820D01*
Y200653D01*
X475814Y200647D01*
X475781Y200621D01*
X475743Y200582D01*
X475678Y200536D01*
X475607Y200478D01*
X475516Y200413D01*
X475412Y200342D01*
X475296Y200271D01*
X475289D01*
X475283Y200264D01*
X475244Y200238D01*
X475179Y200206D01*
X475101Y200167D01*
X475011Y200122D01*
X474913Y200077D01*
X474816Y200031D01*
X474719Y199992D01*
Y200523D01*
X474726D01*
X474739Y200536D01*
X474765Y200543D01*
X474797Y200562D01*
X474836Y200582D01*
X474881Y200608D01*
X474991Y200672D01*
X475121Y200744D01*
X475250Y200834D01*
X475386Y200938D01*
X475522Y201048D01*
X475529Y201055D01*
X475535Y201061D01*
X475555Y201080D01*
X475581Y201100D01*
X475639Y201165D01*
X475717Y201242D01*
X475794Y201333D01*
X475879Y201437D01*
X475950Y201540D01*
X476015Y201651D01*
X476371D01*
Y197149D01*
D02*
G37*
%LPC*%
G36*
X339555Y612531D02*
X338143D01*
Y611048D01*
X339478D01*
X339555Y611054D01*
X339646Y611060D01*
X339750Y611067D01*
X339853Y611080D01*
X339957Y611099D01*
X340047Y611125D01*
X340061Y611132D01*
X340086Y611145D01*
X340125Y611164D01*
X340177Y611190D01*
X340235Y611229D01*
X340294Y611274D01*
X340352Y611333D01*
X340397Y611397D01*
X340404Y611404D01*
X340417Y611430D01*
X340436Y611469D01*
X340462Y611520D01*
X340481Y611579D01*
X340501Y611643D01*
X340514Y611721D01*
X340520Y611799D01*
Y611805D01*
Y611812D01*
X340514Y611851D01*
X340507Y611909D01*
X340494Y611987D01*
X340462Y612064D01*
X340423Y612155D01*
X340365Y612239D01*
X340287Y612323D01*
X340274Y612330D01*
X340242Y612356D01*
X340190Y612388D01*
X340106Y612427D01*
X340009Y612466D01*
X339879Y612498D01*
X339730Y612524D01*
X339555Y612531D01*
D02*
G37*
G36*
X392923Y613315D02*
X392884D01*
X392858Y613309D01*
X392794Y613296D01*
X392703Y613270D01*
X392606Y613225D01*
X392496Y613160D01*
X392444Y613121D01*
X392392Y613069D01*
X392340Y613017D01*
X392288Y612953D01*
Y612946D01*
X392275Y612933D01*
X392262Y612914D01*
X392249Y612881D01*
X392224Y612836D01*
X392204Y612778D01*
X392178Y612713D01*
X392152Y612635D01*
X392133Y612538D01*
X392107Y612434D01*
X392081Y612311D01*
X392062Y612182D01*
X392049Y612026D01*
X392036Y611864D01*
X392023Y611683D01*
Y611482D01*
Y611476D01*
Y611469D01*
Y611437D01*
Y611379D01*
X392029Y611301D01*
Y611217D01*
X392036Y611113D01*
X392042Y611003D01*
X392055Y610880D01*
X392088Y610634D01*
X392107Y610511D01*
X392133Y610394D01*
X392159Y610284D01*
X392198Y610180D01*
X392237Y610090D01*
X392282Y610012D01*
Y610005D01*
X392295Y609999D01*
X392308Y609980D01*
X392327Y609954D01*
X392385Y609895D01*
X392457Y609824D01*
X392554Y609759D01*
X392664Y609701D01*
X392722Y609675D01*
X392787Y609656D01*
X392858Y609649D01*
X392930Y609643D01*
X392968D01*
X392994Y609649D01*
X393066Y609662D01*
X393150Y609682D01*
X393247Y609720D01*
X393351Y609779D01*
X393402Y609818D01*
X393454Y609857D01*
X393500Y609908D01*
X393545Y609967D01*
Y609973D01*
X393558Y609986D01*
X393571Y610012D01*
X393590Y610044D01*
X393610Y610096D01*
X393636Y610154D01*
X393655Y610226D01*
X393681Y610310D01*
X393707Y610407D01*
X393733Y610517D01*
X393759Y610640D01*
X393778Y610776D01*
X393797Y610932D01*
X393811Y611100D01*
X393817Y611282D01*
X393823Y611482D01*
Y611495D01*
Y611528D01*
Y611586D01*
X393817Y611664D01*
Y611748D01*
X393811Y611852D01*
X393804Y611962D01*
X393791Y612078D01*
X393759Y612331D01*
X393739Y612454D01*
X393713Y612570D01*
X393687Y612681D01*
X393648Y612784D01*
X393610Y612875D01*
X393564Y612953D01*
Y612959D01*
X393551Y612966D01*
X393519Y613011D01*
X393461Y613069D01*
X393390Y613134D01*
X393292Y613199D01*
X393182Y613257D01*
X393059Y613302D01*
X392994Y613309D01*
X392923Y613315D01*
D02*
G37*
G36*
X445644Y613162D02*
X444232D01*
Y611678D01*
X445566D01*
X445644Y611685D01*
X445734Y611691D01*
X445838Y611698D01*
X445942Y611711D01*
X446045Y611730D01*
X446136Y611756D01*
X446149Y611763D01*
X446175Y611776D01*
X446214Y611795D01*
X446266Y611821D01*
X446324Y611860D01*
X446382Y611905D01*
X446441Y611963D01*
X446486Y612028D01*
X446492Y612035D01*
X446505Y612061D01*
X446525Y612099D01*
X446551Y612151D01*
X446570Y612210D01*
X446589Y612274D01*
X446602Y612352D01*
X446609Y612430D01*
Y612436D01*
Y612443D01*
X446602Y612481D01*
X446596Y612540D01*
X446583Y612617D01*
X446551Y612695D01*
X446512Y612786D01*
X446453Y612870D01*
X446376Y612954D01*
X446363Y612961D01*
X446330Y612987D01*
X446278Y613019D01*
X446194Y613058D01*
X446097Y613097D01*
X445968Y613129D01*
X445819Y613155D01*
X445644Y613162D01*
D02*
G37*
G36*
X460841Y373381D02*
X459506D01*
X459429Y373375D01*
X459338Y373368D01*
X459235Y373362D01*
X459131Y373349D01*
X459027Y373330D01*
X458937Y373304D01*
X458924Y373297D01*
X458898Y373284D01*
X458859Y373265D01*
X458807Y373239D01*
X458749Y373200D01*
X458690Y373155D01*
X458632Y373096D01*
X458587Y373032D01*
X458580Y373025D01*
X458567Y372999D01*
X458548Y372960D01*
X458522Y372909D01*
X458503Y372850D01*
X458483Y372785D01*
X458470Y372708D01*
X458464Y372630D01*
Y372623D01*
Y372617D01*
X458470Y372578D01*
X458477Y372520D01*
X458490Y372442D01*
X458522Y372364D01*
X458561Y372274D01*
X458619Y372190D01*
X458697Y372105D01*
X458710Y372099D01*
X458742Y372073D01*
X458794Y372041D01*
X458878Y372002D01*
X458975Y371963D01*
X459105Y371931D01*
X459254Y371905D01*
X459429Y371898D01*
X460841D01*
Y373381D01*
D02*
G37*
G36*
X453315Y374301D02*
X451903D01*
Y372293D01*
X453315Y374301D01*
D02*
G37*
G36*
X324472Y269491D02*
X323060D01*
Y268008D01*
X324394D01*
X324472Y268014D01*
X324562Y268020D01*
X324666Y268027D01*
X324769Y268040D01*
X324873Y268059D01*
X324964Y268085D01*
X324977Y268092D01*
X325003Y268105D01*
X325041Y268124D01*
X325093Y268150D01*
X325151Y268189D01*
X325210Y268234D01*
X325268Y268293D01*
X325313Y268357D01*
X325320Y268364D01*
X325333Y268390D01*
X325352Y268428D01*
X325378Y268480D01*
X325398Y268539D01*
X325417Y268603D01*
X325430Y268681D01*
X325437Y268759D01*
Y268765D01*
Y268772D01*
X325430Y268811D01*
X325424Y268869D01*
X325411Y268947D01*
X325378Y269024D01*
X325339Y269115D01*
X325281Y269199D01*
X325203Y269284D01*
X325190Y269290D01*
X325158Y269316D01*
X325106Y269348D01*
X325022Y269387D01*
X324925Y269426D01*
X324795Y269458D01*
X324646Y269484D01*
X324472Y269491D01*
D02*
G37*
G36*
X324884Y360893D02*
X323472D01*
Y359409D01*
X324806D01*
X324884Y359416D01*
X324975Y359422D01*
X325079Y359429D01*
X325182Y359442D01*
X325286Y359461D01*
X325376Y359487D01*
X325389Y359494D01*
X325415Y359506D01*
X325454Y359526D01*
X325506Y359552D01*
X325564Y359591D01*
X325622Y359636D01*
X325681Y359694D01*
X325726Y359759D01*
X325733Y359766D01*
X325746Y359791D01*
X325765Y359830D01*
X325791Y359882D01*
X325810Y359940D01*
X325830Y360005D01*
X325843Y360083D01*
X325849Y360161D01*
Y360167D01*
Y360174D01*
X325843Y360213D01*
X325836Y360271D01*
X325823Y360349D01*
X325791Y360426D01*
X325752Y360517D01*
X325694Y360601D01*
X325616Y360685D01*
X325603Y360692D01*
X325571Y360718D01*
X325519Y360750D01*
X325435Y360789D01*
X325338Y360828D01*
X325208Y360860D01*
X325059Y360886D01*
X324884Y360893D01*
D02*
G37*
G36*
X324185Y314922D02*
X322773D01*
Y313439D01*
X324108D01*
X324185Y313445D01*
X324276Y313452D01*
X324380Y313458D01*
X324483Y313471D01*
X324587Y313491D01*
X324678Y313516D01*
X324691Y313523D01*
X324716Y313536D01*
X324755Y313555D01*
X324807Y313581D01*
X324865Y313620D01*
X324924Y313665D01*
X324982Y313724D01*
X325027Y313789D01*
X325034Y313795D01*
X325047Y313821D01*
X325066Y313860D01*
X325092Y313911D01*
X325112Y313970D01*
X325131Y314035D01*
X325144Y314112D01*
X325150Y314190D01*
Y314196D01*
Y314203D01*
X325144Y314242D01*
X325138Y314300D01*
X325125Y314378D01*
X325092Y314456D01*
X325053Y314546D01*
X324995Y314631D01*
X324917Y314715D01*
X324904Y314721D01*
X324872Y314747D01*
X324820Y314779D01*
X324736Y314818D01*
X324639Y314857D01*
X324509Y314890D01*
X324360Y314915D01*
X324185Y314922D01*
D02*
G37*
G36*
X492851Y292898D02*
X491368D01*
Y291564D01*
X491374Y291486D01*
X491381Y291396D01*
X491387Y291292D01*
X491400Y291188D01*
X491419Y291085D01*
X491445Y290994D01*
X491452Y290981D01*
X491465Y290955D01*
X491484Y290916D01*
X491510Y290864D01*
X491549Y290806D01*
X491594Y290748D01*
X491653Y290690D01*
X491717Y290644D01*
X491724Y290638D01*
X491750Y290625D01*
X491789Y290605D01*
X491840Y290579D01*
X491899Y290560D01*
X491964Y290541D01*
X492041Y290528D01*
X492119Y290521D01*
X492125D01*
X492132D01*
X492171Y290528D01*
X492229Y290534D01*
X492307Y290547D01*
X492384Y290579D01*
X492475Y290618D01*
X492559Y290677D01*
X492644Y290754D01*
X492650Y290767D01*
X492676Y290800D01*
X492708Y290851D01*
X492747Y290936D01*
X492786Y291033D01*
X492818Y291162D01*
X492844Y291311D01*
X492851Y291486D01*
Y292898D01*
D02*
G37*
G36*
X490318Y288598D02*
X490305D01*
X490273D01*
X490215Y288591D01*
X490143Y288584D01*
X490059Y288572D01*
X489968Y288546D01*
X489871Y288520D01*
X489774Y288481D01*
X489761Y288474D01*
X489729Y288455D01*
X489684Y288429D01*
X489625Y288390D01*
X489567Y288345D01*
X489496Y288287D01*
X489437Y288222D01*
X489379Y288144D01*
X489373Y288131D01*
X489360Y288105D01*
X489334Y288060D01*
X489314Y288002D01*
X489288Y287937D01*
X489263Y287859D01*
X489250Y287775D01*
X489243Y287684D01*
Y287652D01*
X489250Y287626D01*
X489256Y287561D01*
X489276Y287477D01*
X489314Y287386D01*
X489360Y287283D01*
X489431Y287179D01*
X489470Y287127D01*
X489522Y287082D01*
X489528D01*
X489535Y287069D01*
X489573Y287043D01*
X489638Y287004D01*
X489722Y286952D01*
X489832Y286907D01*
X489962Y286868D01*
X490111Y286842D01*
X490286Y286829D01*
X490292D01*
X490305D01*
X490331D01*
X490364Y286836D01*
X490402D01*
X490448Y286842D01*
X490551Y286862D01*
X490668Y286888D01*
X490791Y286933D01*
X490908Y286998D01*
X491018Y287082D01*
X491031Y287095D01*
X491063Y287127D01*
X491102Y287179D01*
X491154Y287250D01*
X491206Y287341D01*
X491245Y287445D01*
X491277Y287568D01*
X491290Y287704D01*
Y287743D01*
X491283Y287768D01*
X491277Y287833D01*
X491258Y287924D01*
X491225Y288021D01*
X491173Y288131D01*
X491109Y288235D01*
X491018Y288338D01*
X491005Y288351D01*
X490973Y288377D01*
X490914Y288423D01*
X490830Y288468D01*
X490733Y288513D01*
X490610Y288559D01*
X490474Y288584D01*
X490318Y288598D01*
D02*
G37*
G36*
X257011Y320493D02*
X257005D01*
X256999D01*
X256960Y320486D01*
X256901Y320480D01*
X256824Y320467D01*
X256746Y320434D01*
X256655Y320396D01*
X256571Y320337D01*
X256487Y320260D01*
X256480Y320247D01*
X256454Y320214D01*
X256422Y320162D01*
X256383Y320078D01*
X256344Y319981D01*
X256312Y319851D01*
X256286Y319702D01*
X256280Y319528D01*
Y318116D01*
X257763D01*
Y319450D01*
X257756Y319528D01*
X257750Y319618D01*
X257743Y319722D01*
X257730Y319825D01*
X257711Y319929D01*
X257685Y320020D01*
X257679Y320033D01*
X257666Y320059D01*
X257646Y320098D01*
X257620Y320149D01*
X257581Y320208D01*
X257536Y320266D01*
X257478Y320324D01*
X257413Y320370D01*
X257407Y320376D01*
X257381Y320389D01*
X257342Y320409D01*
X257290Y320434D01*
X257232Y320454D01*
X257167Y320473D01*
X257089Y320486D01*
X257011Y320493D01*
D02*
G37*
G36*
X110672Y273004D02*
X110665D01*
X110659D01*
X110620D01*
X110562Y272991D01*
X110490Y272978D01*
X110413Y272952D01*
X110329Y272913D01*
X110244Y272862D01*
X110160Y272790D01*
X110154Y272784D01*
X110128Y272752D01*
X110095Y272706D01*
X110056Y272648D01*
X110018Y272570D01*
X109985Y272486D01*
X109959Y272382D01*
X109953Y272272D01*
Y272220D01*
X109966Y272162D01*
X109979Y272084D01*
X110005Y272000D01*
X110037Y271910D01*
X110089Y271825D01*
X110160Y271741D01*
X110167Y271735D01*
X110192Y271709D01*
X110238Y271676D01*
X110296Y271644D01*
X110367Y271605D01*
X110452Y271573D01*
X110542Y271547D01*
X110646Y271540D01*
X110652D01*
X110659D01*
X110698Y271547D01*
X110756Y271553D01*
X110827Y271566D01*
X110911Y271592D01*
X110996Y271625D01*
X111086Y271676D01*
X111164Y271741D01*
X111171Y271748D01*
X111196Y271780D01*
X111229Y271825D01*
X111261Y271884D01*
X111300Y271961D01*
X111332Y272052D01*
X111358Y272156D01*
X111365Y272272D01*
Y272285D01*
X111358Y272324D01*
X111352Y272382D01*
X111339Y272460D01*
X111313Y272544D01*
X111281Y272628D01*
X111229Y272719D01*
X111164Y272797D01*
X111158Y272803D01*
X111125Y272829D01*
X111086Y272862D01*
X111028Y272901D01*
X110957Y272939D01*
X110873Y272972D01*
X110775Y272998D01*
X110672Y273004D01*
D02*
G37*
G36*
X112732Y273186D02*
X112725D01*
X112712D01*
X112693D01*
X112667Y273179D01*
X112596Y273173D01*
X112498Y273153D01*
X112401Y273121D01*
X112291Y273075D01*
X112181Y273011D01*
X112077Y272920D01*
X112064Y272907D01*
X112038Y272875D01*
X111993Y272816D01*
X111941Y272739D01*
X111896Y272642D01*
X111851Y272525D01*
X111825Y272395D01*
X111812Y272253D01*
Y272214D01*
X111818Y272188D01*
X111825Y272117D01*
X111844Y272026D01*
X111876Y271922D01*
X111922Y271819D01*
X111987Y271709D01*
X112071Y271612D01*
X112084Y271599D01*
X112116Y271573D01*
X112175Y271534D01*
X112246Y271489D01*
X112343Y271437D01*
X112453Y271398D01*
X112576Y271372D01*
X112712Y271359D01*
X112725D01*
X112751D01*
X112796Y271366D01*
X112854Y271372D01*
X112926Y271385D01*
X113004Y271404D01*
X113081Y271430D01*
X113165Y271463D01*
X113172Y271469D01*
X113204Y271482D01*
X113243Y271508D01*
X113288Y271547D01*
X113347Y271592D01*
X113405Y271651D01*
X113457Y271715D01*
X113509Y271793D01*
X113515Y271806D01*
X113528Y271832D01*
X113548Y271877D01*
X113567Y271936D01*
X113586Y272007D01*
X113606Y272091D01*
X113619Y272182D01*
X113625Y272272D01*
Y272311D01*
X113619Y272337D01*
X113612Y272415D01*
X113593Y272505D01*
X113560Y272609D01*
X113522Y272719D01*
X113457Y272823D01*
X113373Y272927D01*
X113360Y272939D01*
X113327Y272965D01*
X113269Y273011D01*
X113198Y273056D01*
X113107Y273101D01*
X112997Y273147D01*
X112867Y273173D01*
X112732Y273186D01*
D02*
G37*
G36*
X452629Y339323D02*
X452590D01*
X452565Y339317D01*
X452493Y339310D01*
X452409Y339291D01*
X452305Y339258D01*
X452202Y339213D01*
X452098Y339148D01*
X452001Y339058D01*
X451988Y339045D01*
X451962Y339006D01*
X451923Y338947D01*
X451871Y338863D01*
X451826Y338760D01*
X451787Y338637D01*
X451761Y338488D01*
X451748Y338319D01*
Y338313D01*
Y338300D01*
Y338274D01*
X451755Y338241D01*
Y338196D01*
X451761Y338151D01*
X451781Y338047D01*
X451807Y337924D01*
X451852Y337794D01*
X451917Y337672D01*
X452001Y337561D01*
Y337555D01*
X452014Y337548D01*
X452046Y337516D01*
X452098Y337471D01*
X452169Y337419D01*
X452260Y337374D01*
X452364Y337328D01*
X452480Y337296D01*
X452545Y337283D01*
X452649D01*
X452675Y337289D01*
X452746Y337296D01*
X452830Y337322D01*
X452934Y337354D01*
X453044Y337412D01*
X453154Y337484D01*
X453206Y337535D01*
X453257Y337587D01*
Y337594D01*
X453270Y337600D01*
X453283Y337620D01*
X453296Y337639D01*
X453342Y337704D01*
X453387Y337794D01*
X453439Y337905D01*
X453484Y338041D01*
X453510Y338196D01*
X453523Y338364D01*
Y338371D01*
Y338384D01*
Y338403D01*
X453517Y338436D01*
Y338475D01*
X453510Y338513D01*
X453491Y338611D01*
X453458Y338721D01*
X453419Y338837D01*
X453355Y338954D01*
X453270Y339058D01*
X453257Y339071D01*
X453225Y339096D01*
X453167Y339142D01*
X453096Y339187D01*
X452999Y339239D01*
X452888Y339284D01*
X452765Y339310D01*
X452629Y339323D01*
D02*
G37*
G36*
X451964Y286978D02*
X451958D01*
X451951D01*
X451912Y286972D01*
X451854Y286965D01*
X451783Y286952D01*
X451698Y286926D01*
X451614Y286894D01*
X451524Y286842D01*
X451446Y286777D01*
X451439Y286771D01*
X451413Y286738D01*
X451381Y286693D01*
X451349Y286635D01*
X451310Y286557D01*
X451278Y286467D01*
X451252Y286363D01*
X451245Y286246D01*
Y286233D01*
X451252Y286194D01*
X451258Y286136D01*
X451271Y286059D01*
X451297Y285974D01*
X451329Y285890D01*
X451381Y285799D01*
X451446Y285722D01*
X451452Y285715D01*
X451485Y285689D01*
X451524Y285657D01*
X451582Y285618D01*
X451653Y285579D01*
X451737Y285547D01*
X451834Y285521D01*
X451938Y285514D01*
X451945D01*
X451951D01*
X451990D01*
X452048Y285527D01*
X452119Y285540D01*
X452197Y285566D01*
X452281Y285605D01*
X452366Y285657D01*
X452450Y285728D01*
X452456Y285735D01*
X452482Y285767D01*
X452515Y285812D01*
X452553Y285871D01*
X452592Y285948D01*
X452625Y286033D01*
X452651Y286136D01*
X452657Y286246D01*
Y286298D01*
X452644Y286356D01*
X452631Y286434D01*
X452605Y286518D01*
X452573Y286609D01*
X452521Y286693D01*
X452450Y286777D01*
X452443Y286784D01*
X452417Y286810D01*
X452372Y286842D01*
X452314Y286875D01*
X452243Y286913D01*
X452158Y286946D01*
X452068Y286972D01*
X451964Y286978D01*
D02*
G37*
G36*
X449898Y287160D02*
X449885D01*
X449859D01*
X449814Y287153D01*
X449755Y287147D01*
X449684Y287134D01*
X449606Y287114D01*
X449529Y287088D01*
X449445Y287056D01*
X449438Y287049D01*
X449406Y287036D01*
X449367Y287011D01*
X449321Y286972D01*
X449263Y286926D01*
X449205Y286868D01*
X449153Y286803D01*
X449101Y286726D01*
X449095Y286713D01*
X449082Y286687D01*
X449062Y286641D01*
X449043Y286583D01*
X449024Y286512D01*
X449004Y286428D01*
X448991Y286337D01*
X448985Y286246D01*
Y286207D01*
X448991Y286182D01*
X448998Y286104D01*
X449017Y286013D01*
X449049Y285910D01*
X449088Y285799D01*
X449153Y285696D01*
X449237Y285592D01*
X449250Y285579D01*
X449283Y285553D01*
X449341Y285508D01*
X449412Y285463D01*
X449503Y285417D01*
X449613Y285372D01*
X449742Y285346D01*
X449878Y285333D01*
X449885D01*
X449898D01*
X449917D01*
X449943Y285340D01*
X450014Y285346D01*
X450112Y285365D01*
X450209Y285398D01*
X450319Y285443D01*
X450429Y285508D01*
X450533Y285599D01*
X450546Y285611D01*
X450572Y285644D01*
X450617Y285702D01*
X450669Y285780D01*
X450714Y285877D01*
X450759Y285994D01*
X450785Y286123D01*
X450798Y286266D01*
Y286305D01*
X450792Y286331D01*
X450785Y286402D01*
X450766Y286492D01*
X450733Y286596D01*
X450688Y286700D01*
X450623Y286810D01*
X450539Y286907D01*
X450526Y286920D01*
X450494Y286946D01*
X450435Y286985D01*
X450364Y287030D01*
X450267Y287082D01*
X450157Y287121D01*
X450034Y287147D01*
X449898Y287160D01*
D02*
G37*
G36*
X159572Y275394D02*
X159566D01*
X159553D01*
X159527D01*
X159495Y275387D01*
X159456D01*
X159411Y275381D01*
X159307Y275361D01*
X159190Y275335D01*
X159067Y275290D01*
X158951Y275225D01*
X158841Y275141D01*
X158828Y275128D01*
X158795Y275096D01*
X158756Y275044D01*
X158705Y274973D01*
X158653Y274882D01*
X158614Y274778D01*
X158581Y274655D01*
X158569Y274519D01*
Y274480D01*
X158575Y274454D01*
X158581Y274390D01*
X158601Y274299D01*
X158633Y274202D01*
X158685Y274092D01*
X158750Y273988D01*
X158841Y273885D01*
X158854Y273872D01*
X158886Y273846D01*
X158944Y273800D01*
X159028Y273755D01*
X159126Y273710D01*
X159249Y273664D01*
X159385Y273638D01*
X159540Y273626D01*
X159553D01*
X159586D01*
X159644Y273632D01*
X159715Y273638D01*
X159799Y273651D01*
X159890Y273677D01*
X159987Y273703D01*
X160084Y273742D01*
X160097Y273748D01*
X160130Y273768D01*
X160175Y273794D01*
X160233Y273833D01*
X160291Y273878D01*
X160363Y273936D01*
X160421Y274001D01*
X160479Y274079D01*
X160486Y274092D01*
X160499Y274118D01*
X160525Y274163D01*
X160544Y274221D01*
X160570Y274286D01*
X160596Y274364D01*
X160609Y274448D01*
X160615Y274539D01*
Y274571D01*
X160609Y274597D01*
X160602Y274662D01*
X160583Y274746D01*
X160544Y274837D01*
X160499Y274940D01*
X160427Y275044D01*
X160389Y275096D01*
X160337Y275141D01*
X160330D01*
X160324Y275154D01*
X160285Y275180D01*
X160220Y275219D01*
X160136Y275271D01*
X160026Y275316D01*
X159896Y275355D01*
X159747Y275381D01*
X159572Y275394D01*
D02*
G37*
%LPD*%
D13*
X325920Y601010D02*
Y621010D01*
X359920D01*
Y601010D02*
Y621010D01*
X325920Y601010D02*
X359920D01*
X413900Y602450D02*
Y620450D01*
X379900Y602450D02*
X413900D01*
X379900D02*
Y620450D01*
X413900D01*
X430250Y601670D02*
Y621670D01*
X464250D01*
Y601670D02*
Y621670D01*
X430250Y601670D02*
X464250D01*
X473090Y363380D02*
Y383380D01*
X439090Y363380D02*
X473090D01*
X439090D02*
Y383380D01*
X473090D01*
X310820Y257970D02*
Y277970D01*
X344820D01*
Y257970D02*
Y277970D01*
X310820Y257970D02*
X344820D01*
X311210Y349411D02*
Y369411D01*
X345210D01*
Y349411D02*
Y369411D01*
X311210Y349411D02*
X345210D01*
X310100Y303440D02*
Y323440D01*
X344100D01*
Y303440D02*
Y323440D01*
X310100Y303440D02*
X344100D01*
X481330Y306880D02*
X501330D01*
Y272880D02*
Y306880D01*
X481330Y272880D02*
X501330D01*
X481330D02*
Y306880D01*
X247810Y304150D02*
X267810D01*
X247810D02*
Y338150D01*
X267810D01*
Y304150D02*
Y338150D01*
X102760Y254780D02*
X120760D01*
X102760D02*
Y288780D01*
X120760D01*
Y254780D02*
Y288780D01*
X473590Y330090D02*
Y348090D01*
X439590Y330090D02*
X473590D01*
X439590D02*
Y348090D01*
X473590D01*
X441850Y307220D02*
X459850D01*
Y273220D02*
Y307220D01*
X441850Y273220D02*
X459850D01*
X441850D02*
Y307220D01*
X247540Y354450D02*
X265540D01*
X247540D02*
Y388450D01*
X265540D01*
Y354450D02*
Y388450D01*
X149750Y253510D02*
X167750D01*
X149750D02*
Y287510D01*
X167750D01*
Y253510D02*
Y287510D01*
X375430Y190390D02*
Y208390D01*
X409430D01*
Y190390D02*
Y208390D01*
X375430Y190390D02*
X409430D01*
X456100D02*
Y208390D01*
X490100D01*
Y190390D02*
Y208390D01*
X456100Y190390D02*
X490100D01*
M02*
