G04*
G04 #@! TF.GenerationSoftware,Altium Limited,Altium Designer,25.4.2 (15)*
G04*
G04 Layer_Color=255*
%FSLAX44Y44*%
%MOMM*%
G71*
G04*
G04 #@! TF.SameCoordinates,7F9F24B7-B9C1-45AF-9387-6EDD806BED2B*
G04*
G04*
G04 #@! TF.FilePolarity,Positive*
G04*
G01*
G75*
%ADD19R,4.0000X3.4000*%
%ADD20R,0.8500X1.5000*%
%ADD21R,0.9000X1.3000*%
%ADD22R,10.2000X6.3000*%
%ADD23R,0.4400X1.5000*%
%ADD24R,1.5000X0.8500*%
%ADD25R,1.1000X1.4000*%
%ADD26R,1.3000X0.9000*%
%ADD27R,4.2000X1.1000*%
%ADD43C,1.3000*%
%ADD44R,1.3000X1.3000*%
%ADD45R,1.7000X1.7000*%
%ADD46C,1.7000*%
D19*
X118910Y528900D02*
D03*
X218910D02*
D03*
Y459050D02*
D03*
X118910D02*
D03*
X218910Y598750D02*
D03*
X118910D02*
D03*
D20*
X352920Y611010D02*
D03*
X332920D02*
D03*
X457250Y611670D02*
D03*
X437250D02*
D03*
X446090Y373380D02*
D03*
X466090D02*
D03*
X337820Y267970D02*
D03*
X317820D02*
D03*
X338210Y359411D02*
D03*
X318210D02*
D03*
X337100Y313440D02*
D03*
X317100D02*
D03*
D21*
X406400Y611450D02*
D03*
X387400D02*
D03*
X466090Y339090D02*
D03*
X447090D02*
D03*
X382930Y199390D02*
D03*
X401930D02*
D03*
X463600D02*
D03*
X482600D02*
D03*
D22*
X385350Y494550D02*
D03*
D23*
X330100Y562050D02*
D03*
X336600D02*
D03*
X343100D02*
D03*
X349600D02*
D03*
X356100D02*
D03*
X362600D02*
D03*
X369100D02*
D03*
X375600D02*
D03*
X382100D02*
D03*
X388600D02*
D03*
X395100D02*
D03*
X401600D02*
D03*
X408100D02*
D03*
X414600D02*
D03*
X421100D02*
D03*
X427600D02*
D03*
X434100D02*
D03*
X440600D02*
D03*
X330100Y427050D02*
D03*
X336600D02*
D03*
X343100D02*
D03*
X349600D02*
D03*
X356100D02*
D03*
X362600D02*
D03*
X369100D02*
D03*
X375600D02*
D03*
X382100D02*
D03*
X388600D02*
D03*
X395100D02*
D03*
X401600D02*
D03*
X408100D02*
D03*
X414600D02*
D03*
X421100D02*
D03*
X427600D02*
D03*
X434100D02*
D03*
X440600D02*
D03*
D24*
X491330Y279880D02*
D03*
Y299880D02*
D03*
X257810Y331150D02*
D03*
Y311150D02*
D03*
D25*
X212090Y266370D02*
D03*
Y229870D02*
D03*
X256820Y277670D02*
D03*
Y241170D02*
D03*
D26*
X111760Y262280D02*
D03*
Y281280D02*
D03*
X450850Y299720D02*
D03*
Y280720D02*
D03*
X256540Y361950D02*
D03*
Y380950D02*
D03*
X158750Y261010D02*
D03*
Y280010D02*
D03*
D27*
X211890Y367280D02*
D03*
X123890D02*
D03*
D43*
X462910Y130810D02*
D03*
X442910D02*
D03*
X422910D02*
D03*
X402910D02*
D03*
X382910D02*
D03*
X362910D02*
D03*
X342910Y130810D02*
D03*
X322910Y130810D02*
D03*
X462910Y150810D02*
D03*
X442910Y150810D02*
D03*
X422910Y150810D02*
D03*
X402910D02*
D03*
X382910D02*
D03*
X362910D02*
D03*
X342910D02*
D03*
D44*
X322910D02*
D03*
D45*
X113030Y189230D02*
D03*
D46*
X138430Y189230D02*
D03*
X163830Y189230D02*
D03*
X189230Y189230D02*
D03*
X214630D02*
D03*
X240030Y189230D02*
D03*
X113030Y163830D02*
D03*
X138430Y163830D02*
D03*
X163830Y163830D02*
D03*
X189230D02*
D03*
X214630Y163830D02*
D03*
X240030Y163830D02*
D03*
M02*
