M48
;Layer_Color=9474304
;FILE_FORMAT=4:4
METRIC,LZ
;TYPE=PLATED
T01F00S00C0.7500
T02F00S00C1.1000
%
T01
X0026564Y0007006
X0026632Y0013218
X0032291Y0013081
Y0015081
X0034291
Y0013081
X0036291Y0013081
X0038291
Y0015081
X0036291
X0029668Y0016826
X0028924Y0021659
X0032842Y0023053
X003574Y0026872
X0037497Y0032051
X00369Y0036
X003517Y0038834
X0028175Y0038946
X0028745Y0035717
X00182894Y00266432
X0016232Y0021614
X0032Y00098
X0040291Y0013081
X0042291
X0044291
X0046291
Y0015081
X0044291Y0015081
X0042291Y0015081
X0040291
X00401Y00253
X0049094Y002578
X00467Y00108
X0042799Y0039878
X0043667Y0063207
X00491738Y00612089
X0049126Y0058033
X0039339Y0058057
X003623Y0058038
X0028999Y0056488
X0029262Y0054382
X0027337Y0058344
X0024943Y0055989
X00242Y00634
X0028015Y006259
X00268Y00426
X00295Y00423
T02
X0011303Y0016383
X0013843Y0016383
X0016383Y0016383
X0018923
Y0018923
X0021463
X0021463Y0016383
X0024003Y0016383
Y0018923
X0016383Y0018923
X0013843Y0018923
X0011303Y0018923
M30
