G04*
G04 #@! TF.GenerationSoftware,Altium Limited,Altium Designer,25.4.2 (15)*
G04*
G04 Layer_Color=8388736*
%FSLAX44Y44*%
%MOMM*%
G71*
G04*
G04 #@! TF.SameCoordinates,7F9F24B7-B9C1-45AF-9387-6EDD806BED2B*
G04*
G04*
G04 #@! TF.FilePolarity,Negative*
G04*
G01*
G75*
%ADD28R,4.4000X3.8000*%
%ADD29R,1.0532X1.7032*%
%ADD30R,1.1032X1.5032*%
%ADD31R,10.3000X6.4000*%
%ADD32R,0.5400X1.6000*%
%ADD33R,1.7032X1.0532*%
%ADD34R,1.2000X1.5000*%
%ADD35R,1.5032X1.1032*%
%ADD36R,4.3000X1.2000*%
%ADD37C,1.5032*%
%ADD38R,1.5032X1.5032*%
%ADD39R,1.9032X1.9032*%
%ADD40C,1.9032*%
%ADD41C,1.4732*%
D28*
X118910Y528900D02*
D03*
X218910D02*
D03*
Y459050D02*
D03*
X118910D02*
D03*
X218910Y598750D02*
D03*
X118910D02*
D03*
D29*
X352920Y611010D02*
D03*
X332920D02*
D03*
X457250Y611670D02*
D03*
X437250D02*
D03*
X446090Y373380D02*
D03*
X466090D02*
D03*
X337820Y267970D02*
D03*
X317820D02*
D03*
X338210Y359411D02*
D03*
X318210D02*
D03*
X337100Y313440D02*
D03*
X317100D02*
D03*
D30*
X406400Y611450D02*
D03*
X387400D02*
D03*
X466090Y339090D02*
D03*
X447090D02*
D03*
X382930Y199390D02*
D03*
X401930D02*
D03*
X463600D02*
D03*
X482600D02*
D03*
D31*
X385350Y494550D02*
D03*
D32*
X330100Y562050D02*
D03*
X336600D02*
D03*
X343100D02*
D03*
X349600D02*
D03*
X356100D02*
D03*
X362600D02*
D03*
X369100D02*
D03*
X375600D02*
D03*
X382100D02*
D03*
X388600D02*
D03*
X395100D02*
D03*
X401600D02*
D03*
X408100D02*
D03*
X414600D02*
D03*
X421100D02*
D03*
X427600D02*
D03*
X434100D02*
D03*
X440600D02*
D03*
X330100Y427050D02*
D03*
X336600D02*
D03*
X343100D02*
D03*
X349600D02*
D03*
X356100D02*
D03*
X362600D02*
D03*
X369100D02*
D03*
X375600D02*
D03*
X382100D02*
D03*
X388600D02*
D03*
X395100D02*
D03*
X401600D02*
D03*
X408100D02*
D03*
X414600D02*
D03*
X421100D02*
D03*
X427600D02*
D03*
X434100D02*
D03*
X440600D02*
D03*
D33*
X491330Y279880D02*
D03*
Y299880D02*
D03*
X257810Y331150D02*
D03*
Y311150D02*
D03*
D34*
X212090Y266370D02*
D03*
Y229870D02*
D03*
X256820Y277670D02*
D03*
Y241170D02*
D03*
D35*
X111760Y262280D02*
D03*
Y281280D02*
D03*
X450850Y299720D02*
D03*
Y280720D02*
D03*
X256540Y361950D02*
D03*
Y380950D02*
D03*
X158750Y261010D02*
D03*
Y280010D02*
D03*
D36*
X211890Y367280D02*
D03*
X123890D02*
D03*
D37*
X462910Y130810D02*
D03*
X442910D02*
D03*
X422910D02*
D03*
X402910D02*
D03*
X382910D02*
D03*
X362910D02*
D03*
X342910Y130810D02*
D03*
X322910Y130810D02*
D03*
X462910Y150810D02*
D03*
X442910Y150810D02*
D03*
X422910Y150810D02*
D03*
X402910D02*
D03*
X382910D02*
D03*
X362910D02*
D03*
X342910D02*
D03*
D38*
X322910D02*
D03*
D39*
X113030Y189230D02*
D03*
D40*
X138430Y189230D02*
D03*
X163830Y189230D02*
D03*
X189230Y189230D02*
D03*
X214630D02*
D03*
X240030Y189230D02*
D03*
X113030Y163830D02*
D03*
X138430Y163830D02*
D03*
X163830Y163830D02*
D03*
X189230D02*
D03*
X214630Y163830D02*
D03*
X240030Y163830D02*
D03*
D41*
X351700Y388340D02*
D03*
X369000Y360000D02*
D03*
X328420Y230530D02*
D03*
X265640Y70060D02*
D03*
X266320Y132180D02*
D03*
X289240Y216590D02*
D03*
X296680Y168260D02*
D03*
X491260Y580330D02*
D03*
X362300Y580380D02*
D03*
X491738Y612089D02*
D03*
X393390Y580570D02*
D03*
X292620Y543820D02*
D03*
X287450Y357170D02*
D03*
X162320Y216140D02*
D03*
X280150Y625900D02*
D03*
X289990Y564880D02*
D03*
X249430Y559890D02*
D03*
X273370Y583440D02*
D03*
X436670Y632070D02*
D03*
X374970Y320510D02*
D03*
X281750Y389460D02*
D03*
X490940Y257800D02*
D03*
X427990Y398780D02*
D03*
X182894Y266432D02*
D03*
X268000Y426000D02*
D03*
X295000Y423000D02*
D03*
X242000Y634000D02*
D03*
X467000Y108000D02*
D03*
X320000Y98000D02*
D03*
X401000Y253000D02*
D03*
X357400Y268720D02*
D03*
M02*
