<svg width="45.085mm" height="60.071mm" viewBox="0 0 17750000 23650000"  version="1.1" xmlns="http://www.w3.org/2000/svg" xmlns:xlink="http://www.w3.org/1999/xlink">
<desc>
Origin 0 0 Bound 2850000 2100000 17750000 23650000
</desc>
<g fill-rule="evenodd" fill="rgb(0, 0, 255)" stroke="black" stroke-width="1" transform="translate(0, 23650000) scale(1, -1) translate(-2850000, -2100000)">
<path id="N" d="M 14537112.00 5083195.00 L 14521065.44 5044456.37 L 15223235.03 4342286.00 L 18148894.25 4342286.00 L 18150332.00 4349514.00 A 254898.03 254898.03 0 1 0 18150332.00 4154424.00 L 18148894.25 4161652.00 L 15185825.00 4161651.00 L 15151262.00 4168527.00 L 15121958.99 4188108.01 L 14393337.63 4916728.56 L 14354599.00 4900682.00 A 258115.98 258115.98 0 1 0 14537112.00 5083195.00  zM 14287793.13 5150001.07 m -150528.93 0 a 150528.93 150528.93 0 1 1 301057.86 0a 150528.93 150528.93 0 1 1 -301057.86 0"/>
<path id="N" d="M 14763054.00 14075683.00 L 14758959.64 14069555.36 L 15851266.00 12977249.00 L 15870844.00 12947948.00 L 15877719.00 12913385.00 L 15877719.00 10197562.75 L 15884947.00 10196125.00 A 254898.03 254898.03 0 1 0 15689857.00 10196125.00 L 15697085.00 10197562.75 L 15697085.00 12875974.00 L 14631231.64 13941827.36 L 14625104.00 13937733.00 A 254896.24 254896.24 0 1 0 14763054.00 14075683.00  z"/>
<path id="N" d="M 14287787.77 5937394.07 m -258122.37 0 a 258122.37 258122.37 0 1 1 516244.75 0a 258122.37 258122.37 0 1 1 -516244.75 0M 14287793.13 5937403.07 m -150528.93 0 a 150528.93 150528.93 0 1 1 301057.86 0a 150528.93 150528.93 0 1 1 -301057.86 0"/>
<path id="N" d="M 9722534.00 21807418.00 L 9716406.36 21811512.36 L 7924963.00 20020069.00 L 7924963.00 8102760.00 L 8284188.11 7743534.89 L 8362637.00 7776030.00 L 8449997.00 7787531.00 A 337522.83 337522.83 0 1 0 8156459.82 7615807.18 L 7770782.00 8001485.00 L 7751204.00 8030786.00 L 7744329.00 8065349.00 L 7744329.00 20057480.00 L 7751204.00 20092043.00 L 7770782.00 20121344.00 L 9588678.36 21939240.36 L 9584584.00 21945368.00 A 254896.24 254896.24 0 1 0 9722534.00 21807418.00  zM 8449998.22 7449994.65 m -220780.35 0 a 220780.35 220780.35 0 1 1 441560.70 0a 220780.35 220780.35 0 1 1 -441560.70 0"/>
<path id="N" d="M 11567642.00 8707405.00 L 11604576.89 8652128.00 L 14812993.00 8652128.00 L 14847556.00 8645253.00 L 14876857.00 8625675.00 L 17331859.32 6170672.68 L 17370598.00 6186719.00 A 258115.98 258115.98 0 1 0 17188085.00 6004206.00 L 17204131.32 6042944.68 L 14775582.00 8471494.00 L 11631226.30 8471494.00 L 11622897.00 8429620.00 A 254898.03 254898.03 0 1 0 11567642.00 8707405.00  zM 17437402.13 5937402.07 m -150528.93 0 a 150528.93 150528.93 0 1 1 301057.86 0a 150528.93 150528.93 0 1 1 -301057.86 0"/>
<path id="N" d="M 6626044.00 8411904.00 L 6621949.64 8405776.36 L 7284191.11 7743534.89 L 7362640.00 7776030.00 L 7450000.00 7787531.00 A 337522.83 337522.83 0 1 0 7156463.11 7615806.89 L 6494221.64 8278048.36 L 6488094.00 8273954.00 A 254896.24 254896.24 0 1 0 6626044.00 8411904.00  zM 7450001.22 7449994.65 m -220780.35 0 a 220780.35 220780.35 0 1 1 441560.70 0a 220780.35 220780.35 0 1 1 -441560.70 0"/>
<path id="N" d="M 19425891.00 9914111.00 L 19418663.00 9912673.25 L 19418663.00 4242520.00 L 19411788.00 4207957.00 L 19392210.00 4178656.00 L 18581580.00 3368026.00 L 18552279.00 3348448.00 L 18517716.00 3341573.00 L 11878740.00 3341572.00 L 11844177.00 3348448.00 L 11814876.00 3368026.00 L 11360546.00 3822356.00 L 11340968.00 3851657.00 L 11334093.00 3886220.00 L 11334093.00 5936125.00 L 10910535.00 6359683.00 L 9774807.15 6359683.00 L 9742312.00 6281234.00 L 9688672.00 6211328.00 A 337548.83 337548.83 0 1 0 9774807.15 6540317.00 L 10947946.00 6540317.00 L 10982509.00 6533442.00 L 11011810.00 6513864.00 L 11488274.00 6037400.00 L 11507852.00 6008099.00 L 11514727.00 5973536.00 L 11514727.00 3923631.00 L 11916151.00 3522207.00 L 18480305.00 3522207.00 L 19238029.00 4279931.00 L 19238029.00 9912673.25 L 19230801.00 9914111.00 A 254898.03 254898.03 0 1 0 19425891.00 9914111.00  zM 9450001.22 6449996.65 m -220780.35 0 a 220780.35 220780.35 0 1 1 441560.70 0a 220780.35 220780.35 0 1 1 -441560.70 0"/>
<path id="N" d="M 11029528.00 24386834.00 L 10936590.52 24405320.50 L 3653309.00 17122038.00 L 3653309.00 5619300.95 L 4082686.05 5189923.00 L 6062195.02 5189923.00 L 7156463.35 6284190.52 L 7123968.00 6362640.00 L 7112467.00 6450000.00 A 337522.83 337522.83 0 1 0 7284190.52 6156463.35 L 6163470.00 5035742.00 L 6134169.00 5016164.00 L 6099606.00 5009289.00 L 4045276.00 5009288.00 L 4010713.00 5016164.00 L 3981409.99 5035745.01 L 3499128.00 5518026.00 L 3479550.00 5547327.00 L 3472675.00 5581890.00 L 3472675.00 17159449.00 L 3479550.00 17194012.00 L 3499128.00 17223313.00 L 10804435.11 24528619.13 L 10794033.00 24544187.00 A 254896.24 254896.24 0 1 0 11029528.00 24386834.00  zM 7450001.22 6449996.65 m -220780.35 0 a 220780.35 220780.35 0 1 1 441560.70 0a 220780.35 220780.35 0 1 1 -441560.70 0"/>
<path id="N" d="M 16947545.00 15464505.00 L 16940317.00 15463067.25 L 16940318.00 9684645.00 L 16933442.00 9650082.00 L 16913864.00 9620781.00 L 16305203.00 9012120.00 L 16275902.00 8992542.00 L 16241339.00 8985667.00 L 13166853.75 8985667.00 L 13165416.00 8978439.00 A 254898.03 254898.03 0 1 0 13165416.00 9173529.00 L 13166853.75 9166301.00 L 16203928.00 9166301.00 L 16759683.00 9722056.00 L 16759683.00 15463067.25 L 16752455.00 15464505.00 A 254898.03 254898.03 0 1 0 16947545.00 15464505.00  z"/>
<path id="N" d="M 12968895.00 5681497.00 L 12457085.00 5681497.00 L 12457085.00 6193307.00 L 12968895.00 6193307.00 L 12968895.00 5681497.00  zM 12712989.13 5937403.07 m -150528.93 0 a 150528.93 150528.93 0 1 1 301057.86 0a 150528.93 150528.93 0 1 1 -301057.86 0"/>
<path id="N" d="M 5449999.26 6449999.65 m -337534.65 0 a 337534.65 337534.65 0 1 1 675069.30 0a 337534.65 337534.65 0 1 1 -675069.30 0M 5450001.22 6449997.65 m -220780.35 0 a 220780.35 220780.35 0 1 1 441560.70 0a 220780.35 220780.35 0 1 1 -441560.70 0"/>
<path id="N" d="M 15862590.77 5937394.07 m -258122.37 0 a 258122.37 258122.37 0 1 1 516244.75 0a 258122.37 258122.37 0 1 1 -516244.75 0M 15862596.13 5937403.07 m -150528.93 0 a 150528.93 150528.93 0 1 1 301057.86 0a 150528.93 150528.93 0 1 1 -301057.86 0"/>
<path id="N" d="M 15862591.77 5149992.07 m -258122.37 0 a 258122.37 258122.37 0 1 1 516244.75 0a 258122.37 258122.37 0 1 1 -516244.75 0M 15862597.13 5150001.07 m -150528.93 0 a 150528.93 150528.93 0 1 1 301057.86 0a 150528.93 150528.93 0 1 1 -301057.86 0"/>
<path id="N" d="M 18224797.77 5937394.07 m -258122.37 0 a 258122.37 258122.37 0 1 1 516244.75 0a 258122.37 258122.37 0 1 1 -516244.75 0M 18224803.13 5937403.07 m -150528.93 0 a 150528.93 150528.93 0 1 1 301057.86 0a 150528.93 150528.93 0 1 1 -301057.86 0"/>
<path id="N" d="M 11777860.00 6388914.00 L 11770632.00 6387476.25 L 11770632.00 4813788.97 L 12494751.87 4089668.32 L 12500880.00 4093763.00 A 254896.24 254896.24 0 1 0 12362930.00 3955813.00 L 12367024.68 3961941.13 L 11616451.00 4712514.00 L 11596873.00 4741815.00 L 11589998.00 4776378.00 L 11589998.00 6387476.25 L 11582770.00 6388914.00 A 254898.03 254898.03 0 1 0 11777860.00 6388914.00  z"/>
<path id="N" d="M 11618017.00 21174750.00 L 11610789.00 21173312.25 L 11610790.00 17150025.00 L 11603914.00 17115462.00 L 11584336.00 17086161.00 L 11255671.00 16757496.00 L 11255672.00 16638164.00 L 11248796.00 16603601.00 L 11229218.00 16574300.00 L 10765514.00 16110596.00 L 10765514.00 15197622.00 L 11321714.00 14641422.00 L 11341292.00 14612121.00 L 11348167.00 14577558.00 L 11348167.00 14310495.35 L 11414474.00 14297306.00 A 254898.03 254898.03 0 1 0 11136689.00 14242051.00 L 11167533.00 14262660.29 L 11167533.00 14540147.00 L 10611333.00 15096347.00 L 10591755.00 15125648.00 L 10584880.00 15160211.00 L 10584880.00 16148007.00 L 10591755.00 16182570.00 L 10611333.00 16211871.00 L 11075037.00 16675575.00 L 11075037.00 16794907.00 L 11081912.00 16829470.00 L 11101490.00 16858771.00 L 11430155.00 17187436.00 L 11430155.00 21173312.25 L 11422927.00 21174750.00 A 254898.03 254898.03 0 1 0 11618017.00 21174750.00  z"/>
<path id="N" d="M 20511811.00 2204724.00 L 3031496.00 2204724.00 L 3031496.00 5186805.71 L 3149606.38 5222909.62 L 3810077.00 4562439.00 L 3865423.00 4525457.00 L 3930709.00 4512471.00 L 6683070.00 4512471.00 L 6748356.00 4525457.00 L 6803702.00 4562439.00 L 8302752.43 6061488.58 L 8395577.00 6036616.00 A 416947.61 416947.61 0 1 1 8036615.00 6395578.00 L 8061487.58 6302753.43 L 6612405.97 4853671.00 L 6245302.89 4853671.00 L 6209473.72 4971781.35 L 6220238.00 4978974.00 L 7302752.40 6061487.59 L 7395577.00 6036615.00 A 416947.61 416947.61 0 1 1 7036615.00 6395577.00 L 7061487.59 6302752.40 L 6028941.96 5270206.00 L 5872278.97 5270206.00 L 5852632.72 5388316.33 L 5885199.00 5410077.00 L 6476469.00 6001347.00 L 6500034.95 6036615.00 L 6504423.00 6036615.00 A 416954.08 416954.08 0 1 1 6119210.00 6196176.00 L 6153990.00 6161396.00 L 5693903.00 5701309.00 L 4402948.00 5701309.00 L 4090945.07 6013311.93 L 4098604.04 6049747.56 L 4128547.47 6071063.51 L 4229814.41 6099787.35 L 4290440.00 6064785.00 A 416947.61 416947.61 0 1 1 4196177.00 6780788.00 L 4151702.42 6736313.42 L 4033592.00 6782262.82 L 4033592.00 7015355.00 L 4400000.02 7015355.00 L 4400000.01 7115355.00 L 4115355.00 7115355.00 L 4115355.00 7784645.00 L 4399999.99 7784645.00 L 4399999.98 7884645.00 L 4033592.00 7884645.00 L 4033592.00 16829729.99 L 9397980.65 22194117.89 L 9503875.57 22132979.61 L 9491339.00 22086192.00 L 9491339.00 21999634.00 L 9500678.66 21964777.56 L 7714014.00 20178112.00 L 7677032.00 20122766.00 L 7664046.00 20057480.00 L 7664046.00 10568315.29 L 7545935.83 10552765.81 L 7526700.00 10624555.00 A 353016.46 353016.46 0 0 1 7250552.00 10838409.10 L 7250552.00 10734412.33 L 7298097.00 10724955.00 A 254898.03 254898.03 0 0 0 7298097.00 10253965.00 L 7250552.00 10244507.67 L 7250552.00 10140510.90 L 7335647.00 10163312.00 A 353016.46 353016.46 0 0 1 7526700.00 10354365.00 L 7545935.83 10426154.19 L 7664046.00 10410604.71 L 7664046.00 8065349.00 L 7677032.00 8000063.00 L 7714014.00 7944717.00 L 8061484.64 7597245.79 L 8036612.00 7504421.00 A 416947.61 416947.61 0 1 1 8395574.00 7863383.00 L 8302749.21 7838510.36 L 8005246.00 8136013.08 L 8005246.00 19986815.97 L 9741943.56 21723512.66 L 9776800.00 21714173.00 L 9863358.00 21714173.00 L 9946968.00 21736576.00 L 9956777.42 21742239.43 L 10029298.63 21647727.63 L 9329368.00 20947797.00 L 9292386.00 20892451.00 L 9279400.00 20827165.00 L 9279400.00 7828839.60 L 9196176.00 7780790.00 A 416953.74 416953.74 0 1 1 9703824.00 7780790.00 L 9620600.00 7828839.60 L 9620600.00 20756501.00 L 10265727.61 21401628.61 L 10322524.05 21387778.64 L 10380581.00 21349448.67 L 10380581.00 17052754.64 L 10349330.00 17034712.00 A 331573.47 331573.47 0 0 1 10507902.00 16442914.00 L 10561806.47 16442914.00 L 10610970.05 16356179.80 L 10615949.22 16330023.35 L 10554565.00 16268639.00 L 10517583.00 16213293.00 L 10504597.00 16148007.00 L 10504597.00 15160211.00 L 10517583.00 15094925.00 L 10554565.00 15039579.00 L 11087250.00 14506893.09 L 11087250.00 14297041.00 L 11053871.00 14263662.00 A 331577.80 331577.80 0 1 1 11443818.00 14368148.00 L 11428450.00 14372265.80 L 11428450.00 14577558.00 L 11415464.00 14642844.00 L 11378483.00 14698190.00 L 11182188.63 14894484.03 L 11217487.03 15026219.02 L 11294371.00 15070013.00 L 11355578.00 15131220.00 L 11360891.31 15140423.00 L 13552627.62 15140423.00 L 13583399.00 15087125.00 A 331573.47 331573.47 0 0 1 13975069.50 14983634.06 L 14093180.00 14915442.67 L 14093180.00 14719746.99 L 10753777.00 11380343.00 L 10716795.00 11324997.00 L 10703809.00 11259711.00 L 10703809.00 8100762.00 L 10716795.00 8035476.00 L 10753777.00 7980130.00 L 11662647.60 7071259.40 L 11648350.30 7005327.68 L 11618650.81 6948222.75 L 11553426.00 6930746.00 A 331573.47 331573.47 0 0 1 11417257.00 6422558.00 L 11452045.94 6387769.06 L 11450354.93 6355889.09 L 11330767.32 6310027.09 L 11328768.78 6310441.76 L 11068578.00 6570632.00 L 11013232.00 6607614.00 L 10947946.00 6620600.00 L 9828839.60 6620600.00 L 9780790.00 6703824.00 A 416953.74 416953.74 0 1 1 9780790.00 6196176.00 L 9828839.60 6279400.00 L 10877281.90 6279400.00 L 11253810.00 5902871.10 L 11253810.00 3886220.00 L 11266796.00 3820934.00 L 11303778.00 3765588.00 L 11758108.00 3311257.00 L 11813454.00 3274276.00 L 11878740.00 3261290.00 L 18517716.00 3261290.00 L 18583002.00 3274276.00 L 18638348.00 3311258.00 L 19448978.00 4121888.00 L 19485960.00 4177234.00 L 19498946.00 4242520.00 L 19498946.00 9868505.36 L 19530197.00 9886548.00 A 331573.47 331573.47 0 1 1 19126495.00 9886548.00 L 19157746.00 9868505.36 L 19157746.00 4313184.00 L 18447052.00 3602490.00 L 12966730.47 3602490.00 L 12898539.08 3720600.50 L 12904762.00 3731379.00 A 331579.20 331579.20 0 0 1 12555146.00 4187008.00 L 12520289.47 4177668.32 L 11850915.00 4847042.05 L 11850915.00 6343308.36 L 11882166.00 6361351.00 L 11943373.00 6422558.00 L 11986652.00 6497520.00 L 12001050.83 6551257.71 L 12119161.00 6535708.37 L 12119161.00 4974695.00 L 12132147.00 4909409.00 L 12169129.00 4854063.00 L 12417052.00 4606140.00 L 12472398.00 4569158.00 L 12537684.00 4556172.00 L 13077162.00 4556172.00 L 13142448.00 4569158.00 L 13197794.00 4606140.00 L 13417434.64 4825780.13 L 13456335.00 4815357.00 A 337538.37 337538.37 0 1 1 13165747.00 5194059.00 L 13165745.46 5173501.07 L 13132554.86 5179277.74 L 13036636.38 5235105.16 L 13024830.00 5279168.00 A 337533.56 337533.56 0 0 1 12668933.00 5484645.00 L 12654886.76 5480881.39 L 12558450.04 5577318.56 L 12565266.25 5602757.00 L 13047635.00 5602757.00 L 13047635.00 6272047.00 L 12460361.00 6272047.00 L 12460361.00 6685410.00 L 12447375.00 6750696.00 L 12410393.00 6806042.00 L 11087939.17 8128495.83 L 11096379.94 8186244.69 L 11118738.90 8205767.84 L 11223890.68 8241971.74 L 11260513.00 8220828.00 A 331579.20 331579.20 0 0 1 11650460.00 8325314.00 L 11688505.36 8391211.00 L 14742328.98 8391211.00 L 16755744.33 6377794.88 L 16694057.00 6272047.00 A 337538.37 337538.37 0 1 1 16961840.00 5808234.00 L 16973647.38 5852300.55 L 17069561.13 5908126.18 L 17102758.00 5913903.03 L 17102758.00 5893344.00 A 337526.79 337526.79 0 1 1 17393346.00 6272046.00 L 17354445.96 6261622.96 L 14933625.00 8682443.00 L 14878279.00 8719425.00 L 14812993.00 8732411.00 L 13292687.36 8732411.00 L 13230821.69 8850521.48 L 13268823.57 8905384.00 L 16241339.00 8905384.00 L 16306625.00 8918370.00 L 16361971.00 8955352.00 L 16970633.00 9564013.00 L 17007614.00 9619359.00 L 17020600.00 9684645.00 L 17020600.00 15418899.36 L 17051851.00 15436942.00 A 331573.47 331573.47 0 1 1 16648149.00 15436942.00 L 16679400.00 15418899.36 L 16679400.00 9755309.92 L 16170674.92 9246584.00 L 13211021.64 9246584.00 L 13192979.00 9277835.00 A 331573.47 331573.47 0 0 1 12666863.00 8874133.00 L 12690474.57 8850521.43 L 12641551.63 8732411.00 L 11647065.00 8732411.00 L 11589253.00 8790223.00 A 331577.80 331577.80 0 0 1 11185551.00 8790223.00 L 11163119.43 8767791.43 L 11045009.00 8816714.37 L 11045009.00 11189046.99 L 14086534.48 14230571.57 L 14198819.00 14175822.73 L 14198819.00 14129949.00 A 331577.80 331577.80 0 0 1 14570838.00 13844488.00 L 14605695.15 13853827.85 L 15616802.00 12842721.00 L 15616802.00 10241730.64 L 15585551.00 10223688.00 A 331573.47 331573.47 0 1 1 15989253.00 10223688.00 L 15958002.00 10241730.64 L 15958002.00 12913385.00 L 15945016.00 12978671.00 L 15908034.00 13034017.00 L 14846959.15 14095091.85 L 14856299.00 14129949.00 A 331579.20 331579.20 0 0 1 14570838.00 14501968.00 L 14508768.41 14501968.00 L 14465723.37 14542281.03 L 14455398.82 14555193.97 L 14426352.29 14608723.35 L 14434380.00 14649082.00 L 14434380.00 22568505.36 L 14465631.00 22586548.00 A 331573.47 331573.47 0 1 1 14061929.00 22586548.00 L 14093180.00 22568505.36 L 14093180.00 15662509.33 L 13975069.50 15594317.94 A 328013.79 328013.79 0 0 1 13583399.00 15490827.00 L 13578085.11 15481623.00 L 11386349.96 15481623.00 L 11355578.00 15534922.00 A 331573.47 331573.47 0 0 1 10963907.50 15638412.94 L 10845797.00 15706604.33 L 10845797.00 16077342.90 L 11201151.29 16432696.46 L 11334102.21 16438637.39 L 11399268.00 16373473.00 L 11479078.00 16327395.00 L 11564173.00 16304593.90 L 11564173.00 16408590.67 L 11516628.00 16418048.00 A 254898.03 254898.03 0 1 0 11849668.00 16751088.00 L 11859125.33 16703543.00 L 11963122.10 16703543.00 L 11940321.00 16788638.00 A 353016.46 353016.46 0 0 1 11749263.15 16979698.78 L 11678086.15 17084739.77 L 11691072.00 17150025.00 L 11691072.00 21129144.36 L 11722323.00 21147187.00 A 331573.47 331573.47 0 1 1 11318621.00 21147187.00 L 11349872.00 21129144.36 L 11349872.00 17220689.86 L 11044722.00 16915539.00 L 11007740.00 16860193.00 L 10998031.13 16811382.48 L 10879920.81 16814933.70 A 331576.41 331576.41 0 0 1 10753032.00 17034712.00 L 10721781.00 17052754.64 L 10721781.00 21302957.94 L 11338793.46 21919969.69 L 11373650.00 21910630.00 A 331579.20 331579.20 0 1 1 11088189.00 22282649.00 L 11088189.00 22217606.93 L 11051308.40 22178144.63 L 10951065.81 22209643.68 L 10933198.00 22230597.59 L 10933198.00 22688978.36 L 10964449.00 22707021.00 A 331573.47 331573.47 0 0 1 10719319.71 23298819.00 L 10625878.91 23396058.99 L 10622169.22 23418306.29 L 11131258.99 23927396.00 L 19078653.36 23927396.00 L 19096696.00 23896145.00 A 331573.47 331573.47 0 1 1 19096696.00 24299847.00 L 19078653.36 24268596.00 L 11276938.81 24268596.00 L 11242849.08 24350962.18 L 11239411.39 24386706.39 L 11292586.00 24439881.00 A 331577.80 331577.80 0 0 1 11231379.00 24904790.00 L 11181574.83 24933544.23 L 11143636.36 25024721.35 L 11135461.05 25073750.97 L 11154169.72 25104375.30 L 11177500.94 25118376.00 L 16716738.00 25118376.00 L 16872331.85 24962782.15 L 16862992.00 24927925.00 A 331579.20 331579.20 0 1 1 17148453.00 25213386.00 L 17113595.85 25204046.15 L 16908034.00 25409608.00 L 16852688.00 25446590.00 L 16787402.00 25459576.00 L 11030708.00 25459576.00 L 10965422.00 25446590.00 L 10910076.00 25409608.00 L 3149606.38 17649138.38 L 3031496.00 17685242.29 L 3031496.00 25629921.00 L 3070866.00 25669291.00 L 20511811.00 25669291.00 L 20511811.00 2204724.00  zM 4450001.22 7449996.65 m -220780.35 0 a 220780.35 220780.35 0 1 1 441560.70 0a 220780.35 220780.35 0 1 1 -441560.70 0M 4884645.00 7400000.02 L 4784645.00 7400000.01 L 4784645.00 7115355.00 L 4500000.01 7115355.00 L 4500000.02 7015355.00 L 4884645.00 7015355.00 L 4884645.00 7400000.02  zM 5450000.00 6450005.49 m -416947.61 0 a 416947.61 416947.61 0 1 1 833895.22 0a 416947.61 416947.61 0 1 1 -833895.22 0M 6450002.00 7450003.49 m -416947.61 0 a 416947.61 416947.61 0 1 1 833895.22 0a 416947.61 416947.61 0 1 1 -833895.22 0M 10283188.00 4940879.00 L 10301054.00 4930564.14 L 10301054.00 3047096.99 L 10256417.00 3021326.00 A 331573.47 331573.47 0 1 1 10660119.00 3021326.00 L 10642254.00 3031640.28 L 10642254.00 4915108.59 L 10686890.00 4940879.00 A 331573.47 331573.47 0 1 1 10283188.00 4940879.00  zM 13500392.00 5937396.24 m -337538.37 0 a 337538.37 337538.37 0 1 1 675076.73 0a 337538.37 337538.37 0 1 1 -675076.73 0M 15075195.13 5937403.07 m -150528.93 0 a 150528.93 150528.93 0 1 1 301057.86 0a 150528.93 150528.93 0 1 1 -301057.86 0M 15075195.13 5150001.07 m -150528.93 0 a 150528.93 150528.93 0 1 1 301057.86 0a 150528.93 150528.93 0 1 1 -301057.86 0M 15125195.98 6292464.58 L 15125195.99 6188932.41 L 15142001.00 6186720.00 A 258122.37 258122.37 0 1 0 15008391.00 6186720.00 L 15025195.99 6188932.41 L 15025195.98 6292464.57 L 14937822.00 6269053.00 L 14856665.00 6222197.00 L 14790401.00 6155933.00 L 14743545.00 6074776.00 L 14731628.39 6030302.20 L 14609351.71 6030302.34 L 14599634.00 6066570.00 A 337533.56 337533.56 0 1 1 14599634.00 5808234.00 L 14609351.71 5844501.66 L 14731628.39 5844501.80 L 14743545.00 5800028.00 L 14790401.00 5718871.00 L 14856665.00 5652607.00 L 14941224.32 5604839.36 L 14941224.32 5482562.64 A 352924.09 352924.09 0 0 1 14743545.00 5287374.00 L 14731628.39 5242900.20 L 14609351.71 5242900.34 L 14599634.00 5279168.00 A 337533.56 337533.56 0 1 1 14331851.00 4815355.00 L 14370751.59 4825778.19 L 15065193.00 4131336.00 L 15120539.00 4094355.00 L 15185825.00 4081369.00 L 18104726.36 4081369.00 L 18122769.00 4050118.00 A 331573.47 331573.47 0 1 1 18122769.00 4453820.00 L 18104726.36 4422569.00 L 15256489.94 4422569.00 L 14998900.95 4680157.71 L 15013354.66 4736096.18 L 15025196.02 4753869.06 L 15025196.01 4898469.59 L 15008391.00 4900682.00 A 258122.37 258122.37 0 1 0 15142001.00 4900682.00 L 15125196.01 4898469.59 L 15125196.02 4794937.43 L 15212570.00 4818349.00 L 15293727.00 4865205.00 L 15359991.00 4931469.00 L 15406847.00 5012626.00 L 15418763.61 5057099.80 L 15541040.29 5057099.66 L 15550758.00 5020832.00 A 337533.56 337533.56 0 1 1 15550758.00 5279168.00 L 15541040.29 5242900.34 L 15418763.61 5242900.20 L 15406847.00 5287374.00 L 15359991.00 5368531.00 L 15293727.00 5434795.00 L 15209167.68 5482562.64 L 15209167.68 5604839.36 A 352924.09 352924.09 0 0 1 15406847.00 5800028.00 L 15418763.11 5844499.94 L 15541039.79 5844499.79 L 15550757.00 5808234.00 A 337533.56 337533.56 0 1 1 15550757.00 6066570.00 L 15541039.79 6030304.21 L 15418763.11 6030304.06 L 15406847.00 6074776.00 A 358976.55 358976.55 0 0 1 15125195.98 6292464.58  zM 16650000.00 5149994.24 m -337538.37 0 a 337538.37 337538.37 0 1 1 675076.73 0a 337538.37 337538.37 0 1 1 -675076.73 0M 18224803.13 5150001.07 m -150528.93 0 a 150528.93 150528.93 0 1 1 301057.86 0a 150528.93 150528.93 0 1 1 -301057.86 0M 18579866.58 5100000.02 L 18476334.41 5100000.01 L 18474122.00 5083195.00 A 258122.37 258122.37 0 0 0 18291609.00 4900682.00 L 18274804.01 4898469.59 L 18274804.02 4794937.43 L 18362178.00 4818349.00 L 18443335.00 4865205.00 L 18509599.00 4931469.00 L 18556455.00 5012626.00 L 18579866.58 5100000.02  zM 18095636.00 5625562.00 L 18131903.66 5615844.29 L 18131903.80 5493567.61 L 18087430.00 5481651.00 A 358976.55 358976.55 0 0 1 17893153.00 5287374.00 L 17881236.39 5242900.20 L 17758959.71 5242900.34 L 17749242.00 5279168.00 A 337533.56 337533.56 0 1 1 17749242.00 5020832.00 L 17758959.71 5057099.66 L 17881236.39 5057099.80 L 17893153.00 5012626.00 A 358976.55 358976.55 0 0 1 18174804.02 4794937.42 L 18174804.01 4898469.59 L 18157999.00 4900682.00 A 258122.37 258122.37 0 1 0 18474122.00 5216805.00 L 18476334.41 5200000.01 L 18579866.57 5200000.02 L 18556455.00 5287374.00 L 18509599.00 5368531.00 L 18443335.00 5434795.00 L 18362178.00 5481651.00 L 18317704.20 5493567.61 L 18317704.34 5615844.29 L 18353972.00 5625562.00 A 337533.56 337533.56 0 1 1 18095636.00 5625562.00  zM 4884645.00 7884645.00 L 4499999.98 7884645.00 L 4499999.99 7784645.00 L 4784645.00 7784645.00 L 4784645.00 7500000.01 L 4884645.00 7500000.02 L 4884645.00 7884645.00  zM 5450002.00 7450005.49 m -416947.61 0 a 416947.61 416947.61 0 1 1 833895.22 0a 416947.61 416947.61 0 1 1 -833895.22 0M 6433828.00 8180709.00 L 6468685.15 8190048.85 L 7061487.76 7597246.24 L 7036615.00 7504421.00 A 416947.61 416947.61 0 1 1 7395577.00 7863383.00 L 7302751.76 7838510.24 L 6709949.15 8431312.85 L 6719289.00 8466170.00 A 331579.20 331579.20 0 1 1 6433828.00 8180709.00  zM 6955599.67 10439460.00 L 6851602.90 10439460.00 L 6874404.00 10354365.00 A 353016.46 353016.46 0 0 1 7150552.00 10140510.90 L 7150552.00 10244507.67 L 7103007.00 10253965.00 L 7020312.00 10309220.00 L 6965057.00 10391915.00 L 6955599.67 10439460.00  zM 7150552.00 10838409.10 L 7065457.00 10815608.00 A 353016.46 353016.46 0 0 1 6851602.90 10539460.00 L 6955599.67 10539460.00 L 6965057.00 10587005.00 L 7020312.00 10669700.00 L 7103007.00 10724955.00 L 7150552.00 10734412.33 L 7150552.00 10838409.10  zM 14433858.00 12575225.00 L 14443197.85 12540367.85 L 13969919.00 12067089.00 L 13932937.00 12011743.00 L 13919951.00 11946457.00 L 13919951.00 10871993.69 L 13869015.00 10842586.00 A 331573.47 331573.47 0 1 1 14272717.00 10842586.00 L 14261151.00 10849263.58 L 14261151.00 11875793.00 L 14684461.85 12299103.85 L 14719319.00 12289764.00 A 331579.20 331579.20 0 1 1 14433858.00 12575225.00  zM 9282606.67 24910630.00 L 9178609.90 24910630.00 L 9201411.00 24825535.00 A 353016.46 353016.46 0 0 1 9477559.00 24611680.90 L 9477559.00 24715677.67 L 9430014.00 24725135.00 L 9347319.00 24780390.00 L 9292064.00 24863085.00 L 9282606.67 24910630.00  zM 9477559.00 25309579.10 L 9392464.00 25286778.00 A 353016.46 353016.46 0 0 1 9178609.90 25010630.00 L 9282606.67 25010630.00 L 9292064.00 25058175.00 L 9347319.00 25140870.00 L 9430014.00 25196125.00 L 9477559.00 25205582.33 L 9477559.00 25309579.10  zM 9577559.00 25309579.10 L 9577559.00 25205582.33 L 9625104.00 25196125.00 L 9707799.00 25140870.00 L 9763054.00 25058175.00 L 9772511.33 25010630.00 L 9876508.10 25010630.00 L 9853707.00 25095725.00 A 353016.46 353016.46 0 0 1 9577559.00 25309579.10  zM 11963122.10 16603543.00 L 11859125.33 16603543.00 L 11849668.00 16555998.00 L 11794413.00 16473303.00 L 11711718.00 16418048.00 L 11664173.00 16408590.67 L 11664173.00 16304593.90 L 11749268.00 16327395.00 A 353016.46 353016.46 0 0 1 11963122.10 16603543.00  zM 9876508.10 24910630.00 L 9772511.33 24910630.00 L 9763054.00 24863085.00 L 9707799.00 24780390.00 L 9625104.00 24725135.00 L 9577559.00 24715677.67 L 9577559.00 24611680.90 L 9662654.00 24634482.00 A 353016.46 353016.46 0 0 1 9876508.10 24910630.00  zM 15750853.00 22655236.00 L 15766167.68 22681762.00 L 19057116.98 22681762.00 L 19077887.00 22645787.00 A 331573.47 331573.47 0 1 1 19077887.00 23049489.00 L 19062571.75 23022962.00 L 15771623.59 23022962.00 L 15750853.00 23058938.00 A 331573.47 331573.47 0 1 1 15750853.00 22655236.00  z"/>
<path id="N" d="M 10336618.05 23106798.23 L 10433858.00 23013357.29 A 331577.85 331577.85 0 0 1 10560747.00 22707021.00 L 10591998.00 22688978.36 L 10591998.00 22210427.00 L 10215264.37 21833693.37 L 10120752.57 21906214.58 L 10126416.00 21916024.00 A 331579.20 331579.20 0 0 1 9776800.00 22371653.00 L 9730012.44 22359116.44 L 9668874.16 22465011.37 L 10314370.80 23110507.92 L 10336618.05 23106798.23  z"/>
<path id="N" d="M 12279024.68 3936403.53 L 12269685.00 3901547.00 L 12269685.00 3814989.00 L 12292088.00 3731379.00 L 12298310.92 3720600.50 L 12230119.53 3602490.00 L 11949404.89 3602490.00 L 11595010.00 3956884.11 L 11595010.00 4466100.11 L 11704129.85 4511298.99 L 12279024.68 3936403.53  z"/>
<path id="N" d="M 10627865.48 24477836.07 L 10628935.50 24466657.47 L 3652210.76 17489931.79 L 3524053.42 17528807.89 L 3522021.09 17539025.09 L 10505108.69 24521949.29 L 10627865.48 24477836.07  z"/>
<path id="N" d="M 17437395.77 5149992.07 m -258122.37 0 a 258122.37 258122.37 0 1 1 516244.75 0a 258122.37 258122.37 0 1 1 -516244.75 0M 17437401.13 5150001.07 m -150528.93 0 a 150528.93 150528.93 0 1 1 301057.86 0a 150528.93 150528.93 0 1 1 -301057.86 0"/>
<path id="N" d="M 6450001.26 7449997.65 m -337534.65 0 a 337534.65 337534.65 0 1 1 675069.30 0a 337534.65 337534.65 0 1 1 -675069.30 0M 6450003.22 7449995.65 m -220780.35 0 a 220780.35 220780.35 0 1 1 441560.70 0a 220780.35 220780.35 0 1 1 -441560.70 0"/>
<path id="N" d="M 10582584.00 4968442.00 L 10561971.00 4964341.80 L 10561971.00 2989648.36 L 10638508.00 2938508.00 A 254898.66 254898.66 0 1 0 10360723.00 2993763.00 L 10381337.00 2997863.40 L 10381337.00 4972555.97 L 10304799.00 5023697.00 A 254898.66 254898.66 0 1 0 10582584.00 4968442.00  z"/>
<path id="N" d="M 5450001.26 7449999.65 m -337534.65 0 a 337534.65 337534.65 0 1 1 675069.30 0a 337534.65 337534.65 0 1 1 -675069.30 0M 5450003.22 7449997.65 m -220780.35 0 a 220780.35 220780.35 0 1 1 441560.70 0a 220780.35 220780.35 0 1 1 -441560.70 0"/>
<path id="N" d="M 16649993.77 5937394.07 m -258122.37 0 a 258122.37 258122.37 0 1 1 516244.75 0a 258122.37 258122.37 0 1 1 -516244.75 0M 16649999.13 5937403.07 m -150528.93 0 a 150528.93 150528.93 0 1 1 301057.86 0a 150528.93 150528.93 0 1 1 -301057.86 0"/>
<path id="N" d="M 16851266.00 25352840.00 L 17088059.36 25116046.64 L 17094187.00 25120141.00 A 254896.24 254896.24 0 1 0 16956237.00 24982191.00 L 16960331.36 24988318.64 L 16749991.00 25198659.00 L 11068119.00 25198659.00 L 3360002.00 17490542.00 L 3360002.00 5381506.00 L 3968120.00 4773388.00 L 6645659.00 4773388.00 L 8156463.11 6284192.11 L 8123968.00 6362641.00 L 8112467.00 6450001.00 A 337522.83 337522.83 0 1 0 8284190.82 6156463.82 L 6746934.00 4619207.00 L 6717633.00 4599629.00 L 6683070.00 4592754.00 L 3930709.00 4592754.00 L 3896146.00 4599629.00 L 3866845.00 4619207.00 L 3205821.00 5280231.00 L 3186243.00 5309532.00 L 3179368.00 5344095.00 L 3179368.00 17527953.00 L 3186243.00 17562516.00 L 3205821.00 17591817.00 L 10966844.00 25352840.00 L 10996145.00 25372418.00 L 11030708.00 25379293.00 L 16787402.00 25379293.00 L 16821965.00 25372418.00 L 16851266.00 25352840.00  zM 8450001.22 6449997.65 m -220780.35 0 a 220780.35 220780.35 0 1 1 441560.70 0a 220780.35 220780.35 0 1 1 -441560.70 0"/>
<path id="N" d="M 4449992.93 6449983.95 m -337548.83 0 a 337548.83 337548.83 0 1 1 675097.65 0a 337548.83 337548.83 0 1 1 -675097.65 0M 4450002.22 6449994.65 m -220780.35 0 a 220780.35 220780.35 0 1 1 441560.70 0a 220780.35 220780.35 0 1 1 -441560.70 0"/>
<path id="N" d="M 11319384.00 22003875.00 L 11313255.87 22007969.68 L 10641498.00 21336211.03 L 10641498.00 17008586.75 L 10648726.00 17007149.00 A 254898.03 254898.03 0 1 0 10453636.00 17007149.00 L 10460864.00 17008586.75 L 10460864.00 21373622.00 L 10467739.00 21408185.00 L 10487317.00 21437486.00 L 11185528.68 22135696.87 L 11181434.00 22141825.00 A 254896.24 254896.24 0 1 0 11319384.00 22003875.00  z"/>
<path id="N" d="M 13500385.77 5937394.07 m -258122.37 0 a 258122.37 258122.37 0 1 1 516244.75 0a 258122.37 258122.37 0 1 1 -516244.75 0M 13500391.13 5937403.07 m -150528.93 0 a 150528.93 150528.93 0 1 1 301057.86 0a 150528.93 150528.93 0 1 1 -301057.86 0"/>
<path id="N" d="M 14665053.00 12383009.00 L 14658925.36 12387103.36 L 14180868.00 11909046.00 L 14180868.00 10806699.50 L 14251106.00 10759768.00 A 254898.66 254898.66 0 1 0 13973321.00 10815023.00 L 14000234.00 10820376.35 L 14000234.00 11946457.00 L 14007109.00 11981020.00 L 14026687.00 12010321.00 L 14531197.36 12514831.36 L 14527103.00 12520959.00 A 254896.24 254896.24 0 1 0 14665053.00 12383009.00  z"/>
<path id="N" d="M 10860143.00 22734584.00 L 10852915.00 22733146.25 L 10852915.00 22139763.00 L 10846040.00 22105200.00 L 10826462.00 22075899.00 L 9540317.00 20789754.00 L 9540317.00 7774807.15 L 9618766.00 7742312.00 L 9688672.00 7688672.00 A 337548.83 337548.83 0 1 0 9359683.00 7774807.15 L 9359683.00 20827165.00 L 9366558.00 20861728.00 L 9386136.00 20891029.00 L 10672281.00 22177174.00 L 10672281.00 22733146.25 L 10665053.00 22734584.00 A 254898.03 254898.03 0 1 0 10860143.00 22734584.00  zM 9450001.22 7449996.65 m -220780.35 0 a 220780.35 220780.35 0 1 1 441560.70 0a 220780.35 220780.35 0 1 1 -441560.70 0"/>
<path id="N" d="M 12712983.77 5149992.07 m -258122.37 0 a 258122.37 258122.37 0 1 1 516244.75 0a 258122.37 258122.37 0 1 1 -516244.75 0M 12712989.13 5150001.07 m -150528.93 0 a 150528.93 150528.93 0 1 1 301057.86 0a 150528.93 150528.93 0 1 1 -301057.86 0"/>
<path id="N" d="M 16649993.77 5149992.07 m -258122.37 0 a 258122.37 258122.37 0 1 1 516244.75 0a 258122.37 258122.37 0 1 1 -516244.75 0M 16649999.13 5150001.07 m -150528.93 0 a 150528.93 150528.93 0 1 1 301057.86 0a 150528.93 150528.93 0 1 1 -301057.86 0"/>
<path id="N" d="M 14361325.00 22614111.00 L 14354097.00 22612673.25 L 14354097.00 14649082.00 L 14347222.00 14614519.00 L 14327640.99 14585215.99 L 10964726.00 11222300.01 L 10964726.00 8138173.00 L 12353625.00 6749274.00 L 12373203.00 6719973.00 L 12380078.00 6685410.00 L 12380078.00 5012106.00 L 12575095.00 4817089.00 L 13039751.06 4817089.00 L 13267120.68 5044458.08 L 13251074.00 5083197.00 A 258115.98 258115.98 0 1 0 13433587.00 4900684.00 L 13394848.08 4916730.68 L 13141026.00 4662908.00 L 13111725.00 4643330.00 L 13077162.00 4636455.00 L 12537684.00 4636455.00 L 12503121.00 4643330.00 L 12473820.00 4662908.00 L 12225897.00 4910831.00 L 12206319.00 4940132.00 L 12199444.00 4974695.00 L 12199444.00 6647999.00 L 10810545.00 8036898.00 L 10790967.00 8066199.00 L 10784092.00 8100762.00 L 10784092.00 11259711.00 L 10790967.00 11294274.00 L 10810545.00 11323575.00 L 14173463.00 14686492.01 L 14173463.00 22612673.25 L 14166235.00 22614111.00 A 254898.03 254898.03 0 1 0 14361325.00 22614111.00  zM 13500391.13 5150003.07 m -150528.93 0 a 150528.93 150528.93 0 1 1 301057.86 0a 150528.93 150528.93 0 1 1 -301057.86 0"/>
<path id="N" d="M 19124259.00 24000451.00 L 19122821.25 24007679.00 L 11098005.00 24007679.00 L 3953309.00 16862983.00 L 3953309.00 6037412.00 L 4369695.00 5621026.00 L 5727156.00 5621026.00 L 6265520.00 6159390.00 L 6265520.00 6169745.61 L 6211328.00 6211328.00 A 337548.83 337548.83 0 1 0 6450000.00 6112467.00 L 6444408.38 6113203.14 L 6439279.00 6087416.00 L 6419701.00 6058115.00 L 5828431.00 5466845.00 L 5799130.00 5447267.00 L 5764567.00 5440392.00 L 4332284.00 5440392.00 L 4297721.00 5447267.00 L 4268420.00 5466845.00 L 3799128.00 5936137.00 L 3779550.00 5965438.00 L 3772675.00 6000001.00 L 3772675.00 16900394.00 L 3779550.00 16934957.00 L 3799128.00 16964258.00 L 10996730.00 24161860.00 L 11026031.00 24181438.00 L 11060594.00 24188313.00 L 19122821.25 24188313.00 L 19124259.00 24195541.00 A 254898.03 254898.03 0 1 0 19124259.00 24000451.00  zM 6450001.22 6449996.65 m -220780.35 0 a 220780.35 220780.35 0 1 1 441560.70 0a 220780.35 220780.35 0 1 1 -441560.70 0"/>
<path id="N" d="M 15723290.00 22954632.00 L 15725667.61 22942679.00 L 19104951.92 22942679.00 L 19160705.00 23027878.00 A 254898.66 254898.66 0 1 0 19105450.00 22750093.00 L 19103072.59 22762045.00 L 15723787.88 22762045.00 L 15668035.00 22676847.00 A 254898.66 254898.66 0 1 0 15723290.00 22954632.00  z"/>
<path id="N" d="M 11328015.00 15430616.00 L 11333838.39 15401340.00 L 13620863.73 15401340.00 L 13666217.00 15469216.00 A 254898.66 254898.66 0 1 0 13610962.00 15191431.00 L 13605138.81 15220706.00 L 11318112.60 15220706.00 L 11272760.00 15152831.00 A 254898.66 254898.66 0 1 0 11328015.00 15430616.00  z"/>
</g>
</svg>
