<svg width="45.085mm" height="60.071mm" viewBox="0 0 17750000 23650000"  version="1.1" xmlns="http://www.w3.org/2000/svg" xmlns:xlink="http://www.w3.org/1999/xlink">
<desc>
Origin 0 0 Bound 2850000 2100000 17750000 23650000
</desc>
<g fill-rule="evenodd" fill="rgb(128, 128, 0)" stroke="black" stroke-width="1" transform="translate(0, 23650000) scale(1, -1) translate(-2850000, -2100000)">
<path id="N" d="M 19127347.00 18890191.59 L 19127347.00 18680288.00 A 54118.70 54118.70 0 0 0 19019107.00 18680288.00 L 19019107.00 18759536.00 L 18901590.00 18642019.00 L 18871258.70 18629455.00 L 19020750.00 18629456.00 L 19059019.71 18613602.29 L 19111496.00 18561127.00 L 19127347.00 18522855.59 L 19127348.00 18417904.00 L 19111494.29 18379635.29 L 19059019.00 18327160.00 L 19020746.59 18311309.00 L 18818780.70 18311309.00 L 18849112.00 18298745.00 L 18864965.00 18260477.00 L 18849113.00 18222208.00 L 18812488.00 18185582.30 L 18812488.00 18125463.30 L 18833261.70 18104690.00 L 18840903.00 18104690.00 L 19034958.00 18298745.00 A 54119.43 54119.43 0 0 0 19127347.00 18260473.59 L 19127347.00 18050570.00 A 54118.70 54118.70 0 0 0 19019107.00 18050570.00 L 19019107.00 18129818.00 L 18901590.00 18012301.00 L 18871258.70 17999737.00 L 18915797.00 17999737.00 L 18927436.14 17994916.07 L 18940000.00 17994023.00 L 18945835.37 17987295.12 L 18954066.00 17983886.00 L 18958886.53 17972247.82 L 18967140.00 17962732.00 L 18966508.39 17953846.40 L 18968273.05 17949585.98 L 18982481.00 17983886.00 L 19020750.00 17999738.00 L 19059018.00 17983886.00 L 19111496.00 17931409.00 L 19127347.00 17893137.59 L 19127348.00 17788186.00 L 19111494.29 17749917.29 L 19059019.00 17697442.00 L 19020746.59 17681591.00 L 18915797.00 17681591.00 L 18877527.29 17697443.71 L 18825052.00 17749918.00 L 18812488.00 17780249.30 L 18812488.00 17735711.00 L 18796637.00 17697442.00 A 54121.84 54121.84 0 0 0 18704248.00 17735711.00 L 18704248.00 17945617.00 L 18720099.00 17983886.00 L 18758368.00 17999737.00 L 18802906.30 17999737.00 L 18772575.00 18012301.00 L 18720099.00 18064777.00 L 18704248.00 18103046.00 L 18704247.00 18207998.00 L 18720100.71 18246268.71 L 18772575.00 18298744.00 L 18806874.70 18312953.08 L 18772574.29 18327161.71 L 18720099.00 18379636.00 L 18704248.00 18417907.41 L 18704247.00 18522857.00 L 18720100.71 18561127.71 L 18772575.00 18613604.00 L 18806873.62 18627811.63 L 18772575.00 18642019.00 L 18720099.00 18694495.00 L 18704248.00 18732764.00 L 18704247.00 18837716.00 L 18720100.71 18875986.71 L 18772575.00 18928462.00 A 54117.01 54117.01 0 0 0 18849113.00 18851926.00 L 18812488.00 18815300.30 L 18812488.00 18755181.30 L 18833261.70 18734408.00 L 18840903.00 18734408.00 L 19034958.00 18928463.00 A 54119.43 54119.43 0 0 0 19127347.00 18890191.59  zM 18828229.13 17891497.00 L 18812488.00 17891497.00 L 18812488.00 17848599.79 L 18814914.00 17864867.00 L 18828229.13 17891497.00  zM 18968273.07 17941648.08 L 18965096.07 17933977.86 L 18964203.00 17921414.00 L 18917441.00 17827889.11 L 18917441.00 17810604.70 L 18938214.30 17789831.00 L 18998333.30 17789831.00 L 19019107.00 17810604.30 L 19019107.00 17870722.30 L 18982481.00 17907349.00 L 18968273.07 17941648.08  zM 18998332.70 18521215.00 L 18833261.30 18521215.00 L 18812488.00 18500441.30 L 18812488.00 18440322.70 L 18833261.30 18419549.00 L 18998333.30 18419549.00 L 19019107.00 18440322.30 L 19019107.00 18500440.30 L 18998332.70 18521215.00  z"/>
<path id="N" d="M 18350443.00 20987611.00 L 18299610.00 20987611.00 L 18299610.00 20959196.00 L 18388712.00 20870094.00 A 54119.43 54119.43 0 0 0 18312174.00 20793556.00 L 18271727.89 20834002.11 L 18231282.00 20793556.00 L 18200949.70 20780992.00 L 18297966.00 20780993.00 L 18336235.00 20765141.00 L 18388712.00 20712664.00 L 18404563.00 20674392.59 L 18404564.00 20569441.00 L 18388710.29 20531172.29 L 18336235.00 20478697.00 L 18301935.51 20464489.69 L 18336235.71 20450280.29 L 18388712.00 20397805.00 L 18404563.00 20359533.59 L 18404563.00 20202107.00 L 18388712.00 20163838.00 L 18354410.89 20149630.50 L 18388712.00 20135423.00 A 54121.84 54121.84 0 0 0 18350443.00 20043034.00 L 18267907.70 20043034.00 L 18194657.00 19969783.70 L 18194657.00 19939724.00 A 54118.70 54118.70 0 0 0 18086417.00 19939724.00 L 18086417.00 19992201.00 L 18102269.71 20030470.71 L 18122361.08 20050562.46 L 18102268.00 20058885.00 L 18086417.00 20097154.00 L 18102268.00 20135423.00 L 18132601.21 20147987.00 L 18035584.00 20147987.00 A 54118.70 54118.70 0 0 0 18035584.00 20256227.00 L 18086417.00 20256227.00 L 18086416.00 20359535.00 L 18102269.71 20397805.71 L 18154744.00 20450282.00 L 18189042.62 20464489.63 L 18154744.00 20478697.00 L 18102268.00 20531173.00 L 18086417.00 20569442.00 L 18086416.00 20674394.00 L 18102269.71 20712664.71 L 18154744.00 20765141.00 L 18185075.00 20777705.00 L 18088060.00 20777705.00 L 18049790.29 20793557.71 L 17997315.00 20846032.00 L 17981464.00 20884303.41 L 17981464.00 21041731.00 L 17997315.00 21080000.00 L 18035584.00 21095851.00 L 18350443.00 21095851.00 A 54121.84 54121.84 0 0 0 18350443.00 20987611.00  zM 18275548.70 20357893.00 L 18215430.30 20357893.00 L 18194657.00 20337119.30 L 18194657.00 20256227.00 L 18296323.00 20256227.00 L 18296323.00 20337118.30 L 18275548.70 20357893.00  zM 18275548.30 20672752.00 L 18215430.30 20672752.00 L 18194657.00 20651978.30 L 18194657.00 20591859.30 L 18215430.70 20571086.00 L 18275549.30 20571086.00 L 18296323.00 20591859.30 L 18296323.00 20651977.70 L 18275548.30 20672752.00  zM 18191370.00 20987611.00 L 18089704.00 20987611.00 L 18089704.00 20906718.70 L 18110477.30 20885945.00 L 18170596.30 20885945.00 L 18191370.00 20906718.30 L 18191370.00 20987611.00  z"/>
<path id="N" d="M 17681779.00 21041731.00 L 17681780.00 20884300.00 L 17665926.29 20846031.29 L 17613451.00 20793556.00 L 17579151.51 20779348.69 L 17613451.71 20765139.29 L 17665928.00 20712664.00 L 17681779.00 20674392.59 L 17681779.00 20569442.00 A 54118.70 54118.70 0 0 0 17589390.00 20531173.00 L 17576826.00 20561506.21 L 17576826.00 20516966.00 L 17560975.00 20478697.00 L 17522706.00 20462846.00 L 17478166.50 20462846.00 L 17508497.00 20450282.00 L 17560975.00 20397805.00 L 17573539.00 20367473.70 L 17573539.00 20412013.00 L 17589390.00 20450282.00 A 54121.84 54121.84 0 0 0 17681779.00 20412013.00 L 17681780.00 20254582.00 L 17665926.29 20216313.29 L 17613451.00 20163838.00 L 17575181.00 20147986.00 L 17536913.00 20163838.00 L 17484437.00 20216314.00 L 17471873.00 20246647.21 L 17471873.00 20202107.00 L 17456022.00 20163838.00 L 17421720.89 20149630.50 L 17456022.00 20135423.00 L 17471192.47 20098797.00 L 17574219.53 20098797.00 A 52959.15 52959.15 0 0 0 17681779.00 20097154.00 L 17681779.00 19992201.00 A 54118.70 54118.70 0 0 0 17574219.94 19990557.00 L 17417753.00 19990557.00 L 17379484.00 20006408.00 L 17365276.50 20040709.11 L 17351069.00 20006408.00 A 54121.84 54121.84 0 1 0 17351069.00 20082946.00 L 17363633.00 20052612.79 L 17363633.00 20097154.00 L 17379484.00 20135423.00 L 17413785.11 20149630.50 L 17379484.00 20163838.00 L 17363633.00 20202107.00 L 17363632.00 20359535.00 L 17379485.71 20397805.71 L 17431960.00 20450282.00 L 17466259.70 20464490.08 L 17431959.29 20478698.71 L 17379484.00 20531173.00 L 17363633.00 20569444.41 L 17363632.00 20674394.00 L 17379485.71 20712664.71 L 17431960.00 20765141.00 L 17462291.00 20777705.00 L 17365276.00 20777704.00 L 17327007.00 20793556.00 L 17274531.00 20846032.00 L 17258680.00 20884301.00 L 17258680.00 21041731.00 L 17274531.00 21080000.00 L 17312800.00 21095851.00 L 17627659.00 21095851.00 L 17665928.00 21080000.00 L 17681779.00 21041731.00  zM 17573539.00 20987611.00 L 17366920.00 20987611.00 L 17366920.00 20906718.30 L 17387693.70 20885945.00 L 17552765.30 20885945.00 L 17573539.00 20906718.30 L 17573539.00 20987611.00  z"/>
<path id="N" d="M 17613451.00 19873040.00 L 17665928.00 19820563.00 L 17681779.00 19782291.59 L 17681779.00 19737753.79 L 17694343.00 19768087.00 A 54121.84 54121.84 0 0 0 17786732.00 19729818.00 L 17786733.00 19677341.00 L 17770881.00 19639072.00 L 17718405.00 19586596.00 L 17680136.00 19570745.00 L 17635594.79 19570745.00 L 17665928.00 19558181.00 A 54121.84 54121.84 0 0 0 17627659.00 19465792.00 L 17471873.00 19465792.00 L 17471873.00 19384899.70 L 17492646.30 19364126.00 L 17627659.00 19364126.00 A 54118.70 54118.70 0 0 0 17627659.00 19255886.00 L 17583119.50 19255886.00 L 17613451.71 19243320.29 L 17665928.00 19190845.00 L 17681779.00 19152573.59 L 17681779.00 19047623.00 A 54118.70 54118.70 0 0 0 17589390.00 19009354.00 L 17576826.00 19039687.21 L 17576826.00 18995147.00 L 17560975.00 18956878.00 L 17530641.79 18944314.00 L 17575182.00 18944315.00 L 17613451.71 18928461.29 L 17665928.00 18875986.00 L 17681779.00 18837714.59 L 17681779.00 18680288.00 L 17665928.00 18642019.00 L 17627659.00 18626168.00 L 17312800.00 18626168.00 A 54118.70 54118.70 0 0 0 17312800.00 18734408.00 L 17363633.00 18734408.00 L 17363632.00 18837716.00 L 17379485.71 18875986.71 L 17431960.00 18928463.00 L 17466259.70 18942671.08 L 17431959.29 18956879.71 L 17379484.00 19009354.00 L 17363633.00 19047625.41 L 17363632.00 19152575.00 L 17379485.71 19190845.71 L 17431960.00 19243322.00 L 17466259.70 19257530.08 L 17431959.29 19271738.71 L 17379484.00 19324213.00 L 17363633.00 19362484.41 L 17363633.00 19519912.00 L 17379484.00 19558181.00 L 17413785.11 19572388.50 L 17379484.00 19586596.00 L 17363633.00 19624865.00 L 17363632.00 19782293.00 L 17379485.71 19820563.71 L 17431960.00 19873040.00 L 17470230.41 19888891.00 L 17575182.00 19888892.00 L 17613451.00 19873040.00  zM 17552764.70 18836074.00 L 17492646.30 18836074.00 L 17471873.00 18815300.30 L 17471873.00 18734408.00 L 17573539.00 18734408.00 L 17573539.00 18815299.30 L 17552764.70 18836074.00  zM 17552764.30 19780651.00 L 17492646.30 19780651.00 L 17471873.00 19759877.30 L 17471873.00 19678985.00 L 17573539.00 19678985.00 L 17573539.00 19759876.70 L 17552764.30 19780651.00  z"/>
<path id="N" d="M 17681779.00 18260476.00 L 17681780.00 18103045.00 L 17665926.29 18064776.29 L 17613451.00 18012301.00 L 17579151.56 17998093.71 L 17613451.00 17983886.00 L 17665928.00 17931409.00 L 17681779.00 17893137.59 L 17681779.00 17848599.79 L 17694343.00 17878933.00 A 54121.84 54121.84 0 0 0 17786732.00 17840664.00 L 17786732.00 17788187.00 L 17770879.29 17749917.29 L 17718405.00 17697442.00 L 17680133.59 17681591.00 L 17635594.79 17681591.00 L 17665928.00 17669027.00 L 17681779.00 17630758.00 L 17681779.00 17578281.00 L 17665928.00 17540012.00 L 17627659.00 17524161.00 L 17575182.00 17524161.00 L 17536913.00 17540012.00 L 17522705.50 17574313.11 L 17508498.00 17540012.00 L 17470229.00 17524161.00 L 17417753.00 17524161.00 L 17379484.00 17540012.00 L 17363633.00 17578281.00 L 17363633.00 17630758.00 L 17379484.00 17669027.00 L 17413785.11 17683234.50 L 17379484.00 17697442.00 A 54121.84 54121.84 0 0 0 17417753.00 17789831.00 L 17573539.00 17789831.00 L 17573539.00 17870722.70 L 17552764.30 17891497.00 L 17417753.00 17891497.00 A 54118.70 54118.70 0 0 0 17417753.00 17999737.00 L 17462291.30 17999737.00 L 17431960.00 18012301.00 L 17379484.00 18064777.00 L 17363633.00 18103046.00 L 17363633.00 18206356.00 L 17312800.00 18206356.00 A 54118.70 54118.70 0 0 0 17312800.00 18314596.00 L 17627659.00 18314596.00 L 17665928.00 18298745.00 L 17681779.00 18260476.00  zM 17567246.21 17681591.00 L 17478164.79 17681591.00 L 17508498.00 17669027.00 L 17522705.50 17634725.89 L 17536913.00 17669027.00 L 17567246.21 17681591.00  zM 17573539.00 18206356.00 L 17471873.00 18206356.00 L 17471873.00 18125463.30 L 17492646.70 18104690.00 L 17552765.30 18104690.00 L 17573539.00 18125463.30 L 17573539.00 18206356.00  z"/>
<path id="N" d="M 18336235.00 19558181.00 L 18388712.00 19505704.00 L 18404563.00 19467432.59 L 18404563.00 19422894.79 L 18417127.00 19453228.00 A 54121.84 54121.84 0 0 0 18509516.00 19414959.00 L 18509517.00 19362482.00 L 18493665.00 19324213.00 L 18441189.00 19271737.00 L 18402920.00 19255886.00 L 18305903.70 19255886.00 L 18336235.00 19243322.00 L 18388712.00 19190845.00 L 18404563.00 19152573.59 L 18404564.00 19047622.00 L 18388710.29 19009353.29 L 18336235.00 18956878.00 L 18297962.59 18941027.00 L 18193013.00 18941026.00 L 18154744.00 18956878.00 L 18102268.00 19009354.00 L 18086417.00 19047623.00 L 18086416.00 19152575.00 L 18102269.71 19190845.71 L 18154744.00 19243322.00 L 18185075.00 19255886.00 L 18140537.00 19255886.00 L 18102268.00 19271737.00 L 18086417.00 19310006.00 L 18086416.00 19467434.00 L 18102269.71 19505704.71 L 18154744.00 19558181.00 L 18193014.41 19574032.00 L 18297966.00 19574033.00 L 18336235.00 19558181.00  zM 18275548.30 19465792.00 L 18215430.30 19465792.00 L 18194657.00 19445018.30 L 18194657.00 19364126.00 L 18296323.00 19364126.00 L 18296323.00 19445017.70 L 18275548.30 19465792.00  zM 18275548.30 19150933.00 L 18215430.30 19150933.00 L 18194657.00 19130159.30 L 18194657.00 19070040.30 L 18215430.70 19049267.00 L 18275549.30 19049267.00 L 18296323.00 19070040.30 L 18296323.00 19130158.70 L 18275548.30 19150933.00  z"/>
<path id="N" d="M 19059018.00 21080000.00 L 19111496.00 21027523.00 L 19127347.00 20989251.59 L 19127348.00 20884300.00 L 19111494.29 20846031.29 L 19059019.00 20793556.00 L 19020746.59 20777705.00 L 18968275.00 20777704.00 L 18930004.29 20793557.71 L 18877528.00 20846032.00 L 18861677.00 20884302.41 L 18861677.00 20966837.30 L 18840903.70 20987611.00 L 18833261.30 20987611.00 L 18812488.00 20966837.30 L 18812488.00 20906718.30 L 18849113.00 20870094.00 A 54119.43 54119.43 0 0 0 18772575.00 20793556.00 L 18720099.00 20846032.00 L 18704248.00 20884301.00 L 18704247.00 20989253.00 L 18720100.71 21027523.71 L 18772575.00 21080000.00 L 18810845.41 21095851.00 L 18863322.00 21095852.00 L 18901590.71 21079998.29 L 18954066.00 21027523.00 L 18969917.00 20989250.59 L 18969917.00 20906718.30 L 18990690.70 20885945.00 L 18998333.30 20885945.00 L 19019107.00 20906718.30 L 19019107.00 20966836.30 L 18982481.00 21003463.00 A 54118.22 54118.22 0 0 0 19059018.00 21080000.00  z"/>
<path id="N" d="M 19059019.71 20502756.29 L 19111496.00 20450281.00 L 19127347.00 20412009.59 L 19127347.00 20307059.00 A 54118.70 54118.70 0 0 0 19034958.00 20268790.00 L 19022394.00 20299123.21 L 19022394.00 20254583.00 L 19006543.00 20216314.00 L 18976209.79 20203750.00 L 19073227.00 20203750.00 A 54118.70 54118.70 0 0 0 19073227.00 20095510.00 L 18990691.70 20095510.00 L 18917441.00 20022259.70 L 18917441.00 19992200.00 A 54118.70 54118.70 0 1 0 18809201.00 19992200.00 L 18809201.00 20044677.00 L 18825053.71 20082946.71 L 18845145.08 20103038.46 L 18825052.00 20111361.00 A 54121.84 54121.84 0 0 0 18863321.00 20203750.00 L 18907861.21 20203750.00 L 18877527.29 20216315.71 L 18825052.00 20268790.00 L 18809201.00 20307061.41 L 18809200.00 20412011.00 L 18825053.71 20450281.71 L 18877528.00 20502758.00 L 18915798.41 20518609.00 L 19020750.00 20518610.00 L 19059019.71 20502756.29  z"/>
<path id="N" d="M 6292482.00 20116525.00 L 6292482.00 19841024.00 L 6273760.00 19795825.00 L 6181926.00 19703991.00 L 6136727.00 19685269.00 L 6044893.00 19685269.00 L 5999694.00 19703991.00 L 5953059.75 19750625.75 L 5906425.00 19703991.00 L 5861226.00 19685269.00 L 5769392.00 19685269.00 L 5724193.00 19703991.00 L 5632359.00 19795825.00 L 5613637.00 19841024.00 L 5613637.00 20116525.00 L 5632359.00 20161724.00 L 5677558.00 20180446.00 L 6228561.00 20180446.00 L 6273760.00 20161724.00 L 6292482.00 20116525.00  zM 5889139.00 20052604.00 L 5741479.00 20052604.00 L 5741479.00 19867501.00 L 5795869.00 19813111.00 L 5834749.00 19813111.00 L 5889139.00 19867501.00 L 5889139.00 20052604.00  zM 6164640.00 20052604.00 L 6016981.00 20052604.00 L 6016981.00 19867500.80 L 6071370.20 19813111.00 L 6110250.00 19813111.00 L 6164640.00 19867501.00 L 6164640.00 20052604.00  z"/>
<path id="N" d="M 7126594.00 21263730.00 L 7218428.00 21171896.00 L 7237150.00 21126697.00 L 7237150.00 20943030.00 A 63920.91 63920.91 0 1 0 7109308.00 20943030.00 L 7109308.00 21100220.00 L 7054918.00 21154610.00 L 7053482.00 21154610.00 L 7053482.00 20851196.00 L 7034760.00 20805997.00 L 6989561.00 20787275.00 L 6897728.00 20787275.00 L 6852529.00 20805997.00 L 6760695.00 20897831.00 L 6741973.00 20943030.00 L 6741973.00 21126697.00 L 6760695.00 21171896.00 L 6852529.00 21263730.00 L 6897728.00 21282452.00 L 7081395.00 21282452.00 L 7126594.00 21263730.00  zM 6925640.00 21154610.00 L 6924205.00 21154610.00 L 6869815.00 21100220.00 L 6869815.00 20969507.00 L 6924205.00 20915117.00 L 6925640.00 20915117.00 L 6925640.00 21154610.00  z"/>
<path id="N" d="M 7126594.00 16947540.00 L 7218428.00 16855706.00 L 7237150.00 16810507.00 L 7237150.00 16626840.00 A 63920.91 63920.91 0 0 0 7109308.00 16626840.00 L 7109308.00 16784030.00 L 7054918.00 16838420.00 L 7053482.00 16838420.00 L 7053482.00 16535006.00 L 7034760.00 16489807.00 L 6989561.00 16471085.00 L 6897728.00 16471085.00 L 6852529.00 16489807.00 L 6760695.00 16581641.00 L 6741973.00 16626840.00 L 6741973.00 16810507.00 L 6760695.00 16855706.00 L 6852529.00 16947540.00 L 6897728.00 16966262.00 L 7081395.00 16966262.00 L 7126594.00 16947540.00  zM 6925640.00 16838420.00 L 6924205.00 16838420.00 L 6869815.00 16784030.00 L 6869815.00 16653317.00 L 6924205.00 16598927.00 L 6925640.00 16598927.00 L 6925640.00 16838420.00  z"/>
<path id="N" d="M 6181926.00 18508715.00 L 6273760.00 18416881.00 L 6292482.00 18371682.00 L 6292482.00 18188015.00 L 6273760.00 18142816.00 L 6181926.00 18050982.00 A 63921.13 63921.13 0 0 0 6091528.00 18141380.00 L 6164640.00 18214492.00 L 6164640.00 18345205.00 L 6110250.00 18399595.00 L 5795869.00 18399595.00 L 5741479.00 18345205.00 L 5741479.00 18214492.00 L 5814591.00 18141380.00 A 63921.13 63921.13 0 0 0 5724193.00 18050982.00 L 5632359.00 18142816.00 L 5613637.00 18188015.00 L 5613637.00 18371682.00 L 5632359.00 18416881.00 L 5724193.00 18508715.00 L 5769392.00 18527437.00 L 6136727.00 18527437.00 L 6181926.00 18508715.00  z"/>
<path id="N" d="M 5925147.00 22228703.00 L 5925147.00 22200790.00 L 6136727.00 22200790.00 L 6181926.00 22182068.00 L 6273760.00 22090234.00 A 63921.13 63921.13 0 1 0 6183362.00 21999836.00 L 6110250.00 22072948.00 L 5925147.00 22072948.00 L 5925147.00 22045035.00 A 63920.91 63920.91 0 1 0 5797305.00 22045035.00 L 5797305.00 22072948.00 L 5769392.00 22072948.00 A 63920.91 63920.91 0 0 0 5769392.00 22200790.00 L 5797305.00 22200790.00 L 5797305.00 22228703.00 A 63920.91 63920.91 0 1 0 5925147.00 22228703.00  z"/>
<path id="N" d="M 19127347.00 20726872.00 L 19127347.00 20621919.00 A 54118.70 54118.70 0 0 0 19019787.94 20620275.00 L 18863321.00 20620275.00 L 18825052.00 20636126.00 L 18810844.50 20670427.11 L 18796637.00 20636126.00 A 54121.84 54121.84 0 1 0 18796637.00 20712664.00 L 18809201.00 20682330.79 L 18809201.00 20726872.00 L 18825052.00 20765141.00 A 54121.84 54121.84 0 0 0 18916760.47 20728515.00 L 19019787.53 20728515.00 A 52959.15 52959.15 0 0 0 19127347.00 20726872.00  z"/>
<path id="N" d="M 18404563.00 19782295.00 L 18404563.00 19677342.00 A 54118.70 54118.70 0 0 0 18297003.94 19675698.00 L 18140537.00 19675698.00 L 18102268.00 19691549.00 L 18088060.50 19725850.11 L 18073853.00 19691549.00 A 54121.84 54121.84 0 1 0 18073853.00 19768087.00 L 18086417.00 19737753.79 L 18086417.00 19782295.00 L 18102268.00 19820564.00 A 54121.84 54121.84 0 0 0 18193976.47 19783938.00 L 18297003.53 19783938.00 A 52959.15 52959.15 0 0 0 18404563.00 19782295.00  z"/>
<path id="N" d="M 6228561.00 23266788.00 L 5831877.00 23266788.00 L 5906425.00 23192240.00 L 5925147.00 23147041.00 L 5906425.00 23101842.00 L 5831877.59 23027295.00 L 6228561.00 23027295.00 A 63920.91 63920.91 0 0 0 6228561.00 22899453.00 L 5677558.00 22899453.00 A 63920.91 63920.91 0 0 0 5632359.00 23008573.00 L 5770827.88 23147041.12 L 5632359.00 23285510.00 A 63921.13 63921.13 0 0 0 5677558.00 23394630.00 L 6228561.00 23394630.00 A 63921.13 63921.13 0 1 0 6228561.00 23266788.00  z"/>
<path id="N" d="M 7173229.00 19501601.00 L 6776545.00 19501601.00 L 6851093.00 19427053.00 L 6869815.00 19381854.00 L 6851093.00 19336655.00 L 6776545.59 19262108.00 L 7173229.00 19262108.00 A 63920.91 63920.91 0 0 0 7173229.00 19134266.00 L 6622226.00 19134266.00 A 63920.91 63920.91 0 0 0 6577027.00 19243386.00 L 6715495.88 19381854.12 L 6577027.00 19520323.00 A 63921.13 63921.13 0 0 0 6622226.00 19629443.00 L 7173229.00 19629443.00 A 63921.13 63921.13 0 0 0 7173229.00 19501601.00  z"/>
<path id="N" d="M 7126594.00 19059718.00 L 7218428.00 18967884.00 L 7237150.00 18922685.00 L 7237150.00 18739018.00 L 7218428.00 18693819.00 L 7126594.00 18601985.00 L 7081395.00 18583263.00 L 6897728.00 18583263.00 L 6852529.00 18601985.00 L 6760695.00 18693819.00 L 6741973.00 18739018.00 L 6741973.00 18922685.00 L 6760695.00 18967884.00 L 6852529.00 19059718.00 L 6897728.00 19078440.00 L 7081395.00 19078440.00 L 7126594.00 19059718.00  zM 7054918.00 18950598.00 L 6924205.00 18950598.00 L 6869815.00 18896208.00 L 6869815.00 18765495.00 L 6924205.00 18711105.00 L 7054918.00 18711105.00 L 7109308.00 18765495.00 L 7109308.00 18896208.00 L 7054918.00 18950598.00  z"/>
<path id="N" d="M 7126594.00 14927196.00 L 7218428.00 14835362.00 L 7237150.00 14790163.00 L 7237150.00 14606496.00 L 7218428.00 14561297.00 L 7126594.00 14469463.00 L 7081395.00 14450741.00 L 6714060.00 14450741.00 L 6668861.00 14469463.00 L 6577027.00 14561297.00 L 6558305.00 14606496.00 L 6558305.00 14790163.00 L 6577027.00 14835362.00 L 6668861.00 14927196.00 L 6714060.00 14945918.00 L 7081395.00 14945918.00 L 7126594.00 14927196.00  zM 7054918.00 14818076.00 L 6740537.00 14818076.00 L 6686147.00 14763686.00 L 6686147.00 14632973.00 L 6740537.00 14578583.00 L 7054918.00 14578583.00 L 7109308.00 14632973.00 L 7109308.00 14763686.00 L 7054918.00 14818076.00  z"/>
<path id="N" d="M 6181926.00 21814733.00 L 6273760.00 21722899.00 L 6292482.00 21677700.00 L 6292482.00 21494033.00 L 6273760.00 21448834.00 L 6181926.00 21357000.00 L 6136727.00 21338278.00 L 5953060.00 21338278.00 L 5907861.00 21357000.00 L 5816027.00 21448834.00 L 5797305.00 21494033.00 L 5797305.00 21677700.00 L 5816027.00 21722899.00 L 5907861.00 21814733.00 L 5953060.00 21833455.00 L 6136727.00 21833455.00 L 6181926.00 21814733.00  zM 6110250.00 21705613.00 L 5979537.00 21705613.00 L 5925147.00 21651223.00 L 5925147.00 21520510.00 L 5979537.00 21466120.00 L 6110250.00 21466120.00 L 6164640.00 21520510.00 L 6164640.00 21651223.00 L 6110250.00 21705613.00  z"/>
<path id="N" d="M 6181926.00 22824905.00 L 6273760.00 22733071.00 L 6292482.00 22687872.00 L 6292482.00 22504205.00 L 6273760.00 22459006.00 L 6181926.00 22367172.00 L 6136727.00 22348450.00 L 5953060.00 22348450.00 L 5907861.00 22367172.00 L 5816027.00 22459006.00 L 5797305.00 22504205.00 L 5797305.00 22687872.00 L 5816027.00 22733071.00 L 5907861.00 22824905.00 L 5953060.00 22843627.00 L 6136727.00 22843627.00 L 6181926.00 22824905.00  zM 6110250.00 22715785.00 L 5979537.00 22715785.00 L 5925147.00 22661395.00 L 5925147.00 22530682.00 L 5979537.00 22476292.00 L 6110250.00 22476292.00 L 6164640.00 22530682.00 L 6164640.00 22661395.00 L 6110250.00 22715785.00  z"/>
<path id="N" d="M 7126594.00 18508715.00 L 7218428.00 18416881.00 L 7237150.00 18371682.00 L 7237150.00 18096181.00 L 7218428.00 18050982.00 L 7173229.00 18032260.00 L 6622226.00 18032260.00 A 63920.91 63920.91 0 1 0 6622226.00 18160102.00 L 6741973.00 18160102.00 L 6741973.00 18371682.00 L 6760695.00 18416881.00 L 6852529.00 18508715.00 L 6897728.00 18527437.00 L 7081395.00 18527437.00 L 7126594.00 18508715.00  zM 7054918.00 18399595.00 L 6924205.00 18399595.00 L 6869815.00 18345205.00 L 6869815.00 18160102.00 L 7109308.00 18160102.00 L 7109308.00 18345205.00 L 7054918.00 18399595.00  z"/>
<path id="N" d="M 6834480.00 21826707.00 L 7201815.00 21643039.00 L 7215092.83 21627729.83 L 7230402.00 21614452.00 L 7230740.54 21609688.23 L 7233870.00 21606080.00 L 7232433.27 21585868.91 L 7233870.00 21565652.00 L 7230739.56 21562042.64 L 7230401.00 21557280.00 L 7215095.87 21544005.67 L 7201815.00 21528693.00 L 6834480.00 21345026.00 A 63920.65 63920.65 0 0 0 6777308.00 21459372.00 L 7030296.66 21585865.98 L 6777308.00 21712361.00 A 63920.65 63920.65 0 0 0 6834480.00 21826707.00  z"/>
<path id="N" d="M 7237150.00 22228703.00 L 7237150.00 22045035.00 A 63920.91 63920.91 0 1 0 7109308.00 22045035.00 L 7109308.00 22072948.00 L 6805894.00 22072948.00 L 6760695.00 22091670.00 L 6741973.00 22136869.00 L 6741973.00 22228703.00 A 63920.91 63920.91 0 1 0 6869815.00 22228703.00 L 6869815.00 22200790.00 L 7109308.00 22200790.00 L 7109308.00 22228703.00 A 63920.91 63920.91 0 1 0 7237150.00 22228703.00  z"/>
<path id="N" d="M 7237150.00 15800335.00 L 7237150.00 15616667.00 A 63920.91 63920.91 0 1 0 7109308.00 15616667.00 L 7109308.00 15644580.00 L 6622226.00 15644580.00 A 63920.91 63920.91 0 0 0 6577027.00 15753700.00 L 6668861.00 15845534.00 A 63921.13 63921.13 0 0 0 6777981.00 15800335.00 L 6766419.08 15772422.00 L 7109308.00 15772422.00 L 7109308.00 15800335.00 A 63920.91 63920.91 0 0 0 7237150.00 15800335.00  z"/>
<path id="N" d="M 7237150.00 17361510.00 L 7237150.00 17177842.00 A 63920.91 63920.91 0 1 0 7109308.00 17177842.00 L 7109308.00 17205755.00 L 6622226.00 17205755.00 L 6577027.00 17224477.00 L 6558305.00 17269676.00 L 6558305.00 17361510.00 A 63920.91 63920.91 0 1 0 6686147.00 17361510.00 L 6686147.00 17333597.00 L 7109308.00 17333597.00 L 7109308.00 17361510.00 A 63920.91 63920.91 0 1 0 7237150.00 17361510.00  z"/>
<path id="N" d="M 7237150.00 23330709.00 L 7237150.00 23055208.00 L 7218428.00 23010009.00 L 7126594.00 22918175.00 L 7081395.00 22899453.00 L 6714060.00 22899453.00 L 6668861.00 22918175.00 L 6577027.00 23010009.00 L 6558305.00 23055208.00 L 6558305.00 23330709.00 L 6577027.00 23375908.00 L 6622226.00 23394630.00 L 7173229.00 23394630.00 L 7218428.00 23375908.00 L 7237150.00 23330709.00  zM 7109308.00 23266788.00 L 6686147.00 23266788.00 L 6686147.00 23081685.00 L 6740537.00 23027295.00 L 7054918.00 23027295.00 L 7109308.00 23081685.00 L 7109308.00 23266788.00  z"/>
<path id="N" d="M 6228561.00 21154610.00 L 6071370.20 21154610.00 L 5925147.00 21008386.00 L 5925147.00 20943030.00 A 63920.91 63920.91 0 1 0 5797305.00 20943030.00 L 5797305.00 21034863.00 L 5816027.00 21080062.00 L 5890575.00 21154610.00 L 5861226.00 21154610.00 A 63920.91 63920.91 0 0 0 5861226.00 21282452.00 L 6228561.00 21282452.00 A 63921.13 63921.13 0 0 0 6228561.00 21154610.00  z"/>
<path id="N" d="M 7173229.00 22715785.00 L 7016038.20 22715785.00 L 6869815.00 22569561.00 L 6869815.00 22504205.00 A 63920.91 63920.91 0 0 0 6741973.00 22504205.00 L 6741973.00 22596038.00 L 6760695.00 22641237.00 L 6835243.00 22715785.00 L 6805894.00 22715785.00 A 63920.91 63920.91 0 1 0 6805894.00 22843627.00 L 7173229.00 22843627.00 A 63921.13 63921.13 0 0 0 7173229.00 22715785.00  z"/>
<path id="N" d="M 6292482.00 19014519.00 L 6292482.00 18739018.00 L 6273760.00 18693819.00 L 6181926.00 18601985.00 L 6136727.00 18583263.00 L 5769392.00 18583263.00 L 5724193.00 18601985.00 L 5632359.00 18693819.00 L 5613637.00 18739018.00 L 5613637.00 19014519.00 L 5632359.00 19059718.00 L 5677558.00 19078440.00 L 6228561.00 19078440.00 L 6273760.00 19059718.00 L 6292482.00 19014519.00  zM 6164640.00 18950598.00 L 5741479.00 18950598.00 L 5741479.00 18765495.00 L 5795869.00 18711105.00 L 6110250.00 18711105.00 L 6164640.00 18765495.00 L 6164640.00 18950598.00  z"/>
<path id="N" d="M 7173229.00 20603607.00 L 7016038.20 20603607.00 L 6869815.00 20457383.00 L 6869815.00 20392027.00 A 63920.91 63920.91 0 0 0 6741973.00 20392027.00 L 6741973.00 20483860.00 L 6760695.00 20529059.00 L 6835243.00 20603607.00 L 6805894.00 20603607.00 A 63920.91 63920.91 0 0 0 6805894.00 20731449.00 L 7173229.00 20731449.00 A 63921.13 63921.13 0 0 0 7173229.00 20603607.00  z"/>
<path id="N" d="M 7126594.00 17957712.00 L 7218428.00 17865878.00 L 7237150.00 17820679.00 L 7237150.00 17545178.00 L 7218428.00 17499979.00 L 7173229.00 17481257.00 L 6805894.00 17481257.00 A 63920.91 63920.91 0 1 0 6805894.00 17609099.00 L 7109308.00 17609099.00 L 7109308.00 17794202.00 L 7054918.00 17848592.00 L 6805894.00 17848592.00 A 63920.91 63920.91 0 1 0 6805894.00 17976434.00 L 7081395.00 17976434.00 L 7126594.00 17957712.00  z"/>
<path id="N" d="M 19073227.00 19888891.00 A 54118.70 54118.70 0 0 0 19073227.00 19780651.00 L 18990691.70 19780651.00 L 18917441.00 19707400.70 L 18917441.00 19677341.00 A 54118.70 54118.70 0 0 0 18809201.00 19677341.00 L 18809201.00 19729818.00 L 18825053.71 19768087.71 L 18845145.08 19788179.46 L 18825052.00 19796502.00 A 54121.84 54121.84 0 0 0 18863321.00 19888891.00 L 19073227.00 19888891.00  z"/>
<path id="N" d="M 19059018.00 19558181.00 L 19111496.00 19505704.00 L 19127347.00 19467432.59 L 19127347.00 19310006.00 L 19111496.00 19271737.00 L 19073227.00 19255886.00 L 18915797.00 19255886.00 L 18877527.29 19271738.71 L 18825052.00 19324213.00 L 18809201.00 19362484.41 L 18809201.00 19467435.00 A 54118.70 54118.70 0 0 0 18915797.26 19471403.48 L 18930006.71 19505704.71 L 18982481.00 19558181.00 L 19020750.00 19574033.00 L 19059018.00 19558181.00  z"/>
<path id="N" d="M 6292482.00 19565522.00 L 6292482.00 19198187.00 A 63920.91 63920.91 0 0 0 6164640.00 19198187.00 L 6164640.00 19501601.00 L 5677558.00 19501601.00 A 63920.91 63920.91 0 1 0 5677558.00 19629443.00 L 6228561.00 19629443.00 L 6273760.00 19610721.00 L 6292482.00 19565522.00  z"/>
<path id="N" d="M 7237150.00 15341166.00 L 7237150.00 15249332.00 L 7218428.00 15204133.00 L 7173229.00 15185411.00 L 7081395.00 15185411.00 L 7036196.00 15204133.00 L 7017474.00 15249332.00 L 7017474.00 15341166.00 L 7036196.00 15386365.00 L 7081395.00 15405087.00 L 7173229.00 15405087.00 L 7218428.00 15386365.00 L 7237150.00 15341166.00  z"/>
<path id="N" d="M 6622225.87 22136869.00 m -63921.13 0 a 63921.13 63921.13 0 1 1 127842.26 0a 63921.13 63921.13 0 1 1 -127842.26 0"/>
</g>
</svg>
