<svg width="45.085mm" height="60.071mm" viewBox="0 0 17750000 23650000"  version="1.1" xmlns="http://www.w3.org/2000/svg" xmlns:xlink="http://www.w3.org/1999/xlink">
<desc>
Origin 0 0 Bound 2850000 2100000 17750000 23650000
</desc>
<g fill-rule="evenodd" fill="rgb(255, 0, 255)" stroke="black" stroke-width="1" transform="translate(0, 23650000) scale(1, -1) translate(-2850000, -2100000)">
<path id="N" d="M 20600000.00 2100000.00 L 2850000.00 2100000.00 L 2850000.00 25750000.00 L 20600000.00 25750000.00 L 20600000.00 2100000.00  zM 4450002.01 6449993.89 m -377882.11 0 a 377882.11 377882.11 0 1 1 755764.21 0a 377882.11 377882.11 0 1 1 -755764.21 0M 5450001.01 6449996.89 m -377882.11 0 a 377882.11 377882.11 0 1 1 755764.21 0a 377882.11 377882.11 0 1 1 -755764.21 0M 6450001.01 6449995.89 m -377882.11 0 a 377882.11 377882.11 0 1 1 755764.21 0a 377882.11 377882.11 0 1 1 -755764.21 0M 6450003.01 7449994.89 m -377882.11 0 a 377882.11 377882.11 0 1 1 755764.21 0a 377882.11 377882.11 0 1 1 -755764.21 0M 7450001.01 6449995.89 m -377882.11 0 a 377882.11 377882.11 0 1 1 755764.21 0a 377882.11 377882.11 0 1 1 -755764.21 0M 7450001.01 7449993.89 m -377882.11 0 a 377882.11 377882.11 0 1 1 755764.21 0a 377882.11 377882.11 0 1 1 -755764.21 0M 8450001.01 6449996.89 m -377882.11 0 a 377882.11 377882.11 0 1 1 755764.21 0a 377882.11 377882.11 0 1 1 -755764.21 0M 8449998.01 7449993.89 m -377882.11 0 a 377882.11 377882.11 0 1 1 755764.21 0a 377882.11 377882.11 0 1 1 -755764.21 0M 10458269.63 2758262.96 m -292507.04 0 a 292507.04 292507.04 0 1 1 585014.09 0a 292507.04 292507.04 0 1 1 -585014.09 0M 12598426.63 3858262.96 m -292507.04 0 a 292507.04 292507.04 0 1 1 585014.09 0a 292507.04 292507.04 0 1 1 -585014.09 0M 10485040.63 5203931.96 m -292507.04 0 a 292507.04 292507.04 0 1 1 585014.09 0a 292507.04 292507.04 0 1 1 -585014.09 0M 12712991.02 5149997.55 m -298460.45 0 a 298460.45 298460.45 0 1 1 596920.90 0a 298460.45 298460.45 0 1 1 -596920.90 0M 9450001.01 6449995.89 m -377882.11 0 a 377882.11 377882.11 0 1 1 755764.21 0a 377882.11 377882.11 0 1 1 -755764.21 0M 11680316.63 6624403.96 m -292507.04 0 a 292507.04 292507.04 0 1 1 585014.09 0a 292507.04 292507.04 0 1 1 -585014.09 0M 13008895.00 6233307.00 L 12417085.00 6233307.00 L 12417085.00 5641497.00 L 13008895.00 5641497.00 L 13008895.00 6233307.00  zM 13500393.02 5149999.55 m -298460.45 0 a 298460.45 298460.45 0 1 1 596920.90 0a 298460.45 298460.45 0 1 1 -596920.90 0M 13500393.02 5937399.55 m -298460.45 0 a 298460.45 298460.45 0 1 1 596920.90 0a 298460.45 298460.45 0 1 1 -596920.90 0M 14287795.02 5149997.55 m -298460.45 0 a 298460.45 298460.45 0 1 1 596920.90 0a 298460.45 298460.45 0 1 1 -596920.90 0M 14287795.02 5937399.55 m -298460.45 0 a 298460.45 298460.45 0 1 1 596920.90 0a 298460.45 298460.45 0 1 1 -596920.90 0M 15075197.02 5149997.55 m -298460.45 0 a 298460.45 298460.45 0 1 1 596920.90 0a 298460.45 298460.45 0 1 1 -596920.90 0M 15075197.02 5937399.55 m -298460.45 0 a 298460.45 298460.45 0 1 1 596920.90 0a 298460.45 298460.45 0 1 1 -596920.90 0M 15862599.02 5149997.55 m -298460.45 0 a 298460.45 298460.45 0 1 1 596920.90 0a 298460.45 298460.45 0 1 1 -596920.90 0M 15862598.02 5937399.55 m -298460.45 0 a 298460.45 298460.45 0 1 1 596920.90 0a 298460.45 298460.45 0 1 1 -596920.90 0M 16650001.02 5149997.55 m -298460.45 0 a 298460.45 298460.45 0 1 1 596920.90 0a 298460.45 298460.45 0 1 1 -596920.90 0M 16650001.02 5937399.55 m -298460.45 0 a 298460.45 298460.45 0 1 1 596920.90 0a 298460.45 298460.45 0 1 1 -596920.90 0M 17437403.02 5149997.55 m -298460.45 0 a 298460.45 298460.45 0 1 1 596920.90 0a 298460.45 298460.45 0 1 1 -596920.90 0M 17437404.02 5937398.55 m -298460.45 0 a 298460.45 298460.45 0 1 1 596920.90 0a 298460.45 298460.45 0 1 1 -596920.90 0M 18385828.63 4251963.96 m -292507.04 0 a 292507.04 292507.04 0 1 1 585014.09 0a 292507.04 292507.04 0 1 1 -585014.09 0M 18224805.02 5149997.55 m -298460.45 0 a 298460.45 298460.45 0 1 1 596920.90 0a 298460.45 298460.45 0 1 1 -596920.90 0M 18224805.02 5937399.55 m -298460.45 0 a 298460.45 298460.45 0 1 1 596920.90 0a 298460.45 298460.45 0 1 1 -596920.90 0M 4824645.00 7824645.00 L 4075355.00 7824645.00 L 4075355.00 7075355.00 L 4824645.00 7075355.00 L 4824645.00 7824645.00  zM 5450003.01 7449996.89 m -377882.11 0 a 377882.11 377882.11 0 1 1 755764.21 0a 377882.11 377882.11 0 1 1 -755764.21 0M 6390550.63 8509443.96 m -292507.04 0 a 292507.04 292507.04 0 1 1 585014.09 0a 292507.04 292507.04 0 1 1 -585014.09 0M 9450001.01 7449995.89 m -377882.11 0 a 377882.11 377882.11 0 1 1 755764.21 0a 377882.11 377882.11 0 1 1 -755764.21 0M 7200553.63 10489454.96 m -292507.04 0 a 292507.04 292507.04 0 1 1 585014.09 0a 292507.04 292507.04 0 1 1 -585014.09 0M 11387403.63 8527159.96 m -292507.04 0 a 292507.04 292507.04 0 1 1 585014.09 0a 292507.04 292507.04 0 1 1 -585014.09 0M 11316930.63 14061805.96 m -292507.04 0 a 292507.04 292507.04 0 1 1 585014.09 0a 292507.04 292507.04 0 1 1 -585014.09 0M 11092521.63 15333065.96 m -292507.04 0 a 292507.04 292507.04 0 1 1 585014.09 0a 292507.04 292507.04 0 1 1 -585014.09 0M 12929922.63 9075978.96 m -292507.04 0 a 292507.04 292507.04 0 1 1 585014.09 0a 292507.04 292507.04 0 1 1 -585014.09 0M 14070867.63 10579522.96 m -292507.04 0 a 292507.04 292507.04 0 1 1 585014.09 0a 292507.04 292507.04 0 1 1 -585014.09 0M 14527560.63 14173222.96 m -292507.04 0 a 292507.04 292507.04 0 1 1 585014.09 0a 292507.04 292507.04 0 1 1 -585014.09 0M 13846458.63 15288970.96 m -292507.04 0 a 292507.04 292507.04 0 1 1 585014.09 0a 292507.04 292507.04 0 1 1 -585014.09 0M 15787403.63 9960624.96 m -292507.04 0 a 292507.04 292507.04 0 1 1 585014.09 0a 292507.04 292507.04 0 1 1 -585014.09 0M 14762599.63 12618498.96 m -292507.04 0 a 292507.04 292507.04 0 1 1 585014.09 0a 292507.04 292507.04 0 1 1 -585014.09 0M 19328347.63 10149600.96 m -292507.04 0 a 292507.04 292507.04 0 1 1 585014.09 0a 292507.04 292507.04 0 1 1 -585014.09 0M 10551182.63 16771648.96 m -292507.04 0 a 292507.04 292507.04 0 1 1 585014.09 0a 292507.04 292507.04 0 1 1 -585014.09 0M 11520473.63 21410239.96 m -292507.04 0 a 292507.04 292507.04 0 1 1 585014.09 0a 292507.04 292507.04 0 1 1 -585014.09 0M 9820080.63 22042907.96 m -292507.04 0 a 292507.04 292507.04 0 1 1 585014.09 0a 292507.04 292507.04 0 1 1 -585014.09 0M 11416930.63 22239364.96 m -292507.04 0 a 292507.04 292507.04 0 1 1 585014.09 0a 292507.04 292507.04 0 1 1 -585014.09 0M 10762599.63 22970073.96 m -292507.04 0 a 292507.04 292507.04 0 1 1 585014.09 0a 292507.04 292507.04 0 1 1 -585014.09 0M 11029529.63 24641726.96 m -292507.04 0 a 292507.04 292507.04 0 1 1 585014.09 0a 292507.04 292507.04 0 1 1 -585014.09 0M 9527560.63 24960624.96 m -292507.04 0 a 292507.04 292507.04 0 1 1 585014.09 0a 292507.04 292507.04 0 1 1 -585014.09 0M 11614174.63 16653537.96 m -292507.04 0 a 292507.04 292507.04 0 1 1 585014.09 0a 292507.04 292507.04 0 1 1 -585014.09 0M 14263781.63 22849600.96 m -292507.04 0 a 292507.04 292507.04 0 1 1 585014.09 0a 292507.04 292507.04 0 1 1 -585014.09 0M 16850001.63 15699994.96 m -292507.04 0 a 292507.04 292507.04 0 1 1 585014.09 0a 292507.04 292507.04 0 1 1 -585014.09 0M 19340946.63 22847632.96 m -292507.04 0 a 292507.04 292507.04 0 1 1 585014.09 0a 292507.04 292507.04 0 1 1 -585014.09 0M 15487796.63 22857081.96 m -292507.04 0 a 292507.04 292507.04 0 1 1 585014.09 0a 292507.04 292507.04 0 1 1 -585014.09 0M 17191733.63 24884640.96 m -292507.04 0 a 292507.04 292507.04 0 1 1 585014.09 0a 292507.04 292507.04 0 1 1 -585014.09 0M 19359755.63 24097990.96 m -292507.04 0 a 292507.04 292507.04 0 1 1 585014.09 0a 292507.04 292507.04 0 1 1 -585014.09 0"/>
</g>
</svg>
