<svg width="45.085mm" height="60.071mm" viewBox="0 0 17750000 23650000"  version="1.1" xmlns="http://www.w3.org/2000/svg" xmlns:xlink="http://www.w3.org/1999/xlink">
<desc>
Origin 0 0 Bound 2850000 2100000 17750000 23650000
</desc>
<g fill-rule="evenodd" fill="rgb(128, 0, 128)" stroke="black" stroke-width="1" transform="translate(0, 23650000) scale(1, -1) translate(-2850000, -2100000)">
<path id="N" d="M 20600000.00 2100000.00 L 2850000.00 2100000.00 L 2850000.00 25750000.00 L 20600000.00 25750000.00 L 20600000.00 2100000.00  zM 4450002.01 6449993.89 m -377882.11 0 a 377882.11 377882.11 0 1 1 755764.21 0a 377882.11 377882.11 0 1 1 -755764.21 0M 4824645.00 7824645.00 L 4075355.00 7824645.00 L 4075355.00 7075355.00 L 4824645.00 7075355.00 L 4824645.00 7824645.00  zM 5450001.01 6449996.89 m -377882.11 0 a 377882.11 377882.11 0 1 1 755764.21 0a 377882.11 377882.11 0 1 1 -755764.21 0M 5450003.01 7449996.89 m -377882.11 0 a 377882.11 377882.11 0 1 1 755764.21 0a 377882.11 377882.11 0 1 1 -755764.21 0M 6390550.63 8509443.96 m -292507.04 0 a 292507.04 292507.04 0 1 1 585014.09 0a 292507.04 292507.04 0 1 1 -585014.09 0M 6450001.01 6449995.89 m -377882.11 0 a 377882.11 377882.11 0 1 1 755764.21 0a 377882.11 377882.11 0 1 1 -755764.21 0M 6450003.01 7449994.89 m -377882.11 0 a 377882.11 377882.11 0 1 1 755764.21 0a 377882.11 377882.11 0 1 1 -755764.21 0M 7450001.01 6449995.89 m -377882.11 0 a 377882.11 377882.11 0 1 1 755764.21 0a 377882.11 377882.11 0 1 1 -755764.21 0M 7450001.01 7449993.89 m -377882.11 0 a 377882.11 377882.11 0 1 1 755764.21 0a 377882.11 377882.11 0 1 1 -755764.21 0M 10458269.63 2758262.96 m -292507.04 0 a 292507.04 292507.04 0 1 1 585014.09 0a 292507.04 292507.04 0 1 1 -585014.09 0M 12598426.63 3858262.96 m -292507.04 0 a 292507.04 292507.04 0 1 1 585014.09 0a 292507.04 292507.04 0 1 1 -585014.09 0M 10485040.63 5203931.96 m -292507.04 0 a 292507.04 292507.04 0 1 1 585014.09 0a 292507.04 292507.04 0 1 1 -585014.09 0M 9450001.01 6449995.89 m -377882.11 0 a 377882.11 377882.11 0 1 1 755764.21 0a 377882.11 377882.11 0 1 1 -755764.21 0M 13008895.00 6233307.00 L 12417085.00 6233307.00 L 12417085.00 5641497.00 L 13008895.00 5641497.00 L 13008895.00 6233307.00  zM 8450001.01 6449996.89 m -377882.11 0 a 377882.11 377882.11 0 1 1 755764.21 0a 377882.11 377882.11 0 1 1 -755764.21 0M 8449998.01 7449993.89 m -377882.11 0 a 377882.11 377882.11 0 1 1 755764.21 0a 377882.11 377882.11 0 1 1 -755764.21 0M 9450001.01 7449995.89 m -377882.11 0 a 377882.11 377882.11 0 1 1 755764.21 0a 377882.11 377882.11 0 1 1 -755764.21 0M 11680316.63 6624403.96 m -292507.04 0 a 292507.04 292507.04 0 1 1 585014.09 0a 292507.04 292507.04 0 1 1 -585014.09 0M 4695905.00 10543149.00 L 4104095.00 10543149.00 L 4104095.00 10108819.00 L 4695905.00 10108819.00 L 4695905.00 10543149.00  zM 4695905.00 11291181.00 L 4104095.00 11291181.00 L 4104095.00 10856851.00 L 4695905.00 10856851.00 L 4695905.00 11291181.00  zM 6545905.00 11241181.00 L 5954095.00 11241181.00 L 5954095.00 10806851.00 L 6545905.00 10806851.00 L 6545905.00 11241181.00  zM 6545905.00 10493149.00 L 5954095.00 10493149.00 L 5954095.00 10058819.00 L 6545905.00 10058819.00 L 6545905.00 10493149.00  zM 7200553.63 10489454.96 m -292507.04 0 a 292507.04 292507.04 0 1 1 585014.09 0a 292507.04 292507.04 0 1 1 -585014.09 0M 8586220.00 9345275.00 L 8113780.00 9345275.00 L 8113780.00 8754725.00 L 8586220.00 8754725.00 L 8586220.00 9345275.00  zM 8586220.00 10782283.00 L 8113780.00 10782283.00 L 8113780.00 10191733.00 L 8586220.00 10191733.00 L 8586220.00 10782283.00  zM 10347243.00 11227165.00 L 9874803.00 11227165.00 L 9874803.00 10636615.00 L 10347243.00 10636615.00 L 10347243.00 11227165.00  zM 10395905.00 14467165.00 L 9804095.00 14467165.00 L 9804095.00 14032835.00 L 10395905.00 14032835.00 L 10395905.00 14467165.00  zM 10347243.00 9790157.00 L 9874803.00 9790157.00 L 9874803.00 9199607.00 L 10347243.00 9199607.00 L 10347243.00 9790157.00  zM 11387403.63 8527159.96 m -292507.04 0 a 292507.04 292507.04 0 1 1 585014.09 0a 292507.04 292507.04 0 1 1 -585014.09 0M 10485275.00 12457323.00 L 9814725.00 12457323.00 L 9814725.00 12042677.00 L 10485275.00 12042677.00 L 10485275.00 12457323.00  zM 12719921.00 10885275.00 L 12305275.00 10885275.00 L 12305275.00 10214725.00 L 12719921.00 10214725.00 L 12719921.00 10885275.00  zM 10485275.00 13244725.00 L 9814725.00 13244725.00 L 9814725.00 12830079.00 L 10485275.00 12830079.00 L 10485275.00 13244725.00  zM 11316930.63 14061805.96 m -292507.04 0 a 292507.04 292507.04 0 1 1 585014.09 0a 292507.04 292507.04 0 1 1 -585014.09 0M 12691575.00 12675433.00 L 12276929.00 12675433.00 L 12276929.00 12004883.00 L 12691575.00 12004883.00 L 12691575.00 12675433.00  zM 12735276.00 14485302.00 L 12320630.00 14485302.00 L 12320630.00 13814752.00 L 12735276.00 13814752.00 L 12735276.00 14485302.00  zM 12712991.02 5149997.55 m -298460.45 0 a 298460.45 298460.45 0 1 1 596920.90 0a 298460.45 298460.45 0 1 1 -596920.90 0M 13500393.02 5937399.55 m -298460.45 0 a 298460.45 298460.45 0 1 1 596920.90 0a 298460.45 298460.45 0 1 1 -596920.90 0M 13500393.02 5149999.55 m -298460.45 0 a 298460.45 298460.45 0 1 1 596920.90 0a 298460.45 298460.45 0 1 1 -596920.90 0M 14287795.02 5149997.55 m -298460.45 0 a 298460.45 298460.45 0 1 1 596920.90 0a 298460.45 298460.45 0 1 1 -596920.90 0M 14287795.02 5937399.55 m -298460.45 0 a 298460.45 298460.45 0 1 1 596920.90 0a 298460.45 298460.45 0 1 1 -596920.90 0M 15075197.02 5149997.55 m -298460.45 0 a 298460.45 298460.45 0 1 1 596920.90 0a 298460.45 298460.45 0 1 1 -596920.90 0M 15075197.02 5937399.55 m -298460.45 0 a 298460.45 298460.45 0 1 1 596920.90 0a 298460.45 298460.45 0 1 1 -596920.90 0M 15293149.00 8145905.00 L 14858819.00 8145905.00 L 14858819.00 7554095.00 L 15293149.00 7554095.00 L 15293149.00 8145905.00  zM 16041181.00 8145905.00 L 15606851.00 8145905.00 L 15606851.00 7554095.00 L 16041181.00 7554095.00 L 16041181.00 8145905.00  zM 15862599.02 5149997.55 m -298460.45 0 a 298460.45 298460.45 0 1 1 596920.90 0a 298460.45 298460.45 0 1 1 -596920.90 0M 15862598.02 5937399.55 m -298460.45 0 a 298460.45 298460.45 0 1 1 596920.90 0a 298460.45 298460.45 0 1 1 -596920.90 0M 16650001.02 5937399.55 m -298460.45 0 a 298460.45 298460.45 0 1 1 596920.90 0a 298460.45 298460.45 0 1 1 -596920.90 0M 16650001.02 5149997.55 m -298460.45 0 a 298460.45 298460.45 0 1 1 596920.90 0a 298460.45 298460.45 0 1 1 -596920.90 0M 17437403.02 5149997.55 m -298460.45 0 a 298460.45 298460.45 0 1 1 596920.90 0a 298460.45 298460.45 0 1 1 -596920.90 0M 18385828.63 4251963.96 m -292507.04 0 a 292507.04 292507.04 0 1 1 585014.09 0a 292507.04 292507.04 0 1 1 -585014.09 0M 18224805.02 5149997.55 m -298460.45 0 a 298460.45 298460.45 0 1 1 596920.90 0a 298460.45 298460.45 0 1 1 -596920.90 0M 17437404.02 5937398.55 m -298460.45 0 a 298460.45 298460.45 0 1 1 596920.90 0a 298460.45 298460.45 0 1 1 -596920.90 0M 18224805.02 5937399.55 m -298460.45 0 a 298460.45 298460.45 0 1 1 596920.90 0a 298460.45 298460.45 0 1 1 -596920.90 0M 12929922.63 9075978.96 m -292507.04 0 a 292507.04 292507.04 0 1 1 585014.09 0a 292507.04 292507.04 0 1 1 -585014.09 0M 13507323.00 10885275.00 L 13092677.00 10885275.00 L 13092677.00 10214725.00 L 13507323.00 10214725.00 L 13507323.00 10885275.00  zM 15787403.63 9960624.96 m -292507.04 0 a 292507.04 292507.04 0 1 1 585014.09 0a 292507.04 292507.04 0 1 1 -585014.09 0M 14070867.63 10579522.96 m -292507.04 0 a 292507.04 292507.04 0 1 1 585014.09 0a 292507.04 292507.04 0 1 1 -585014.09 0M 13478977.00 12675433.00 L 13064331.00 12675433.00 L 13064331.00 12004883.00 L 13478977.00 12004883.00 L 13478977.00 12675433.00  zM 13522678.00 14485302.00 L 13108032.00 14485302.00 L 13108032.00 13814752.00 L 13522678.00 13814752.00 L 13522678.00 14485302.00  zM 14527560.63 14173222.96 m -292507.04 0 a 292507.04 292507.04 0 1 1 585014.09 0a 292507.04 292507.04 0 1 1 -585014.09 0M 14762599.63 12618498.96 m -292507.04 0 a 292507.04 292507.04 0 1 1 585014.09 0a 292507.04 292507.04 0 1 1 -585014.09 0M 17819133.00 13645905.00 L 17384803.00 13645905.00 L 17384803.00 13054095.00 L 17819133.00 13054095.00 L 17819133.00 13645905.00  zM 18469133.00 8145905.00 L 18034803.00 8145905.00 L 18034803.00 7554095.00 L 18469133.00 7554095.00 L 18469133.00 8145905.00  zM 19217165.00 8145905.00 L 18782835.00 8145905.00 L 18782835.00 7554095.00 L 19217165.00 7554095.00 L 19217165.00 8145905.00  zM 19328347.63 10149600.96 m -292507.04 0 a 292507.04 292507.04 0 1 1 585014.09 0a 292507.04 292507.04 0 1 1 -585014.09 0M 19678976.00 11226220.00 L 19008426.00 11226220.00 L 19008426.00 10811574.00 L 19678976.00 10811574.00 L 19678976.00 11226220.00  zM 18045905.00 11269133.00 L 17454095.00 11269133.00 L 17454095.00 10834803.00 L 18045905.00 10834803.00 L 18045905.00 11269133.00  zM 18045905.00 12017165.00 L 17454095.00 12017165.00 L 17454095.00 11582835.00 L 18045905.00 11582835.00 L 18045905.00 12017165.00  zM 19678976.00 12013622.00 L 19008426.00 12013622.00 L 19008426.00 11598976.00 L 19678976.00 11598976.00 L 19678976.00 12013622.00  zM 18567165.00 13645905.00 L 18132835.00 13645905.00 L 18132835.00 13054095.00 L 18567165.00 13054095.00 L 18567165.00 13645905.00  zM 5724015.00 14696063.00 L 4031103.00 14696063.00 L 4031103.00 14223623.00 L 5724015.00 14223623.00 L 5724015.00 14696063.00  zM 5547637.00 18820866.00 L 3815355.00 18820866.00 L 3815355.00 17324804.00 L 5547637.00 17324804.00 L 5547637.00 18820866.00  zM 9188582.00 14696063.00 L 7495670.00 14696063.00 L 7495670.00 14223623.00 L 9188582.00 14223623.00 L 9188582.00 14696063.00  zM 5547637.00 21570866.00 L 3815355.00 21570866.00 L 3815355.00 20074804.00 L 5547637.00 20074804.00 L 5547637.00 21570866.00  zM 9484645.00 18820866.00 L 7752363.00 18820866.00 L 7752363.00 17324804.00 L 9484645.00 17324804.00 L 9484645.00 18820866.00  zM 10395905.00 15215197.00 L 9804095.00 15215197.00 L 9804095.00 14780867.00 L 10395905.00 14780867.00 L 10395905.00 15215197.00  zM 11092521.63 15333065.96 m -292507.04 0 a 292507.04 292507.04 0 1 1 585014.09 0a 292507.04 292507.04 0 1 1 -585014.09 0M 10551182.63 16771648.96 m -292507.04 0 a 292507.04 292507.04 0 1 1 585014.09 0a 292507.04 292507.04 0 1 1 -585014.09 0M 9484645.00 21570866.00 L 7752363.00 21570866.00 L 7752363.00 20074804.00 L 9484645.00 20074804.00 L 9484645.00 21570866.00  zM 11614174.63 16653537.96 m -292507.04 0 a 292507.04 292507.04 0 1 1 585014.09 0a 292507.04 292507.04 0 1 1 -585014.09 0M 13102361.00 17127952.00 L 12889763.00 17127952.00 L 12889763.00 16498032.00 L 13102361.00 16498032.00 L 13102361.00 17127952.00  zM 13614172.00 17127952.00 L 13401574.00 17127952.00 L 13401574.00 16498032.00 L 13614172.00 16498032.00 L 13614172.00 17127952.00  zM 13846458.63 15288970.96 m -292507.04 0 a 292507.04 292507.04 0 1 1 585014.09 0a 292507.04 292507.04 0 1 1 -585014.09 0M 14381889.00 17127952.00 L 14169291.00 17127952.00 L 14169291.00 16498032.00 L 14381889.00 16498032.00 L 14381889.00 17127952.00  zM 13358267.00 17127952.00 L 13145669.00 17127952.00 L 13145669.00 16498032.00 L 13358267.00 16498032.00 L 13358267.00 17127952.00  zM 13870078.00 17127952.00 L 13657480.00 17127952.00 L 13657480.00 16498032.00 L 13870078.00 16498032.00 L 13870078.00 17127952.00  zM 14125983.00 17127952.00 L 13913385.00 17127952.00 L 13913385.00 16498032.00 L 14125983.00 16498032.00 L 14125983.00 17127952.00  zM 11520473.63 21410239.96 m -292507.04 0 a 292507.04 292507.04 0 1 1 585014.09 0a 292507.04 292507.04 0 1 1 -585014.09 0M 5547637.00 24320866.00 L 3815355.00 24320866.00 L 3815355.00 22824804.00 L 5547637.00 22824804.00 L 5547637.00 24320866.00  zM 9484645.00 24320866.00 L 7752363.00 24320866.00 L 7752363.00 22824804.00 L 9484645.00 22824804.00 L 9484645.00 24320866.00  zM 9527560.63 24960624.96 m -292507.04 0 a 292507.04 292507.04 0 1 1 585014.09 0a 292507.04 292507.04 0 1 1 -585014.09 0M 9820080.63 22042907.96 m -292507.04 0 a 292507.04 292507.04 0 1 1 585014.09 0a 292507.04 292507.04 0 1 1 -585014.09 0M 10762599.63 22970073.96 m -292507.04 0 a 292507.04 292507.04 0 1 1 585014.09 0a 292507.04 292507.04 0 1 1 -585014.09 0M 11416930.63 22239364.96 m -292507.04 0 a 292507.04 292507.04 0 1 1 585014.09 0a 292507.04 292507.04 0 1 1 -585014.09 0M 13102361.00 22442913.00 L 12889763.00 22442913.00 L 12889763.00 21812993.00 L 13102361.00 21812993.00 L 13102361.00 22442913.00  zM 11029529.63 24641726.96 m -292507.04 0 a 292507.04 292507.04 0 1 1 585014.09 0a 292507.04 292507.04 0 1 1 -585014.09 0M 13314409.00 24390787.00 L 12899763.00 24390787.00 L 12899763.00 23720237.00 L 13314409.00 23720237.00 L 13314409.00 24390787.00  zM 13358267.00 22442913.00 L 13145669.00 22442913.00 L 13145669.00 21812993.00 L 13358267.00 21812993.00 L 13358267.00 22442913.00  zM 13614172.00 22442913.00 L 13401574.00 22442913.00 L 13401574.00 21812993.00 L 13614172.00 21812993.00 L 13614172.00 22442913.00  zM 14125983.00 22442913.00 L 13913385.00 22442913.00 L 13913385.00 21812993.00 L 14125983.00 21812993.00 L 14125983.00 22442913.00  zM 13870078.00 22442913.00 L 13657480.00 22442913.00 L 13657480.00 21812993.00 L 13870078.00 21812993.00 L 13870078.00 22442913.00  zM 14381889.00 22442913.00 L 14169291.00 22442913.00 L 14169291.00 21812993.00 L 14381889.00 21812993.00 L 14381889.00 22442913.00  zM 14637794.00 22442913.00 L 14425196.00 22442913.00 L 14425196.00 21812993.00 L 14637794.00 21812993.00 L 14637794.00 22442913.00  zM 14263781.63 22849600.96 m -292507.04 0 a 292507.04 292507.04 0 1 1 585014.09 0a 292507.04 292507.04 0 1 1 -585014.09 0M 14101811.00 24390787.00 L 13687165.00 24390787.00 L 13687165.00 23720237.00 L 14101811.00 23720237.00 L 14101811.00 24390787.00  zM 14637794.00 17127952.00 L 14425196.00 17127952.00 L 14425196.00 16498032.00 L 14637794.00 16498032.00 L 14637794.00 17127952.00  zM 15405511.00 17127952.00 L 15192913.00 17127952.00 L 15192913.00 16498032.00 L 15405511.00 16498032.00 L 15405511.00 17127952.00  zM 15661416.00 17127952.00 L 15448818.00 17127952.00 L 15448818.00 16498032.00 L 15661416.00 16498032.00 L 15661416.00 17127952.00  zM 16173227.00 17127952.00 L 15960629.00 17127952.00 L 15960629.00 16498032.00 L 16173227.00 16498032.00 L 16173227.00 17127952.00  zM 16940944.00 17127952.00 L 16728346.00 17127952.00 L 16728346.00 16498032.00 L 16940944.00 16498032.00 L 16940944.00 17127952.00  zM 17769921.00 15035275.00 L 17355275.00 15035275.00 L 17355275.00 14364725.00 L 17769921.00 14364725.00 L 17769921.00 15035275.00  zM 18557323.00 15035275.00 L 18142677.00 15035275.00 L 18142677.00 14364725.00 L 18557323.00 14364725.00 L 18557323.00 15035275.00  zM 16850001.63 15699994.96 m -292507.04 0 a 292507.04 292507.04 0 1 1 585014.09 0a 292507.04 292507.04 0 1 1 -585014.09 0M 17196849.00 17127952.00 L 16984251.00 17127952.00 L 16984251.00 16498032.00 L 17196849.00 16498032.00 L 17196849.00 17127952.00  zM 15149605.00 17127952.00 L 14937007.00 17127952.00 L 14937007.00 16498032.00 L 15149605.00 16498032.00 L 15149605.00 17127952.00  zM 15917322.00 17127952.00 L 15704724.00 17127952.00 L 15704724.00 16498032.00 L 15917322.00 16498032.00 L 15917322.00 17127952.00  zM 16429133.00 17127952.00 L 16216535.00 17127952.00 L 16216535.00 16498032.00 L 16429133.00 16498032.00 L 16429133.00 17127952.00  zM 16685038.00 17127952.00 L 16472440.00 17127952.00 L 16472440.00 16498032.00 L 16685038.00 16498032.00 L 16685038.00 17127952.00  zM 17452755.00 17127952.00 L 17240157.00 17127952.00 L 17240157.00 16498032.00 L 17452755.00 16498032.00 L 17452755.00 17127952.00  zM 14893700.00 17127952.00 L 14681102.00 17127952.00 L 14681102.00 16498032.00 L 14893700.00 16498032.00 L 14893700.00 17127952.00  zM 17198818.00 20730314.00 L 13143700.00 20730314.00 L 13143700.00 18210630.00 L 17198818.00 18210630.00 L 17198818.00 20730314.00  zM 15917322.00 22442913.00 L 15704724.00 22442913.00 L 15704724.00 21812993.00 L 15917322.00 21812993.00 L 15917322.00 22442913.00  zM 16429133.00 22442913.00 L 16216535.00 22442913.00 L 16216535.00 21812993.00 L 16429133.00 21812993.00 L 16429133.00 22442913.00  zM 14893700.00 22442913.00 L 14681102.00 22442913.00 L 14681102.00 21812993.00 L 14893700.00 21812993.00 L 14893700.00 22442913.00  zM 15149605.00 22442913.00 L 14937007.00 22442913.00 L 14937007.00 21812993.00 L 15149605.00 21812993.00 L 15149605.00 22442913.00  zM 15405511.00 22442913.00 L 15192913.00 22442913.00 L 15192913.00 21812993.00 L 15405511.00 21812993.00 L 15405511.00 22442913.00  zM 16173227.00 22442913.00 L 15960629.00 22442913.00 L 15960629.00 21812993.00 L 16173227.00 21812993.00 L 16173227.00 22442913.00  zM 16685038.00 22442913.00 L 16472440.00 22442913.00 L 16472440.00 21812993.00 L 16685038.00 21812993.00 L 16685038.00 22442913.00  zM 15661416.00 22442913.00 L 15448818.00 22442913.00 L 15448818.00 21812993.00 L 15661416.00 21812993.00 L 15661416.00 22442913.00  zM 15487796.63 22857081.96 m -292507.04 0 a 292507.04 292507.04 0 1 1 585014.09 0a 292507.04 292507.04 0 1 1 -585014.09 0M 15469134.00 24368739.00 L 15034804.00 24368739.00 L 15034804.00 23776929.00 L 15469134.00 23776929.00 L 15469134.00 24368739.00  zM 16217166.00 24368739.00 L 15782836.00 24368739.00 L 15782836.00 23776929.00 L 16217166.00 23776929.00 L 16217166.00 24368739.00  zM 16940944.00 22442913.00 L 16728346.00 22442913.00 L 16728346.00 21812993.00 L 16940944.00 21812993.00 L 16940944.00 22442913.00  zM 17196849.00 22442913.00 L 16984251.00 22442913.00 L 16984251.00 21812993.00 L 17196849.00 21812993.00 L 17196849.00 22442913.00  zM 17452755.00 22442913.00 L 17240157.00 22442913.00 L 17240157.00 21812993.00 L 17452755.00 21812993.00 L 17452755.00 22442913.00  zM 19340946.63 22847632.96 m -292507.04 0 a 292507.04 292507.04 0 1 1 585014.09 0a 292507.04 292507.04 0 1 1 -585014.09 0M 17421890.00 24416771.00 L 17007244.00 24416771.00 L 17007244.00 23746221.00 L 17421890.00 23746221.00 L 17421890.00 24416771.00  zM 17191733.63 24884640.96 m -292507.04 0 a 292507.04 292507.04 0 1 1 585014.09 0a 292507.04 292507.04 0 1 1 -585014.09 0M 18209292.00 24416771.00 L 17794646.00 24416771.00 L 17794646.00 23746221.00 L 18209292.00 23746221.00 L 18209292.00 24416771.00  zM 19359755.63 24097990.96 m -292507.04 0 a 292507.04 292507.04 0 1 1 585014.09 0a 292507.04 292507.04 0 1 1 -585014.09 0"/>
</g>
</svg>
