<svg width="45.085mm" height="60.071mm" viewBox="0 0 17750000 23650000"  version="1.1" xmlns="http://www.w3.org/2000/svg" xmlns:xlink="http://www.w3.org/1999/xlink">
<desc>
Origin 0 0 Bound 2850000 2100000 17750000 23650000
</desc>
<g fill-rule="evenodd" fill="rgb(255, 0, 0)" stroke="black" stroke-width="1" transform="translate(0, 23650000) scale(1, -1) translate(-2850000, -2100000)">
<path id="N" d="M 15129920.00 16831608.26 L 15133623.00 16812992.00 L 15133623.00 13744094.00 L 15126748.00 13709531.00 L 15107170.00 13680230.00 L 13703234.00 12276294.00 L 13673933.00 12256716.00 L 13639370.00 12249841.00 L 13438977.00 12249841.00 L 13438977.00 12223782.00 L 13478347.00 12223782.00 L 13512910.00 12216907.00 L 13542211.00 12197329.00 L 14552053.00 11187487.00 L 14571631.00 11158186.00 L 14578506.00 11123623.00 L 14578506.00 6228352.00 L 14571631.00 6193789.00 L 14552053.00 6164488.00 L 14486446.54 6098881.54 L 14511326.00 6066458.00 A 258101.18 258101.18 0 1 0 14287794.00 6195515.00 L 14322990.34 6190881.34 L 14397872.00 6265763.00 L 14397872.00 11086212.00 L 13440936.00 12043148.00 L 13350394.00 12043148.00 L 13341671.56 12044883.00 L 13104331.00 12044883.00 L 13104331.00 12635433.00 L 13438977.00 12635433.00 L 13438977.00 12430475.00 L 13601959.00 12430475.00 L 14952989.00 13781505.00 L 14952989.00 16812992.00 L 14956692.00 16831608.26 L 14956692.00 17108267.00 L 15129920.00 17108267.00 L 15129920.00 16831608.26  zM 14287793.13 5937403.07 m -150528.93 0 a 150528.93 150528.93 0 1 1 301057.86 0a 150528.93 150528.93 0 1 1 -301057.86 0"/>
<path id="N" d="M 15641731.00 22146569.26 L 15645434.00 22127953.00 L 15645434.00 21397637.00 L 15638559.00 21363074.00 L 15618981.00 21333773.00 L 15203234.00 20918026.00 L 15173933.00 20898448.00 L 15139370.00 20891573.00 L 10190157.00 20891573.00 L 10155594.00 20898448.00 L 10126293.00 20918026.00 L 9756215.00 21288104.00 L 9736637.00 21317405.00 L 9729762.00 21351968.00 L 9729762.00 21805980.25 L 9722534.00 21807418.00 A 254898.03 254898.03 0 1 0 9917624.00 21807418.00 L 9910396.00 21805980.25 L 9910396.00 21389379.00 L 10227568.00 21072207.00 L 15101959.00 21072207.00 L 15464800.00 21435048.00 L 15464800.00 21953113.18 L 15462832.00 21963007.00 L 15462832.00 22008078.00 L 15464800.00 22017971.82 L 15464800.00 22127953.00 L 15468503.00 22146569.26 L 15468503.00 22423228.00 L 15641731.00 22423228.00 L 15641731.00 22146569.26  z"/>
<path id="N" d="M 8449988.93 7449983.95 m -337548.83 0 a 337548.83 337548.83 0 1 1 675097.65 0a 337548.83 337548.83 0 1 1 -675097.65 0M 8449998.22 7449994.65 m -220780.35 0 a 220780.35 220780.35 0 1 1 441560.70 0a 220780.35 220780.35 0 1 1 -441560.70 0"/>
<path id="N" d="M 14061811.00 24212757.00 L 15074804.00 24212757.00 L 15074804.00 24328739.00 L 15429134.00 24328739.00 L 15429134.00 23985968.96 L 15453969.00 23969375.00 L 16130792.00 23292552.00 L 16150370.00 23263251.00 L 16157245.00 23228688.00 L 16157245.00 22127953.00 L 16153542.00 22109336.74 L 16153542.00 21832678.00 L 15980314.00 21832678.00 L 15980314.00 22109336.74 L 15976611.00 22127953.00 L 15976611.00 23191277.00 L 15350959.00 23816929.00 L 15074804.00 23816929.00 L 15074804.00 24032123.00 L 14061811.00 24032123.00 L 14061811.00 23760237.00 L 13727165.00 23760237.00 L 13727165.00 24350787.00 L 14061811.00 24350787.00 L 14061811.00 24212757.00  z"/>
<path id="N" d="M 9449991.93 6449985.95 m -337548.83 0 a 337548.83 337548.83 0 1 1 675097.65 0a 337548.83 337548.83 0 1 1 -675097.65 0M 9450001.22 6449996.65 m -220780.35 0 a 220780.35 220780.35 0 1 1 441560.70 0a 220780.35 220780.35 0 1 1 -441560.70 0"/>
<path id="N" d="M 19638976.00 10851574.00 L 19418663.00 10851574.00 L 19418663.00 10386538.75 L 19425891.00 10385101.00 A 254898.03 254898.03 0 1 0 19230801.00 10385101.00 L 19238029.00 10386538.75 L 19238029.00 10851574.00 L 19048426.00 10851574.00 L 19048426.00 11186220.00 L 19638976.00 11186220.00 L 19638976.00 10851574.00  z"/>
<path id="N" d="M 7449991.93 6449985.95 m -337548.83 0 a 337548.83 337548.83 0 1 1 675097.65 0a 337548.83 337548.83 0 1 1 -675097.65 0M 7450001.22 6449996.65 m -220780.35 0 a 220780.35 220780.35 0 1 1 441560.70 0a 220780.35 220780.35 0 1 1 -441560.70 0"/>
<path id="N" d="M 11265023.00 24544187.00 L 11260928.64 24538059.36 L 12115758.00 23683230.00 L 14722047.00 23683230.00 L 14756610.00 23676355.00 L 14785911.00 23656777.00 L 15107170.00 23335518.00 L 15126748.00 23306217.00 L 15133623.00 23271654.00 L 15133623.00 22127953.00 L 15129920.00 22109336.74 L 15129920.00 21832678.00 L 14956692.00 21832678.00 L 14956692.00 22109336.74 L 14952989.00 22127953.00 L 14952989.00 23234243.00 L 14684636.00 23502596.00 L 12078347.00 23502596.00 L 12043784.00 23509471.00 L 12014483.00 23529049.00 L 11133200.64 24410331.36 L 11127073.00 24406237.00 A 254896.24 254896.24 0 1 0 11265023.00 24544187.00  z"/>
<path id="N" d="M 13027466.00 8840489.00 L 12958467.00 8826764.18 L 12958467.00 6193307.00 L 12968895.00 6193307.00 L 12968895.00 5681497.00 L 12457085.00 5681497.00 L 12457085.00 6193307.00 L 12777833.00 6193307.00 L 12777833.00 8876933.45 L 12749681.00 8895744.00 A 254898.66 254898.66 0 1 0 13027466.00 8840489.00  zM 12712989.13 5937403.07 m -150528.93 0 a 150528.93 150528.93 0 1 1 301057.86 0a 150528.93 150528.93 0 1 1 -301057.86 0"/>
<path id="N" d="M 16665353.00 16831608.26 L 16669056.00 16812992.00 L 16669056.00 16082852.00 L 16805801.64 15946106.36 L 16850000.00 15954898.00 A 254898.66 254898.66 0 1 0 16614505.00 15797545.00 L 16648311.69 15848140.31 L 16514875.00 15981577.00 L 16495297.00 16010878.00 L 16488422.00 16045441.00 L 16488422.00 16812992.00 L 16492125.00 16831608.26 L 16492125.00 17108267.00 L 16665353.00 17108267.00 L 16665353.00 16831608.26  z"/>
<path id="N" d="M 11414474.00 13826316.00 L 11407246.00 13824878.25 L 11407246.00 9455025.00 L 11400371.00 9420462.00 L 11380793.00 9391161.00 L 10975768.00 8986136.00 L 10946467.00 8966558.00 L 10911904.00 8959683.00 L 8566535.00 8959683.00 L 8566535.00 8774410.00 L 8133465.00 8774410.00 L 8133465.00 8959683.00 L 7554724.00 8959683.00 L 7520161.00 8966558.00 L 7490860.00 8986136.00 L 6378177.00 10098819.00 L 5994095.00 10098819.00 L 5994095.00 10453149.00 L 6505905.00 10453149.00 L 6505905.00 10226547.00 L 7592135.00 9140317.00 L 8133465.00 9140317.00 L 8133465.00 9325590.00 L 8566535.00 9325590.00 L 8566535.00 9140317.00 L 10874493.00 9140317.00 L 11226612.00 9492436.00 L 11226612.00 13824878.25 L 11219384.00 13826316.00 A 254898.03 254898.03 0 1 0 11414474.00 13826316.00  z"/>
<path id="N" d="M 14618109.00 22146569.26 L 14621812.00 22127953.00 L 14621812.00 21566930.00 L 14614937.00 21532367.00 L 14595359.00 21503066.00 L 14438674.00 21346381.00 L 14409373.00 21326803.00 L 14374810.00 21319928.00 L 11757404.75 21319928.00 L 11755967.00 21312700.00 A 254898.03 254898.03 0 1 0 11755967.00 21507790.00 L 11757404.75 21500562.00 L 14337399.00 21500562.00 L 14441178.00 21604341.00 L 14441178.00 22127953.00 L 14444881.00 22146569.26 L 14444881.00 22423228.00 L 14618109.00 22423228.00 L 14618109.00 22146569.26  z"/>
<path id="N" d="M 20511811.00 25585679.87 L 20511811.00 2204724.00 L 3064111.78 2204724.00 L 3031496.00 2283464.79 L 3031496.00 25629921.00 L 20428200.08 25669102.69 L 20511811.00 25585679.87  zM 4450001.22 7449996.65 m -220780.35 0 a 220780.35 220780.35 0 1 1 441560.70 0a 220780.35 220780.35 0 1 1 -441560.70 0M 4884645.00 7400000.02 L 4784645.00 7400000.01 L 4784645.00 7115355.00 L 4500000.01 7115355.00 L 4500000.02 7015355.00 L 4884645.00 7015355.00 L 4884645.00 7400000.02  zM 6450000.00 6450004.49 m -416947.61 0 a 416947.61 416947.61 0 1 1 833895.22 0a 416947.61 416947.61 0 1 1 -833895.22 0M 7450000.00 6450004.49 m -416947.61 0 a 416947.61 416947.61 0 1 1 833895.22 0a 416947.61 416947.61 0 1 1 -833895.22 0M 7450000.00 7450002.49 m -416947.61 0 a 416947.61 416947.61 0 1 1 833895.22 0a 416947.61 416947.61 0 1 1 -833895.22 0M 8450000.00 6450005.49 m -416947.61 0 a 416947.61 416947.61 0 1 1 833895.22 0a 416947.61 416947.61 0 1 1 -833895.22 0M 8449997.00 7450002.49 m -416947.61 0 a 416947.61 416947.61 0 1 1 833895.22 0a 416947.61 416947.61 0 1 1 -833895.22 0M 9450000.00 6450004.49 m -416947.61 0 a 416947.61 416947.61 0 1 1 833895.22 0a 416947.61 416947.61 0 1 1 -833895.22 0M 9450000.00 7450004.49 m -416947.61 0 a 416947.61 416947.61 0 1 1 833895.22 0a 416947.61 416947.61 0 1 1 -833895.22 0M 5450002.00 7450005.49 m -416947.61 0 a 416947.61 416947.61 0 1 1 833895.22 0a 416947.61 416947.61 0 1 1 -833895.22 0M 4144095.00 10275983.99 L 4044095.00 10275983.98 L 4044095.00 10048819.00 L 4229400.00 10048819.00 L 4229400.00 7884645.00 L 4015355.00 7884645.00 L 4015355.00 7499999.98 L 4115355.00 7499999.99 L 4115355.00 7784645.00 L 4309683.00 7784645.00 L 4309683.00 10148819.00 L 4144095.00 10148819.00 L 4144095.00 10275983.99  zM 4755905.00 10275984.02 L 4655905.00 10275984.01 L 4655905.00 10148819.00 L 4490317.00 10148819.00 L 4490317.00 7784645.00 L 4784645.00 7784645.00 L 4784645.00 7500000.01 L 4884645.00 7500000.02 L 4884645.00 7884645.00 L 4570600.00 7884645.00 L 4570600.00 10048819.00 L 4755905.00 10048819.00 L 4755905.00 10275984.02  zM 13500392.00 5149996.24 m -337538.37 0 a 337538.37 337538.37 0 1 1 675076.73 0a 337538.37 337538.37 0 1 1 -675076.73 0M 15075195.13 5937403.07 m -150528.93 0 a 150528.93 150528.93 0 1 1 301057.86 0a 150528.93 150528.93 0 1 1 -301057.86 0M 15075195.13 5150001.07 m -150528.93 0 a 150528.93 150528.93 0 1 1 301057.86 0a 150528.93 150528.93 0 1 1 -301057.86 0M 16650000.00 5149994.24 m -337538.37 0 a 337538.37 337538.37 0 1 1 675076.73 0a 337538.37 337538.37 0 1 1 -675076.73 0M 16650000.00 5937396.24 m -337538.37 0 a 337538.37 337538.37 0 1 1 675076.73 0a 337538.37 337538.37 0 1 1 -675076.73 0M 18224803.13 5150001.07 m -150528.93 0 a 150528.93 150528.93 0 1 1 301057.86 0a 150528.93 150528.93 0 1 1 -301057.86 0M 18579866.58 5100000.02 L 18476334.41 5100000.01 L 18474122.00 5083195.00 A 258122.37 258122.37 0 0 0 18291609.00 4900682.00 L 18274804.01 4898469.59 L 18274804.02 4794937.43 L 18362178.00 4818349.00 L 18443335.00 4865205.00 L 18509599.00 4931469.00 L 18556455.00 5012626.00 L 18579866.58 5100000.02  zM 17437403.00 5937395.24 m -337538.37 0 a 337538.37 337538.37 0 1 1 675076.73 0a 337538.37 337538.37 0 1 1 -675076.73 0M 15830681.00 9631890.00 L 15865538.01 9641229.81 L 16769131.00 8737636.00 L 16824478.00 8700654.00 L 16889764.00 8687668.00 L 19707444.52 8687668.00 L 19711290.00 8683822.48 L 19711290.00 4426414.52 L 19707444.52 4422569.00 L 18666927.64 4422569.00 L 18648885.00 4453820.00 A 331573.47 331573.47 0 1 1 18648885.00 4050118.00 L 18666927.64 4081369.00 L 19778109.00 4081369.00 L 19843395.00 4094355.00 L 19898741.00 4131337.00 L 20002522.00 4235117.00 L 20039504.00 4290464.00 L 20052490.00 4355750.00 L 20052490.00 8754487.00 L 20039504.00 8819773.00 L 20002522.00 8875120.00 L 19898741.00 8978900.00 L 19843395.00 9015882.00 L 19778109.00 9028868.00 L 16960428.95 9028868.00 L 16106802.19 9882493.99 L 16116142.00 9917351.00 A 331579.20 331579.20 0 1 1 15830681.00 9631890.00  zM 14898819.00 7800000.00 L 14798819.00 7800000.00 L 14798819.00 7494095.00 L 15025984.00 7494095.00 L 15025984.00 7594095.00 L 14898819.00 7594095.00 L 14898819.00 7800000.00  zM 15025984.00 8205905.00 L 14798819.00 8205905.00 L 14798819.00 7900000.00 L 14898819.00 7900000.00 L 14898819.00 8105905.00 L 15025984.00 8105905.00 L 15025984.00 8205905.00  zM 17494095.00 11001968.00 L 17394095.00 11001968.00 L 17394095.00 10774803.00 L 17700000.00 10774803.00 L 17700000.00 10874803.00 L 17494095.00 10874803.00 L 17494095.00 11001968.00  zM 19277165.00 7800000.00 L 19177165.00 7800000.00 L 19177165.00 7594095.00 L 19050000.00 7594095.00 L 19050000.00 7494095.00 L 19277165.00 7494095.00 L 19277165.00 7800000.00  zM 19277165.00 8205905.00 L 19050000.00 8205905.00 L 19050000.00 8105905.00 L 19177165.00 8105905.00 L 19177165.00 7900000.00 L 19277165.00 7900000.00 L 19277165.00 8205905.00  zM 18105905.00 11001968.00 L 18005905.00 11001968.00 L 18005905.00 10874803.00 L 17800000.00 10874803.00 L 17800000.00 10774803.00 L 18105905.00 10774803.00 L 18105905.00 11001968.00  zM 18627165.00 13300000.02 L 18527165.00 13300000.02 L 18527165.00 13094095.00 L 18400000.02 13094095.00 L 18400000.03 12994095.00 L 18627165.00 12994095.00 L 18627165.00 13300000.02  zM 18627165.00 13705905.00 L 18399999.97 13705905.00 L 18399999.98 13605905.00 L 18527165.00 13605905.00 L 18527165.00 13400000.02 L 18627165.00 13400000.02 L 18627165.00 13705905.00  zM 16989881.00 24621588.00 L 17032549.00 24596953.81 L 17032549.00 24455511.00 L 16968504.00 24455511.00 L 16968504.00 24070792.82 L 16458107.00 23560395.00 L 16421125.00 23505049.00 L 16408139.00 23439763.00 L 16408139.00 22501968.00 L 16237528.00 22501968.00 L 16237528.00 23228688.00 L 16224542.00 23293974.00 L 16187560.00 23349321.00 L 15929071.47 23607809.15 L 15974270.35 23716929.00 L 16277166.00 23716929.00 L 16277166.00 24022834.02 L 16177166.00 24022834.02 L 16177166.00 23816929.00 L 15822836.00 23816929.00 L 15822836.00 24328739.00 L 15950000.98 24328739.00 L 15950000.97 24428739.00 L 15722836.00 24428739.00 L 15722836.00 24399606.00 L 15507874.00 24399606.00 L 15507874.00 24407479.00 L 14996064.00 24407479.00 L 14996064.00 24293040.00 L 14140551.00 24293040.00 L 14140551.00 24429527.00 L 13648425.00 24429527.00 L 13648425.00 24419659.00 L 13374409.00 24419659.00 L 13374409.00 24450787.00 L 13157086.00 24450787.00 L 13157086.00 24350787.00 L 13274409.00 24350787.00 L 13274409.00 23760237.00 L 12939763.00 23760237.00 L 12939763.00 24005512.00 L 12839763.00 24005512.00 L 12839763.00 23763513.00 L 12149011.00 23763513.00 L 11348928.15 24563595.85 L 11358268.00 24598453.00 A 331579.20 331579.20 0 1 1 11072807.00 24312992.00 L 11107664.15 24322331.85 L 11849553.57 23580442.43 L 11800630.63 23462332.00 L 11084251.00 23462332.00 L 11018965.00 23449346.00 L 10963619.00 23412364.00 L 10840734.15 23289479.15 L 10805877.00 23298819.00 A 331579.20 331579.20 0 1 1 11091338.00 23013358.00 L 11086516.25 23031353.20 L 11163589.67 23121132.00 L 13911471.80 23121132.00 L 13972757.97 23003021.51 L 13957443.00 22976495.00 L 13935040.00 22892885.00 L 13935040.00 22821764.96 L 13892150.64 22768433.30 L 13840627.16 22722910.32 L 13765525.00 22730085.45 L 13673403.00 22822207.00 L 13618057.00 22859189.00 L 13552771.00 22872175.00 L 11862205.00 22872175.00 L 11796919.00 22859189.00 L 11741572.00 22822207.00 L 11481713.31 22562347.73 L 11460208.00 22568110.00 A 331579.20 331579.20 0 1 1 11745669.00 22282649.00 L 11732751.75 22330857.32 L 11932869.89 22530975.00 L 12694546.41 22530975.00 L 12809448.00 22523227.00 L 12809448.00 22177951.99 L 12909448.00 22177952.00 L 12909448.00 22423228.00 L 13082676.00 22423228.00 L 13082676.00 21832678.00 L 13046061.01 21832678.00 L 13046061.02 21732678.00 L 13182676.00 21732678.00 L 13182676.00 21753938.00 L 14268726.62 21753938.00 L 14318204.91 21635827.57 L 14264096.53 21580845.00 L 11801572.64 21580845.00 L 11783530.00 21612096.00 A 331573.47 331573.47 0 0 1 11214135.00 21283356.00 L 11221499.34 21270600.50 L 11153307.95 21152490.00 L 10260821.86 21152490.00 L 9990679.00 21422632.14 L 9990679.00 21761812.36 L 10021930.00 21779855.00 A 331573.47 331573.47 0 1 1 9618228.00 21779855.00 L 9649479.00 21761812.36 L 9649479.00 21351968.00 L 9662465.00 21286682.00 L 9699447.00 21231336.00 L 10069524.00 20861258.00 L 10124871.00 20824276.00 L 10190157.00 20811290.00 L 13063384.29 20810628.00 L 13063385.00 19520471.91 L 13163385.00 19520471.91 L 13163385.00 20710629.00 L 17179133.00 20710629.00 L 17179133.00 19520472.09 L 17279133.00 19520472.09 L 17279133.00 20810629.00 L 15376406.37 20810629.00 L 15327483.43 20928739.43 L 15655656.04 21256912.04 L 15727851.13 21276055.28 L 15805271.12 21274436.44 L 15860297.00 21237669.00 L 15925583.00 21224683.00 L 17262399.89 21224683.00 L 17637274.00 20849808.11 L 17637274.00 18238774.00 L 17292722.00 17894222.00 L 9484645.00 17894222.00 L 9484645.00 18820866.00 L 8789104.00 18820866.00 L 8789104.00 20074804.00 L 9484645.00 20074804.00 L 9484645.00 21570866.00 L 8789104.00 21570866.00 L 8789104.00 22824804.00 L 9484645.00 22824804.00 L 9484645.00 24320866.00 L 7752363.00 24320866.00 L 7752363.00 22824804.00 L 8447904.00 22824804.00 L 8447904.00 21570866.00 L 7752363.00 21570866.00 L 7752363.00 20074804.00 L 8447904.00 20074804.00 L 8447904.00 18820866.00 L 7752363.00 18820866.00 L 7752363.00 17324804.00 L 9484645.00 17324804.00 L 9484645.00 17553022.00 L 15640423.00 17553022.00 L 15640423.00 17187007.00 L 13182676.00 17187007.00 L 13182676.00 17208267.00 L 13046061.98 17208267.00 L 13046061.99 17108267.00 L 13082676.00 17108267.00 L 13082676.00 16517717.00 L 13046062.01 16517717.00 L 13046062.02 16417717.00 L 13182676.00 16417717.00 L 13182676.00 16438977.00 L 13593179.00 16438977.00 L 13593179.00 16179563.52 L 13589333.52 16175718.00 L 10721781.00 16175718.00 L 10721781.00 16490553.36 L 10753032.00 16508596.00 A 331573.47 331573.47 0 1 1 10349330.00 16508596.00 L 10380581.00 16490553.36 L 10380581.00 16175718.00 L 7033070.00 16175718.00 L 6967784.00 16162732.00 L 6912438.00 16125751.00 L 5541805.89 14755118.00 L 3972048.00 14755118.00 L 3972048.00 14164568.00 L 4706959.00 14164568.00 L 4706959.00 13276543.90 L 4279368.00 12848952.00 L 4242386.00 12793606.00 L 4229400.00 12728320.00 L 4229400.00 11329921.00 L 4065355.00 11329921.00 L 4065355.00 11244616.00 L 3924016.00 11244616.00 L 3858730.00 11231630.00 L 3803383.00 11194648.00 L 3379368.00 10770632.00 L 3342386.00 10715286.00 L 3329400.00 10650000.00 L 3329400.00 7399999.00 L 3342386.00 7334713.00 L 3379368.00 7279367.00 L 4061488.61 6597245.67 L 4036616.00 6504421.00 A 416947.61 416947.61 0 1 1 4395578.00 6863383.00 L 4328528.92 6845417.03 L 4278661.23 6897893.46 L 4327905.09 7015355.00 L 4400000.02 7015355.00 L 4400000.01 7115355.00 L 4115355.00 7115355.00 L 4115355.00 7399999.99 L 4015355.00 7399999.98 L 4015355.00 7280227.07 L 3906235.18 7235028.13 L 3670600.00 7470663.05 L 3670600.00 10579335.88 L 3947244.59 10855979.82 L 4065354.59 10818110.16 L 4071994.12 10721259.50 L 4044095.00 10603148.38 L 4044095.00 10375983.98 L 4144095.00 10375983.99 L 4144095.00 10503149.00 L 4655905.00 10503149.00 L 4655905.00 10375984.01 L 4755905.00 10375984.02 L 4755905.00 10603149.00 L 4726772.00 10603149.00 L 4726772.00 10818111.00 L 4734645.00 10818111.00 L 4734645.00 10903416.00 L 5915355.00 10903416.00 L 5915355.00 10768111.00 L 5923228.00 10768111.00 L 5923228.00 10531889.00 L 5915355.00 10531889.00 L 5915355.00 10020079.00 L 6343380.89 10020079.00 L 7434091.00 8929368.00 L 7489438.00 8892386.00 L 7554724.00 8879400.00 L 8054725.00 8879400.00 L 8054725.00 8707607.00 L 6655739.14 8707607.00 L 6653607.00 8711300.00 A 331573.47 331573.47 0 1 1 6433041.69 8180709.00 L 6493892.31 8074526.31 L 6407060.00 7987694.00 L 6370078.00 7932348.00 L 6357092.00 7867062.00 L 6357092.00 7853071.31 L 6290441.00 7835212.00 A 416953.74 416953.74 0 1 1 6703826.54 7780788.46 L 6772471.54 7870577.54 L 7012396.00 8110502.00 L 10216737.93 8110502.00 L 10836487.00 7490752.07 L 10836487.00 5796649.90 L 10563174.85 5523337.23 L 10528318.00 5532677.00 A 331579.20 331579.20 0 1 1 10813779.00 5247216.00 L 10804439.23 5282072.85 L 11127718.49 5605351.49 L 11224606.98 5538852.88 L 11734091.00 5029368.00 L 11789438.00 4992386.00 L 11854724.00 4979400.00 L 12425070.76 4979400.00 L 12445207.00 4944523.00 A 337533.56 337533.56 0 1 1 12445207.00 5355477.00 L 12425070.76 5320600.00 L 11925388.92 5320600.00 L 11433592.00 5812396.08 L 11433592.00 6250875.67 L 11551702.50 6319067.06 A 328013.79 328013.79 0 0 1 12009055.00 6667688.00 L 11999715.15 6702545.15 L 12579439.57 7282269.57 L 12697550.00 7233346.63 L 12697550.00 6272047.00 L 12378345.00 6272047.00 L 12378345.00 5602757.00 L 13047635.00 5602757.00 L 13047635.00 6272047.00 L 13038750.00 6272047.00 L 13038750.00 8764807.89 L 13056810.00 8769647.00 L 13131772.00 8812926.00 L 13192979.00 8874133.00 L 13211681.68 8906527.25 L 13329792.00 8874879.89 L 13329792.00 6225321.24 L 13294915.00 6205185.00 A 337533.56 337533.56 0 1 1 13705869.00 6205185.00 L 13670992.00 6225321.24 L 13670992.00 9095696.00 L 13658006.00 9160982.00 L 13621024.00 9216328.00 L 13470600.00 9366752.00 L 13470600.00 10175985.00 L 13546063.00 10175985.00 L 13546063.00 10408928.00 L 13789765.36 10408928.00 L 13807808.00 10377677.00 A 331573.47 331573.47 0 0 1 14199478.50 10274186.06 L 14317589.00 10205994.67 L 14317589.00 6299016.75 L 14290619.38 6272047.00 L 14243737.00 6272047.00 A 337526.79 337526.79 0 1 1 14599634.00 5808234.00 L 14609351.71 5844501.66 L 14731628.39 5844501.80 L 14743545.00 5800028.00 L 14790401.00 5718871.00 L 14856665.00 5652607.00 L 14941224.32 5604839.36 L 14941224.32 5482562.64 A 352924.09 352924.09 0 0 1 14743545.00 5287374.00 L 14731628.39 5242900.20 L 14609351.71 5242900.34 L 14599634.00 5279168.00 A 337533.56 337533.56 0 1 1 14599634.00 5020832.00 L 14609351.71 5057099.66 L 14731628.39 5057099.80 L 14743545.00 5012626.00 A 358976.55 358976.55 0 0 1 15025196.02 4794937.42 L 15025196.01 4898469.59 L 15008391.00 4900682.00 A 258122.37 258122.37 0 1 0 15142001.00 4900682.00 L 15125196.01 4898469.59 L 15125196.02 4794937.43 L 15212570.00 4818349.00 L 15293727.00 4865205.00 L 15359991.00 4931469.00 L 15406847.00 5012626.00 L 15418763.61 5057099.80 L 15541040.29 5057099.66 L 15550758.00 5020832.00 L 15594815.00 4944523.00 L 15657121.00 4882217.00 L 15691998.00 4862080.76 L 15691998.00 4555309.92 L 15165556.92 4028868.00 L 12879525.64 4028868.00 L 12861483.00 4060119.00 A 331573.47 331573.47 0 0 1 12335367.00 4060119.00 L 12317324.36 4028868.00 L 8112397.00 4028868.00 L 5838512.24 6302752.76 L 5863385.00 6395578.00 A 416947.61 416947.61 0 1 1 5504423.00 6036616.00 L 5597248.24 6061488.76 L 7921101.00 3737636.00 L 7976447.00 3700654.00 L 8041733.00 3687668.00 L 12317324.36 3687668.00 L 12335367.00 3656417.00 A 331573.47 331573.47 0 0 1 12861483.00 3656417.00 L 12879525.64 3687668.00 L 15236221.00 3687668.00 L 15301507.00 3700654.00 L 15356853.00 3737636.00 L 15983231.00 4364013.00 L 16020212.00 4419359.00 L 16033198.00 4484645.00 L 16033198.00 4862080.76 L 16068075.00 4882217.00 A 337533.56 337533.56 0 0 1 16068075.00 5417783.00 L 16033197.00 5437919.81 L 16033197.00 5649482.76 L 16068074.00 5669619.00 A 337533.56 337533.56 0 0 1 15994616.00 6247595.98 L 15994616.00 7515355.00 L 16079921.00 7515355.00 L 16079921.00 7679400.00 L 17996063.00 7679400.00 L 17996063.00 7515355.00 L 18054204.00 7515355.00 L 18054204.00 6225321.24 L 18019327.00 6205185.00 A 337533.56 337533.56 0 0 1 18095636.00 5625562.00 L 18131903.66 5615844.29 L 18131903.80 5493567.61 L 18087430.00 5481651.00 A 358976.55 358976.55 0 0 1 17893153.00 5287374.00 L 17881236.39 5242900.20 L 17758959.71 5242900.34 L 17749242.00 5279168.00 A 337533.56 337533.56 0 1 1 17231925.00 4882217.00 L 17266802.00 4862080.76 L 17266802.00 3491137.92 L 16704532.92 2928868.00 L 10739368.64 2928868.00 L 10721326.00 2960119.00 A 331573.47 331573.47 0 1 1 10721326.00 2556417.00 L 10739368.64 2587668.00 L 16775197.00 2587668.00 L 16840483.00 2600654.00 L 16895829.00 2637636.00 L 17558034.00 3299840.00 L 17595016.00 3355187.00 L 17608002.00 3420473.00 L 17608002.00 4862080.76 L 17642879.00 4882217.00 L 17705185.00 4944523.00 L 17749242.00 5020832.00 L 17758959.71 5057099.66 L 17881236.39 5057099.80 L 17893153.00 5012626.00 A 358976.55 358976.55 0 0 1 18174804.02 4794937.42 L 18174804.01 4898469.59 L 18157999.00 4900682.00 A 258122.37 258122.37 0 1 0 18474122.00 5216805.00 L 18476334.41 5200000.01 L 18579866.57 5200000.02 L 18556455.00 5287374.00 L 18509599.00 5368531.00 L 18443335.00 5434795.00 L 18362178.00 5481651.00 L 18317704.20 5493567.61 L 18317704.34 5615844.29 L 18353972.00 5625562.00 A 337533.56 337533.56 0 0 1 18430281.00 6205185.00 L 18395404.00 6225321.24 L 18395404.00 7515355.00 L 18507873.00 7515355.00 L 18507873.00 7523228.00 L 18722835.00 7523228.00 L 18722835.00 7494095.00 L 18950000.00 7494095.00 L 18950000.00 7594095.00 L 18822835.00 7594095.00 L 18822835.00 8105905.00 L 18950000.00 8105905.00 L 18950000.00 8205905.00 L 18722835.00 8205905.00 L 18722835.00 8176772.00 L 18507873.00 8176772.00 L 18507873.00 8184645.00 L 17996063.00 8184645.00 L 17996063.00 8020600.00 L 16079921.00 8020600.00 L 16079921.00 8184645.00 L 15568111.00 8184645.00 L 15568111.00 8176772.00 L 15353149.00 8176772.00 L 15353149.00 8205905.00 L 15125984.00 8205905.00 L 15125984.00 8105905.00 L 15253149.00 8105905.00 L 15253149.00 7594095.00 L 15125984.00 7594095.00 L 15125984.00 7494095.00 L 15353149.00 7494095.00 L 15353149.00 7523228.00 L 15568111.00 7523228.00 L 15568111.00 7515355.00 L 15653416.00 7515355.00 L 15653416.00 6201481.00 L 15594814.00 6142879.00 L 15550757.00 6066570.00 L 15541039.79 6030304.21 L 15418763.11 6030304.06 L 15406847.00 6074776.00 A 358976.55 358976.55 0 0 1 15125195.98 6292464.58 L 15125195.99 6188932.41 L 15142001.00 6186720.00 A 258122.37 258122.37 0 1 0 15008391.00 6186720.00 L 15025195.99 6188932.41 L 15025195.98 6292464.57 L 14937822.00 6269053.00 L 14856665.00 6222197.00 L 14790401.00 6155933.00 L 14774589.85 6128547.27 L 14642010.62 6135134.24 L 14636011.95 6148412.79 L 14645803.00 6163066.00 L 14658789.00 6228352.00 L 14658789.00 11123623.00 L 14645803.00 11188909.00 L 14608821.00 11244256.00 L 13768992.03 12084084.14 L 13763047.79 12173643.73 L 13780292.80 12239816.79 L 14366337.00 12825860.56 L 14460848.79 12753339.34 L 14456261.00 12745393.00 A 331579.20 331579.20 0 1 1 15091338.00 12661783.00 L 15081998.23 12696639.86 L 15419845.00 13034486.00 L 15456826.00 13089832.00 L 15469812.00 13155118.00 L 15469812.00 13605865.19 L 15578931.84 13651064.09 L 17415355.00 11814640.06 L 17415355.00 11544095.00 L 17423228.00 11544095.00 L 17423228.00 11329133.00 L 17394095.00 11329133.00 L 17394095.00 11101968.00 L 17494095.00 11101968.00 L 17494095.00 11229133.00 L 18005905.00 11229133.00 L 18005905.00 11101968.00 L 18105905.00 11101968.00 L 18105905.00 11329133.00 L 18076772.00 11329133.00 L 18076772.00 11544095.00 L 18084645.00 11544095.00 L 18084645.00 11635699.00 L 18969686.00 11635699.00 L 18969686.00 11560236.00 L 18979501.00 11560236.00 L 18979501.00 11264960.00 L 18969686.00 11264960.00 L 18969686.00 10772834.00 L 19157746.00 10772834.00 L 19157746.00 10430706.64 L 19126495.00 10412664.00 A 331573.47 331573.47 0 1 1 19530197.00 10412664.00 L 19498946.00 10430706.64 L 19498946.00 10772834.00 L 19717716.00 10772834.00 L 19717716.00 11264960.00 L 19707848.00 11264960.00 L 19707848.00 11560236.00 L 19717716.00 11560236.00 L 19717716.00 12052362.00 L 19511545.00 12052362.00 L 19511545.00 22566537.36 L 19542796.00 22584580.00 A 331573.47 331573.47 0 1 1 19139094.00 22584580.00 L 19170345.00 22566537.36 L 19170345.00 12052362.00 L 18969686.00 12052362.00 L 18969686.00 11976899.00 L 18084645.00 11976899.00 L 18084645.00 12055905.00 L 17656619.94 12055905.00 L 15725717.00 13986807.02 L 15725717.00 16438977.00 L 15896328.00 16438977.00 L 15896328.00 15133072.00 L 15909314.00 15067786.00 L 15946296.00 15012440.00 L 16379367.00 14579368.00 L 16434714.00 14542386.00 L 16500000.00 14529400.00 L 17316535.00 14529400.00 L 17316535.00 14325985.00 L 17391998.00 14325985.00 L 17391998.00 13684645.00 L 17346063.00 13684645.00 L 17346063.00 13015355.00 L 17857873.00 13015355.00 L 17857873.00 13023228.00 L 18072835.00 13023228.00 L 18072835.00 12994095.00 L 18300000.03 12994095.00 L 18300000.02 13094095.00 L 18172835.00 13094095.00 L 18172835.00 13605905.00 L 18299999.98 13605905.00 L 18299999.97 13705905.00 L 18072835.00 13705905.00 L 18072835.00 13676772.00 L 17857873.00 13676772.00 L 17857873.00 13684645.00 L 17733198.00 13684645.00 L 17733198.00 14325985.00 L 17808661.00 14325985.00 L 17808661.00 14335853.00 L 18082677.00 14335853.00 L 18082677.00 14304725.00 L 18300000.03 14304725.00 L 18300000.03 14404725.00 L 18182677.00 14404725.00 L 18182677.00 14995275.00 L 18299999.97 14995275.00 L 18299999.97 15095275.00 L 18082677.00 15095275.00 L 18082677.00 15064200.00 L 17808661.00 15064200.00 L 17808661.00 15074015.00 L 17316535.00 15074015.00 L 17316535.00 14870600.00 L 16570664.88 14870600.00 L 16237528.00 15203736.12 L 16237528.00 16438977.00 L 16408139.00 16438977.00 L 16408139.00 16045441.00 L 16421125.00 15980155.00 L 16458107.00 15924809.00 L 16548188.52 15834727.48 L 16543663.00 15826889.00 A 331579.20 331579.20 0 1 1 16893279.00 16028740.00 L 16836704.00 16028740.00 L 16749339.00 16116105.00 L 16749339.00 16438977.00 L 17159842.00 16438977.00 L 17159842.00 16417717.00 L 17296456.02 16417717.00 L 17296456.01 16517717.00 L 17259842.00 16517717.00 L 17259842.00 17108267.00 L 17296455.99 17108267.00 L 17296455.98 17208267.00 L 17159842.00 17208267.00 L 17159842.00 17187007.00 L 15981623.00 17187007.00 L 15981623.00 17553022.00 L 17363386.00 17553022.00 L 17428672.00 17566008.00 L 17484018.00 17602990.00 L 17928506.00 18047478.00 L 17965488.00 18102824.00 L 17978474.00 18168110.00 L 17978474.00 20920473.00 L 17965488.00 20985759.00 L 17928507.00 21041105.00 L 17453696.00 21515915.00 L 17398350.00 21552897.00 L 17333064.00 21565883.00 L 15996247.56 21565883.00 L 15981623.00 21580507.44 L 15981623.00 21753938.00 L 17159842.00 21753938.00 L 17159842.00 21732678.00 L 17296455.02 21732678.00 L 17296455.01 21832678.00 L 17259842.00 21832678.00 L 17259842.00 22423228.00 L 17296454.99 22423228.00 L 17296454.98 22523228.00 L 17159842.00 22523228.00 L 17159842.00 22501968.00 L 16749339.00 22501968.00 L 16749339.00 23369098.92 L 17087721.62 23707481.00 L 17460630.00 23707481.00 L 17460630.00 23717296.00 L 17755906.00 23717296.00 L 17755906.00 23707481.00 L 18248032.00 23707481.00 L 18248032.00 23921132.00 L 19082269.86 23921132.00 L 19096696.00 23896145.00 A 331573.47 331573.47 0 1 1 19096696.00 24299847.00 L 19075036.87 24262332.00 L 18248032.00 24262332.00 L 18248032.00 24455511.00 L 17755906.00 24455511.00 L 17755906.00 24445643.00 L 17460630.00 24445643.00 L 17460630.00 24455511.00 L 17373749.00 24455511.00 L 17373749.00 24610136.92 L 17393583.00 24621588.00 A 331573.47 331573.47 0 1 1 16989881.00 24621588.00  zM 3894095.00 18022835.97 L 3794095.00 18022835.96 L 3794095.00 17303544.00 L 4631497.03 17303544.00 L 4631497.03 17403544.00 L 3894095.00 17403544.00 L 3894095.00 18022835.97  zM 4631496.97 18842126.00 L 3794095.00 18842126.00 L 3794095.00 18122835.96 L 3894095.00 18122835.97 L 3894095.00 18742126.00 L 4631496.97 18742126.00 L 4631496.97 18842126.00  zM 5568897.00 18022836.04 L 5468897.00 18022836.03 L 5468897.00 17403544.00 L 4731497.03 17403544.00 L 4731497.03 17303544.00 L 5568897.00 17303544.00 L 5568897.00 18022836.04  zM 5568897.00 18842126.00 L 4731496.97 18842126.00 L 4731496.97 18742126.00 L 5468897.00 18742126.00 L 5468897.00 18122836.03 L 5568897.00 18122836.04 L 5568897.00 18842126.00  zM 3894095.00 20772835.97 L 3794095.00 20772835.96 L 3794095.00 20053544.00 L 4631497.03 20053544.00 L 4631497.03 20153544.00 L 3894095.00 20153544.00 L 3894095.00 20772835.97  zM 4631496.97 21592126.00 L 3794095.00 21592126.00 L 3794095.00 20872835.96 L 3894095.00 20872835.97 L 3894095.00 21492126.00 L 4631496.97 21492126.00 L 4631496.97 21592126.00  zM 5568897.00 20772836.04 L 5468897.00 20772836.03 L 5468897.00 20153544.00 L 4731497.03 20153544.00 L 4731497.03 20053544.00 L 5568897.00 20053544.00 L 5568897.00 20772836.04  zM 5568897.00 21592126.00 L 4731496.97 21592126.00 L 4731496.97 21492126.00 L 5468897.00 21492126.00 L 5468897.00 20872836.03 L 5568897.00 20872836.04 L 5568897.00 21592126.00  zM 3894095.00 23522835.97 L 3794095.00 23522835.96 L 3794095.00 22803544.00 L 4631497.03 22803544.00 L 4631497.03 22903544.00 L 3894095.00 22903544.00 L 3894095.00 23522835.97  zM 5568897.00 23522836.04 L 5468897.00 23522836.03 L 5468897.00 22903544.00 L 4731497.03 22903544.00 L 4731497.03 22803544.00 L 5568897.00 22803544.00 L 5568897.00 23522836.04  zM 4631496.97 24342126.00 L 3794095.00 24342126.00 L 3794095.00 23622835.96 L 3894095.00 23622835.97 L 3894095.00 24242126.00 L 4631496.97 24242126.00 L 4631496.97 24342126.00  zM 5568897.00 24342126.00 L 4731496.97 24342126.00 L 4731496.97 24242126.00 L 5468897.00 24242126.00 L 5468897.00 23622836.03 L 5568897.00 23622836.04 L 5568897.00 24342126.00  zM 9282606.67 24910630.00 L 9178609.90 24910630.00 L 9201411.00 24825535.00 A 353016.46 353016.46 0 0 1 9477559.00 24611680.90 L 9477559.00 24715677.67 L 9430014.00 24725135.00 L 9347319.00 24780390.00 L 9292064.00 24863085.00 L 9282606.67 24910630.00  zM 9477559.00 25309579.10 L 9392464.00 25286778.00 A 353016.46 353016.46 0 0 1 9178609.90 25010630.00 L 9282606.67 25010630.00 L 9292064.00 25058175.00 L 9347319.00 25140870.00 L 9430014.00 25196125.00 L 9477559.00 25205582.33 L 9477559.00 25309579.10  zM 9876508.10 24910630.00 L 9772511.33 24910630.00 L 9763054.00 24863085.00 L 9707799.00 24780390.00 L 9625104.00 24725135.00 L 9577559.00 24715677.67 L 9577559.00 24611680.90 L 9662654.00 24634482.00 A 353016.46 353016.46 0 0 1 9876508.10 24910630.00  zM 9577559.00 25309579.10 L 9577559.00 25205582.33 L 9625104.00 25196125.00 L 9707799.00 25140870.00 L 9763054.00 25058175.00 L 9772511.33 25010630.00 L 9876508.10 25010630.00 L 9853707.00 25095725.00 A 353016.46 353016.46 0 0 1 9577559.00 25309579.10  zM 11369220.67 16603543.00 L 11265223.90 16603543.00 L 11288025.00 16518448.00 A 353016.46 353016.46 0 0 1 11564173.00 16304593.90 L 11564173.00 16408590.67 L 11516628.00 16418048.00 L 11433933.00 16473303.00 L 11378678.00 16555998.00 L 11369220.67 16603543.00  zM 11564173.00 17002492.10 L 11479078.00 16979691.00 A 353016.46 353016.46 0 0 1 11265223.90 16703543.00 L 11369220.67 16703543.00 L 11378678.00 16751088.00 L 11433933.00 16833783.00 L 11516628.00 16889038.00 L 11564173.00 16898495.33 L 11564173.00 17002492.10  zM 11664173.00 17002492.10 L 11664173.00 16898495.33 L 11711718.00 16889038.00 L 11794413.00 16833783.00 L 11849668.00 16751088.00 L 11859125.33 16703543.00 L 11963122.10 16703543.00 L 11940321.00 16788638.00 A 353016.46 353016.46 0 0 1 11664173.00 17002492.10  zM 11963122.10 16603543.00 L 11859125.33 16603543.00 L 11849668.00 16555998.00 L 11794413.00 16473303.00 L 11711718.00 16418048.00 L 11664173.00 16408590.67 L 11664173.00 16304593.90 L 11749268.00 16327395.00 A 353016.46 353016.46 0 0 1 11963122.10 16603543.00  zM 12946061.98 17208267.00 L 12809448.00 17208267.00 L 12809448.00 16862991.99 L 12909448.00 16862992.00 L 12909448.00 17108267.00 L 12946061.99 17108267.00 L 12946061.98 17208267.00  zM 12909448.00 16762992.00 L 12809448.00 16762991.99 L 12809448.00 16417717.00 L 12946062.02 16417717.00 L 12946062.01 16517717.00 L 12909448.00 16517717.00 L 12909448.00 16762992.00  zM 17533070.00 16762992.01 L 17433070.00 16762992.00 L 17433070.00 16517717.00 L 17396456.01 16517717.00 L 17396456.02 16417717.00 L 17533070.00 16417717.00 L 17533070.00 16762992.01  zM 18617323.00 14650000.02 L 18517323.00 14650000.01 L 18517323.00 14404725.00 L 18400000.03 14404725.00 L 18400000.03 14304725.00 L 18617323.00 14304725.00 L 18617323.00 14650000.02  zM 18617323.00 15095275.00 L 18399999.97 15095275.00 L 18399999.97 14995275.00 L 18517323.00 14995275.00 L 18517323.00 14750000.01 L 18617323.00 14750000.02 L 18617323.00 15095275.00  zM 13163385.00 19420471.91 L 13063385.00 19420471.91 L 13063385.00 18130315.00 L 15121259.06 18130315.00 L 15121259.05 18230315.00 L 13163385.00 18230315.00 L 13163385.00 19420471.91  zM 17533070.00 17208267.00 L 17396455.98 17208267.00 L 17396455.99 17108267.00 L 17433070.00 17108267.00 L 17433070.00 16862992.00 L 17533070.00 16862992.01 L 17533070.00 17208267.00  zM 12909448.00 22077952.00 L 12809448.00 22077951.99 L 12809448.00 21732678.00 L 12946061.02 21732678.00 L 12946061.01 21832678.00 L 12909448.00 21832678.00 L 12909448.00 22077952.00  zM 17279133.00 19420472.09 L 17179133.00 19420472.09 L 17179133.00 18230315.00 L 15221259.05 18230315.00 L 15221259.06 18130315.00 L 17279133.00 18130315.00 L 17279133.00 19420472.09  zM 13057086.00 24450787.00 L 12839763.00 24450787.00 L 12839763.00 24105512.00 L 12939763.00 24105512.00 L 12939763.00 24350787.00 L 13057086.00 24350787.00 L 13057086.00 24450787.00  zM 16277166.00 24428739.00 L 16050000.97 24428739.00 L 16050000.98 24328739.00 L 16177166.00 24328739.00 L 16177166.00 24122834.02 L 16277166.00 24122834.02 L 16277166.00 24428739.00  zM 17533070.00 22077952.01 L 17433070.00 22077952.00 L 17433070.00 21832678.00 L 17396455.01 21832678.00 L 17396455.02 21732678.00 L 17533070.00 21732678.00 L 17533070.00 22077952.01  zM 17533070.00 22523228.00 L 17396454.98 22523228.00 L 17396454.99 22423228.00 L 17433070.00 22423228.00 L 17433070.00 22177952.00 L 17533070.00 22177952.01 L 17533070.00 22523228.00  z"/>
<path id="N" d="M 13442441.57 15716407.57 L 12817500.00 15091466.00 L 11908506.00 15091466.00 L 11843220.00 15078480.00 L 11787873.00 15041498.00 L 11684093.00 14937717.00 L 11647111.00 14882371.00 L 11634125.00 14817085.00 L 11634125.00 14376557.36 L 11518779.39 14324869.35 A 331576.46 331576.46 0 0 1 11115078.00 13798753.00 L 11146329.00 13780710.36 L 11146329.00 11789922.29 L 11028218.57 11740999.30 L 10524015.00 12245202.17 L 10524015.00 12496063.00 L 10514200.00 12496063.00 L 10514200.00 12791339.00 L 10524015.00 12791339.00 L 10524015.00 13283465.00 L 10320600.00 13283465.00 L 10320600.00 13994095.00 L 10434645.00 13994095.00 L 10434645.00 14505905.00 L 10426772.00 14505905.00 L 10426772.00 14742127.00 L 10434645.00 14742127.00 L 10434645.00 14961929.72 L 10440711.00 14965983.00 L 10637199.80 15162471.00 L 10811419.36 15162471.00 L 10829462.00 15131220.00 A 331573.47 331573.47 0 1 1 10829462.00 15534922.00 L 10811419.36 15503671.00 L 10566535.00 15503671.00 L 10501249.00 15490685.00 L 10445902.00 15453703.00 L 10249414.80 15257215.00 L 10188583.00 15257215.00 L 10172103.14 15253937.00 L 9765355.00 15253937.00 L 9765355.00 14742127.00 L 9773228.00 14742127.00 L 9773228.00 14505905.00 L 9765355.00 14505905.00 L 9765355.00 13994095.00 L 9979400.00 13994095.00 L 9979400.00 13283465.00 L 9775985.00 13283465.00 L 9775985.00 12791339.00 L 9785853.00 12791339.00 L 9785853.00 12496063.00 L 9775985.00 12496063.00 L 9775985.00 12003937.00 L 10282751.83 12003937.00 L 10829400.00 11457288.07 L 10829335.50 9570600.00 L 10406298.00 9570600.00 L 10406298.00 9849212.00 L 9882602.69 9849212.00 L 9124174.00 10607640.00 L 9068828.00 10644622.00 L 9003542.00 10657608.00 L 8645275.00 10657608.00 L 8645275.00 10841338.00 L 8054725.00 10841338.00 L 8054725.00 10132678.00 L 8645275.00 10132678.00 L 8645275.00 10316408.00 L 8932877.95 10316408.00 L 9815748.00 9433537.15 L 9815748.00 9220600.00 L 8645275.00 9220600.00 L 8645275.00 9404330.00 L 8054725.00 9404330.00 L 8054725.00 9220600.00 L 7625388.96 9220600.00 L 6584645.00 10261343.11 L 6584645.00 10531889.00 L 6576772.00 10531889.00 L 6576772.00 10768111.00 L 6584645.00 10768111.00 L 6584645.00 11096119.14 L 6587923.00 11112599.00 L 6587923.00 11120674.54 L 6595861.54 11128613.00 L 9673036.00 11128613.00 L 9803383.00 10998266.00 L 9815748.00 10990003.75 L 9815748.00 10577560.00 L 10406298.00 10577560.00 L 10406298.00 11286220.00 L 9997561.49 11286615.51 L 9864332.00 11419845.00 L 9808986.00 11456827.00 L 9743700.00 11469813.00 L 6525197.00 11469813.00 L 6459911.00 11456827.00 L 6404565.00 11419846.00 L 6296691.00 11311971.00 L 6275275.30 11279921.00 L 5915355.00 11279921.00 L 5915355.00 11244616.00 L 4734645.00 11244616.00 L 4734645.00 11329921.00 L 4570600.00 11329921.00 L 4570600.00 12657655.90 L 4998191.00 13085246.00 L 5035173.00 13140593.00 L 5048159.00 13205879.00 L 5048159.00 14164568.00 L 5783070.00 14164568.00 L 5783070.00 14513853.89 L 7103734.97 15834518.00 L 13393518.63 15834518.00 L 13442441.57 15716407.57  zM 6955599.67 10439460.00 L 6851602.90 10439460.00 L 6874404.00 10354365.00 A 353016.46 353016.46 0 0 1 7150552.00 10140510.90 L 7150552.00 10244507.67 L 7103007.00 10253965.00 L 7020312.00 10309220.00 L 6965057.00 10391915.00 L 6955599.67 10439460.00  zM 7549501.10 10439460.00 L 7445504.33 10439460.00 L 7436047.00 10391915.00 L 7380792.00 10309220.00 L 7298097.00 10253965.00 L 7250552.00 10244507.67 L 7250552.00 10140510.90 L 7335647.00 10163312.00 A 353016.46 353016.46 0 0 1 7549501.10 10439460.00  zM 7150552.00 10838409.10 L 7065457.00 10815608.00 A 353016.46 353016.46 0 0 1 6851602.90 10539460.00 L 6955599.67 10539460.00 L 6965057.00 10587005.00 L 7020312.00 10669700.00 L 7103007.00 10724955.00 L 7150552.00 10734412.33 L 7150552.00 10838409.10  zM 7250552.00 10838409.10 L 7250552.00 10734412.33 L 7298097.00 10724955.00 L 7380792.00 10669700.00 L 7436047.00 10587005.00 L 7445504.33 10539460.00 L 7549501.10 10539460.00 L 7526700.00 10624555.00 A 353016.46 353016.46 0 0 1 7250552.00 10838409.10  zM 7515355.00 14409842.96 L 7415355.00 14409842.96 L 7415355.00 14143308.00 L 8292126.01 14143308.00 L 8292126.01 14243308.00 L 7515355.00 14243308.00 L 7515355.00 14409842.96  zM 9268897.00 14409843.04 L 9168897.00 14409843.04 L 9168897.00 14243308.00 L 8392126.01 14243308.00 L 8392126.01 14143308.00 L 9268897.00 14143308.00 L 9268897.00 14409843.04  zM 8292125.99 14776378.00 L 7415355.00 14776378.00 L 7415355.00 14509842.96 L 7515355.00 14509842.96 L 7515355.00 14676378.00 L 8292125.99 14676378.00 L 8292125.99 14776378.00  zM 9268897.00 14776378.00 L 8392125.99 14776378.00 L 8392125.99 14676378.00 L 9168897.00 14676378.00 L 9168897.00 14509843.04 L 9268897.00 14509843.04 L 9268897.00 14776378.00  z"/>
<path id="N" d="M 14616800.00 15579563.46 L 14616800.00 14591091.81 L 14527676.54 14501968.00 L 14484280.00 14501968.00 A 331577.80 331577.80 0 0 1 14264501.00 14375079.00 L 14246458.36 14343828.00 L 13561418.00 14343828.00 L 13561418.00 14524042.00 L 13069292.00 14524042.00 L 13069292.00 14514174.00 L 12774016.00 14514174.00 L 12774016.00 14524042.00 L 12281890.00 14524042.00 L 12281890.00 13776012.00 L 12335502.00 13776012.00 L 12335502.00 12714173.00 L 12238189.00 12714173.00 L 12238189.00 11966143.00 L 12327825.00 11966143.00 L 12327825.00 10924015.00 L 12266535.00 10924015.00 L 12266535.00 10175985.00 L 12341998.00 10175985.00 L 12341998.00 7527356.00 L 11758451.15 6943809.15 L 11723594.00 6953149.00 L 11637036.00 6953149.00 L 11551702.50 6929750.94 L 11433592.00 6997942.33 L 11433592.00 7462012.91 L 11925357.00 7953777.00 L 11962339.00 8009124.00 L 11975325.00 8074410.00 L 11975325.00 14746420.52 L 11979170.52 14750266.00 L 12888164.00 14750266.00 L 12953450.00 14763252.00 L 13008796.00 14800234.00 L 13407869.89 15199307.89 L 13539604.89 15164009.42 A 328008.00 328008.00 0 0 1 14175197.00 15245697.00 L 14175197.00 15292279.79 L 14507680.18 15624762.42 L 14616800.00 15579563.46  z"/>
<path id="N" d="M 14264501.00 13971377.00 A 331573.47 331573.47 0 0 1 14654448.00 13866891.00 L 14699717.01 13893026.87 L 14792843.67 13864387.07 L 14826424.26 13840150.88 L 14835259.89 13777312.83 L 13635827.43 12577879.51 L 13517717.00 12626802.42 L 13517717.00 12714173.00 L 13025591.00 12714173.00 L 13025591.00 12704305.00 L 12730315.00 12704305.00 L 12730315.00 12714173.00 L 12676702.00 12714173.00 L 12676702.00 13776012.00 L 12774016.00 13776012.00 L 12774016.00 13785827.00 L 13069292.00 13785827.00 L 13069292.00 13776012.00 L 13561418.00 13776012.00 L 13561418.00 14002628.00 L 14246458.36 14002628.00 L 14264501.00 13971377.00  z"/>
<path id="N" d="M 13025591.00 11966143.00 L 13333914.14 11966143.00 L 13350394.00 11962865.00 L 13407682.95 11962865.00 L 14308606.80 11061940.25 L 14299220.30 10942456.12 L 14199478.50 10884869.94 A 328013.79 328013.79 0 0 1 13807808.00 10781379.00 L 13789765.36 10750128.00 L 13546063.00 10750128.00 L 13546063.00 10924015.00 L 13053937.00 10924015.00 L 13053937.00 10914147.00 L 12758661.00 10914147.00 L 12758661.00 10924015.00 L 12669025.00 10924015.00 L 12669025.00 11966143.00 L 12730315.00 11966143.00 L 12730315.00 11975958.00 L 13025591.00 11975958.00 L 13025591.00 11966143.00  z"/>
<path id="N" d="M 14996064.00 23738189.00 L 15316162.93 23738189.00 L 15896328.00 23158023.07 L 15896328.00 23043187.97 L 15778217.68 23011540.61 L 15750853.00 23058938.00 A 331573.47 331573.47 0 0 1 15360906.00 23163424.00 L 15332016.49 23146744.76 L 15217896.93 23203526.21 L 15213906.00 23208416.41 L 15213906.00 23271654.00 L 15200920.00 23336940.00 L 15163939.00 23392286.00 L 14842679.00 23713545.00 L 14787333.00 23750527.00 L 14722047.00 23763513.00 L 14140551.00 23763513.00 L 14140551.00 23951840.00 L 14996064.00 23951840.00 L 14996064.00 23738189.00  z"/>
<path id="N" d="M 11634125.00 13637558.61 L 11634125.00 8900698.33 L 11516014.50 8832506.94 A 328013.79 328013.79 0 0 1 11124344.00 8729016.00 L 11111983.60 8707607.00 L 8645275.00 8707607.00 L 8645275.00 8879400.00 L 10911904.00 8879400.00 L 10977190.00 8892386.00 L 11032536.00 8929368.00 L 11437562.00 9334393.00 L 11474543.00 9389739.00 L 11487529.00 9455025.00 L 11487529.00 13683329.34 L 11516014.51 13701779.37 L 11634125.00 13637558.61  z"/>
<path id="N" d="M 11124344.00 8325314.00 A 331573.47 331573.47 0 0 1 11430680.27 8198425.00 L 11547225.76 8108557.27 L 11553086.98 8064036.74 L 11223942.01 7734891.16 L 11065893.19 7743875.72 L 10552481.05 8257287.15 L 10597679.93 8366407.00 L 11100619.13 8366407.00 L 11124344.00 8325314.00  z"/>
<path id="N" d="M 13053937.00 10175985.00 L 13129400.00 10175985.00 L 13129400.00 9464163.34 L 13011289.48 9394518.06 L 12973200.00 9404724.00 L 12886642.00 9404724.00 L 12801308.50 9381325.94 L 12683198.00 9449517.33 L 12683198.00 10175985.00 L 12758661.00 10175985.00 L 12758661.00 10185800.00 L 13053937.00 10185800.00 L 13053937.00 10175985.00  z"/>
<path id="N" d="M 15384517.00 21468301.00 L 15068706.00 21152490.00 L 14495979.26 21152490.00 L 14466988.30 21270600.34 L 14495442.00 21289613.00 L 14652127.00 21446298.00 L 14689109.00 21501644.00 L 14702095.00 21566930.00 L 14702095.00 21753938.00 L 15384517.00 21753938.00 L 15384517.00 21468301.00  z"/>
<path id="N" d="M 16649993.77 5937394.07 m -258122.37 0 a 258122.37 258122.37 0 1 1 516244.75 0a 258122.37 258122.37 0 1 1 -516244.75 0M 16649999.13 5937403.07 m -150528.93 0 a 150528.93 150528.93 0 1 1 301057.86 0a 150528.93 150528.93 0 1 1 -301057.86 0"/>
<path id="N" d="M 10445275.00 12210406.00 L 11063864.00 11591817.00 L 11083442.00 11562516.00 L 11090317.00 11527947.97 L 11090317.00 9500000.00 L 11083442.00 9465437.00 L 11063864.00 9436136.00 L 10963864.00 9336136.00 L 10934563.00 9316558.00 L 10900000.00 9309683.00 L 10327558.00 9309683.00 L 10327558.00 9219292.00 L 9894488.00 9219292.00 L 9894488.00 9468334.00 L 8966131.00 10396691.00 L 8566535.00 10396691.00 L 8566535.00 10211418.00 L 8133465.00 10211418.00 L 8133465.00 10762598.00 L 8566535.00 10762598.00 L 8566535.00 10577325.00 L 9003542.00 10577325.00 L 9038105.00 10570450.00 L 9067406.00 10550872.00 L 9894488.00 9723790.00 L 9894488.00 9770472.00 L 10327558.00 9770472.00 L 10327558.00 9490317.00 L 10862589.00 9490317.00 L 10909683.00 9537411.00 L 10909683.00 11490542.00 L 10317548.00 12082677.00 L 9854725.00 12082677.00 L 9854725.00 12417323.00 L 10445275.00 12417323.00 L 10445275.00 12210406.00  z"/>
<path id="N" d="M 8449999.26 6449999.65 m -337534.65 0 a 337534.65 337534.65 0 1 1 675069.30 0a 337534.65 337534.65 0 1 1 -675069.30 0M 8450001.22 6449997.65 m -220780.35 0 a 220780.35 220780.35 0 1 1 441560.70 0a 220780.35 220780.35 0 1 1 -441560.70 0"/>
<path id="N" d="M 17371972.00 24704406.00 L 17293466.00 24651950.00 L 17293466.00 24376771.00 L 17381890.00 24376771.00 L 17381890.00 23786221.00 L 17052924.34 23786221.00 L 16669056.00 23402352.04 L 16669056.00 22127953.00 L 16665353.00 22109336.74 L 16665353.00 21832678.00 L 16492125.00 21832678.00 L 16492125.00 22109336.74 L 16488422.00 22127953.00 L 16488422.00 23439763.00 L 16495297.00 23474326.00 L 16514875.00 23503627.00 L 17047244.00 24035995.15 L 17047244.00 24376771.00 L 17112832.00 24376771.00 L 17112832.00 24645442.26 L 17094187.00 24649151.00 A 254898.03 254898.03 0 1 0 17371972.00 24704406.00  z"/>
<path id="N" d="M 10355905.00 14072835.00 L 10240317.00 14072835.00 L 10240317.00 13204725.00 L 10445275.00 13204725.00 L 10445275.00 12870079.00 L 9854725.00 12870079.00 L 9854725.00 13204725.00 L 10059683.00 13204725.00 L 10059683.00 14072835.00 L 9844095.00 14072835.00 L 9844095.00 14427165.00 L 10355905.00 14427165.00 L 10355905.00 14072835.00  z"/>
<path id="N" d="M 13467323.00 10669845.00 L 13833933.25 10669845.00 L 13835371.00 10677073.00 A 254898.03 254898.03 0 1 0 13835371.00 10481983.00 L 13833933.25 10489211.00 L 13467323.00 10489211.00 L 13467323.00 10254725.00 L 13390317.00 10254725.00 L 13390317.00 9333499.00 L 13564256.00 9159560.00 L 13583834.00 9130259.00 L 13590709.00 9095696.00 L 13590709.00 6176980.71 L 13629448.00 6160934.00 A 258113.26 258113.26 0 1 0 13371336.00 6160934.00 L 13410075.00 6176980.71 L 13410075.00 9058285.00 L 13236136.00 9232224.00 L 13216558.00 9261525.00 L 13209683.00 9296088.00 L 13209683.00 10254725.00 L 13132677.00 10254725.00 L 13132677.00 10845275.00 L 13467323.00 10845275.00 L 13467323.00 10669845.00  zM 13500391.13 5937403.07 m -150528.93 0 a 150528.93 150528.93 0 1 1 301057.86 0a 150528.93 150528.93 0 1 1 -301057.86 0"/>
<path id="N" d="M 15385826.00 16831608.26 L 15389529.00 16812992.00 L 15389529.00 13155118.00 L 15382654.00 13120555.00 L 15363076.00 13091254.00 L 14993998.64 12722176.64 L 14998093.00 12716049.00 A 254896.24 254896.24 0 1 0 14860143.00 12853999.00 L 14866270.64 12849904.64 L 15208895.00 13192529.00 L 15208895.00 16812992.00 L 15212598.00 16831608.26 L 15212598.00 17108267.00 L 15385826.00 17108267.00 L 15385826.00 16831608.26  z"/>
<path id="N" d="M 9449991.93 7449985.95 m -337548.83 0 a 337548.83 337548.83 0 1 1 675097.65 0a 337548.83 337548.83 0 1 1 -675097.65 0M 9450001.22 7449996.65 m -220780.35 0 a 220780.35 220780.35 0 1 1 441560.70 0a 220780.35 220780.35 0 1 1 -441560.70 0"/>
<path id="N" d="M 14707958.00 23355596.00 L 14851265.00 23212289.00 L 14870843.00 23182988.00 L 14877718.00 23148419.97 L 14877718.00 22127953.00 L 14874015.00 22109336.74 L 14874015.00 21832678.00 L 14700787.00 21832678.00 L 14700787.00 22109336.74 L 14697084.00 22127953.00 L 14697084.00 23111014.00 L 14606683.00 23201415.00 L 11121662.00 23201415.00 L 10993998.64 23073751.64 L 10998093.00 23067624.00 A 254896.24 254896.24 0 1 0 10860143.00 23205574.00 L 10866270.64 23201479.64 L 11020387.00 23355596.00 L 11049688.00 23375174.00 L 11084251.00 23382049.00 L 14644094.00 23382049.00 L 14678657.00 23375174.00 L 14707958.00 23355596.00  z"/>
<path id="N" d="M 16649993.77 5149992.07 m -258122.37 0 a 258122.37 258122.37 0 1 1 516244.75 0a 258122.37 258122.37 0 1 1 -516244.75 0M 16649999.13 5150001.07 m -150528.93 0 a 150528.93 150528.93 0 1 1 301057.86 0a 150528.93 150528.93 0 1 1 -301057.86 0"/>
<path id="N" d="M 16153542.00 16831608.26 L 16157245.00 16812992.00 L 16157245.00 15170483.00 L 16537411.00 14790317.00 L 17395275.00 14790317.00 L 17395275.00 14995275.00 L 17729921.00 14995275.00 L 17729921.00 14404725.00 L 17652915.00 14404725.00 L 17652915.00 13605905.00 L 17779133.00 13605905.00 L 17779133.00 13094095.00 L 17424803.00 13094095.00 L 17424803.00 13605905.00 L 17472281.00 13605905.00 L 17472281.00 14404725.00 L 17395275.00 14404725.00 L 17395275.00 14609683.00 L 16500000.00 14609683.00 L 16465437.00 14616558.00 L 16436136.00 14636136.00 L 16003064.00 15069208.00 L 15983486.00 15098509.00 L 15976611.00 15133072.00 L 15976611.00 16812992.00 L 15980314.00 16831608.26 L 15980314.00 17108267.00 L 16153542.00 17108267.00 L 16153542.00 16831608.26  z"/>
<path id="N" d="M 16022897.00 9863085.00 L 16018802.64 9856957.36 L 16927175.00 8948585.00 L 19778109.00 8948585.00 L 19812672.00 8941710.00 L 19841973.00 8922132.00 L 19945754.00 8818351.00 L 19965332.00 8789050.00 L 19972207.00 8754487.00 L 19972207.00 4355750.00 L 19965332.00 4321187.00 L 19945750.99 4291883.99 L 19841973.00 4188105.00 L 19812672.00 4168527.00 L 19778109.00 4161652.00 L 18622759.75 4161652.00 L 18621322.00 4154424.00 A 254898.03 254898.03 0 1 0 18621322.00 4349514.00 L 18622759.75 4342286.00 L 19740698.25 4342286.00 L 19791573.00 4393160.25 L 19791573.00 8717076.75 L 19740698.25 8767951.00 L 16889764.00 8767951.00 L 16855201.00 8774826.00 L 16825900.00 8794404.00 L 15891074.64 9729229.36 L 15884947.00 9725135.00 A 254896.24 254896.24 0 1 0 16022897.00 9863085.00  z"/>
<path id="N" d="M 14287787.77 5149992.07 m -258122.37 0 a 258122.37 258122.37 0 1 1 516244.75 0a 258122.37 258122.37 0 1 1 -516244.75 0M 14287793.13 5150001.07 m -150528.93 0 a 150528.93 150528.93 0 1 1 301057.86 0a 150528.93 150528.93 0 1 1 -301057.86 0"/>
<path id="N" d="M 14874015.00 16624909.23 L 14877717.00 16606298.00 L 14877718.00 14520427.00 L 14870842.00 14485864.00 L 14851264.00 14456563.00 L 14723968.95 14329267.95 L 14763054.00 14270773.00 A 254896.24 254896.24 0 0 0 14292064.00 14075683.00 L 14290626.25 14082911.00 L 13482678.00 14082911.00 L 13482678.00 13854752.00 L 13148032.00 13854752.00 L 13148032.00 14445302.00 L 13482678.00 14445302.00 L 13482678.00 14263545.00 L 14290626.25 14263545.00 L 14292064.00 14270773.00 A 254898.03 254898.03 0 0 0 14527559.00 14428126.00 L 14560765.74 14421520.74 L 14697083.00 14557838.00 L 14697083.00 16606298.00 L 14700787.00 16624919.29 L 14700787.00 17108267.00 L 14874015.00 17108267.00 L 14874015.00 16624909.23  z"/>
<path id="N" d="M 17437404.11 5937405.78 m -258108.20 0 a 258108.20 258108.20 0 1 1 516216.40 0a 258108.20 258108.20 0 1 1 -516216.40 0M 17437402.13 5937402.07 m -150528.93 0 a 150528.93 150528.93 0 1 1 301057.86 0a 150528.93 150528.93 0 1 1 -301057.86 0"/>
<path id="N" d="M 7449991.93 7449983.95 m -337548.83 0 a 337548.83 337548.83 0 1 1 675097.65 0a 337548.83 337548.83 0 1 1 -675097.65 0M 7450001.22 7449994.65 m -220780.35 0 a 220780.35 220780.35 0 1 1 441560.70 0a 220780.35 220780.35 0 1 1 -441560.70 0"/>
<path id="N" d="M 11484947.00 8762660.00 A 254898.03 254898.03 0 1 0 11151907.00 8429620.00 L 11148511.55 8446690.00 L 6632963.40 8446690.00 L 6626044.00 8411904.00 A 254898.03 254898.03 0 1 0 6570789.00 8689689.00 L 6612459.94 8627324.00 L 11153653.62 8627324.00 A 250870.63 250870.63 0 0 0 11484947.00 8762660.00  z"/>
<path id="N" d="M 18429133.00 7594095.00 L 18315121.00 7594095.00 L 18315121.00 6176980.71 L 18353860.00 6160934.00 A 258113.26 258113.26 0 1 0 18095748.00 6160934.00 L 18134487.00 6176980.71 L 18134487.00 7594095.00 L 18074803.00 7594095.00 L 18074803.00 7759683.00 L 16001181.00 7759683.00 L 16001181.00 7594095.00 L 15914333.00 7594095.00 L 15914333.00 6188703.86 L 15929402.00 6186720.00 A 258122.37 258122.37 0 0 0 15991653.00 5713870.00 L 15952914.00 5697823.29 L 15952914.00 5389579.13 L 15991654.00 5373532.00 A 258113.26 258113.26 0 0 0 15991654.00 4926468.00 L 15952915.00 4910421.29 L 15952915.00 4484645.00 L 15946040.00 4450082.00 L 15926462.00 4420781.00 L 15300085.00 3794404.00 L 15270784.00 3774826.00 L 15236221.00 3767951.00 L 12835357.75 3767951.00 L 12833920.00 3760723.00 A 254898.03 254898.03 0 0 0 12362930.00 3760723.00 L 12361492.25 3767951.00 L 8041733.00 3767951.00 L 8007170.00 3774826.00 L 7977869.00 3794404.00 L 5615809.18 6156463.82 L 5537360.00 6123969.00 L 5450000.00 6112468.00 A 337530.17 337530.17 0 1 0 5743536.89 6284192.11 L 8079144.00 3948585.00 L 12361492.25 3948585.00 L 12362930.00 3955813.00 A 254898.03 254898.03 0 0 0 12833920.00 3955813.00 L 12835357.75 3948585.00 L 15198810.00 3948585.00 L 15772281.00 4522056.00 L 15772281.00 4910421.29 L 15733542.00 4926468.00 A 258113.26 258113.26 0 0 0 15733542.00 5373532.00 L 15772280.00 5389578.30 L 15772280.00 5697823.29 L 15733541.00 5713870.00 A 258120.60 258120.60 0 0 0 15733699.00 6160999.45 L 15733699.00 7594095.00 L 15646851.00 7594095.00 L 15646851.00 8105905.00 L 16001181.00 8105905.00 L 16001181.00 7940317.00 L 18074803.00 7940317.00 L 18074803.00 8105905.00 L 18429133.00 8105905.00 L 18429133.00 7594095.00  zM 5450001.22 6449997.65 m -220780.35 0 a 220780.35 220780.35 0 1 1 441560.70 0a 220780.35 220780.35 0 1 1 -441560.70 0M 15862596.13 5937403.07 m -150528.93 0 a 150528.93 150528.93 0 1 1 301057.86 0a 150528.93 150528.93 0 1 1 -301057.86 0M 15862597.13 5150001.07 m -150528.93 0 a 150528.93 150528.93 0 1 1 301057.86 0a 150528.93 150528.93 0 1 1 -301057.86 0M 18224803.13 5937403.07 m -150528.93 0 a 150528.93 150528.93 0 1 1 301057.86 0a 150528.93 150528.93 0 1 1 -301057.86 0"/>
<path id="N" d="M 12695276.00 13854752.00 L 12596419.00 13854752.00 L 12596419.00 12635433.00 L 12651575.00 12635433.00 L 12651575.00 12044883.00 L 12588742.00 12044883.00 L 12588742.00 10845275.00 L 12679921.00 10845275.00 L 12679921.00 10254725.00 L 12602915.00 10254725.00 L 12602915.00 7456692.00 L 12596040.00 7422129.00 L 12576462.00 7392828.00 L 11911715.64 6728081.64 L 11915810.00 6721954.00 A 254896.24 254896.24 0 1 0 11777860.00 6859904.00 L 11783987.64 6855809.64 L 12422281.00 7494103.00 L 12422281.00 10254725.00 L 12345275.00 10254725.00 L 12345275.00 10845275.00 L 12408108.00 10845275.00 L 12408108.00 12044883.00 L 12316929.00 12044883.00 L 12316929.00 12635433.00 L 12415785.00 12635433.00 L 12415785.00 13854752.00 L 12360630.00 13854752.00 L 12360630.00 14445302.00 L 12695276.00 14445302.00 L 12695276.00 13854752.00  z"/>
<path id="N" d="M 10351266.00 8344966.00 L 11070951.00 7625281.00 L 11090529.00 7595980.00 L 11097404.00 7561417.00 L 11097404.00 5725985.00 L 11090529.00 5691422.00 L 11070951.00 5662121.00 L 10716439.64 5307609.64 L 10720534.00 5301482.00 A 254896.24 254896.24 0 1 0 10582584.00 5439432.00 L 10588711.64 5435337.64 L 10916770.00 5763396.00 L 10916770.00 7524006.00 L 10249991.00 8190785.00 L 6979143.00 8190785.00 L 6618009.00 7829651.00 L 6618769.00 7742311.00 A 337524.04 337524.04 0 1 0 6362642.00 7776031.00 L 6437375.00 7785869.65 L 6437375.00 7867062.00 L 6444250.00 7901625.00 L 6463828.00 7930926.00 L 6877868.00 8344966.00 L 6907169.00 8364544.00 L 6941732.00 8371419.00 L 10287402.00 8371419.00 L 10321965.00 8364544.00 L 10351266.00 8344966.00  zM 6450003.22 7449995.65 m -220780.35 0 a 220780.35 220780.35 0 1 1 441560.70 0a 220780.35 220780.35 0 1 1 -441560.70 0"/>
<path id="N" d="M 17566458.00 4926468.00 L 17527719.00 4910421.29 L 17527719.00 3420473.00 L 17520844.00 3385910.00 L 17501266.00 3356609.00 L 16839061.00 2694404.00 L 16809760.00 2674826.00 L 16775197.00 2667951.00 L 10695200.75 2667951.00 L 10693763.00 2660723.00 A 254898.03 254898.03 0 1 0 10693763.00 2855813.00 L 10695200.75 2848585.00 L 16737786.00 2848585.00 L 17347085.00 3457884.00 L 17347085.00 4910421.29 L 17308346.00 4926468.00 A 258113.26 258113.26 0 1 0 17566458.00 4926468.00  zM 17437401.13 5150001.07 m -150528.93 0 a 150528.93 150528.93 0 1 1 301057.86 0a 150528.93 150528.93 0 1 1 -301057.86 0"/>
<path id="N" d="M 5450001.26 7449999.65 m -337534.65 0 a 337534.65 337534.65 0 1 1 675069.30 0a 337534.65 337534.65 0 1 1 -675069.30 0M 5450003.22 7449997.65 m -220780.35 0 a 220780.35 220780.35 0 1 1 441560.70 0a 220780.35 220780.35 0 1 1 -441560.70 0"/>
<path id="N" d="M 13338582.00 16517717.00 L 13165354.00 16517717.00 L 13165354.00 17108267.00 L 13338582.00 17108267.00 L 13338582.00 16517717.00  z"/>
<path id="N" d="M 13594487.00 16517717.00 L 13421259.00 16517717.00 L 13421259.00 17108267.00 L 13594487.00 17108267.00 L 13594487.00 16517717.00  z"/>
<path id="N" d="M 14362204.00 16517717.00 L 14188976.00 16517717.00 L 14188976.00 17108267.00 L 14362204.00 17108267.00 L 14362204.00 16517717.00  z"/>
<path id="N" d="M 16409448.00 16517717.00 L 16236220.00 16517717.00 L 16236220.00 17108267.00 L 16409448.00 17108267.00 L 16409448.00 16517717.00  z"/>
<path id="N" d="M 16921259.00 16517717.00 L 16748031.00 16517717.00 L 16748031.00 17108267.00 L 16921259.00 17108267.00 L 16921259.00 16517717.00  z"/>
<path id="N" d="M 17177164.00 16517717.00 L 17003936.00 16517717.00 L 17003936.00 17108267.00 L 17177164.00 17108267.00 L 17177164.00 16517717.00  z"/>
<path id="N" d="M 13338582.00 21832678.00 L 13165354.00 21832678.00 L 13165354.00 22423228.00 L 13338582.00 22423228.00 L 13338582.00 21832678.00  z"/>
<path id="N" d="M 13594487.00 21832678.00 L 13421259.00 21832678.00 L 13421259.00 22423228.00 L 13594487.00 22423228.00 L 13594487.00 21832678.00  z"/>
<path id="N" d="M 14362204.00 21832678.00 L 14188976.00 21832678.00 L 14188976.00 22423228.00 L 14362204.00 22423228.00 L 14362204.00 21832678.00  z"/>
<path id="N" d="M 16409448.00 21832678.00 L 16236220.00 21832678.00 L 16236220.00 22423228.00 L 16409448.00 22423228.00 L 16409448.00 21832678.00  z"/>
<path id="N" d="M 16921259.00 21832678.00 L 16748031.00 21832678.00 L 16748031.00 22423228.00 L 16921259.00 22423228.00 L 16921259.00 21832678.00  z"/>
<path id="N" d="M 17177164.00 21832678.00 L 17003936.00 21832678.00 L 17003936.00 22423228.00 L 17177164.00 22423228.00 L 17177164.00 21832678.00  z"/>
<path id="N" d="M 13850393.00 16831608.26 L 13854096.00 16812992.00 L 13854096.00 16108899.00 L 13847221.00 16074336.00 L 13827639.99 16045032.99 L 13723862.00 15941254.00 L 13694561.00 15921676.00 L 13659998.00 15914801.00 L 7070481.00 15914801.00 L 5704330.00 14548650.00 L 5704330.00 14243308.00 L 4967876.00 14243308.00 L 4967876.00 13205879.00 L 4961001.00 13171316.00 L 4941419.99 13142012.99 L 4490317.00 12690909.06 L 4490317.00 11251181.00 L 4655905.00 11251181.00 L 4655905.00 11164333.00 L 5994095.00 11164333.00 L 5994095.00 11201181.00 L 6328963.69 11201181.00 L 6333881.00 11225902.00 L 6353459.00 11255203.00 L 6461333.00 11363077.00 L 6490634.00 11382655.00 L 6525197.00 11389530.00 L 9743700.00 11389530.00 L 9778263.00 11382655.00 L 9807564.00 11363077.00 L 9961426.00 11209215.00 L 9983070.00 11209215.00 L 9991792.44 11207480.00 L 10327558.00 11207480.00 L 10327558.00 10656300.00 L 9894488.00 10656300.00 L 9894488.00 11034454.28 L 9889452.00 11035456.00 L 9860151.00 11055034.00 L 9706289.00 11208896.00 L 6562608.00 11208896.00 L 6507640.00 11153928.00 L 6507640.00 11112599.00 L 6505905.00 11103876.56 L 6505905.00 10846851.00 L 5994095.00 10846851.00 L 5994095.00 10983699.00 L 4655905.00 10983699.00 L 4655905.00 10896851.00 L 4144095.00 10896851.00 L 4144095.00 10983699.00 L 3961427.00 10983699.00 L 3590317.00 10612589.00 L 3590317.00 7437410.00 L 4284192.11 6743534.89 L 4362641.00 6776030.00 L 4450001.00 6787531.00 A 337522.83 337522.83 0 1 0 4156463.82 6615807.18 L 3436136.00 7336135.00 L 3416558.00 7365436.00 L 3409683.00 7399999.00 L 3409683.00 10650000.00 L 3416558.00 10684563.00 L 3436136.00 10713864.00 L 3860152.00 11137880.00 L 3889453.00 11157458.00 L 3924016.00 11164333.00 L 4144095.00 11164333.00 L 4144095.00 11251181.00 L 4309683.00 11251181.00 L 4309683.00 12728320.00 L 4316558.00 12762883.00 L 4336136.00 12792184.00 L 4787242.00 13243289.06 L 4787242.00 14243308.00 L 4050788.00 14243308.00 L 4050788.00 14676378.00 L 5576602.00 14676378.00 L 6969206.00 16068982.00 L 6998507.00 16088560.00 L 7033070.00 16095435.00 L 10460864.00 16095435.00 L 10460864.00 16534721.25 L 10453636.00 16536159.00 A 254898.03 254898.03 0 1 0 10648726.00 16536159.00 L 10641498.00 16534721.25 L 10641498.00 16095435.00 L 13622587.25 16095435.00 L 13673462.00 16146309.25 L 13673462.00 16812992.00 L 13677165.00 16831608.26 L 13677165.00 17108267.00 L 13850393.00 17108267.00 L 13850393.00 16831608.26  zM 4450002.22 6449994.65 m -220780.35 0 a 220780.35 220780.35 0 1 1 441560.70 0a 220780.35 220780.35 0 1 1 -441560.70 0"/>
<path id="N" d="M 13616635.00 22765439.00 L 13825674.00 22556400.00 L 13845252.00 22527099.00 L 13852127.00 22492536.00 L 13852127.00 22137855.14 L 13854097.00 22127953.00 L 13850393.00 22109334.42 L 13850393.00 21832678.00 L 13677165.00 21832678.00 L 13677165.00 22101406.90 L 13671493.00 22129922.00 L 13671493.00 22455125.00 L 13515360.00 22611258.00 L 11899616.00 22611258.00 L 11641548.84 22353190.84 L 11652424.00 22336915.00 A 254896.24 254896.24 0 1 0 11416929.00 22494268.00 L 11508879.77 22475977.77 L 11798341.00 22765439.00 L 11827642.00 22785017.00 L 11862205.00 22791892.00 L 13552771.00 22791892.00 L 13587334.00 22785017.00 L 13616635.00 22765439.00  z"/>
<path id="N" d="M 14106298.00 16831608.26 L 14110001.00 16812992.00 L 14110001.00 16002900.00 L 14103126.00 15968337.00 L 14083548.00 15939036.00 L 13786947.00 15642435.00 L 13757646.00 15622857.00 L 13723083.00 15615982.00 L 13711008.00 15615982.00 L 12952028.00 14857002.00 L 12922727.00 14837424.00 L 12888164.00 14830549.00 L 11945916.25 14830549.00 L 11895042.00 14779674.25 L 11895042.00 8074410.00 L 11888167.00 8039847.00 L 11868589.00 8010546.00 L 11353309.00 7495266.00 L 11353309.00 5779142.96 L 11892134.04 5240317.00 L 12473411.29 5240317.00 L 12489458.00 5279056.00 A 258113.26 258113.26 0 1 0 12489458.00 5020944.00 L 12473411.29 5059683.00 L 11854724.00 5059683.00 L 11820161.00 5066558.00 L 11790857.99 5086139.01 L 11199128.00 5677868.00 L 11179550.00 5707169.00 L 11172675.00 5741732.00 L 11172675.00 7532677.00 L 11179550.00 7567240.00 L 11199128.00 7596541.00 L 11714408.00 8111821.00 L 11714408.00 14817085.00 L 11721283.00 14851648.00 L 11740861.00 14880949.00 L 11844642.00 14984730.00 L 11873943.00 15004308.00 L 11908506.00 15011183.00 L 12850753.00 15011183.00 L 13609733.00 15770163.00 L 13639034.00 15789741.00 L 13673597.00 15796616.00 L 13685672.00 15796616.00 L 13929367.00 16040311.00 L 13929367.00 16812992.00 L 13933070.00 16831608.26 L 13933070.00 17108267.00 L 14106298.00 17108267.00 L 14106298.00 16831608.26  zM 12712989.13 5150001.07 m -150528.93 0 a 150528.93 150528.93 0 1 1 301057.86 0a 150528.93 150528.93 0 1 1 -301057.86 0"/>
<path id="N" d="M 9405905.00 22903544.00 L 8708821.00 22903544.00 L 8708821.00 21492126.00 L 9405905.00 21492126.00 L 9405905.00 20153544.00 L 8708821.00 20153544.00 L 8708821.00 18742126.00 L 9405905.00 18742126.00 L 9405905.00 17813939.00 L 17325975.00 17813939.00 L 17717557.00 18205521.00 L 17717557.00 20883062.00 L 17295653.00 21304966.00 L 15925583.00 21304966.00 L 15891020.00 21311841.00 L 15861719.00 21331419.00 L 15747159.00 21445979.00 L 15727581.00 21475280.00 L 15720706.00 21509843.00 L 15720706.00 22127953.00 L 15724409.00 22146569.26 L 15724409.00 22423228.00 L 15897637.00 22423228.00 L 15897637.00 22146569.26 L 15901340.00 22127953.00 L 15901340.00 21547254.00 L 15962994.00 21485600.00 L 17333064.00 21485600.00 L 17367627.00 21478725.00 L 17396928.00 21459147.00 L 17871738.00 20984337.00 L 17891316.00 20955036.00 L 17898191.00 20920467.97 L 17898191.00 18168110.00 L 17891316.00 18133547.00 L 17871738.00 18104246.00 L 17427250.00 17659758.00 L 17397949.00 17640180.00 L 17363386.00 17633305.00 L 15901340.00 17633305.00 L 15901340.00 16812992.00 L 15897637.00 16794375.74 L 15897637.00 16517717.00 L 15724409.00 16517717.00 L 15724409.00 16794375.74 L 15720706.00 16812992.00 L 15720706.00 17633305.00 L 9405905.00 17633305.00 L 9405905.00 17403544.00 L 7831103.00 17403544.00 L 7831103.00 18742126.00 L 8528187.00 18742126.00 L 8528187.00 20153544.00 L 7831103.00 20153544.00 L 7831103.00 21492126.00 L 8528187.00 21492126.00 L 8528187.00 22903544.00 L 7831103.00 22903544.00 L 7831103.00 24242126.00 L 9405905.00 24242126.00 L 9405905.00 22903544.00  z"/>
<path id="N" d="M 19438490.00 22612143.00 L 19431262.00 22610705.25 L 19431262.00 11973622.00 L 19638976.00 11973622.00 L 19638976.00 11638976.00 L 19048426.00 11638976.00 L 19048426.00 11715982.00 L 18005905.00 11715982.00 L 18005905.00 11622835.00 L 17494095.00 11622835.00 L 17494095.00 11849437.00 L 15491253.00 13852279.00 L 15471675.00 13881580.00 L 15464800.00 13916143.00 L 15464800.00 16812992.00 L 15468503.00 16831608.26 L 15468503.00 17108267.00 L 15641731.00 17108267.00 L 15641731.00 16831608.26 L 15645434.00 16812992.00 L 15645434.00 13953554.00 L 17621823.00 11977165.00 L 18005905.00 11977165.00 L 18005905.00 11896616.00 L 19048426.00 11896616.00 L 19048426.00 11973622.00 L 19250628.00 11973622.00 L 19250628.00 22610705.25 L 19243400.00 22612143.00 A 254898.03 254898.03 0 1 0 19438490.00 22612143.00  z"/>
<path id="N" d="M 15487795.00 22602189.00 L 15435378.37 22612615.37 L 15389529.00 22566766.00 L 15389529.00 22127953.00 L 15385826.00 22109336.74 L 15385826.00 21832678.00 L 15212598.00 21832678.00 L 15212598.00 22109336.74 L 15208895.00 22127953.00 L 15208895.00 22604177.00 L 15215770.00 22638740.00 L 15235348.00 22668041.00 L 15282160.13 22714853.13 L 15252300.00 22759542.00 A 254896.24 254896.24 0 1 0 15487795.00 22602189.00  z"/>
<path id="N" d="M 13500385.77 5149994.07 m -258122.37 0 a 258122.37 258122.37 0 1 1 516244.75 0a 258122.37 258122.37 0 1 1 -516244.75 0M 13500391.13 5150003.07 m -150528.93 0 a 150528.93 150528.93 0 1 1 301057.86 0a 150528.93 150528.93 0 1 1 -301057.86 0"/>
<path id="N" d="M 14165390.97 22614674.97 L 14110001.00 22559285.00 L 14110001.00 22127953.00 L 14106298.00 22109336.74 L 14106298.00 21832678.00 L 13933070.00 21832678.00 L 13933070.00 22109336.74 L 13929367.00 22127953.00 L 13929367.00 22596696.00 L 13936242.00 22631259.00 L 13955820.00 22660560.00 L 14035909.75 22740649.75 L 14028285.00 22752061.00 A 254896.24 254896.24 0 1 0 14165390.97 22614674.97  z"/>
<path id="N" d="M 6449991.93 6449985.95 m -337548.83 0 a 337548.83 337548.83 0 1 1 675097.65 0a 337548.83 337548.83 0 1 1 -675097.65 0M 6450001.22 6449996.65 m -220780.35 0 a 220780.35 220780.35 0 1 1 441560.70 0a 220780.35 220780.35 0 1 1 -441560.70 0"/>
<path id="N" d="M 18169292.00 24182049.00 L 19121575.26 24182049.00 L 19124259.00 24195541.00 A 254898.03 254898.03 0 1 0 19179514.00 23917756.00 L 19124067.25 24001415.00 L 18169292.00 24001415.00 L 18169292.00 23786221.00 L 17834646.00 23786221.00 L 17834646.00 24376771.00 L 18169292.00 24376771.00 L 18169292.00 24182049.00  z"/>
<path id="N" d="M 10857025.00 15235526.00 L 10855587.25 15242754.00 L 10603945.11 15242754.00 L 10383943.00 15022751.00 L 10355905.00 15004016.90 L 10355905.00 14820867.00 L 9844095.00 14820867.00 L 9844095.00 15175197.00 L 10179860.56 15175197.00 L 10188583.00 15176932.00 L 10282668.11 15176932.00 L 10502671.00 15396935.00 L 10531972.00 15416513.00 L 10566535.00 15423388.00 L 10855587.25 15423388.00 L 10857025.00 15430616.00 A 254898.03 254898.03 0 1 0 10857025.00 15235526.00  z"/>
<path id="N" d="M 14618109.00 16831608.26 L 14621812.00 16812992.00 L 14621812.00 15889842.00 L 14614937.00 15855279.00 L 14595359.00 15825978.00 L 14094221.14 15324840.14 L 14101355.00 15288976.00 A 254898.66 254898.66 0 1 0 13944002.00 15524471.00 L 14000587.08 15486662.08 L 14441178.00 15927253.00 L 14441178.00 16812992.00 L 14444881.00 16831608.26 L 14444881.00 17108267.00 L 14618109.00 17108267.00 L 14618109.00 16831608.26  z"/>
</g>
</svg>
