%FSTAX23Y23*%
%MOIN*%
%SFA1B1*%

%IPPOS*%
%ADD14C,0.005905*%
%ADD18C,0.007874*%
%LNpcb1_top_courtyard-1*%
%LPD*%
G54D14*
X01419Y02155D02*
X0149D01*
X01419D02*
Y02289D01*
X0149*
Y02155D02*
Y02289D01*
X0144Y01158D02*
X01519D01*
X0144D02*
Y01292D01*
X01519*
Y01158D02*
Y01292D01*
X0163Y00948D02*
X01709D01*
X0163D02*
Y01082D01*
X01709*
Y00948D02*
Y01082D01*
X01829Y00955D02*
X019D01*
X01829D02*
Y01089D01*
X019*
Y00955D02*
Y01089D01*
X0141Y02353D02*
X01489D01*
X0141D02*
Y02487D01*
X01489*
Y02353D02*
Y02487D01*
X01824Y02345D02*
X01895D01*
X01824D02*
Y02479D01*
X01895*
Y02345D02*
Y02479D01*
X01824Y02289D02*
X01895D01*
Y02155D02*
Y02289D01*
X01824Y02155D02*
X01895D01*
X01824D02*
Y02289D01*
X0162Y02292D02*
X01699D01*
Y02158D02*
Y02292D01*
X0162Y02158D02*
X01699D01*
X0162D02*
Y02292D01*
Y02348D02*
X01699D01*
X0162D02*
Y02482D01*
X01699*
Y02348D02*
Y02482D01*
X01259Y01094D02*
X0133D01*
Y0096D02*
Y01094D01*
X01259Y0096D02*
X0133D01*
X01259D02*
Y01094D01*
X011Y00953D02*
X01179D01*
X011D02*
Y01087D01*
X01179*
Y00953D02*
Y01087D01*
X0164Y01158D02*
X01719D01*
X0164D02*
Y01292D01*
X01719*
Y01158D02*
Y01292D01*
X01444Y00965D02*
X01515D01*
X01444D02*
Y01099D01*
X01515*
Y00965D02*
Y01099D01*
X0182Y01168D02*
X01899D01*
X0182D02*
Y01302D01*
X01899*
Y01168D02*
Y01302D01*
X01209Y0117D02*
X0128D01*
X01209D02*
Y01304D01*
X0128*
Y0117D02*
Y01304D01*
X01209Y02155D02*
X0128D01*
X01209D02*
Y02289D01*
X0128*
Y02155D02*
Y02289D01*
G54D18*
X01455Y02202D02*
Y02242D01*
X01435Y02222D02*
X01474D01*
X01461Y01225D02*
X015D01*
X0148Y01205D02*
Y01245D01*
X01651Y01015D02*
X0169D01*
X0167Y00995D02*
Y01035D01*
X01865Y01002D02*
Y01042D01*
X01845Y01022D02*
X01884D01*
X01431Y0242D02*
X0147D01*
X0145Y024D02*
Y0244D01*
X0186Y02392D02*
Y02432D01*
X0184Y02412D02*
X01879D01*
X0186Y02202D02*
Y02242D01*
X0184Y02222D02*
X01879D01*
X01639Y02225D02*
X01678D01*
X01659Y02205D02*
Y02245D01*
X01641Y02415D02*
X0168D01*
X0166Y02395D02*
Y02435D01*
X01295Y01007D02*
Y01047D01*
X01275Y01027D02*
X01314D01*
X01121Y0102D02*
X0116D01*
X0114Y01D02*
Y0104D01*
X01661Y01225D02*
X017D01*
X0168Y01205D02*
Y01245D01*
X0148Y01012D02*
Y01052D01*
X0146Y01032D02*
X01499D01*
X01841Y01235D02*
X0188D01*
X0186Y01215D02*
Y01255D01*
X01245Y01217D02*
Y01257D01*
X01225Y01237D02*
X01264D01*
X01245Y02202D02*
Y02242D01*
X01225Y02222D02*
X01264D01*
M02*