%FSTAX23Y23*%
%MOIN*%
%SFA1B1*%

%IPPOS*%
%ADD35R,0.074929X0.074929*%
%ADD36C,0.074929*%
%ADD37C,0.059181*%
%ADD38R,0.059181X0.059181*%
%ADD39C,0.031622*%
%ADD40C,0.031653*%
%LNpcb1_soldermask_bot-1*%
%LPD*%
G54D35*
X00445Y00805D03*
G54D36*
X00545Y00805D03*
X00645D03*
X00745D03*
X00845D03*
X00945D03*
X00445Y00705D03*
X00545D03*
X00645D03*
X00745D03*
X00845D03*
X00945D03*
G54D37*
X01812Y0059D03*
X01733D03*
X01655D03*
X01576D03*
X01497D03*
X01418D03*
X0134D03*
X01261D03*
X01812Y00668D03*
X01733D03*
X01655D03*
X01576D03*
X01497D03*
X01418D03*
X0134D03*
G54D38*
X01261Y00668D03*
G54D39*
X0079Y0094D03*
X00895Y00925D03*
G54D40*
X0102Y0226D03*
X01028Y0194D03*
X01146Y0112D03*
X0116Y01975D03*
X0183Y01385D03*
X01755Y01265D03*
X01575Y01345D03*
X01558Y02125D03*
X01038Y0086D03*
X01511Y022D03*
X01565Y02205D03*
X0149Y0213D03*
X01955Y0076D03*
X01735Y00795D03*
X0184Y00925D03*
X0178Y01305D03*
X01605D03*
X01715Y02125D03*
X01955Y02315D03*
X0137Y0135D03*
X01555Y01435D03*
Y01385D03*
X01255Y0142D03*
X01455Y021D03*
X0186Y0112D03*
Y01345D03*
X01335Y01315D03*
X01675Y0112D03*
M02*