%FSTAX23Y23*%
%MOIN*%
%SFA1B1*%

%IPPOS*%
%ADD17C,0.010000*%
%ADD41R,0.066929X0.066929*%
%ADD42C,0.066929*%
%ADD43C,0.051181*%
%ADD44R,0.051181X0.051181*%
%ADD45C,0.023622*%
%LNpcb1_copper_signal_bot-1*%
%LPD*%
G36*
X02045Y00225D02*
X003D01*
Y0256*
X02045*
Y00225*
G37*
%LNpcb1_copper_signal_bot-2*%
%LPC*%
G36*
X01569Y02226D02*
X0156D01*
X01552Y02223*
X01546Y02217*
X01543Y02209*
Y02204*
X01535Y02196*
X01533Y02197*
Y02204*
X01529Y02212*
X01523Y02218*
X01515Y02221*
X01507*
X01499Y02218*
X01495Y02215*
X011*
X01094Y02214*
X01089Y0221*
X00989Y0211*
X00985Y02105*
X00984Y021*
Y01156*
X0079Y00961*
X00785*
X00777Y00958*
X00771Y00952*
X00768Y00944*
Y00935*
X00771Y00927*
X00777Y00921*
X00785Y00918*
X00794*
X00802Y00921*
X00808Y00927*
X00811Y00935*
Y0094*
X0101Y01139*
X01012Y01142*
X01014Y01141*
Y01123*
X00834Y00942*
X0083Y00937*
X00829Y00931*
Y00845*
X00828Y00845*
X00818Y00839*
X0081Y00831*
X00804Y00821*
X00801Y0081*
Y00799*
X00804Y00788*
X0081Y00778*
X00817Y0077*
X00817Y00768*
X00772*
X00772Y0077*
X00779Y00778*
X00785Y00788*
X00788Y00799*
Y0081*
X00785Y00821*
X00779Y00831*
X00771Y00839*
X00761Y00845*
X0075Y00848*
X00739*
X00728Y00845*
X00718Y00839*
X0071Y00831*
X00704Y00821*
X00701Y0081*
Y00799*
X00704Y00788*
X0071Y00778*
X00717Y0077*
X00717Y00768*
X00702*
X00684Y00786*
X00685Y00788*
X00688Y00799*
Y0081*
X00685Y00821*
X00679Y00831*
X00671Y00839*
X00661Y00845*
X0065Y00848*
X00639*
X00628Y00845*
X00618Y00839*
X0061Y00831*
X00604Y00821*
X00601Y0081*
Y00799*
X00604Y00788*
X0061Y00778*
X00618Y0077*
X00628Y00764*
X00639Y00761*
X0065*
X00661Y00764*
X00663Y00765*
X00685Y00742*
X0069Y00739*
X00696Y00738*
X00714*
X00714Y00736*
X0071Y00731*
X00704Y00721*
X00701Y0071*
Y00699*
X00704Y00688*
X0071Y00678*
X00718Y0067*
X00728Y00664*
X00739Y00661*
X0075*
X00761Y00664*
X00771Y0067*
X00779Y00678*
X00785Y00688*
X00788Y00699*
Y0071*
X00785Y00721*
X00779Y00731*
X00775Y00736*
X00775Y00738*
X00814*
X00814Y00736*
X0081Y00731*
X00804Y00721*
X00801Y0071*
Y00699*
X00804Y00688*
X0081Y00678*
X00818Y0067*
X00828Y00664*
X00839Y00661*
X0085*
X00861Y00664*
X00871Y0067*
X00879Y00678*
X00885Y00688*
X00888Y00699*
Y0071*
X00885Y00721*
X00879Y00731*
X00875Y00736*
X00875Y00738*
X00914*
X00914Y00736*
X0091Y00731*
X00904Y00721*
X00901Y0071*
Y00699*
X00904Y00688*
X0091Y00678*
X00918Y0067*
X00928Y00664*
X00939Y00661*
X0095*
X00961Y00664*
X00971Y0067*
X00979Y00678*
X00985Y00688*
X00988Y00699*
Y00705*
X0099Y00706*
X01247Y00449*
X01252Y00445*
X01258Y00444*
X01603*
X01609Y00445*
X01614Y00449*
X01721Y00556*
X01729Y00554*
X01738*
X01747Y00556*
X01755Y00561*
X01762Y00568*
X01766Y00576*
X01769Y00585*
Y00594*
X01766Y00603*
X01762Y00611*
X01755Y00618*
X01747Y00623*
X01738Y00625*
X01729*
X0172Y00623*
X01711Y00618*
X01705Y00611*
X017Y00603*
X01698Y00594*
Y00585*
X017Y00578*
X01597Y00475*
X01431*
X0143Y00477*
X01432Y0048*
X01434Y00485*
Y00557*
X0144Y00561*
X01447Y00568*
X01451Y00576*
X01454Y00585*
Y00594*
X01451Y00603*
X01447Y00611*
X0144Y00618*
X01432Y00623*
X01423Y00625*
X01414*
X01405Y00623*
X01396Y00618*
X0139Y00611*
X01385Y00603*
X01383Y00594*
Y00585*
X01385Y00576*
X0139Y00568*
X01396Y00561*
X01403Y00557*
Y00495*
X01276*
X01238Y00533*
X01239Y00535*
X01244Y00534*
X01299*
X01305Y00535*
X0131Y00538*
X01328Y00556*
X01335Y00554*
X01344*
X01353Y00556*
X01361Y00561*
X01368Y00568*
X01373Y00576*
X01375Y00585*
Y00594*
X01373Y00603*
X01368Y00611*
X01361Y00618*
X01353Y00623*
X01344Y00625*
X01335*
X01326Y00623*
X01318Y00618*
X01311Y00611*
X01306Y00603*
X01304Y00594*
Y00585*
X01306Y00578*
X01293Y00564*
X01288*
X01288Y00566*
X01289Y00568*
X01294Y00576*
X01296Y00585*
Y00594*
X01294Y00603*
X01289Y00611*
X01283Y00618*
X01275Y00623*
X01265Y00625*
X01256*
X01254Y00624*
X01247Y00631*
X01248Y00633*
X01296*
Y00704*
X01236*
Y00729*
X0126Y00754*
X01264Y00759*
X01265Y00765*
Y01058*
X01345Y01139*
X01349Y01144*
X0135Y0115*
Y01299*
X01353Y01302*
X01356Y0131*
Y01319*
X01353Y01327*
X01347Y01333*
X01339Y01336*
X0133*
X01322Y01333*
X01316Y01327*
X01313Y01319*
Y0131*
X01316Y01302*
X01319Y01299*
Y01156*
X01239Y01075*
X01235Y0107*
X01234Y01065*
Y00771*
X01209Y00746*
X01206Y00741*
X01205Y00735*
Y00636*
X01206Y00631*
X01209Y00626*
X01229Y00606*
X01228Y00603*
X01225Y00594*
Y00592*
X01223Y00591*
X01188Y00626*
Y01288*
X01187Y01294*
X01184Y01299*
X01175Y01308*
Y01959*
X01178Y01962*
X01181Y0197*
Y01979*
X01178Y01987*
X01172Y01993*
X01164Y01996*
X01155*
X01147Y01993*
X01141Y01987*
X01138Y01979*
Y0197*
X01141Y01962*
X01144Y01959*
Y01302*
X01145Y01296*
X01149Y01291*
X01158Y01282*
Y0114*
X01156Y01139*
X01151Y01141*
X01142*
X01136Y01139*
X01135Y0114*
Y02063*
X01166Y02094*
X01433*
X01436Y02087*
X01442Y02081*
X0145Y02078*
X01459*
X01467Y02081*
X01473Y02087*
X01476Y02095*
Y02104*
X01473Y02111*
X01474Y02113*
X01474Y02113*
X01475Y02113*
X01477Y02111*
X01485Y02108*
X01494*
X01502Y02111*
X01508Y02117*
X01511Y02125*
Y02134*
X01508Y02142*
X01503Y02147*
X01503Y02149*
X01525*
X0153Y0215*
X01535Y02154*
X01564Y02183*
X01569*
X01577Y02186*
X01583Y02192*
X01586Y022*
Y02209*
X01583Y02217*
X01577Y02223*
X01569Y02226*
G37*
G36*
X01719Y02146D02*
X0171D01*
X01702Y02143*
X01699Y0214*
X01573*
X0157Y02143*
X01562Y02146*
X01553*
X01545Y02143*
X01539Y02137*
X01536Y02129*
Y0212*
X01539Y02112*
X01545Y02106*
X01553Y02103*
X01562*
X0157Y02106*
X01573Y02109*
X01699*
X01702Y02106*
X0171Y02103*
X01719*
X01727Y02106*
X01733Y02112*
X01736Y0212*
Y02129*
X01733Y02137*
X01727Y02143*
X01719Y02146*
G37*
G36*
X01959Y02336D02*
X0195D01*
X01942Y02333*
X01936Y02327*
X01933Y02319*
Y0231*
X01936Y02302*
X01939Y02299*
Y01576*
X01813Y0145*
X0157*
X01567Y01453*
X01559Y01456*
X0155*
X01542Y01453*
X01536Y01447*
X01533Y01439*
Y01431*
X01531Y0143*
X0153Y0143*
X01525Y01434*
X0152Y01435*
X0127*
X01267Y01438*
X01259Y01441*
X0125*
X01242Y01438*
X01236Y01432*
X01233Y01424*
Y01415*
X01236Y01407*
X01242Y01401*
X0125Y01398*
X01259*
X01267Y01401*
X0127Y01404*
X01513*
X01533Y01385*
Y0138*
X01536Y01372*
X01542Y01366*
X0155Y01363*
X01559*
X01559Y01363*
X0156Y01361*
X01556Y01357*
X01553Y01349*
Y0134*
X01556Y01332*
X01562Y01326*
X0157Y01323*
X01579*
X01587Y01326*
X0159Y01329*
X01844*
X01847Y01326*
X01855Y01323*
X01864*
X01872Y01326*
X01878Y01332*
X01881Y0134*
Y01349*
X01878Y01357*
X01872Y01363*
X01864Y01366*
X01855*
X01847Y01363*
X01844Y0136*
X0159*
X01587Y01363*
X01579Y01366*
X0157*
X0157Y01366*
X01569Y01368*
X0157Y01369*
X01814*
X01817Y01366*
X01825Y01363*
X01834*
X01842Y01366*
X01848Y01372*
X01851Y0138*
Y01389*
X01848Y01397*
X01842Y01403*
X01834Y01406*
X01825*
X01817Y01403*
X01814Y014*
X0157*
X01567Y01403*
X01559Y01406*
X01554*
X0155Y01411*
X01551Y01413*
X01559*
X01567Y01416*
X0157Y01419*
X0182*
X01825Y0142*
X0183Y01424*
X01965Y01559*
X01969Y01564*
X0197Y0157*
Y02299*
X01973Y02302*
X01976Y0231*
Y02319*
X01973Y02327*
X01967Y02333*
X01959Y02336*
G37*
G36*
X00488Y00848D02*
X0045D01*
Y0081*
X00488*
Y00848*
G37*
G36*
X0044D02*
X00401D01*
Y0081*
X0044*
Y00848*
G37*
G36*
X0055D02*
X00539D01*
X00528Y00845*
X00518Y00839*
X0051Y00831*
X00504Y00821*
X00501Y0081*
Y00799*
X00504Y00788*
X0051Y00778*
X00518Y0077*
X00528Y00764*
X00539Y00761*
X0055*
X00561Y00764*
X00571Y0077*
X00579Y00778*
X00585Y00788*
X00588Y00799*
Y0081*
X00585Y00821*
X00579Y00831*
X00571Y00839*
X00561Y00845*
X0055Y00848*
G37*
G36*
X00488Y008D02*
X0045D01*
Y00761*
X00488*
Y008*
G37*
G36*
X0044D02*
X00401D01*
Y00761*
X0044*
Y008*
G37*
G36*
X01784Y01326D02*
X01775D01*
X01767Y01323*
X01761Y01317*
X01758Y01309*
Y013*
X01761Y01292*
X01767Y01286*
X01775Y01283*
X0178*
X01942Y01121*
Y00777*
X01936Y00772*
X01933Y00764*
Y00755*
X01936Y00747*
X01942Y00741*
X0195Y00738*
X01959*
X01967Y00741*
X01973Y00747*
X01976Y00755*
Y00764*
X01973Y00772*
X01972Y00773*
Y01127*
X01971Y01133*
X01968Y01138*
X01801Y01304*
Y01309*
X01798Y01317*
X01792Y01323*
X01784Y01326*
G37*
G36*
X01502Y00704D02*
Y00673D01*
X01533*
X0153Y00682*
X01526Y0069*
X01519Y00697*
X01511Y00701*
X01502Y00704*
G37*
G36*
X01492D02*
X01483Y00701D01*
X01475Y00697*
X01469Y0069*
X01464Y00682*
X01462Y00673*
X01492*
Y00704*
G37*
G36*
X0055Y00748D02*
X00539D01*
X00528Y00745*
X00518Y00739*
X0051Y00731*
X00504Y00721*
X00501Y0071*
Y00699*
X00504Y00688*
X0051Y00678*
X00518Y0067*
X00528Y00664*
X00539Y00661*
X0055*
X00561Y00664*
X00571Y0067*
X00579Y00678*
X00585Y00688*
X00588Y00699*
Y0071*
X00585Y00721*
X00579Y00731*
X00571Y00739*
X00561Y00745*
X0055Y00748*
G37*
G36*
X0065D02*
X00639D01*
X00628Y00745*
X00618Y00739*
X0061Y00731*
X00604Y00721*
X00601Y0071*
Y00699*
X00604Y00688*
X0061Y00678*
X00618Y0067*
X00628Y00664*
X00639Y00661*
X0065*
X00661Y00664*
X00671Y0067*
X00679Y00678*
X00685Y00688*
X00688Y00699*
Y0071*
X00685Y00721*
X00679Y00731*
X00671Y00739*
X00661Y00745*
X0065Y00748*
G37*
G36*
X0045D02*
X00439D01*
X00428Y00745*
X00418Y00739*
X0041Y00731*
X00404Y00721*
X00401Y0071*
Y00699*
X00404Y00688*
X0041Y00678*
X00418Y0067*
X00428Y00664*
X00439Y00661*
X0045*
X00461Y00664*
X00471Y0067*
X00479Y00678*
X00485Y00688*
X00488Y00699*
Y0071*
X00485Y00721*
X00479Y00731*
X00471Y00739*
X00461Y00745*
X0045Y00748*
G37*
G36*
X01533Y00663D02*
X01502D01*
Y00633*
X01511Y00635*
X01519Y0064*
X01526Y00646*
X0153Y00655*
X01533Y00663*
G37*
G36*
X01492D02*
X01462D01*
X01464Y00655*
X01469Y00646*
X01475Y0064*
X01483Y00635*
X01492Y00633*
Y00663*
G37*
G36*
X01374Y01371D02*
X01365D01*
X01357Y01368*
X01351Y01362*
X01348Y01354*
Y01345*
X01351Y01337*
X01357Y01331*
X01365Y01328*
X0137*
X01564Y01134*
Y01132*
X01565Y01126*
X01568Y01121*
X01775Y00914*
X01778Y00912*
X01778Y0091*
X01645*
X01639Y00909*
X01634Y00905*
X0143Y00702*
X01423Y00704*
X01414*
X01405Y00701*
X01396Y00697*
X0139Y0069*
X01385Y00682*
X01383Y00673*
Y00664*
X01385Y00655*
X0139Y00646*
X01396Y0064*
X01405Y00635*
X01414Y00633*
X01423*
X01432Y00635*
X0144Y0064*
X01447Y00646*
X01451Y00655*
X01454Y00664*
Y00673*
X01452Y0068*
X01651Y00879*
X01872*
X01878Y0088*
X01883Y00884*
X01889Y0089*
X01892Y00895*
X01894Y009*
Y01046*
X01892Y01052*
X01889Y01057*
X01846Y01099*
X01848Y01101*
X01855Y01098*
X0186*
X01899Y01058*
Y00881*
X01801Y00783*
X01798Y00778*
X01797Y00772*
Y00701*
X0179Y00697*
X01784Y0069*
X01779Y00682*
X01776Y00673*
Y00664*
X01779Y00655*
X01784Y00646*
X0179Y0064*
X01798Y00635*
X01807Y00633*
X01817*
X01826Y00635*
X01834Y0064*
X0184Y00646*
X01845Y00655*
X01848Y00664*
Y00673*
X01845Y00682*
X0184Y0069*
X01834Y00697*
X01827Y00701*
Y00766*
X01925Y00864*
X01929Y00869*
X0193Y00875*
Y01065*
X01929Y0107*
X01925Y01075*
X01881Y01119*
Y01124*
X01878Y01132*
X01872Y01138*
X01864Y01141*
X01855*
X01847Y01138*
X01841Y01132*
X01838Y01124*
Y01115*
X01841Y01108*
X01839Y01106*
X0177Y01176*
Y01249*
X01773Y01252*
X01776Y0126*
Y01269*
X01773Y01277*
X01767Y01283*
X01759Y01286*
X0175*
X01742Y01283*
X01736Y01277*
X01733Y01269*
Y0126*
X01736Y01252*
X01739Y01249*
Y0117*
X0174Y01164*
X01744Y01159*
X01863Y01039*
Y0093*
X01861Y0093*
X01858Y00937*
X01852Y00943*
X01844Y00946*
X01835*
X01827Y00943*
X01824Y0094*
X01793*
X0163Y01102*
X01631Y01104*
X01659*
X01662Y01101*
X0167Y01098*
X01679*
X01687Y01101*
X01693Y01107*
X01696Y01115*
Y01124*
X01693Y01132*
X01687Y01138*
X01679Y01141*
X0167*
X01662Y01138*
X01659Y01135*
X01626*
X0162Y01141*
Y01289*
X01623Y01292*
X01626Y013*
Y01309*
X01623Y01317*
X01617Y01323*
X01609Y01326*
X016*
X01592Y01323*
X01586Y01317*
X01583Y01309*
Y013*
X01586Y01292*
X01589Y01289*
Y01154*
X01587Y01153*
X01391Y01349*
Y01354*
X01388Y01362*
X01382Y01368*
X01374Y01371*
G37*
G36*
X01659Y00704D02*
X0165D01*
X01641Y00701*
X01633Y00697*
X01626Y0069*
X01621Y00682*
X01619Y00673*
Y00664*
X01621Y00655*
X01626Y00646*
X01633Y0064*
X01641Y00635*
X0165Y00633*
X01659*
X01668Y00635*
X01676Y0064*
X01683Y00646*
X01688Y00655*
X0169Y00664*
Y00673*
X01688Y00682*
X01683Y0069*
X01676Y00697*
X01668Y00701*
X01659Y00704*
G37*
G36*
X0158D02*
X01571D01*
X01562Y00701*
X01554Y00697*
X01547Y0069*
X01543Y00682*
X0154Y00673*
Y00664*
X01543Y00655*
X01547Y00646*
X01554Y0064*
X01562Y00635*
X01571Y00633*
X0158*
X01589Y00635*
X01598Y0064*
X01604Y00646*
X01609Y00655*
X01611Y00664*
Y00673*
X01609Y00682*
X01604Y0069*
X01598Y00697*
X01589Y00701*
X0158Y00704*
G37*
G36*
X01344D02*
X01335D01*
X01326Y00701*
X01318Y00697*
X01311Y0069*
X01306Y00682*
X01304Y00673*
Y00664*
X01306Y00655*
X01311Y00646*
X01318Y0064*
X01326Y00635*
X01335Y00633*
X01344*
X01353Y00635*
X01361Y0064*
X01368Y00646*
X01373Y00655*
X01375Y00664*
Y00673*
X01373Y00682*
X01368Y0069*
X01361Y00697*
X01353Y00701*
X01344Y00704*
G37*
G36*
X01739Y00816D02*
X0173D01*
X01722Y00813*
X01716Y00807*
X01713Y00799*
Y0079*
X01716Y00782*
X01719Y0078*
Y00701*
X01711Y00697*
X01705Y0069*
X017Y00682*
X01698Y00673*
Y00664*
X017Y00655*
X01705Y00646*
X01711Y0064*
X0172Y00635*
X01729Y00633*
X01738*
X01747Y00635*
X01755Y0064*
X01762Y00646*
X01766Y00655*
X01769Y00664*
Y00673*
X01766Y00682*
X01762Y0069*
X01755Y00697*
X01749Y007*
Y00778*
X01753Y00782*
X01756Y0079*
Y00799*
X01753Y00807*
X01747Y00813*
X01739Y00816*
G37*
G36*
X01817Y00625D02*
Y00595D01*
X01847*
X01845Y00603*
X0184Y00611*
X01834Y00618*
X01826Y00623*
X01817Y00625*
G37*
G36*
X01502D02*
Y00595D01*
X01533*
X0153Y00603*
X01526Y00611*
X01519Y00618*
X01511Y00623*
X01502Y00625*
G37*
G36*
X01807D02*
X01798Y00623D01*
X0179Y00618*
X01784Y00611*
X01779Y00603*
X01776Y00595*
X01807*
Y00625*
G37*
G36*
X01492D02*
X01483Y00623D01*
X01475Y00618*
X01469Y00611*
X01464Y00603*
X01462Y00595*
X01492*
Y00625*
G37*
G36*
X01847Y00585D02*
X01817D01*
Y00554*
X01826Y00556*
X01834Y00561*
X0184Y00568*
X01845Y00576*
X01847Y00585*
G37*
G36*
X01533D02*
X01502D01*
Y00554*
X01511Y00556*
X01519Y00561*
X01526Y00568*
X0153Y00576*
X01533Y00585*
G37*
G36*
X01807D02*
X01776D01*
X01779Y00576*
X01784Y00568*
X0179Y00561*
X01798Y00556*
X01807Y00554*
Y00585*
G37*
G36*
X01492D02*
X01462D01*
X01464Y00576*
X01469Y00568*
X01475Y00561*
X01483Y00556*
X01492Y00554*
Y00585*
G37*
G36*
X01659Y00625D02*
X0165D01*
X01641Y00623*
X01633Y00618*
X01626Y00611*
X01621Y00603*
X01619Y00594*
Y00585*
X01621Y00576*
X01626Y00568*
X01633Y00561*
X01641Y00556*
X0165Y00554*
X01659*
X01668Y00556*
X01676Y00561*
X01683Y00568*
X01688Y00576*
X0169Y00585*
Y00594*
X01688Y00603*
X01683Y00611*
X01676Y00618*
X01668Y00623*
X01659Y00625*
G37*
G36*
X0158D02*
X01571D01*
X01562Y00623*
X01554Y00618*
X01547Y00611*
X01543Y00603*
X0154Y00594*
Y00585*
X01543Y00576*
X01547Y00568*
X01554Y00561*
X01562Y00556*
X01571Y00554*
X0158*
X01589Y00556*
X01598Y00561*
X01604Y00568*
X01609Y00576*
X01611Y00585*
Y00594*
X01609Y00603*
X01604Y00611*
X01598Y00618*
X01589Y00623*
X0158Y00625*
G37*
%LNpcb1_copper_signal_bot-3*%
%LPD*%
G36*
X01498Y02182D02*
X01497Y0218D01*
X0112*
X01114Y02179*
X01109Y02175*
X01044Y0211*
X0104Y02105*
X01039Y021*
Y0196*
X01038Y01959*
X01032Y01961*
X01023*
X01017Y01959*
X01015Y0196*
Y02093*
X01106Y02184*
X01495*
X01498Y02182*
G37*
G36*
X01039Y01102D02*
Y01091D01*
X00895Y00946*
X0089*
X00882Y00943*
X00876Y00937*
X00873Y00929*
Y0092*
X00876Y00912*
X00882Y00906*
X0089Y00903*
X00899*
X00907Y00906*
X00913Y00912*
X00916Y0092*
Y00925*
X01065Y01074*
X01069Y01079*
X01071Y01078*
Y01017*
X00934Y0088*
X0093Y00875*
X00929Y0087*
Y00845*
X00928Y00845*
X00918Y00839*
X0091Y00831*
X00904Y00821*
X00901Y0081*
Y00799*
X00904Y00788*
X0091Y00778*
X00917Y0077*
X00917Y00768*
X00872*
X00872Y0077*
X00879Y00778*
X00885Y00788*
X00888Y00799*
Y0081*
X00885Y00821*
X00879Y00831*
X00871Y00839*
X00861Y00845*
X0086Y00845*
Y00925*
X01037Y01102*
X01039Y01102*
G37*
G36*
X01141Y02112D02*
X01109Y0208D01*
X01105Y02075*
X01104Y0207*
Y00948*
X01038Y00881*
X01033*
X01025Y00878*
X01019Y00872*
X01016Y00864*
Y00855*
X01019Y00847*
X01025Y00841*
X01033Y00838*
X01042*
X0105Y00841*
X01056Y00847*
X01059Y00855*
Y0086*
X01129Y0093*
X01131Y00929*
Y00872*
X01129Y0087*
X01125Y00865*
X01124Y00859*
Y00618*
X01122Y00617*
X00975Y00764*
X0097Y00767*
X0097Y00767*
X0097Y00769*
X00971Y0077*
X00979Y00778*
X00985Y00788*
X00988Y00799*
Y0081*
X00985Y00821*
X00979Y00831*
X00971Y00839*
X00961Y00845*
X0096Y00845*
Y00863*
X01097Y01*
X011Y01005*
X01101Y01011*
Y0208*
X01136Y02114*
X0114*
X01141Y02112*
G37*
G54D17*
X0103Y01116D02*
Y01938D01*
X01055Y01085D02*
Y021D01*
X0112Y02165*
X00895Y00925D02*
X01055Y01085D01*
X01028Y0194D02*
X0103Y01938D01*
X0079Y0094D02*
X01Y0115D01*
Y021D02*
X011Y022D01*
X01Y0115D02*
Y021D01*
X00845Y00931D02*
X0103Y01116D01*
X0116Y0211D02*
X01442D01*
X0112Y0207D02*
X0116Y0211D01*
X01452Y021D02*
X01455D01*
X01442Y0211D02*
X01452Y021D01*
X01086Y02086D02*
X0113Y0213D01*
X00945Y0087D02*
X01086Y01011D01*
Y02086*
X0112Y00942D02*
Y0207D01*
X01146Y00866D02*
Y0112D01*
X0116Y01302D02*
Y01975D01*
X0114Y0061D02*
Y00859D01*
X01173Y0062D02*
X01244Y00549D01*
X0114Y00859D02*
X01146Y00866D01*
X01038Y0086D02*
X0112Y00942D01*
X0116Y01302D02*
X01173Y01288D01*
Y0062D02*
Y01288D01*
X0114Y0061D02*
X0127Y0048D01*
X00945Y0087D02*
Y00805D01*
X01244Y00549D02*
X01299D01*
X0182Y01435D02*
X01955Y0157D01*
X01555Y01435D02*
X0182D01*
X01955Y0157D02*
Y02315D01*
X01555Y01385D02*
X0183D01*
X01755Y0117D02*
X01878Y01046D01*
X01755Y0117D02*
Y01265D01*
X01575Y01345D02*
X0186D01*
X01558Y02125D02*
X01715D01*
X00845Y00805D02*
Y00931D01*
X01261Y00596D02*
Y00601D01*
X0122Y00636D02*
X01261Y00596D01*
X01264Y00593*
X0122Y00636D02*
Y00735D01*
X0125Y00765*
X01261Y0059D02*
Y00596D01*
X0125Y00765D02*
Y01065D01*
X01335Y0115*
X011Y022D02*
X01511D01*
X0112Y02165D02*
X01525D01*
X0113Y0213D02*
X0149D01*
X01525Y02165D02*
X01565Y02205D01*
X01878Y009D02*
Y01046D01*
X01812Y00772D02*
X01915Y00875D01*
X0186Y0112D02*
X01915Y01065D01*
Y00875D02*
Y01065D01*
X01812Y00668D02*
Y00772D01*
X01645Y00895D02*
X01872D01*
X01878Y009*
X01957Y00762D02*
Y01127D01*
X01955Y0076D02*
X01957Y00762D01*
X01733Y00668D02*
X01734Y00669D01*
Y00794*
X01735Y00795*
X01418Y00668D02*
X01645Y00895D01*
X01786Y00925D02*
X0184D01*
X0178Y01305D02*
X01957Y01127D01*
X01605Y01135D02*
Y01305D01*
X01579Y01132D02*
X01786Y00925D01*
X0137Y0135D02*
X01579Y0114D01*
Y01132D02*
Y0114D01*
X01255Y0142D02*
X0152D01*
X01555Y01385*
X00696Y00753D02*
X00965D01*
X01299Y00549D02*
X0134Y0059D01*
X0127Y0048D02*
X01412D01*
X00965Y00753D02*
X01258Y0046D01*
X01603*
X01335Y0115D02*
Y01315D01*
X01605Y01135D02*
X0162Y0112D01*
X01675*
X01418Y00485D02*
Y0059D01*
X01412Y0048D02*
X01418Y00485D01*
X01603Y0046D02*
X01733Y0059D01*
X00645Y00805D02*
X00696Y00753D01*
X01733Y00668D02*
X01741Y00676D01*
G54D41*
X00445Y00805D03*
G54D42*
X00545Y00805D03*
X00645D03*
X00745D03*
X00845D03*
X00945D03*
X00445Y00705D03*
X00545D03*
X00645D03*
X00745D03*
X00845D03*
X00945D03*
G54D43*
X01812Y0059D03*
X01733D03*
X01655D03*
X01576D03*
X01497D03*
X01418D03*
X0134D03*
X01261D03*
X01812Y00668D03*
X01733D03*
X01655D03*
X01576D03*
X01497D03*
X01418D03*
X0134D03*
G54D44*
X01261Y00668D03*
G54D45*
X0079Y0094D03*
X00895Y00925D03*
X0102Y0226D03*
X01028Y0194D03*
X01146Y0112D03*
X0116Y01975D03*
X0183Y01385D03*
X01755Y01265D03*
X01575Y01345D03*
X01558Y02125D03*
X01038Y0086D03*
X01511Y022D03*
X01565Y02205D03*
X0149Y0213D03*
X01955Y0076D03*
X01735Y00795D03*
X0184Y00925D03*
X0178Y01305D03*
X01605D03*
X01715Y02125D03*
X01955Y02315D03*
X0137Y0135D03*
X01555Y01435D03*
Y01385D03*
X01255Y0142D03*
X01455Y021D03*
X0186Y0112D03*
Y01345D03*
X01335Y01315D03*
X01675Y0112D03*
M02*