%FSTAX23Y23*%
%MOIN*%
%SFA1B1*%

%IPPOS*%
%ADD27R,0.059181X0.043433*%
%ADD28R,0.067055X0.041464*%
%ADD29R,0.169291X0.047244*%
%ADD30R,0.641731X0.129921*%
%ADD31R,0.405511X0.251968*%
%ADD32R,0.022047X0.062992*%
%ADD33R,0.173228X0.149606*%
%ADD34R,0.059055X0.047244*%
%ADD35R,0.074929X0.074929*%
%ADD36C,0.074929*%
%ADD37C,0.059181*%
%ADD38R,0.059181X0.059181*%
%ADD39C,0.031622*%
%ADD40C,0.031653*%
%LNpcb1_soldermask_top-1*%
%LPD*%
G54D27*
X01455Y02185D03*
Y0226D03*
X01865Y00985D03*
Y0106D03*
X0186Y02375D03*
Y0245D03*
Y0226D03*
Y02185D03*
X01295Y01065D03*
Y0099D03*
X0148Y00995D03*
Y0107D03*
X01245Y012D03*
Y01275D03*
Y02185D03*
Y0226D03*
G54D28*
X0148Y01265D03*
Y01186D03*
X0167Y01055D03*
Y00976D03*
X0145Y0246D03*
Y02381D03*
X0166Y02186D03*
Y02265D03*
Y02455D03*
Y02376D03*
X0114Y0106D03*
Y00981D03*
X0168Y01265D03*
Y01186D03*
X0186Y01275D03*
Y01196D03*
G54D29*
X00839Y01395D03*
X00492D03*
G54D30*
X01517Y01777D03*
G54D31*
X01517Y01777D03*
G54D32*
X01734Y01511D03*
X01709D03*
X01683D03*
X01657D03*
X01632D03*
X01606D03*
X01581D03*
X01555D03*
X01529D03*
X01504D03*
X01478D03*
X01453D03*
X01427D03*
X01401D03*
X01376D03*
X0135D03*
X01325D03*
X01299D03*
X01734Y02042D03*
X01709D03*
X01683D03*
X01657D03*
X01632D03*
X01606D03*
X01581D03*
X01555D03*
X01529D03*
X01504D03*
X01478D03*
X01453D03*
X01427D03*
X01401D03*
X01376D03*
X0135D03*
X01325D03*
X01299D03*
G54D33*
X00861Y01807D03*
X00468D03*
X00861Y02082D03*
X00468D03*
X00861Y02357D03*
X00468D03*
G54D34*
X01841Y0086D03*
X01698D03*
X01561D03*
X01418D03*
G54D35*
X00445Y00805D03*
G54D36*
X00545Y00805D03*
X00645D03*
X00745D03*
X00845D03*
X00945D03*
X00445Y00705D03*
X00545D03*
X00645D03*
X00745D03*
X00845D03*
X00945D03*
G54D37*
X01812Y0059D03*
X01733D03*
X01655D03*
X01576D03*
X01497D03*
X01418D03*
X0134D03*
X01261D03*
X01812Y00668D03*
X01733D03*
X01655D03*
X01576D03*
X01497D03*
X01418D03*
X0134D03*
G54D38*
X01261Y00668D03*
G54D39*
X0079Y0094D03*
X00895Y00925D03*
G54D40*
X0102Y0226D03*
X01028Y0194D03*
X01146Y0112D03*
X0116Y01975D03*
X0183Y01385D03*
X01755Y01265D03*
X01575Y01345D03*
X01558Y02125D03*
X01038Y0086D03*
X01511Y022D03*
X01565Y02205D03*
X0149Y0213D03*
X01955Y0076D03*
X01735Y00795D03*
X0184Y00925D03*
X0178Y01305D03*
X01605D03*
X01715Y02125D03*
X01955Y02315D03*
X0137Y0135D03*
X01555Y01435D03*
Y01385D03*
X01255Y0142D03*
X01455Y021D03*
X0186Y0112D03*
Y01345D03*
X01335Y01315D03*
X01675Y0112D03*
M02*