M48
;Layer_Color=9474304
;FILE_FORMAT=4:4
METRIC,LZ
;TYPE=PLATED
T01F00S00C0.3000
T02F00S00C0.7500
T03F00S00C1.1000
%
T01
X0020066Y0023876
X0022733Y0023495
X00263665Y00218475
X0029129Y0028448
X0033909Y0033401
X0034798Y003429
X0031877Y0036068
X0039497Y0036449
Y0035179
X0040005Y0034163
X0040767Y0033147
X0045212
X0044577Y0032131
X0047244Y0034163
X0046482Y0035179
X0047244Y0028448
X0042545
X0046736Y0023495
X0044069Y0020193
X0049657Y0019304
Y0058801
X0043561Y0053975
X0039751Y0056007
X0038389Y005588
X0037846Y0054102
X0036957Y005334
X00395795Y0053975
X0029464Y0050165
X0026116Y0049276
X0025908Y0057404
T02
X0032037Y0014986
Y0016986
X0034037
Y0014986
X0036037Y0014986
X0038037
Y0016986
X0036037
X0040037
X0040037Y0014986
X0042037
X0044037
X0046037
Y0016986
X0044037Y0016986
X0042037Y0016986
T03
X0011303Y0017907
X0013843Y0017907
X0016383Y0017907
X0018923
Y0020447
X0021463
X0021463Y0017907
X0024003Y0017907
Y0020447
X0016383Y0020447
X0013843Y0020447
X0011303Y0020447
M30
